<svg xmlns="http://www.w3.org/2000/svg" width="282.421" height="299.508" viewBox="0 0 282.421 299.508">
  <g id="Grupo_17691" data-name="Grupo 17691" transform="translate(-150.438 -393.393)">
    <path id="Trazado_37499" data-name="Trazado 37499" d="M1358.123,1199.81l11.269,66.824-23.292,10.245-11.954-49.191,5.326-21.884,2.885-10.273Z" transform="translate(-945.128 -640.464)" fill="#c5001b"/>
    <path id="Trazado_37500" data-name="Trazado 37500" d="M990.954,1229.547l-.486-.852,8.5-6.355.232.648.5-.528,2.066-2.209,10.041-7.5,8.337-16.905V1168.98l-8.105-16.905,36.358,4.169-3.122-6.4,23.732,5.47-1.051,3.738-2.885,10.273-5.326,21.884,11.954,49.192,6.109,25.145-15.668,9.726-11.426-33.653-6.484,3.084,4.168,10.5-9.416,4.553-6.484-16.826-3.784,8.258,6.563,25.631-13.126,7.716-18.021-31.772Zm65-25.9-23.774-36.2-1.968,7.1,23.274,45.737ZM1005.3,1229.32l1.329-1.751-1.927-1.39-8.263,4.789-.185.834-.51,2.33,2.853-.635,4.252-.95Z" transform="translate(-670.719 -603.988)" fill="#134235"/>
    <path id="Trazado_37501" data-name="Trazado 37501" d="M1189.621,1237.123l23.774,36.2-2.469,16.632-23.274-45.737Z" transform="translate(-828.161 -673.673)" fill="#107253"/>
    <path id="Trazado_37502" data-name="Trazado 37502" d="M1063.883,1098.317l-4.27-2.622,2.075-5.479,6.248,4.521,32.541,7.5,3.122,6.4-36.358-4.169-1.63-3.39v0l-1.148-2.395Z" transform="translate(-725.927 -556.376)" fill="#107253"/>
    <path id="Trazado_37503" data-name="Trazado 37503" d="M1057.955,1680.358l-10.43-18.619,2.154-1.269,18.021,31.772h-3.085Z" transform="translate(-716.277 -1011.693)" fill="#107253"/>
    <path id="Trazado_37504" data-name="Trazado 37504" d="M1064.869,1164.375v26.863l-8.337,16.905-10.041,7.5,10.351-11.051,6.79-15.344-.616-26.418-7.883-18.753,1.63,3.39Z" transform="translate(-715.451 -599.383)" fill="#9a0014"/>
    <path id="Trazado_37505" data-name="Trazado 37505" d="M997.435,1148.915l6.266-7.035v-11.472l.579.357,1.149,2.395v0l7.883,18.753.616,26.418-6.79,15.344-10.352,11.051-2.242,1.677-2.154-6.4-5.711-26.053-2.441-18.79,11.935-4.831Z" transform="translate(-665.747 -588.466)" fill="#c5001b"/>
    <path id="Trazado_37506" data-name="Trazado 37506" d="M1038.571,1666.766l10.43,18.619h-3.724l-8.967-17.289Z" transform="translate(-707.323 -1016.721)" fill="#9a0014"/>
    <path id="Trazado_37507" data-name="Trazado 37507" d="M1006.436,1120.022v11.472l-6.266,7.035L988.257,1143l-.593.079,4.548-9.384-.032-.032,6.5-7.031,3.487-9.231Z" transform="translate(-668.481 -578.082)" fill="#51a976"/>
    <path id="Trazado_37508" data-name="Trazado 37508" d="M1038.186,744.456l2.584,6.137-2.584.695-5.345-12.811h3.414v-7.258h-.843l.033-.079-1.274-2.779-.347-3.034,1.621,3.5v-1.232l1.056.537.8,3.784h1.079l-.848-3.937.871-.449,1.561,3.034Zm-.736-5.285-.537-.695-.658,3.011.658,1Z" transform="translate(-704.552 -265.032)" fill="#0b5e44"/>
    <path id="Trazado_37509" data-name="Trazado 37509" d="M939.309,526.813l.528-1.8-4.247-4.784-1.677-8.184,2.015.926V510.2l-3.733-2.779-.922-1.945,1.376-1.876,1.9-1.621,4.118-.468.977-.111,8.105,7.989v5.674l2.895,5.326,2.663-1.158,3.937,11.232-2.084,1.274,1.158,2.779,3.358,2.547-1.39.695-2.881-1.737v1.7l-1.056-.662-2.431,5.271,2.431,4.8v2.895l-1.621-3.5.347,3.034-1.056.181-1.375-8.054-3.182-4.71.329,2.242-1.241.352-1.811-6.373-5.674-5.558Zm13.969,1.524V527.1l-4.567-.695-6.252-12.348H941.3l4.173,8.355H944.7l-2.937-4.113v1.621l5.326,7.568Zm-3.793-7.874-5.743-11.269-3.6-3.552-.537,1.079,2.853,2.779,5.789,10.963Zm-9.879-9.263-3.168-7.258-1.153.806,3.626,6.915Z" transform="translate(-623.455 -86.234)" fill="#51a976"/>
    <path id="Trazado_37510" data-name="Trazado 37510" d="M1029.543,1529.958l-1.329,1.751-.676-.514-.31-.774-6.947,4.016-1.111-.246.185-.834,8.263-4.789Z" transform="translate(-693.635 -906.377)" fill="#107253"/>
    <path id="Trazado_37511" data-name="Trazado 37511" d="M1048.348,1074.621l-2.075,5.479-.051-.032-3.316-9.383Z" transform="translate(-712.589 -540.781)" fill="#107253"/>
    <path id="Trazado_37512" data-name="Trazado 37512" d="M1037.179,679l3.112,1.945-3.112,5.382.5.963-1.01.519-.542.6-2.432-4.8,2.432-5.271Z" transform="translate(-705.231 -227.512)" fill="#51a976"/>
    <path id="Trazado_37513" data-name="Trazado 37513" d="M1036.911,1542.112l-2.45,3.228-4.252.949-.148-.676,6.174-4.016Z" transform="translate(-702.332 -916.781)" fill="#107253"/>
    <path id="Trazado_37514" data-name="Trazado 37514" d="M1031.631,1537.761l.31.773-6.174,4.016-1.084-.773Z" transform="translate(-698.039 -913.717)" fill="#0a3429"/>
    <path id="Trazado_37515" data-name="Trazado 37515" d="M1050.857,725.473l-.871.449-1.542-2.649,1.01-.519Z" transform="translate(-717.011 -262.978)" fill="#0b5e44"/>
    <path id="Trazado_37516" data-name="Trazado 37516" d="M1047.84,727.978l.848,3.937h-1.079l-.8-3.784-1.056-.537V725.93l.542-.6Z" transform="translate(-714.864 -265.033)" fill="#0a3429"/>
    <path id="Trazado_37517" data-name="Trazado 37517" d="M992.368,1079.806l-3.487,9.231-6.5,7.031-6.989-7.767,11.519-12.927,1.991-5.058.1.074,3.316,9.383Z" transform="translate(-658.683 -540.487)" fill="#008459"/>
    <path id="Trazado_37518" data-name="Trazado 37518" d="M1015.4,778.458l-1.042-6.035,1.464-1.39,1.3,3.108v.829h.347l5.345,12.811-1.121,10.653-4.863,12.968.069.523-3.312-3.034.167-.773,3.367-15.317-1.3-11.889Z" transform="translate(-689.177 -301.526)" fill="#107253"/>
    <path id="Trazado_37519" data-name="Trazado 37519" d="M985.193,1545.275l13.167,23.218-2.154,1.269-12.954-23.121Z" transform="translate(-664.958 -919.716)" fill="#51a976"/>
    <path id="Trazado_37520" data-name="Trazado 37520" d="M1050.435,790.566l.537.695-.537,3.316-.658-1Z" transform="translate(-718.075 -317.122)" fill="#a9cfc3"/>
    <path id="Trazado_37521" data-name="Trazado 37521" d="M1034.879,757.415v4.4h-3.413l-.347-.829v-3.5h1.677l1.241-2.932h.843Z" transform="translate(-703.176 -288.371)" fill="#0a3429"/>
    <path id="Trazado_37522" data-name="Trazado 37522" d="M997.325,1222.232l-1.26,1.417-11.935,4.831-.028-.218.718-1.482.593-.079Z" transform="translate(-665.637 -661.784)" fill="#7b000d"/>
    <path id="Trazado_37523" data-name="Trazado 37523" d="M990.464,1575.174l-2.26,1.329-12.144-23.431,1.45-1.019Z" transform="translate(-659.215 -925.129)" fill="#9a0014"/>
    <path id="Trazado_37524" data-name="Trazado 37524" d="M1037.611,1499.155l-2.066,2.209-.176-.533Z" transform="translate(-706.571 -882.892)" fill="#134235"/>
    <path id="Trazado_37525" data-name="Trazado 37525" d="M1017.193,712.046l-1.241,2.932h-1.676v-.75l-1.992-.408-.37-2.172-1.575-9.231-.315-1.1,1.89,1.1.662-.4.1.167,1.158,7,1.079.259-.014-.079,1.056-.181,1.274,2.779Z" transform="translate(-686.333 -245.859)" fill="#51a976"/>
    <path id="Trazado_37526" data-name="Trazado 37526" d="M1030.878,1042.526l.06.171-.037.1-2.908-2.1,2.019-4.844Z" transform="translate(-700.681 -512.965)" fill="#107253"/>
    <path id="Trazado_37527" data-name="Trazado 37527" d="M975.014,1061.986l-1.992,5.058L961.5,1079.97,958,1076.08l11.319-9.5,2.788-6.7Z" transform="translate(-644.794 -532.157)" fill="#107253"/>
    <path id="Trazado_37528" data-name="Trazado 37528" d="M993,577.263V578.5l-6.188-.848-5.326-7.568v-1.621l2.936,4.113h.774l-4.173-8.355h1.158l6.253,12.348Z" transform="translate(-663.178 -136.397)" fill="#e4f1ee"/>
    <path id="Trazado_37529" data-name="Trazado 37529" d="M969.207,1020.307l-2.788,6.7-11.319,9.5-.732-.815.593-5.826,1.5-.889,8.453-7.526,5.651-11.13.662,5.146Z" transform="translate(-641.895 -492.581)" fill="#008459"/>
    <path id="Trazado_37530" data-name="Trazado 37530" d="M975.36,1582.045l-1.121-5.271-3.738-17.558-.394-1.853,1.2-.255,12.144,23.431-7.475,4.4Z" transform="translate(-654.463 -929.165)" fill="#e50019"/>
    <path id="Trazado_37531" data-name="Trazado 37531" d="M1033.186,1507.474l.176.533-.5.528-.232-.649Z" transform="translate(-704.387 -889.534)" fill="#134235"/>
    <path id="Trazado_37532" data-name="Trazado 37532" d="M990.557,1298.074l2.154,6.4-.551.412-3.724-10.4-5.326-27.674-1.167-12.9.292-.607.171-.069,2.441,18.79Z" transform="translate(-663.912 -686.535)" fill="#9a0014"/>
    <path id="Trazado_37533" data-name="Trazado 37533" d="M968.651,958.72l3.312,3.034.949,7.336-5.651,11.13-8.453,7.526-1.5.889.778-7.707,6.4-7.73,4.127-14.515Z" transform="translate(-644.243 -451.354)" fill="#0b5e44"/>
    <path id="Trazado_37534" data-name="Trazado 37534" d="M1016.143,690.71l.014.079-1.079-.259-1.158-7-.1-.167-1.908-3.173-.329-2.242,3.182,4.71Z" transform="translate(-687.581 -227.2)" fill="#134235"/>
    <path id="Trazado_37535" data-name="Trazado 37535" d="M1031.118,786.453l.347.829h-.347Z" transform="translate(-703.176 -313.838)" fill="#107253"/>
    <path id="Trazado_37536" data-name="Trazado 37536" d="M924.551,1254.733l1.167,12.9,5.326,27.674,3.724,10.4-8.5,6.355-1.9,1.422.449.8-1.45,1.019-1.2.255-1.427-6.7-8.916-36.01-1.76-16.678.023,0v-1.737l14.279-.116.144-.056Zm-.838,33.477.384-3.668-4.247-1.737-1.968,2.821,2.242,3.126Zm-5.637-26.479v-2.895L915.3,1257.1l-2.2,1.39-.269,2.589,2.737,2.158Z" transform="translate(-606.52 -687.36)" fill="#e50019"/>
    <path id="Trazado_37537" data-name="Trazado 37537" d="M995.707,739.289v3.5l-1.3-3.108-1.464,1.39,1.042,6.035-1.89-2.334-5.331-8.314L988,731.762l5.34,4.2.37,2.172,1.992.408Z" transform="translate(-667.765 -270.17)" fill="#008459"/>
    <path id="Trazado_37538" data-name="Trazado 37538" d="M996.7,820.049l1.3,11.889-3.367,15.317-.208.736-4.784-4.382,1.7-8.7h-1.4l2.561-13.084Z" transform="translate(-670.059 -340.662)" fill="#51a976"/>
    <path id="Trazado_37539" data-name="Trazado 37539" d="M1019.346,1557.485l.148.676-2.853.635.51-2.33,1.112.246Z" transform="translate(-691.617 -928.651)" fill="#107253"/>
    <path id="Trazado_37540" data-name="Trazado 37540" d="M922.821,804.615l-1.491,7.61-1.376,7.012-1.4.218V809.436l1.158-.824-.394-9.254,1.01-1.111.463-4.243-2.39-2.084-4.632-2.168-8.184-3.835,6.554-.1-1.978-2.005,3.529-.676,4.4,4.062,6.137-2.033-2.432-2.9,3.168-.157,2.316,2.858,1.89,2.334.421,2.455-4.205,1.774Z" transform="translate(-602.943 -310.37)" fill="#a9cfc3"/>
    <path id="Trazado_37541" data-name="Trazado 37541" d="M1010.208,692.24l-.662.4-1.89-1.1-.6-2.117,1.241-.352Z" transform="translate(-683.966 -236.08)" fill="#51a976"/>
    <path id="Trazado_37542" data-name="Trazado 37542" d="M976.749,526.02l5.743,11.269h-1.237l-5.789-10.963-2.853-2.779.537-1.079Z" transform="translate(-656.463 -103.059)" fill="#a9cfc3"/>
    <path id="Trazado_37543" data-name="Trazado 37543" d="M962.726,689.959l1.575,9.231-5.34-4.2-5.248-1.3v-1.255h-3.321v-.857h6.174l-.537-1.626h-3.691l-.171-1.153,2.395-1.973,2.469.4v-1.524l5.382,3.145Z" transform="translate(-638.721 -233.401)" fill="#a9cfc3"/>
    <path id="Trazado_37544" data-name="Trazado 37544" d="M961.836,956.994l.25-2.436,1.658-1.422,2.052-10.5,1.111-5.7,4.784,4.381-4.127,14.515-6.4,7.73Z" transform="translate(-647.326 -433.997)" fill="#107253"/>
    <path id="Trazado_37545" data-name="Trazado 37545" d="M895.8,738.105l5.331,8.314-2.316-2.858-3.168.157,2.432,2.9-6.137,2.033-4.4-4.062-3.529.676,1.978,2.005-6.554.1-3.01-1.408-3.589-3.863,5.326-1.014-4.942-4.122,7.318-.19,4.525-2.941Z" transform="translate(-576.797 -271.821)" fill="#e4f1ee"/>
    <path id="Trazado_37546" data-name="Trazado 37546" d="M852.116,1210.382l-14.506-1.783.894-4.8,11.408,4.039,16.863-3.705,5.595-6.053.032.032-4.548,9.384-1.362.181-14.256,1.9v.82Z" transform="translate(-548.67 -642.501)" fill="#008459"/>
    <path id="Trazado_37547" data-name="Trazado 37547" d="M868.921,1159.545l6.989,7.767-5.595,6.053-16.864,3.705-11.407-4.039,1.626-8.726,3.538.838,17.137-.463Z" transform="translate(-552.211 -611.731)" fill="#146c50"/>
    <path id="Trazado_37548" data-name="Trazado 37548" d="M961.813,634.981l.6,2.117-5.382-3.145-3.01-.1-3.627-12.968,4.182,1.334-.245.829L960,628.608Z" transform="translate(-638.721 -181.642)" fill="#a9cfc3"/>
    <path id="Trazado_37549" data-name="Trazado 37549" d="M986.606,893.766l-1.7,8.7-1.195-1.093,1.491-7.61Z" transform="translate(-665.325 -399.521)" fill="#0a3429"/>
    <path id="Trazado_37550" data-name="Trazado 37550" d="M945.475,726.625l-1.237,4.692L933.5,727.042l.019-.009h4.187v-.908h-2.455v-.8h4.974Z" transform="translate(-625.235 -265.033)" fill="#a9cfc3"/>
    <path id="Trazado_37551" data-name="Trazado 37551" d="M982.927,1541.047l.486.852-1.941,1.366-.449-.8Z" transform="translate(-663.178 -916.34)" fill="#51a976"/>
    <path id="Trazado_37552" data-name="Trazado 37552" d="M968.85,1567.565l3.738,17.558-.787.046-3.761-15.682.38-1.83Z" transform="translate(-652.812 -937.514)" fill="#9a0014"/>
    <path id="Trazado_37553" data-name="Trazado 37553" d="M979.457,932.614l-1.112,5.7-1.459.222,1.376-7.012Z" transform="translate(-659.876 -429.667)" fill="#0a3429"/>
    <path id="Trazado_37554" data-name="Trazado 37554" d="M982.27,1244.8l-.718,1.482-.144.287-.334.139-.144-1.565-.023-.162Z" transform="translate(-663.087 -679.801)" fill="#7b000d"/>
    <path id="Trazado_37555" data-name="Trazado 37555" d="M954.866,1577.1l3.761,15.683-7.086.4Z" transform="translate(-639.638 -945.128)" fill="#e50019"/>
    <path id="Trazado_37556" data-name="Trazado 37556" d="M983.534,1252.151l.028.218-.171.069Z" transform="translate(-665.068 -685.673)" fill="#9a0014"/>
    <path id="Trazado_37557" data-name="Trazado 37557" d="M969.429,965.209,967.377,975.7l-1.658,1.422.037-.38,2.214-11.315Z" transform="translate(-650.959 -456.565)" fill="#0a3429"/>
    <path id="Trazado_37558" data-name="Trazado 37558" d="M982.069,1253.576l-.292.607-.042-.468Z" transform="translate(-663.747 -686.81)" fill="#9a0014"/>
    <path id="Trazado_37559" data-name="Trazado 37559" d="M933.176,688.421l-.463.375-6.1-1.339,4.229-2.228h0l3.187,1.218,1-1.218,3.01.1v1.524l-2.469-.4Z" transform="translate(-619.731 -233.016)" fill="#c7ddde"/>
    <path id="Trazado_37560" data-name="Trazado 37560" d="M924.457,1245.856l.144,1.566-.144.056-14.279.116,14.256-1.9Z" transform="translate(-606.612 -680.517)" fill="#7b000d"/>
    <path id="Trazado_37561" data-name="Trazado 37561" d="M963.734,706.784l.537,1.626h-4.145v-1.047l-.083-.579Z" transform="translate(-646.427 -250.226)" fill="#51a976"/>
    <path id="Trazado_37562" data-name="Trazado 37562" d="M945,829.632l-.533.588v-5.4l-.764-.361-5.951-2.825,1.334-.824.366-.778,4.632,2.168,2.39,2.084-.463,4.242Z" transform="translate(-628.63 -340.644)" fill="#0a3429"/>
    <path id="Trazado_37563" data-name="Trazado 37563" d="M955.068,1397.6l-.384,3.668-3.59.542-2.242-3.126,1.968-2.821Zm-1.816,2.473-.092-1.084-1.315.231.523.852Zm-.519-1.621.347-.718-.945-.269-.176.987Z" transform="translate(-637.491 -800.419)" fill="#fff"/>
    <path id="Trazado_37564" data-name="Trazado 37564" d="M927.266,966.53l1.4-.218-2.214,11.315-.037.38-9.921,8.5v-5.975l5.618-3.14,3.761-10.653Z" transform="translate(-611.658 -457.445)" fill="#008459"/>
    <path id="Trazado_37565" data-name="Trazado 37565" d="M925.633,857.25l-2.256,1.607-2.723-7.239,1.042-2.158h-2.932l-2.51.653-.445.046-1.357-3.867,10.648-4.3.764.361v5.405l.533-.588.394,9.254Z" transform="translate(-610.025 -358.184)" fill="#0b5e44"/>
    <path id="Trazado_37566" data-name="Trazado 37566" d="M875.361,1144.133l-4.576,5.136-17.137.463-3.538-.838,1.042-5.572,13.807,2.7,6.9-5.785Z" transform="translate(-558.651 -596.319)" fill="#073026"/>
    <path id="Trazado_37567" data-name="Trazado 37567" d="M663.676,535.722l-1.779,2.839-.458-3.622-.811-2.853-.616,2.316L660.62,537l-2.422-3.965-.963.866,1.658,5.817-2.742.32-1.223-1.7-1.3.306.338.866-2.135-1.542-8.9.44,5.312-8.717-9.495-6.331-1.371,2.2-2.566-3.01-3.529,1.968.435-9.249,4.52-6.419,11.273-3.552-1.584-2.316,2.533-1.079,1.519,2.005,2.584-1.422,3.589-1.973,1.7,1.7,11.116-1.7-3.242-2.932,24.237,1.079,1.783,3.765.922,1.945,3.733,2.779v2.779L694.384,509l1.677,8.184,4.247,4.784-.528,1.8-4.182-1.334,3.626,12.968-1,1.218-3.187-1.218,1.024-.537-2.547-1.084,2.885-1.7-5.257-3.552-4.576,1.158V527.3l-5.637,1.237-7.772,5.312-2.325,1.589-1.866-1.959-1.005.926,1.005,1.464h-1.478l-1.843-4.474h-1.389l.815,2.1Z" transform="translate(-383.926 -83.188)" fill="#dcede9"/>
    <path id="Trazado_37568" data-name="Trazado 37568" d="M952.326,514.034l3.168,7.258-.695.463-3.626-6.915Z" transform="translate(-639.344 -96.325)" fill="#134235"/>
    <path id="Trazado_37569" data-name="Trazado 37569" d="M918.129,1322.66l.394,1.853-.431.093-.959-.6-9.81-40.934-2.316-19.8.014-.116,1.005.111,1.76,16.678,8.916,36.01Z" transform="translate(-602.484 -694.461)" fill="#9a0014"/>
    <path id="Trazado_37570" data-name="Trazado 37570" d="M965.012,1411.375l.093,1.084h-.885l-.523-.852Z" transform="translate(-649.344 -812.804)" fill="#c5001b"/>
    <path id="Trazado_37571" data-name="Trazado 37571" d="M797.474,895.377V905.4l-1.39.213-3.761,10.652-5.618,3.14V915.45l-16.558,3.474L756.716,909.2l-1.177.343-1.6-2.214h2.774l-1.482-2.538,2.992-3.251,1.732,1.491v2.08l6.378,5.326h11.57l11.31-4.942,3.395-10.94-.9-2.774.787-2.033,2.723,7.239Z" transform="translate(-481.866 -396.311)" fill="#e4f1ee"/>
    <path id="Trazado_37572" data-name="Trazado 37572" d="M966.126,1565.657l-.38,1.829-.579-2.427Z" transform="translate(-650.518 -935.514)" fill="#9a0014"/>
    <path id="Trazado_37573" data-name="Trazado 37573" d="M965.392,1404.083l-.347.718h-.773l.176-.986Z" transform="translate(-649.803 -806.768)" fill="#c5001b"/>
    <path id="Trazado_37574" data-name="Trazado 37574" d="M877.012,1531.042l-2.219,10.722-8.916,5.539,12.834-32.5-10.81-8.7-9.7-6.4.287-.431,21.273,13.26.579,2.427Z" transform="translate(-565.11 -882.984)" fill="#9a0014"/>
    <path id="Trazado_37575" data-name="Trazado 37575" d="M685.8,415.272l-4.118.468-1.9,1.621-1.376,1.876-1.783-3.765-24.237-1.079,3.242,2.932-11.116,1.7-1.7-1.7-3.589,1.973-3.395-4.9-9.666-2.01L616.143,416.9l-.982-.824,1.408-1.681,4.474-2.7L620.2,410.3l-4.863,3.321-.759-.847,6.808-6.1,5.294-.565-5.322,2.223.616,1.431,5.79-2.626,6.41,1.311,3.548,2.473,3.3.95,1.792.514h6.179v-.848l-6.179-.232-.153-1.079,10.245.245,9.129.218,3.011,2.237H666.9l-5.016-4.247-7.73-.848-9.407-4.632-6.253-6.406h-6.484l.079.848,5.789.232,6.174,6.253,9.11,4.321-.232,1.084-13.589-5.484-3.395-3.316-9.879-.389-4.094,2.473-1.019-.7,3.992-5.826,11-2.895,5.211,1.621,4.632.116-1.274-1.737h8.916l9.726,8.105,11.579,4.4,6.6,5.095V409.14l2.316,2.547v1.547Zm-7.091-.111.852-.305-5.484-3.631-3.858-4.242-7.874-2.126v.889l2.052.625-.278.917v1.237l7.721,4.4V412l.871-.755.519.6Zm-22.695-10.305.774-1.042-8.721-6.1-.926.769Z" transform="translate(-370.587)" fill="#008459"/>
    <path id="Trazado_37576" data-name="Trazado 37576" d="M878.449,839.069l-3.3.352-1.959-1.482-2.408.333-1.723.241-.241-1.945,13.895-8.592,5.951,2.825-10.648,4.3,1.357,3.867Z" transform="translate(-573.586 -346.992)" fill="#4ea980"/>
    <rect id="Rectángulo_4267" data-name="Rectángulo 4267" width="3.321" height="1.255" transform="translate(311.671 459.04)" fill="#51a976"/>
    <path id="Trazado_37577" data-name="Trazado 37577" d="M926.418,1024.335l-.25,2.436-8.2,8.068-1.468.273v-2.274Z" transform="translate(-611.658 -503.773)" fill="#124034"/>
    <path id="Trazado_37578" data-name="Trazado 37578" d="M723.324,1223.191l17.378,5.664,4.52.514,13.788,1.57-.014.116,2.316,19.8,9.81,40.933-21.273-13.26-18.837-23.116-8.874-32.606Z" transform="translate(-456.473 -662.243)" fill="#c5001b"/>
    <path id="Trazado_37579" data-name="Trazado 37579" d="M788.834,1044.763l1.468-.273,8.2-8.068-.667,6.577-6.628,8.017-14.918,2.469-19.684-7.938.695-7.54,7.563,3.937,11.231,5.21Z" transform="translate(-483.994 -513.424)" fill="#008459"/>
    <path id="Trazado_37580" data-name="Trazado 37580" d="M790.072,1077.069l6.628-8.017-.778,7.707-8.457,5.016H776.233l-13.547-1.621-7.5-5.41.287-3.145,19.684,7.938Z" transform="translate(-482.857 -539.478)" fill="#134235"/>
    <path id="Trazado_37581" data-name="Trazado 37581" d="M932.623,707.363v1.047h-2.029v2.112h-1.653v.8H931.4v.908h-4.187l-.019.009-1.051-.417-.542-.491,3.344-3.705,3.335-.838h.264Z" transform="translate(-618.924 -250.226)" fill="#51a976"/>
    <path id="Trazado_37582" data-name="Trazado 37582" d="M897.948,701.062l.171,1.153h-.264l-3.335.838-3.344,3.705-.445.491-3.589,2.376h-4.655l3.557-.871,4.456-2.719,3.2-4.1,1.265-.181,2.376-.19.519-.042-.37-.083Z" transform="translate(-584.503 -245.657)" fill="#0a3429"/>
    <path id="Trazado_37583" data-name="Trazado 37583" d="M457.861,1296.326l-1.834,4.65H436l-.81,18.989-15.766-.305,1.255-30.911-13.589,2.038v21.768l-16.363,12.352-2.779-26.4-3.2-13.529-2.2-9.319L376,1262.8l-6.892-13.542-12.042-11.426-.056-.815-1.64-24.042-7.114-9.662-1.07-1.454,17.368-6.785v5.743l56.014-15.882.259,2.723.8,4.539,4.451,25.409,12.042,23.158,12.065,7.957,9.7,6.4,10.81,8.7Zm8.7-32.671-3.974-4.668h-5.947l-2.158,3.163v3.858l3.626,3.631,6.91-.5Zm-51.7,12.774,2.256-64.531-8.184-5.826-4.595,72.159Z" transform="translate(-157.093 -632.006)" fill="#134235"/>
    <path id="Trazado_37584" data-name="Trazado 37584" d="M956.678,703.007l-.519.042.148-.125Z" transform="translate(-643.326 -247.144)" fill="#000904"/>
    <path id="Trazado_37585" data-name="Trazado 37585" d="M875.252,1113.116l.732.815-6.9,5.785-13.807-2.7.875-4.706h11.232l8.457-5.016Z" transform="translate(-562.78 -570.008)" fill="#134235"/>
    <path id="Trazado_37586" data-name="Trazado 37586" d="M855.269,692.26l3.877-.986,4.585,1.01,6.1,1.339-.148.125-2.376.19-5.535-1.315-2.747-.653-5.442,1.621-.574.491-4,3.386h-1.158l5.382-4.687Z" transform="translate(-556.853 -237.841)" fill="#000904"/>
    <path id="Trazado_37587" data-name="Trazado 37587" d="M902.461,654.7l-2.885,1.7-1.769-.75-8.448.982.218-.824,2.742-1.607.31-1.89,4.576-1.158Z" transform="translate(-589.989 -205.806)" fill="#a9cfc3"/>
    <path id="Trazado_37588" data-name="Trazado 37588" d="M895.8,674.214l2.547,1.084-1.024.537h0l-4.229,2.228-4.585-1.01-3.877.987.954-3.594,8.448-.982Z" transform="translate(-586.21 -223.622)" fill="#008459"/>
    <path id="Trazado_37589" data-name="Trazado 37589" d="M916.981,881.116l-.185-1.079.908-.236.422-.111,2.51-.653h2.932l-1.042,2.158-2.779,1.778-1.908,3.77-.523-2.024-.13-1.7.13-.046v-1.547l-.292-.051Z" transform="translate(-611.896 -387.761)" fill="#00160f"/>
    <path id="Trazado_37590" data-name="Trazado 37590" d="M929.029,1270.065v2.9l-2.51,1.505-2.737-2.158.269-2.589,2.2-1.389Zm-1.871,2.45-.1-1.366-1.042.25.1,1.255Zm-.385-1.737v-1.135l-1.255.115v1.019Z" transform="translate(-617.474 -698.589)" fill="#fff"/>
    <path id="Trazado_37591" data-name="Trazado 37591" d="M892.382,796.431l-1.737-2.418,3.01,1.408,8.184,3.835-.366.778-1.334.824-6.947-3.3Z" transform="translate(-591.017 -319.874)" fill="#0a3429"/>
    <path id="Trazado_37592" data-name="Trazado 37592" d="M815.541,899.833l.9,2.774-3.4,10.94-11.31,4.942H790.17l-6.378-5.326v-2.08l1.913,1.654,2.765,2.052h0l1.918,1.422h11.755l8.392-3.474Z" transform="translate(-505.7 -404.365)" fill="#a9cfc3"/>
    <path id="Trazado_37593" data-name="Trazado 37593" d="M907.317,899.615l.12-.083.324-.639.584-1.158,1.237-2.441,1.908-3.77,2.779-1.779-.912,1.649.125.384-5,12.9v-3.358l-2.024-1.112Z" transform="translate(-603.64 -396.311)" fill="#124034"/>
    <path id="Trazado_37594" data-name="Trazado 37594" d="M918.538,699.275l-1.264.181-1.227.051-.106.139-.644.093-3.279.579L913,697.96Z" transform="translate(-608.08 -243.18)" fill="#000002"/>
    <path id="Trazado_37595" data-name="Trazado 37595" d="M935.923,1282.323l.1,1.366-1.042.139-.1-1.255Z" transform="translate(-626.336 -709.763)" fill="#c5001b"/>
    <path id="Trazado_37596" data-name="Trazado 37596" d="M887.652,1552.329l3.974,4.668-1.542,5.479-6.91.5-3.626-3.631v-3.858l2.158-3.163Zm2.353,5.326-3.437-4.363-3.395.889-1.389,4.242,4.479,2.742Z" transform="translate(-582.155 -925.349)" fill="#00251c"/>
    <path id="Trazado_37597" data-name="Trazado 37597" d="M933.654,1274.855v1.135H932.4v-1.019Z" transform="translate(-624.354 -703.8)" fill="#c5001b"/>
    <path id="Trazado_37598" data-name="Trazado 37598" d="M854.838,713.075l-1.422.347-.435-.069-5.122-.8,1.042-.287,6.077.287,4.052-1.445,3.3-2.376,2.381-3.159,1.334-.19-3.2,4.1L858.4,712.2Z" transform="translate(-556.853 -249.107)" fill="#107253"/>
    <path id="Trazado_37599" data-name="Trazado 37599" d="M932.814,705.382l-1.334.19.106-.139Z" transform="translate(-623.621 -249.107)" fill="#000002"/>
    <path id="Trazado_37600" data-name="Trazado 37600" d="M860.693,810.436,846.8,819.028l.241,1.945-5.655.783-.144-1.028L853.435,812l-.713-2.39,1.024-1.2-.811-.6v-1.8l.811,1.13Z" transform="translate(-551.569 -329.452)" fill="#107253"/>
    <path id="Trazado_37601" data-name="Trazado 37601" d="M868.8,460.266l-.852.306-5.479-3.316-.519-.6-2.751-3.182-5.562-1.69-2.052-.625v-.889l7.874,2.126,3.858,4.242Z" transform="translate(-559.826 -45.41)" fill="#c7ddde"/>
    <path id="Trazado_37602" data-name="Trazado 37602" d="M885.064,730.234l-4.525,2.941-7.318.19-.384-.32.088-.574.435.07,1.422-.347h4.655l3.589-2.376.444-.491.542.491Z" transform="translate(-576.797 -268.225)" fill="#51a976"/>
    <path id="Trazado_37603" data-name="Trazado 37603" d="M862.621,706.324l-2.381,3.159-3.3,2.376-4.052,1.445-6.077-.287-1.042.287-.528,0,.019-1.26,8.615-.528,8.105-5.095Z" transform="translate(-554.762 -249.859)" fill="#7bb788"/>
    <path id="Trazado_37604" data-name="Trazado 37604" d="M895.43,1557.109l3.437,4.363-3.742,3.511-4.479-2.742,1.389-4.242Zm1.431,4.363-.658-1.7-1.445.347-.523-1.505-1.584.848,1.121,1.084-.385.5-1.084.847,1.005.658.732-1.079.408.385v1.505l1.487-.616-.968-1.274.158-.426Z" transform="translate(-591.017 -929.165)" fill="#107253"/>
    <path id="Trazado_37605" data-name="Trazado 37605" d="M862.05,706.784l-8.105,5.095-8.615.528v-.033l1.607-1.482,4.122-1.626,2.478-.977,3.247-.574,1.987-.352Z" transform="translate(-554.835 -250.226)" fill="#a9cfc3"/>
    <path id="Trazado_37606" data-name="Trazado 37606" d="M921.63,882.277l-.422.111-.023-.065Z" transform="translate(-615.401 -390.348)" fill="#134235"/>
    <path id="Trazado_37607" data-name="Trazado 37607" d="M854.2,900.5l.523,2.024-1.237,2.441-.269-1.723-.695-.977-1.566,1.95h-.31l-1.283,1.436-.083-.255-2.663.264v.5l-2.145-.208.324,3.951-.051.023-.968-3.163-2.043.806-.445-.806-2.529.732,1.653,2.848-.514.3-.06-.1-1.968-3.451-.125-1,3.543-.445,2.2-.685,1.853-.75.347-.6H847.1l1.95-1.352h1.6l.31-1.987.162.032,1.751.37.232-1.542.968-.338Z" transform="translate(-548.78 -403.54)" fill="#00261d"/>
    <path id="Trazado_37608" data-name="Trazado 37608" d="M902.772,1565.735l.658,1.7-1.737-.426-.157.426.968,1.274-1.487.616v-1.505l-.408-.385-.732,1.079-1.005-.658,1.084-.847.385-.5-1.121-1.084,1.584-.847.523,1.505Z" transform="translate(-597.585 -935.128)" fill="#00251c"/>
    <path id="Trazado_37609" data-name="Trazado 37609" d="M917.534,882.506l.023.065-.908.236-.037-.2Z" transform="translate(-611.75 -390.531)" fill="#0a3429"/>
    <path id="Trazado_37610" data-name="Trazado 37610" d="M918.214,890.692v1.547l-.13.046-.1-1.306-.06-.338Z" transform="translate(-612.796 -397.026)" fill="#00160f"/>
    <path id="Trazado_37611" data-name="Trazado 37611" d="M906.937,890.612l.1,1.306-.968.338-.232,1.542-1.751-.371.245-1.172.116-1.352.389-.227,1.5-.5.542.093Z" transform="translate(-601.75 -396.659)" fill="#fff"/>
    <path id="Trazado_37612" data-name="Trazado 37612" d="M915.734,889.354l.042.259-.542-.093Z" transform="translate(-610.649 -395.999)" fill="#00160f"/>
    <path id="Trazado_37613" data-name="Trazado 37613" d="M884.852,883.364l3.3-.352.037.2.185,1.079-.5.167-.5-.088-1,.583-1.343.445-.38-.51-1.765.931,0,.292-.584.19-1.343-2.52Z" transform="translate(-583.292 -390.935)" fill="#0b5e44"/>
    <path id="Trazado_37614" data-name="Trazado 37614" d="M874.7,696.637l-1.195.283-.074-.088.574-.491,5.442-1.621,2.747.653-.987,2.357-1.987.352.38-1.533-1.079-.806-2.232.523Z" transform="translate(-577.274 -240.593)" fill="#0b5e44"/>
    <path id="Trazado_37615" data-name="Trazado 37615" d="M797.7,1029.939v2.274l-12.737,2.39-11.232-5.211-6.021-8.689,1.417,1.051,4.488,6.364,11.231,4.284,12.274-1.968Z" transform="translate(-492.856 -500.874)" fill="#0a3429"/>
    <path id="Trazado_37616" data-name="Trazado 37616" d="M755.271,994.252l-4.914-6.97,2.32-.681,1.176-.343,13.431,9.726,16.558-3.474v9.925l-.579.5-12.274,1.968-11.232-4.284Z" transform="translate(-479.004 -473.371)" fill="#51a976"/>
    <path id="Trazado_37617" data-name="Trazado 37617" d="M829.089,947.308v3.335l-8.392,3.474H808.941l-1.917-1.422,5.553-.116.148.38,6.442.329,8.522-3.627-.111-.722.181-.074Z" transform="translate(-524.249 -442.272)" fill="#107253"/>
    <path id="Trazado_37618" data-name="Trazado 37618" d="M891.49,942.79v.023l-1.329,1.556-.181.074-.111-.709-4.446,1.871-.185-.44-.06-.533,4.289-2.955Z" transform="translate(-586.65 -437.776)" fill="#107253"/>
    <path id="Trazado_37619" data-name="Trazado 37619" d="M905.813,918.688l-.583,1.158-.542.357-.593-2.265h-.811l1.566-1.95.695.977Z" transform="translate(-601.108 -417.264)" fill="#003324"/>
    <path id="Trazado_37620" data-name="Trazado 37620" d="M909.307,889.833l-1.5.5,1-.584Z" transform="translate(-604.722 -396.311)" fill="#0b5e44"/>
    <path id="Trazado_37621" data-name="Trazado 37621" d="M910.247,935.486l.542-.357-.324.639-.12.083Z" transform="translate(-606.667 -432.547)" fill="#095940"/>
    <path id="Trazado_37622" data-name="Trazado 37622" d="M905.715,936.9l.1.366-.861.6-.38-.208Z" transform="translate(-602.135 -433.96)" fill="#095940"/>
    <path id="Trazado_37623" data-name="Trazado 37623" d="M897.232,928.681l-1.088.722-.764-2.307,1.283-1.436h1.121l.593,2.265Z" transform="translate(-594.796 -424.988)" fill="#fff"/>
    <path id="Trazado_37624" data-name="Trazado 37624" d="M909.7,1259.128v.917l-.023,0-.1-.926Z" transform="translate(-606.135 -691.232)" fill="#9a0014"/>
    <path id="Trazado_37625" data-name="Trazado 37625" d="M851.363,1252.05l.1.926-1.005-.111-13.788-1.57.19-1.028Z" transform="translate(-547.918 -684.168)" fill="#7b000d"/>
    <path id="Trazado_37626" data-name="Trazado 37626" d="M875.687,955.4l.111.723-8.522,3.626v-.908Z" transform="translate(-572.357 -448.73)" fill="#c7ddde"/>
    <path id="Trazado_37627" data-name="Trazado 37627" d="M875.575,951.881l.111.709-8.411,3.441v-.653l3.853-1.626Z" transform="translate(-572.357 -445.923)" fill="#c7ddde"/>
    <path id="Trazado_37628" data-name="Trazado 37628" d="M902.49,892.64l-.389.227-.116,1.352-.838-1.135Z" transform="translate(-599.402 -398.622)" fill="#00160f"/>
    <path id="Trazado_37629" data-name="Trazado 37629" d="M887.685,941.367l1.088-.722.38.208-4.289,2.955-.079-.76h.718l1.621-1.315Z" transform="translate(-586.338 -436.951)" fill="#095940"/>
    <path id="Trazado_37630" data-name="Trazado 37630" d="M852.465,645.016v2.395l-.31,1.89-2.742,1.607.042-.157-1.311.9-5.271,3.622-3.066-2.617-.75-1.093,7.772-5.312Z" transform="translate(-549.826 -200.907)" fill="#51a976"/>
    <path id="Trazado_37631" data-name="Trazado 37631" d="M880.873,894.846l.838,1.135-.245,1.172-.162-.032-.31,1.987h-1.6l-1.95,1.352h-1.408l-.282-1.352v-2.469l1.644-.616,1.357,1.32-.023-1.783Z" transform="translate(-579.128 -400.384)" fill="#fff"/>
    <path id="Trazado_37632" data-name="Trazado 37632" d="M877.438,700.6l-.38,1.533-3.247.574-2.478.977-.611-1.385.621-1.329,1.2-.282v.8l1.237-.287v-.283l.445-.181-.093-.422,2.232-.523Z" transform="translate(-575.109 -244.648)" fill="#00160f"/>
    <path id="Trazado_37633" data-name="Trazado 37633" d="M786.588,808.4l-.746-.343-4.659,2.626-2.024,3.395-.213.357-4.479.727-4.632-2.223-3.552.6-.3.537-1.014,1.853H763.12l-.4-1.042-.755-1.95,2.547-3.261,5.479-1,4.168,1.7,3.242-.695,1.876-3.705,6.845-1.857.542-.148,2.974,2.214.81.6-1.024,1.2-1.056,1.232Z" transform="translate(-488.269 -327.819)" fill="#51a976"/>
    <path id="Trazado_37634" data-name="Trazado 37634" d="M868.974,462.653l-.871.755-7.721-4.71.278-.917,5.563,1.691Z" transform="translate(-566.853 -51.41)" fill="#008459"/>
    <path id="Trazado_37635" data-name="Trazado 37635" d="M776.535,834.7l-.773-.023-2.219-2.839h.676l5.405.621-1.468-2.473h-2.922l.3-.537,3.552-.6,4.632,2.223,4.479-.727.213-.357h1.329l6.1-3.779v-1.9l1.778.815,1.056-1.232.713,2.39L787.188,835Z" transform="translate(-497.517 -343.726)" fill="#0a3429"/>
    <path id="Trazado_37636" data-name="Trazado 37636" d="M892.652,892.828l-2.14.713,0-.292,1.765-.931Z" transform="translate(-590.907 -398.366)" fill="#0b5e44"/>
    <path id="Trazado_37637" data-name="Trazado 37637" d="M880.967,877.405l1.959,1.482-3.881.417-.366-.686-.12-.88Z" transform="translate(-581.366 -386.458)" fill="#a9cfc3"/>
    <path id="Trazado_37638" data-name="Trazado 37638" d="M850.495,760.781v1.8l-2.974-2.214-.542.148-8.8-10.106h1.389l.009-.889,5.97-.158,4.942,4.122-5.326,1.014,3.589,3.863Z" transform="translate(-549.129 -284.224)" fill="#c7ddde"/>
    <path id="Trazado_37639" data-name="Trazado 37639" d="M884.5,931.776l.764,2.307-.56.366-1.621,1.315h-.718l-.38-3.455-.232-.023v-.5l2.663-.264Z" transform="translate(-583.916 -429.667)" fill="#a9cfc3"/>
    <path id="Trazado_37640" data-name="Trazado 37640" d="M868.1,467.041v.926l-7.721-4.4V462.33Z" transform="translate(-566.853 -55.043)" fill="#51a976"/>
    <path id="Trazado_37641" data-name="Trazado 37641" d="M885.453,673.464l-.042.158-1.269.746Z" transform="translate(-585.824 -223.622)" fill="#51a976"/>
    <path id="Trazado_37642" data-name="Trazado 37642" d="M885.247,898.385l.023,1.783-1.357-1.32.519-.194.231-.079Z" transform="translate(-585.641 -403.209)" fill="#00160f"/>
    <path id="Trazado_37643" data-name="Trazado 37643" d="M854.8,674.991l1.269-.746-.218.824-.954,3.594-2.029.519-5.382,4.687-.093-.051,2.617-4.794-.482-.412Z" transform="translate(-556.486 -224.246)" fill="#073026"/>
    <path id="Trazado_37644" data-name="Trazado 37644" d="M881.319,702.4l.093.421-.445.181v.282l-1.237.287v-.8Z" transform="translate(-582.302 -246.722)" fill="#fff"/>
    <path id="Trazado_37645" data-name="Trazado 37645" d="M855.908,886.827l1.343,2.52-.232.079-.519.195-.435-.426-1.209.945v.1l-1.579.588-.282-.338-1.945,1.172-.968.361-.5-2.441,6.22-2.742Z" transform="translate(-558.229 -393.98)" fill="#51a976"/>
    <path id="Trazado_37646" data-name="Trazado 37646" d="M796.839,957.474l5.762.38,5.053-.769,3.942-.6.208-.144.06.533.185.44-3.854,1.626-6.79.347.2.5-5.553.116h0l-2.765-2.052,2.895-.422Z" transform="translate(-513.277 -449.482)" fill="#008459"/>
    <path id="Trazado_37647" data-name="Trazado 37647" d="M866.9,952.57l.079.76-.208.144-3.942.6-.445-.81.949.1,1.084-.5.074.25-.023-.273.565-.264Z" transform="translate(-568.449 -446.473)" fill="#095940"/>
    <path id="Trazado_37648" data-name="Trazado 37648" d="M873.258,934.487l.232.023.38,3.455H872l-.565.264-.324-3.951Z" transform="translate(-575.421 -431.869)" fill="#fff"/>
    <path id="Trazado_37649" data-name="Trazado 37649" d="M854.713,824.6v1.9l-6.1,3.779h-1.329l2.024-3.395,4.659-2.626Z" transform="translate(-556.394 -344.02)" fill="#140c17"/>
    <path id="Trazado_37650" data-name="Trazado 37650" d="M876.964,898.569l.435.426-1.644.616v-.1Z" transform="translate(-579.128 -403.356)" fill="#51a976"/>
    <path id="Trazado_37651" data-name="Trazado 37651" d="M824.735,741.861l8.8,10.106-6.846,1.857-5.345-15.168.6.509.681-.232,1,2.927Z" transform="translate(-535.68 -275.674)" fill="#a9cfc3"/>
    <path id="Trazado_37652" data-name="Trazado 37652" d="M827.884,879.3l1.723-.241.12.88.366.685-.106.009-6.22,2.742-6.253.079.134-1.237-.4-.834,1.825-.866,3.154-.435Z" transform="translate(-532.414 -387.779)" fill="#a9cfc3"/>
    <path id="Trazado_37653" data-name="Trazado 37653" d="M840.913,908.538l.282,1.352-.347.6-1.853.75-2.2.686-3.543.445-.686.088-.449-1.218.1-3.182.213-.032,3.057-.144,1.014,2.01v-2.038l.6-.361,2.228-.834Z" transform="translate(-544.285 -409.814)" fill="#fff"/>
    <path id="Trazado_37654" data-name="Trazado 37654" d="M869.5,903.739v2.469l-1.579-1.88Z" transform="translate(-572.871 -407.484)" fill="#00160f"/>
    <path id="Trazado_37655" data-name="Trazado 37655" d="M851.094,742.631l-5.97.157.023-1.857.528,0,5.122.8-.088.574Z" transform="translate(-554.67 -277.491)" fill="#51a976"/>
    <path id="Trazado_37656" data-name="Trazado 37656" d="M735.956,426.391H734.1l-3.011-2.237-9.129-.218.023-.94.232-1.084-9.11-4.321-6.174-6.253-5.789-.232-.079-.848h6.484l6.253,6.406,9.407,4.631,7.73.848Z" transform="translate(-439.648 -13.467)" fill="#e4f1ee"/>
    <path id="Trazado_37657" data-name="Trazado 37657" d="M850.995,705.2l.074.088-.62,1.329L851.06,708l-4.122,1.626-1.607,1.482.023-1.853.394-.722.093.051H847Z" transform="translate(-554.835 -248.96)" fill="#000904"/>
    <path id="Trazado_37658" data-name="Trazado 37658" d="M872.52,953.88l.023.273-.074-.25Z" transform="translate(-576.504 -447.519)" fill="#1b1749"/>
    <path id="Trazado_37659" data-name="Trazado 37659" d="M855.771,939.106l2.042-.806.968,3.163-1.084.5-.949-.1-1.422-2.589Z" transform="translate(-562.816 -435.079)" fill="#e7f6fe"/>
    <path id="Trazado_37660" data-name="Trazado 37660" d="M858.811,904.98l.283.338-2.228.834Z" transform="translate(-564.046 -408.475)" fill="#51a976"/>
    <path id="Trazado_37661" data-name="Trazado 37661" d="M841.167,972.47v.908l-6.443-.329-.148-.38,6.438-.139Z" transform="translate(-546.248 -462.363)" fill="#a9cfc3"/>
    <path id="Trazado_37662" data-name="Trazado 37662" d="M840.378,969.23v.653l-.153.06-6.438.139-.2-.505Z" transform="translate(-545.459 -459.775)" fill="#a9cfc3"/>
    <path id="Trazado_37663" data-name="Trazado 37663" d="M812.857,955.993l1.982-.134.5-.032H818l.486-.287.514-.3.352-.208,1.945.2.445.81-5.053.769-5.762-.38v-.389h1.209Z" transform="translate(-527.368 -448.436)" fill="#004532"/>
    <path id="Trazado_37664" data-name="Trazado 37664" d="M845.309,939.282l1.422,2.589-1.945-.2-.352.208-1.653-2.848,2.529-.732.445.806Z" transform="translate(-552.798 -435.079)" fill="#a9cfc3"/>
    <path id="Trazado_37665" data-name="Trazado 37665" d="M795.706,667.432l-.815-2.1h1.39l1.843,4.474h2.714l.63-.431,1.8,1.9,1.274-2.394,3.066,2.617.482.412-2.617,4.794-.394.722-.023,1.853-.042.037.042,0-.019,1.26-.023,1.857-.009.889H802.5l-1-2.927-.431-1.26.463-2.376-3.409-3.1-.167-.426.422-.931-1.047-.681Z" transform="translate(-514.562 -217.127)" fill="#134235"/>
    <path id="Trazado_37666" data-name="Trazado 37666" d="M715.57,1068.763l7.5,5.41,13.547,1.621-.875,4.706-16.956-3.316-11.88-10.06-1.339-1.135v-4.428Z" transform="translate(-443.244 -533.497)" fill="#008459"/>
    <path id="Trazado_37667" data-name="Trazado 37667" d="M726.517,1253.945l18.837,23.116-.287.431L733,1269.535l-12.042-23.158-4.451-25.409,1.135.371Z" transform="translate(-451.978 -660.775)" fill="#9a0014"/>
    <path id="Trazado_37668" data-name="Trazado 37668" d="M850.463,910.794l-.6.361v2.038l-1.014-2.01.648-.028Z" transform="translate(-557.642 -413.117)" fill="#00160f"/>
    <path id="Trazado_37669" data-name="Trazado 37669" d="M735.745,1102.535l-1.042,5.572-16.373-3.872-6.026-1.427-6.734-10.6v-1.135l1.255-1.816.083-.1,11.88,10.06Z" transform="translate(-443.244 -555.532)" fill="#107253"/>
    <path id="Trazado_37670" data-name="Trazado 37670" d="M823.546,900.476l.5,2.441-.648.028-.144-.287-2.913.431-.676.032-.769.111-.042-.111-.741.218-1.139.162.32-2.946Z" transform="translate(-532.194 -404.879)" fill="#008459"/>
    <path id="Trazado_37671" data-name="Trazado 37671" d="M761.307,1167.829l-1.626,8.726-16.72-5.919-4.071-4.029,5.808-1.644.236-1.005Z" transform="translate(-469.848 -615.254)" fill="#51a976"/>
    <path id="Trazado_37672" data-name="Trazado 37672" d="M836.737,911.587l-3.057.144,2.913-.431Z" transform="translate(-545.533 -413.521)" fill="#008459"/>
    <path id="Trazado_37673" data-name="Trazado 37673" d="M833.914,943.382l.06.1-.486.287h-1.464l-1.44-2.469-.259-.445,1.621-.926Z" transform="translate(-542.854 -436.382)" fill="#e7f6fe"/>
    <path id="Trazado_37674" data-name="Trazado 37674" d="M795.855,725.556l5.345,15.168-1.876,3.705-3.242.695-4.168-1.7-2.084-12.315-.408-3.242,2.547-5.623Z" transform="translate(-510.195 -262.574)" fill="#e4f1ee"/>
    <path id="Trazado_37675" data-name="Trazado 37675" d="M845.165,734.52v.032l-.042,0Z" transform="translate(-554.67 -272.372)" fill="#e40046"/>
    <path id="Trazado_37676" data-name="Trazado 37676" d="M829.847,677.508l.75,1.093L829.323,681l-1.8-1.9Z" transform="translate(-540.616 -226.851)" fill="#107253"/>
    <path id="Trazado_37677" data-name="Trazado 37677" d="M744.416,1187.049l-.894,4.8-3.358-.412-19.184-7.063-1.209-6.178,3.853-1.093,4.071,4.029Z" transform="translate(-454.583 -625.749)" fill="#51a976"/>
    <path id="Trazado_37678" data-name="Trazado 37678" d="M789.867,877.826l.144,1.028-3.154.435-1.825.866-7.012,3.335-1.121-1.264,2.316-4.706Z" transform="translate(-500.195 -386.55)" fill="#6eb592"/>
    <path id="Trazado_37679" data-name="Trazado 37679" d="M830.584,946.734l1.44,2.469h-1.2l-.5.032v-2.348Z" transform="translate(-542.854 -441.813)" fill="#140c17"/>
    <path id="Trazado_37680" data-name="Trazado 37680" d="M775.457,921.175l.125,1-1.621.926.259.445-.259.153h-2.432l.111.621-1.589-.282v1.01l-1.843-.625v1.315l-4.437-3.159-3.6-1.413-.435-.871,3.844-2.6.718.542,1.691-.241,2.158-.306,0,.028-.88.333h0l-.482.185.009.056-1.834.917v1.269h2.117l1.135,1.075.94-.412,1.4,1.033.982-1.7,1.968,1.075,1.274-.287Z" transform="translate(-486.49 -418.621)" fill="#00160f"/>
    <path id="Trazado_37681" data-name="Trazado 37681" d="M748.311,1220.653l-.19,1.028-4.521-.514-17.378-5.664-.454-2.325,19.184,7.063Z" transform="translate(-459.372 -654.555)" fill="#7b000d"/>
    <path id="Trazado_37682" data-name="Trazado 37682" d="M821.054,917.22l.449,1.218-1.274.287-1.968-1.075V914.52l.88-.264.783-.106Z" transform="translate(-533.221 -415.796)" fill="#fff"/>
    <path id="Trazado_37683" data-name="Trazado 37683" d="M827.956,913.437l-.213.032-.1,3.182-1.13-3.071.769-.111Z" transform="translate(-539.808 -415.227)" fill="#00160f"/>
    <path id="Trazado_37684" data-name="Trazado 37684" d="M818.372,948.117v0l-.111-.621h2.432v2.348l-1.982.134Z" transform="translate(-533.221 -442.418)" fill="#fff"/>
    <path id="Trazado_37685" data-name="Trazado 37685" d="M813.312,708.034l-.463,2.376.431,1.26-.681.232-.6-.51-2.357-6.683.093-.2.167.426Z" transform="translate(-526.341 -248.41)" fill="#107253"/>
    <path id="Trazado_37686" data-name="Trazado 37686" d="M816.146,677.629l-.63.431h-1.237l-1.005-1.464,1.005-.926Z" transform="translate(-529.24 -225.383)" fill="#134235"/>
    <path id="Trazado_37687" data-name="Trazado 37687" d="M823.368,913.6l.042.111-.783.106Z" transform="translate(-536.707 -415.356)" fill="#008459"/>
    <path id="Trazado_37688" data-name="Trazado 37688" d="M785.787,420.95l-.773,1.042-8.874-6.368.926-.769Z" transform="translate(-499.59 -17.137)" fill="#a9cfc3"/>
    <path id="Trazado_37689" data-name="Trazado 37689" d="M812.993,914.84l1.139-.162-.88.264v3.131l-1.264-3.089Z" transform="translate(-528.212 -416.218)" fill="#00160f"/>
    <path id="Trazado_37690" data-name="Trazado 37690" d="M803.589,705.5l2.357,6.683-3.886-3.307Z" transform="translate(-520.286 -249.199)" fill="#a9cfc3"/>
    <path id="Trazado_37691" data-name="Trazado 37691" d="M810.931,950.179v-1.01l1.589.282v0l.338,1.857-.718.046h-1.209Z" transform="translate(-527.368 -443.758)" fill="#107253"/>
    <path id="Trazado_37692" data-name="Trazado 37692" d="M789.471,890.6l.4.834-.134,1.237h-.06l-3.9,1.663-2.154.922-1.167-1.32Z" transform="translate(-504.636 -396.99)" fill="#51a976"/>
    <path id="Trazado_37693" data-name="Trazado 37693" d="M802.891,900.867l-.319,2.946-1.005.144-.213-.523H799.32l-.384-.9,3.9-1.663Z" transform="translate(-517.791 -405.191)" fill="#0b5e44"/>
    <path id="Trazado_37694" data-name="Trazado 37694" d="M802.468,919.946l-.551-.408-.449-3.015,0-.028,2.121-.3,1.264,3.089-.982,1.7Z" transform="translate(-519.809 -417.429)" fill="#fff"/>
    <path id="Trazado_37695" data-name="Trazado 37695" d="M807,696.512l1.047.681-.421.931Z" transform="translate(-524.231 -242.025)" fill="#134235"/>
    <path id="Trazado_37696" data-name="Trazado 37696" d="M802.876,913.6l.213.523-2.121.3-.125-.824Z" transform="translate(-519.314 -415.356)" fill="#0b5e44"/>
    <path id="Trazado_37697" data-name="Trazado 37697" d="M806.38,960.039v.389l-.662-.042-.486-.347Z" transform="translate(-522.818 -452.436)" fill="#004532"/>
    <path id="Trazado_37698" data-name="Trazado 37698" d="M803.628,951.7v1.181h-1.149l-.695-.491v-1.315Z" transform="translate(-520.066 -445.281)" fill="#095940"/>
    <path id="Trazado_37699" data-name="Trazado 37699" d="M787,693.957l-2.547,5.623-1.255-9.925,1.779-2.839,3.02,1.955.625,1.612-.093.2Z" transform="translate(-505.223 -234.282)" fill="#51a976"/>
    <path id="Trazado_37700" data-name="Trazado 37700" d="M766.006,940.306l-2.321-2.005,3.242.732,4.437,3.159.695.491.486.347-2.895.422-1.913-1.654Z" transform="translate(-489.645 -435.079)" fill="#124034"/>
    <path id="Trazado_37701" data-name="Trazado 37701" d="M793.413,675.762l1.626,4.182-3.02-1.955Z" transform="translate(-512.268 -225.457)" fill="#a9cfc3"/>
    <path id="Trazado_37702" data-name="Trazado 37702" d="M797.111,921.248l-.94.412-1.135-1.075-.283-2.186.472-.241h0l.88-.333.449,3.015Z" transform="translate(-514.452 -418.732)" fill="#dbdcde"/>
    <path id="Trazado_37703" data-name="Trazado 37703" d="M682.228,437.051l-.023.94-10.245-.245.153,1.079,6.178.232v.848h-6.178l-1.792-.514.25-.875-.153-1.232L663.7,432.8l-5.91.63-.848-.2v0l1.005-.421-.069-.658,6.322-.653,2.64,1.89,4.576,3.279,5.021.079.232-.773-9.11-3.589-2.779-2.816-9.263-.616-4.247,2.237v-.848l4.094-2.473,9.879.389,3.395,3.316Z" transform="translate(-399.888 -27.521)" fill="#e4f1ee"/>
    <path id="Trazado_37704" data-name="Trazado 37704" d="M780.835,854.127,782.3,856.6l-5.405-.621,1.014-1.853Z" transform="translate(-500.195 -367.872)" fill="#140c17"/>
    <path id="Trazado_37705" data-name="Trazado 37705" d="M760.124,778.172l-.07-1.014,1.561-.949,2.376-1.445.537-8.026.509-.139,1.343-.366,2.084,12.315-5.479,1-2.547,3.261Z" transform="translate(-486.746 -297.692)" fill="#a9cfc3"/>
    <path id="Trazado_37706" data-name="Trazado 37706" d="M790.788,910.02l.125.824-2.158.306-.093-.648-.412-.463,2.154-.922Z" transform="translate(-509.259 -411.778)" fill="#0b5e44"/>
    <path id="Trazado_37707" data-name="Trazado 37707" d="M700.884,969.661l6.021,8.689-7.563-3.937-9.726-6.29-5.6-9.277,2.848-2.07,3.7,5.2Z" transform="translate(-426.034 -449.831)" fill="#0b5e44"/>
    <path id="Trazado_37708" data-name="Trazado 37708" d="M787.488,920.675l.282,2.186h-2.117v-1.269Z" transform="translate(-507.186 -421.007)" fill="#095940"/>
    <path id="Trazado_37709" data-name="Trazado 37709" d="M783.11,710.827l.408,3.242-1.343.366-.213-1.315.824-.672-.912-2.038.912-.912-1.269-8.059.338-.537Z" transform="translate(-503.883 -245.529)" fill="#134235"/>
    <path id="Trazado_37710" data-name="Trazado 37710" d="M781.121,914.153l.093.648-1.69.241-.718-.542,1.9-.81Z" transform="translate(-501.718 -415.429)" fill="#0a3429"/>
    <path id="Trazado_37711" data-name="Trazado 37711" d="M725.254,879.56l1.482,2.538h-2.774l-4.72-6.54h1.01l-3.858-4.4,4.363-8.342,5.576-4.669.4,1.042h1.176l2.218,2.839.774.023-2.316,4.706-7.758,5.22Z" transform="translate(-451.886 -371.082)" fill="#51a976"/>
    <path id="Trazado_37712" data-name="Trazado 37712" d="M747.287,902.131l1.167,1.32-1.9.811-3.844,2.6.435.871,3.6,1.413-3.242-.732,2.32,2.006-2.992,3.251-4.423-7.582,7.758-5.22Z" transform="translate(-469.463 -405.191)" fill="#008250"/>
    <path id="Trazado_37713" data-name="Trazado 37713" d="M745.512,681.162l.5-.695,2.742-.32L747.1,674.33l.963-.866,2.422,3.965.82,1.343.12.759,1.269,8.059-.913.912-1.288-2.881v-1.968l-5.8-1.473-.866-2.237Z" transform="translate(-473.793 -223.622)" fill="#0b5e44"/>
    <path id="Trazado_37714" data-name="Trazado 37714" d="M736.533,732.17l1.288,2.881.912,2.038-.824.672-.565.459-1.186-2.751h.375l-.635-1.329-3.418.347-.426-.639-5.419-.347-.12.023-.171-1.76,7.684.306Z" transform="translate(-459.83 -270.17)" fill="#008459"/>
    <path id="Trazado_37715" data-name="Trazado 37715" d="M771.008,752.438l.213,1.315-.51.139-.537,8.026-2.376,1.445.445-9.485.1-.056.093-3.677h.824l1.186,2.751Z" transform="translate(-492.93 -284.848)" fill="#0a3429"/>
    <path id="Trazado_37716" data-name="Trazado 37716" d="M775.268,671.629l.458,3.622-.338.537-.12-.76-.82-1.343-.607-2.594.616-2.316Z" transform="translate(-497.755 -219.879)" fill="#a9cfc3"/>
    <path id="Trazado_37717" data-name="Trazado 37717" d="M738.355,453.856l-.232.773-5.021-.079-4.576-3.279.718-1.005Z" transform="translate(-461.573 -45.41)" fill="#008459"/>
    <path id="Trazado_37718" data-name="Trazado 37718" d="M753.927,718.184v1.968l-2.506-.1-3.2-3.085-.1-.255Z" transform="translate(-477.224 -258.152)" fill="#107253"/>
    <path id="Trazado_37719" data-name="Trazado 37719" d="M713.782,740.4l.12-.023,5.419.347.426.639,3.418-.347.634,1.329h-1.2l.019-.778-.037.778h-1.561l.116.987-.347-.023h0l-4.845-.3.1-.028-.635-.986h-1.8v-.635l-3.154.607v-.607l-.06-.3Z" transform="translate(-447.097 -277.05)" fill="#000904"/>
    <path id="Trazado_37720" data-name="Trazado 37720" d="M661.031,877.11l-3.928-5.521-1.135.56-4.307-8.74,1.505-6.41,3.534.547-1.8,4.548,8.138,12.023,1.45-2.2,2.533,2.723h.533l4.72,6.54,1.6,2.214-2.32.681,4.914,6.97-1.417-1.051-10.319-7.688Z" transform="translate(-400.2 -370.165)" fill="#71b58e"/>
    <path id="Trazado_37721" data-name="Trazado 37721" d="M770.892,746.285l-.019.778h-.019Z" transform="translate(-495.37 -281.766)" fill="#000904"/>
    <path id="Trazado_37722" data-name="Trazado 37722" d="M770.194,750.146l-.093,3.677-.1.056.171-3.733Z" transform="translate(-494.691 -284.848)" fill="#0a3429"/>
    <path id="Trazado_37723" data-name="Trazado 37723" d="M726.469,757.783l.107-1.038,1.853-.579-.236-1.945.584-.194-.195-1.728,4.937-1.19h0l.347.023-.116-.987h1.561l-.171,3.733-8.8,5.109Z" transform="translate(-459.83 -284.848)" fill="#107253"/>
    <path id="Trazado_37724" data-name="Trazado 37724" d="M681.477,768.667l-.445,9.485-1.561.949.069,1.014-2.061,2.089-6.077,6.16-8.74-1.348-3.534-.547V780.45l10.926-7.16,2.747-.718-.125,1.2Z" transform="translate(-406.163 -299.637)" fill="#e4f1ee"/>
    <path id="Trazado_37725" data-name="Trazado 37725" d="M718.33,1116.326l-.236,1.005-5.808,1.644-5.044-4.993-1.672-8.536V1104.3l6.734,10.6Z" transform="translate(-443.244 -567.623)" fill="#51a976"/>
    <path id="Trazado_37726" data-name="Trazado 37726" d="M742.862,830.108l.755,1.95-5.576,4.669,3.353-6.405-.616-2.469-.292-.292,2.061-2.089Z" transform="translate(-469.169 -344.992)" fill="#0a3429"/>
    <path id="Trazado_37727" data-name="Trazado 37727" d="M685.406,714.418l-7.684-.306-5.095.408-3.645,1.968-1.144,1.621-2.39-3.071,5.79-3.478,4.923.584.347-2.487,5.6,1.422.1.255Z" transform="translate(-411.209 -252.519)" fill="#0b5e44"/>
    <path id="Trazado_37728" data-name="Trazado 37728" d="M680.278,756.021l2.909-.973-.009-.056,4.2-.871,2.33-.667,4.845.3-4.937,1.19-.093-.82L678.633,757v.422l-1.1.2.185-.746Z" transform="translate(-420.86 -287.49)" fill="#17433a"/>
    <path id="Trazado_37729" data-name="Trazado 37729" d="M650.333,926.43l2.033,3.372,5.6,9.277,9.726,6.29-.695,7.54-.287,3.145-10-7.2v-2.978L645.8,928.333l-1.426-6.123,2.316-1.811Z" transform="translate(-394.384 -420.786)" fill="#107253"/>
    <path id="Trazado_37730" data-name="Trazado 37730" d="M743.455,699.8l1.223,1.7-.505.695-1.681-1.218-.338-.866Z" transform="translate(-472.454 -244.648)" fill="#0b5e44"/>
    <path id="Trazado_37731" data-name="Trazado 37731" d="M728.026,837.283l.616,2.469-3.353,6.405-2.645,2.219-.574-.32Z" transform="translate(-456.418 -354.423)" fill="#134235"/>
    <path id="Trazado_37732" data-name="Trazado 37732" d="M684.652,836.127,678.7,846.9l-3.325,6.012,1.964,2.107-1.45,2.2L667.747,845.2l1.8-4.548,8.74,1.348,6.077-6.16Z" transform="translate(-413.044 -353.267)" fill="#107253"/>
    <path id="Trazado_37733" data-name="Trazado 37733" d="M660.119,698.4l8.9-.44,2.135,1.542.866,2.237-5.6-1.422-.347,2.487-4.923-.584-5.789,3.478-2.547-.926,2.547-6.137Z" transform="translate(-401.118 -243.18)" fill="#51a976"/>
    <path id="Trazado_37734" data-name="Trazado 37734" d="M696.251,456.859l.153,1.232-3.242-1.079-3.858-2.626-5.678-1.376,5.91-.63Z" transform="translate(-425.722 -47.098)" fill="#008459"/>
    <path id="Trazado_37735" data-name="Trazado 37735" d="M668.13,460.586l-.25.875-3.3-.95-3.548-2.473-6.41-1.311-5.789,2.626-.616-1.431,5.322-2.223,1.816-.195,5.678,1.376,3.858,2.626Z" transform="translate(-397.448 -49.594)" fill="#e4f1ee"/>
    <path id="Trazado_37736" data-name="Trazado 37736" d="M718.91,1157.322l-3.853,1.093-1.19-6.086Z" transform="translate(-449.868 -605.97)" fill="#51a976"/>
    <path id="Trazado_37737" data-name="Trazado 37737" d="M728.673,749.437l-2.33.667v-1.681h1.8l.635.986Z" transform="translate(-459.83 -283.472)" fill="#008459"/>
    <path id="Trazado_37738" data-name="Trazado 37738" d="M682.982,760.062v-.421l10.884-2.876.093.82.194,1.728-.584.195-5.785,1.945-.25-1.561-4.553.866Z" transform="translate(-425.208 -290.132)" fill="#a9cfc3"/>
    <path id="Trazado_37739" data-name="Trazado 37739" d="M707.534,891.33l-1.964-2.107,3.326-6.012.574.32,2.645-2.219-4.363,8.341,3.858,4.4h-1.542Z" transform="translate(-443.244 -389.577)" fill="#134235"/>
    <path id="Trazado_37740" data-name="Trazado 37740" d="M620.4,493.119l-1.987-1.69-8.962,2.288-1.459.375-5.206,8.406-.672-.417,4.08-9.958,10.018-4.516,9.666,2.01,3.395,4.9-2.584,1.422-1.519-2.005-2.534,1.079Z" transform="translate(-360.643 -75.225)" fill="#a9cfc3"/>
    <path id="Trazado_37741" data-name="Trazado 37741" d="M670.055,774.647l-1.051.273-3.159.213L660.4,779.26l-.926-.635,6.429-4.863-2.26-.523-4.168,2.316-.347-.926,2.955-1.737-.259-.736.838-.306.176-.723,1.1-.2v.695l4.553-.866.25,1.561,5.785-1.945.236,1.945-1.853.579-.107,1.038Z" transform="translate(-406.163 -300.994)" fill="#0b5e44"/>
    <path id="Trazado_37742" data-name="Trazado 37742" d="M653.625,433.855l2.779,2.816-.718,1.005-2.64-1.89-6.322.653-7.841.811-.037.037-1.547-.732,1.8-2.626,1.019.7v.848l4.247-2.237Z" transform="translate(-388.733 -31.815)" fill="#008459"/>
    <path id="Trazado_37743" data-name="Trazado 37743" d="M714.192,1188.7l.454,2.325-1.186-.384-1.135-.371-.8-4.539-.259-2.723,1.714-.486Z" transform="translate(-447.794 -630.079)" fill="#7b000d"/>
    <path id="Trazado_37744" data-name="Trazado 37744" d="M691.722,731.762l.171,1.76-3.386.667-4.715.931-.81-.982,3.645-1.969Z" transform="translate(-425.208 -270.17)" fill="#51a976"/>
    <path id="Trazado_37745" data-name="Trazado 37745" d="M703.648,745.909v1.681l-4.2.871-.259.056-1.274-.926.634-1.334.908-.176v1.162l1.033-.347v-1.014l3.154-.607Z" transform="translate(-437.134 -280.958)" fill="#00160f"/>
    <path id="Trazado_37746" data-name="Trazado 37746" d="M708.857,1147.375l1.19,6.086-1.714.486-.741-7.823Z" transform="translate(-444.859 -601.016)" fill="#7b000d"/>
    <path id="Trazado_37747" data-name="Trazado 37747" d="M617.87,627.683l1.371-2.2,9.495,6.331-5.312,8.717-4.761.236-2.547,6.137-2.547,5.965-2.163,1.7,2.27,1.987-1.9,2.89.811.421,2.265-2.219.454-.445.408.871,4.372-1.607.259.736-2.955,1.737.347.926,4.168-2.316,2.26.523-6.429,4.863.926.635,5.442-4.127,3.159-.213,1.051-.273-10.926,7.16-4.423,6.9-.371.079-1.422-3.927-4.321-10.653,2.441-17.072Z" transform="translate(-364.422 -185.312)" fill="#a9cfc3"/>
    <path id="Trazado_37748" data-name="Trazado 37748" d="M705.57,1109.978l1.672,8.536-1.264-1.251-.408-4.275Z" transform="translate(-443.244 -572.155)" fill="#7b000d"/>
    <path id="Trazado_37749" data-name="Trazado 37749" d="M706.909,1084.664l-.083.1-1.255,1.816v-3.052Z" transform="translate(-443.244 -551.037)" fill="#107253"/>
    <path id="Trazado_37750" data-name="Trazado 37750" d="M621.384,529.139l-.264.375-1.079-2.163-1.7-2.395,4.4-8.105,10.615-1.9,2.237,1.9,1.584,2.316L625.9,522.72Z" transform="translate(-373.596 -97.059)" fill="#107253"/>
    <path id="Trazado_37751" data-name="Trazado 37751" d="M488.631,1110.383l.741,7.823-56.014,15.882v-5.743l25.705-10.041,24.858-11.269,3.928-5.674.375.593v4.155Z" transform="translate(-225.897 -565.275)" fill="#107253"/>
    <path id="Trazado_37752" data-name="Trazado 37752" d="M706.6,748.285V749.3l-1.033.347v-1.163Z" transform="translate(-443.244 -283.362)" fill="#fff"/>
    <path id="Trazado_37753" data-name="Trazado 37753" d="M653.569,750.945l-4.372,1.607-.408-.871,4.168-2.024,2.5-3.474,1.037-1.45,4.715-.931.06.3v.607l-1.033.2-.908.176-1.505,2.26-.5.973-2.557.857-.185.746-.176.723Z" transform="translate(-397.907 -279.784)" fill="#000904"/>
    <path id="Trazado_37754" data-name="Trazado 37754" d="M694.039,752.35l.009.056-2.909.973.5-.973,1.505-2.26-.635,1.334,1.274.926Z" transform="translate(-431.722 -284.848)" fill="#008459"/>
    <path id="Trazado_37755" data-name="Trazado 37755" d="M674.167,929.384l3.927,5.521-2.849,2.07-2.033-3.372.954-1.362-1.135-2.3Z" transform="translate(-417.264 -427.96)" fill="#0b5e44"/>
    <path id="Trazado_37756" data-name="Trazado 37756" d="M643.551,1295.618l-2.256,64.531-10.523,1.8,4.594-72.159Z" transform="translate(-383.522 -715.726)" fill="#107253"/>
    <path id="Trazado_37757" data-name="Trazado 37757" d="M647.479,506.566l1.987,1.69-10.616,1.9-.333-1.3Z" transform="translate(-389.705 -90.362)" fill="#134235"/>
    <path id="Trazado_37758" data-name="Trazado 37758" d="M678.45,743.551l.811.982-1.038,1.45-.644-.463-.273-.347Z" transform="translate(-420.676 -279.582)" fill="#0a3429"/>
    <path id="Trazado_37759" data-name="Trazado 37759" d="M627.918,449.117l.069.658-1.005.422-.968.4-5.294.565-6.808,6.1-.167.153v-1.468l5.382-5.118.194.1,1.292-.695-.574-.269.037-.037Z" transform="translate(-369.927 -44.493)" fill="#e4f1ee"/>
    <path id="Trazado_37760" data-name="Trazado 37760" d="M676.433,454.68l-1.816.195.968-.4v0Z" transform="translate(-418.53 -48.768)" fill="#e4f1ee"/>
    <path id="Trazado_37761" data-name="Trazado 37761" d="M649,752.4l-2.5,3.474L642.33,757.9l-.454.445-.435-.445-.741-.648.185-.278,4.8-2,2.39-3.386.273.347Z" transform="translate(-391.448 -286.004)" fill="#0a3429"/>
    <path id="Trazado_37762" data-name="Trazado 37762" d="M636.175,834.027l4.423-6.9v6.021l-1.505,6.41,4.307,8.74,1.135,2.3-.954,1.362-3.641-6.03-2.316,1.811v-8.605l-1.7-4.706Z" transform="translate(-387.632 -346.313)" fill="#98c7b6"/>
    <path id="Trazado_37763" data-name="Trazado 37763" d="M636.7,732.689l2.39,3.071-2.39,3.385-4.8,2-.185.278-2.269-1.987,2.163-1.7,2.547-5.966Z" transform="translate(-382.458 -270.17)" fill="#51a976"/>
    <path id="Trazado_37764" data-name="Trazado 37764" d="M592.382,585.468l5.641-9,1.079,2.163.264-.375-.435,9.249,3.529-1.968,2.566,3.01-8.578,13.77.028-.185-.306-2.524-3.437,3.094v-8.17l-.292-.968-1.677-5.516Z" transform="translate(-351.579 -146.176)" fill="#51a976"/>
    <path id="Trazado_37765" data-name="Trazado 37765" d="M630.176,923.421l1.427,6.123-.037-.06-1.246,1.7-1.487-.968.5-1.116-1.853-2.084-.885-2.885.885-.273,2.7-1.936Z" transform="translate(-380.183 -421.997)" fill="#51a976"/>
    <path id="Trazado_37766" data-name="Trazado 37766" d="M641.934,453.591l-1.292.695-.195-.1.912-.866Z" transform="translate(-391.247 -47.851)" fill="#fff"/>
    <path id="Trazado_37767" data-name="Trazado 37767" d="M553.795,477.267l.848,1.389-4.474,2.7-1.408,1.681-4.229,5.035-3.937,4.669-9.184,5.363v-1.621l8.568-5.016,3.4-4.09,5.558-6.794Z" transform="translate(-304.187 -66.969)" fill="#c7ddde"/>
    <path id="Trazado_37768" data-name="Trazado 37768" d="M633.919,780.323l.435.444-2.265,2.219-.811-.422,1.9-2.89Z" transform="translate(-383.926 -308.425)" fill="#0a3429"/>
    <path id="Trazado_37769" data-name="Trazado 37769" d="M632.451,902.5v3.548l-2.7,1.936-.31-4.252,1.269-1.691.741.458Z" transform="translate(-382.458 -406.127)" fill="#008459"/>
    <path id="Trazado_37770" data-name="Trazado 37770" d="M626.471,862.076l1.7,4.706v3.552h-1v-2.7l-3.089-2.005v-3.4l2.269-.472Z" transform="translate(-378.183 -373.963)" fill="#51a976"/>
    <path id="Trazado_37771" data-name="Trazado 37771" d="M523.976,504.193l-2.441,17.072,4.321,10.653,1.422,3.927-2.27.472v1.311l-2.14-1.158-3.8-4.479-.806-1.7h.032v-1.853h-1.7l-.306-1.431h1.7v-.963l-5.247-1.853-1.862,2.177-2.422-1.329,1.505-2.316-1.505-3.821-1.968.926-.579-4.284,1.852-1.505.232-3.992h-3.242l-.116-1.7,3.705-.672.347-7.41-1.274,1.218-1.505-5.155-.232-8.568-2.779-2.895,1.274-4.979h-.232V478.5l.463-2.779-4.4.811v-1.737l3.937-.695,3.242-4.516h-2.663v-1.737h4.053l1.852-2.2-1.852-.579.926-2.621,2.432.769,2.316-4.284,4.053,1.042,8.36-6.4,1.653.815-5.382,5.118v1.468l.167-.153.759.848-5.558,6.794-3.395,4.09-8.568,5.016v1.621l9.184-5.363,3.937-4.669,4.229-5.035.982.824-4.08,9.958-8,6.368-7.142.463v.926h7.142l8-6.253.672-1.088,5.206-8.406,1.459-.375.334,1.3-4.4,8.105-4.784,4.747v5.095l-1.121.195-.579-1-5.664,8.184.57,8.318-2.316,1.718v1.408l2.626-1.408v3.891l-2.316.583.074,2.376,3.01-1.075.232,2.4-2.853,1.491.306,1.463,4.168-1.765,2.163-7.123-.695-1.121-1.621,4.02-.436-4.145,4.451-8.49.9-.273.292.968v8.17l3.437-3.094.306,2.524Zm.8,29.577-2.237-4.548.329,3.274,1.6,2.39Zm-3.321-4.548v-4.34l-.875-.685v4.71Zm-1.542-17.2-.848-1.19-1.315,6.2v3.793l.658.829v-4.09Zm-4.34,7.929-.347-.982-1.853.4v1.45l-1.274.4.482.949,1.658-.523v-1.292Z" transform="translate(-279.105 -48.052)" fill="#008459"/>
    <path id="Trazado_37772" data-name="Trazado 37772" d="M628.264,947.193l1.853,2.084-.5,1.116-1.126-.727-.917-2.186Z" transform="translate(-380.972 -442.18)" fill="#51a976"/>
    <path id="Trazado_37773" data-name="Trazado 37773" d="M593.1,847.895l-5.669-3.478-4.229-8.457-.866-1.732H584l.806,1.7,3.8,4.479,2.14,1.158v2.084l3.089,2.005v2.7Z" transform="translate(-344.845 -351.983)" fill="#140c17"/>
    <path id="Trazado_37774" data-name="Trazado 37774" d="M635.716,861.366l-.255.4-.116-.32Z" transform="translate(-387.173 -373.651)" fill="#a9cfc3"/>
    <path id="Trazado_37775" data-name="Trazado 37775" d="M593.72,854.757l-1.269,1.69.31,4.252-.885.273-1.047-3.4.31.343v-1.542l-1.853-2.316-.908.625-3.552-4.664.6-.361-1.621-2.01.811-1.464-1.505-2.936.709-.426,4.229,8.457Z" transform="translate(-345.469 -358.845)" fill="#51a976"/>
    <path id="Trazado_37776" data-name="Trazado 37776" d="M564.961,838.57l.885,2.885-.685.287-1.862-4.456-10.5-12.658-3.4-8.8.917-1.065,1.167.639H552.8l-.769,1.737,3.011,4.789v2.005l2.7,3.784.171-.1,3.552,4.664-.1.07.949,1.051,1.6,1.765v0Z" transform="translate(-318.553 -336.442)" fill="#107253"/>
    <path id="Trazado_37777" data-name="Trazado 37777" d="M599.388,564.588l1.7,2.395-5.641,9-.843-1.552v-5.095Z" transform="translate(-354.643 -136.69)" fill="#107253"/>
    <path id="Trazado_37778" data-name="Trazado 37778" d="M612,900.885v1.542l-.31-.343v0l-1.6-1.765-.852-1.121.908-.625Z" transform="translate(-366.33 -403.356)" fill="#17433a"/>
    <path id="Trazado_37779" data-name="Trazado 37779" d="M611.838,828.9l2.237,4.548-.31,1.116-1.6-2.39Z" transform="translate(-368.404 -347.726)" fill="#a9cfc3"/>
    <path id="Trazado_37780" data-name="Trazado 37780" d="M609.708,902.792l-.949-1.051.1-.069Z" transform="translate(-365.945 -405.833)" fill="#17433a"/>
    <path id="Trazado_37781" data-name="Trazado 37781" d="M602.993,804.649v4.34l-.875-.315v-4.71Z" transform="translate(-360.643 -327.819)" fill="#fff"/>
    <path id="Trazado_37782" data-name="Trazado 37782" d="M542.811,559.835l-.672,1.089-8,6.252H527v-.926l7.142-.463,8-6.368Z" transform="translate(-300.664 -132.562)" fill="#a9cfc3"/>
    <path id="Trazado_37783" data-name="Trazado 37783" d="M577.765,623.067l-.9.273-.773-1.158L574,625.521l-.695-.945,2.432-4.326-1.121-2.779-1.774,3.089-.463-1.237,3.358-5.711,1.121-.195.843,1.552-1.616,2.58Z" transform="translate(-336.901 -175.679)" fill="#008459"/>
    <path id="Trazado_37784" data-name="Trazado 37784" d="M589.393,737.645l.848,1.19-1.505,5.539v4.09l-.658-.829v-3.793Z" transform="translate(-349.432 -274.867)" fill="#0a3429"/>
    <path id="Trazado_37785" data-name="Trazado 37785" d="M557.74,618.971l.773,1.158-4.451,8.49.435,4.145,1.621-4.02.695,1.121-2.163,7.123-4.168,1.765-.306-1.464,2.853-1.491-.231-2.4-3.011,1.074-.074-2.376,2.316-.583v-3.89l-2.626,1.408v-1.408l2.316-1.718-.57-8.318,5.664-8.184.579,1.005-3.358,5.711.463,1.237,1.774-3.089,1.121,2.779-2.432,4.326.695.945Z" transform="translate(-318.553 -172.468)" fill="#e4f1ee"/>
    <path id="Trazado_37786" data-name="Trazado 37786" d="M568.315,830.148l-.171.1-2.7-3.784v-2.005l-3.01-4.789.769-1.737h2.936l.306,1.431h1.7v1.853h-1.7l.866,1.732-.709.426,1.505,2.936-.81,1.464,1.621,2.01Z" transform="translate(-328.956 -338.974)" fill="#0a3429"/>
    <path id="Trazado_37787" data-name="Trazado 37787" d="M561.063,805.816v.963H555.12l-1.167-.639,1.862-2.177Z" transform="translate(-322.186 -327.819)" fill="#107253"/>
    <path id="Trazado_37788" data-name="Trazado 37788" d="M563.169,778.02l.347.982-1.334.408V780.7l-1.658.523-.482-.949,1.274-.4v-1.45Z" transform="translate(-327.048 -307.104)" fill="#134235"/>
    <path id="Trazado_37789" data-name="Trazado 37789" d="M447.421,1552.311l-7.077-19.675,10.037,7.786,6.54,12.857,2.2,9.319-5.91,5.808Z" transform="translate(-231.475 -909.625)" fill="#9a0014"/>
    <path id="Trazado_37790" data-name="Trazado 37790" d="M508.063,577.227v1.389h-2.779l-.116-1.389Z" transform="translate(-283.234 -146.782)" fill="#008459"/>
    <path id="Trazado_37791" data-name="Trazado 37791" d="M398.988,1461.337l-2.256-1.746-8.184-13.121,1.487-3.131.056.815,12.042,11.426,6.892,13.543Z" transform="translate(-190.119 -838.326)" fill="#e50019"/>
    <path id="Trazado_37792" data-name="Trazado 37792" d="M258.133,1327.821l7.077,19.675-12.769,9.055-7.216-10.713-8.337,3.089,6.229,11.653L234.678,1363l-22.542-42.916,19.193-13.3-4.131-6.526-8.221,4.21-6.253-11.5,27.7-16.841,7.114,9.661,1.64,24.042-1.487,3.131,8.184,13.121Z" transform="translate(-49.263 -704.809)" fill="#c5001b"/>
    <rect id="Rectángulo_4268" data-name="Rectángulo 4268" width="9.024" height="9.024" transform="translate(376.894 474.145)" fill="#c5001b"/>
    <rect id="Rectángulo_4269" data-name="Rectángulo 4269" width="4.856" height="4.856" transform="translate(415.996 453.618)" fill="#107253"/>
    <rect id="Rectángulo_4270" data-name="Rectángulo 4270" width="4.856" height="4.856" transform="translate(150.438 507.995)" fill="#107253"/>
    <rect id="Rectángulo_4271" data-name="Rectángulo 4271" width="4.856" height="4.856" transform="translate(369.51 521.575)" fill="#107253"/>
    <rect id="Rectángulo_4272" data-name="Rectángulo 4272" width="6.653" height="6.653" transform="translate(382.591 456.298)" fill="#0b5e44"/>
    <rect id="Rectángulo_4273" data-name="Rectángulo 4273" width="6.653" height="6.653" transform="translate(212.503 482.391)" fill="#0b5e44"/>
    <rect id="Rectángulo_4274" data-name="Rectángulo 4274" width="6.653" height="6.653" transform="translate(189.037 502.768)" fill="#6eb592"/>
    <rect id="Rectángulo_4275" data-name="Rectángulo 4275" width="10.783" height="10.783" transform="translate(205.467 473.266)" fill="#6eb592"/>
    <rect id="Rectángulo_4276" data-name="Rectángulo 4276" width="10.783" height="10.783" transform="translate(374.366 526.431)" fill="#6eb592"/>
    <rect id="Rectángulo_4277" data-name="Rectángulo 4277" width="6.653" height="6.653" transform="translate(426.205 516.501)" fill="#008459"/>
    <rect id="Rectángulo_4278" data-name="Rectángulo 4278" width="6.653" height="6.653" transform="translate(169.045 462.935)" fill="#fff"/>
    <rect id="Rectángulo_4279" data-name="Rectángulo 4279" width="6.653" height="6.653" transform="translate(351.72 494.914)" fill="#134235"/>
    <rect id="Rectángulo_4280" data-name="Rectángulo 4280" width="6.653" height="6.653" transform="translate(215.83 506.095)" fill="#9a0014"/>
    <rect id="Rectángulo_4281" data-name="Rectángulo 4281" width="3.327" height="3.326" transform="translate(397.094 484.593)" fill="#134235"/>
    <rect id="Rectángulo_4282" data-name="Rectángulo 4282" width="3.327" height="3.327" transform="translate(174.034 534.691)" fill="#134235"/>
    <rect id="Rectángulo_4283" data-name="Rectángulo 4283" width="3.326" height="3.327" transform="translate(355.046 464.619)" fill="#fff"/>
    <rect id="Rectángulo_4284" data-name="Rectángulo 4284" width="3.327" height="3.327" transform="translate(233.014 536.158)" fill="#fff"/>
  </g>
</svg>
