<svg xmlns="http://www.w3.org/2000/svg" xmlns:xlink="http://www.w3.org/1999/xlink" width="175" height="175" viewBox="0 0 175 175">
  <defs>
    <radialGradient id="radial-gradient" cx="0.5" cy="0.5" r="0.5" gradientUnits="objectBoundingBox">
      <stop offset="0" stop-color="#fff"/>
      <stop offset="1" stop-color="#fae7b7"/>
    </radialGradient>
    <filter id="Trazado_54423" x="0" y="0" width="175" height="175" filterUnits="userSpaceOnUse">
      <feOffset dy="3" input="SourceAlpha"/>
      <feGaussianBlur stdDeviation="3" result="blur"/>
      <feFlood flood-opacity="0.161"/>
      <feComposite operator="in" in2="blur"/>
      <feComposite in="SourceGraphic"/>
    </filter>
  </defs>
  <g id="Grupo_24615" data-name="Grupo 24615" transform="translate(-445 -2429)">
    <g transform="matrix(1, 0, 0, 1, 445, 2429)" filter="url(#Trazado_54423)">
      <g id="Trazado_54423-2" data-name="Trazado 54423" transform="translate(9 6)" fill="url(#radial-gradient)">
        <path d="M 78.5 156 C 68.03711700439453 156 57.88776016235352 153.9510650634766 48.33382034301758 149.9100799560547 C 43.74184036254883 147.9678344726563 39.31280136108398 145.5638275146484 35.16971969604492 142.7648162841797 C 31.06574058532715 139.9922180175781 27.20652008056641 136.8080596923828 23.69922065734863 133.30078125 C 20.19194030761719 129.7935028076172 17.00778007507324 125.9342575073242 14.23519992828369 121.8302993774414 C 11.43618011474609 117.6872177124023 9.032159805297852 113.2581787109375 7.089920043945313 108.6661987304688 C 3.048939943313599 99.11224365234375 1 88.96288299560547 1 78.5 C 1 68.03711700439453 3.048939943313599 57.88776016235352 7.089920043945313 48.33382034301758 C 9.032159805297852 43.74184036254883 11.43618011474609 39.31280136108398 14.23519992828369 35.16971969604492 C 17.00778007507324 31.06574058532715 20.19194030761719 27.20652008056641 23.69922065734863 23.69922065734863 C 27.20652008056641 20.19194030761719 31.06574058532715 17.00778007507324 35.16971969604492 14.23519992828369 C 39.31280136108398 11.43618011474609 43.74184036254883 9.032159805297852 48.33382034301758 7.089920043945313 C 57.88776016235352 3.048939943313599 68.03711700439453 1 78.5 1 C 88.96288299560547 1 99.11224365234375 3.048939943313599 108.6661987304688 7.089920043945313 C 113.2581787109375 9.032159805297852 117.6872177124023 11.43618011474609 121.8302993774414 14.23519992828369 C 125.9342575073242 17.00778007507324 129.7935028076172 20.19194030761719 133.30078125 23.69922065734863 C 136.8080596923828 27.20652008056641 139.9922180175781 31.06574058532715 142.7648162841797 35.16971969604492 C 145.5638275146484 39.31280136108398 147.9678344726563 43.74184036254883 149.9100799560547 48.33382034301758 C 153.9510650634766 57.88776016235352 156 68.03711700439453 156 78.5 C 156 88.96288299560547 153.9510650634766 99.11225891113281 149.9100799560547 108.6661987304688 C 147.9678344726563 113.2581787109375 145.5638275146484 117.6872177124023 142.7648162841797 121.8302993774414 C 139.9922180175781 125.9342575073242 136.8080596923828 129.7935028076172 133.30078125 133.30078125 C 129.7935028076172 136.8080596923828 125.9342575073242 139.9922180175781 121.8302993774414 142.7648162841797 C 117.6872177124023 145.5638275146484 113.2581787109375 147.9678344726563 108.6661987304688 149.9100799560547 C 99.11225891113281 153.9510650634766 88.96288299560547 156 78.5 156 Z" stroke="none"/>
        <path d="M 78.5 2 C 68.17169189453125 2 58.15336608886719 4.022369384765625 48.72336578369141 8.010940551757813 C 44.19084930419922 9.928024291992188 39.81908416748047 12.30094909667969 35.72952270507813 15.06379699707031 C 31.67828369140625 17.80078125 27.86860656738281 20.94404602050781 24.40632629394531 24.40632629394531 C 20.94404602050781 27.86860656738281 17.80078125 31.67828369140625 15.06379699707031 35.72952270507813 C 12.30094909667969 39.81908416748047 9.928024291992188 44.19084930419922 8.010940551757813 48.72336578369141 C 4.022369384765625 58.15336608886719 2 68.17169189453125 2 78.5 C 2 88.82830810546875 4.022369384765625 98.84663391113281 8.010940551757813 108.2766265869141 C 9.928024291992188 112.8091506958008 12.30094909667969 117.180908203125 15.06379699707031 121.2704772949219 C 17.80078125 125.3217163085938 20.94404602050781 129.1313934326172 24.40632629394531 132.5936737060547 C 27.86860656738281 136.0559539794922 31.67828369140625 139.19921875 35.72952270507813 141.9361877441406 C 39.81908416748047 144.6990356445313 44.19084930419922 147.0719757080078 48.72336578369141 148.9890594482422 C 58.15336608886719 152.9776306152344 68.17169189453125 155 78.5 155 C 88.82830810546875 155 98.84663391113281 152.9776306152344 108.2766265869141 148.9890594482422 C 112.8091506958008 147.0719757080078 117.180908203125 144.6990356445313 121.2704772949219 141.9361877441406 C 125.3217163085938 139.19921875 129.1313934326172 136.0559539794922 132.5936737060547 132.5936737060547 C 136.0559539794922 129.1313934326172 139.19921875 125.3217163085938 141.9361877441406 121.2704772949219 C 144.6990356445313 117.180908203125 147.0719757080078 112.8091506958008 148.9890594482422 108.2766265869141 C 152.9776306152344 98.84663391113281 155 88.82830810546875 155 78.5 C 155 68.17169189453125 152.9776306152344 58.15336608886719 148.9890594482422 48.72336578369141 C 147.0719757080078 44.19084930419922 144.6990356445313 39.81908416748047 141.9361877441406 35.72952270507813 C 139.19921875 31.67828369140625 136.0559539794922 27.86860656738281 132.5936737060547 24.40632629394531 C 129.1313934326172 20.94404602050781 125.3217163085938 17.80078125 121.2704772949219 15.06379699707031 C 117.180908203125 12.30094909667969 112.8091506958008 9.928024291992188 108.2766265869141 8.010940551757813 C 98.84663391113281 4.022369384765625 88.82830810546875 2 78.5 2 M 78.5 0 C 121.8543472290039 0 157 35.14565277099609 157 78.5 C 157 121.8543472290039 121.8543472290039 157 78.5 157 C 35.14565277099609 157 0 121.8543472290039 0 78.5 C 0 35.14565277099609 35.14565277099609 0 78.5 0 Z" stroke="none" fill="#fff"/>
      </g>
    </g>
    <g id="Grupo_17810" data-name="Grupo 17810" transform="translate(420 2269.952)">
      <circle id="Elipse_949" data-name="Elipse 949" cx="30" cy="30" r="30" transform="translate(94.702 204.048)" fill="#e9eaeb" style="mix-blend-mode: luminosity;isolation: isolate"/>
      <path id="Trazado_45068" data-name="Trazado 45068" d="M127.348,217H87a4.035,4.035,0,0,1,4.035,4.035v53.8a5.38,5.38,0,0,0,5.38,5.38h34.969V221.035A4.035,4.035,0,0,0,127.348,217Z" transform="translate(5.519 4.497)" fill="#fff"/>
      <path id="Trazado_45069" data-name="Trazado 45069" d="M115.348,210H75a4.035,4.035,0,0,1,4.035,4.035v51.108a5.38,5.38,0,0,0,5.38,5.38h34.969V214.035A4.035,4.035,0,0,0,115.348,210Z" transform="translate(1.38 2.082)" fill="#fff"/>
      <rect id="Rectángulo_4362" data-name="Rectángulo 4362" width="10" height="2" transform="translate(83.702 272.048)" fill="#2a5082"/>
      <path id="Trazado_45070" data-name="Trazado 45070" d="M132.728,273.833h-2.69V221.38a2.693,2.693,0,0,0-2.69-2.69H87V216h40.348a5.385,5.385,0,0,1,5.38,5.38Z" transform="translate(5.519 4.152)" fill="#2a5082"/>
      <path id="Trazado_45071" data-name="Trazado 45071" d="M120.728,217.07h-2.69v-2.69a2.693,2.693,0,0,0-2.69-2.69H75V209h40.348a5.385,5.385,0,0,1,5.38,5.38Z" transform="translate(1.38 1.737)" fill="#2a5082"/>
      <path id="Trazado_45072" data-name="Trazado 45072" d="M101.934,284.317a6.732,6.732,0,0,1-6.725-6.725v-53.8a2.69,2.69,0,1,0-5.38,0v43.038a5.38,5.38,0,1,1-10.76,0V214.38a2.69,2.69,0,0,0-5.38,0v2.69h4.035v2.69H71v-5.38a5.38,5.38,0,1,1,10.76,0v52.453a2.69,2.69,0,1,0,5.38,0V223.794a5.38,5.38,0,0,1,10.76,0v53.8a4.04,4.04,0,0,0,4.035,4.035Z" transform="translate(0 1.737)" fill="#2a5082"/>
      <g id="Grupo_17809" data-name="Grupo 17809" transform="translate(101.934 276.639)">
        <path id="Trazado_45073" data-name="Trazado 45073" d="M99.38,260.345V259h37.659v1.345a5.38,5.38,0,0,1-5.38,5.38H94A5.38,5.38,0,0,0,99.38,260.345Z" transform="translate(-94 -257.655)" fill="#fae7b7"/>
        <path id="Trazado_45074" data-name="Trazado 45074" d="M131.659,267.415H94v-2.69a4.04,4.04,0,0,0,4.035-4.035V258h40.348v2.69A6.732,6.732,0,0,1,131.659,267.415Zm-32.281-2.69h32.281a4.04,4.04,0,0,0,4.035-4.035H100.725A6.7,6.7,0,0,1,99.377,264.725Z" transform="translate(-94 -258)" fill="#2a5082"/>
      </g>
      <path id="Trazado_45075" data-name="Trazado 45075" d="M101.052,240.1a6.052,6.052,0,1,1,6.052-6.052A6.06,6.06,0,0,1,101.052,240.1Zm0-9.415a3.362,3.362,0,1,0,3.362,3.362A3.367,3.367,0,0,0,101.052,230.69Z" transform="translate(8.279 8.291)" fill="#2a5082"/>
      <path id="Trazado_45076" data-name="Trazado 45076" d="M112.052,249.1a6.052,6.052,0,1,1,6.052-6.052A6.06,6.06,0,0,1,112.052,249.1Zm0-9.415a3.362,3.362,0,1,0,3.362,3.362A3.367,3.367,0,0,0,112.052,239.69Z" transform="translate(12.073 11.396)" fill="#2a5082"/>
      <path id="Trazado_45077" data-name="Trazado 45077" d="M98.345,252.209a1.345,1.345,0,0,1-1.011-2.231l18.829-21.519a1.345,1.345,0,1,1,2.023,1.773L99.356,251.75A1.342,1.342,0,0,1,98.345,252.209Z" transform="translate(8.969 8.291)" fill="#2a5082"/>
    </g>
  </g>
</svg>
