<svg xmlns="http://www.w3.org/2000/svg" xmlns:xlink="http://www.w3.org/1999/xlink" width="175" height="175" viewBox="0 0 175 175">
  <defs>
    <radialGradient id="radial-gradient" cx="0.5" cy="0.5" r="0.5" gradientUnits="objectBoundingBox">
      <stop offset="0" stop-color="#fff"/>
      <stop offset="1" stop-color="#fae7b7"/>
    </radialGradient>
    <filter id="Trazado_54420" x="0" y="0" width="175" height="175" filterUnits="userSpaceOnUse">
      <feOffset dy="3" input="SourceAlpha"/>
      <feGaussianBlur stdDeviation="3" result="blur"/>
      <feFlood flood-opacity="0.161"/>
      <feComposite operator="in" in2="blur"/>
      <feComposite in="SourceGraphic"/>
    </filter>
  </defs>
  <g id="Grupo_24612" data-name="Grupo 24612" transform="translate(-445 -1808)">
    <g transform="matrix(1, 0, 0, 1, 445, 1808)" filter="url(#Trazado_54420)">
      <g id="Trazado_54420-2" data-name="Trazado 54420" transform="translate(9 6)" fill="url(#radial-gradient)">
        <path d="M 78.5 156 C 68.03711700439453 156 57.88776016235352 153.9510650634766 48.33382034301758 149.9100799560547 C 43.74184036254883 147.9678344726563 39.31280136108398 145.5638275146484 35.16971969604492 142.7648162841797 C 31.06574058532715 139.9922180175781 27.20652008056641 136.8080596923828 23.69922065734863 133.30078125 C 20.19194030761719 129.7935028076172 17.00778007507324 125.9342575073242 14.23519992828369 121.8302993774414 C 11.43618011474609 117.6872177124023 9.032159805297852 113.2581787109375 7.089920043945313 108.6661987304688 C 3.048939943313599 99.11224365234375 1 88.96288299560547 1 78.5 C 1 68.03711700439453 3.048939943313599 57.88776016235352 7.089920043945313 48.33382034301758 C 9.032159805297852 43.74184036254883 11.43618011474609 39.31280136108398 14.23519992828369 35.16971969604492 C 17.00778007507324 31.06574058532715 20.19194030761719 27.20652008056641 23.69922065734863 23.69922065734863 C 27.20652008056641 20.19194030761719 31.06574058532715 17.00778007507324 35.16971969604492 14.23519992828369 C 39.31280136108398 11.43618011474609 43.74184036254883 9.032159805297852 48.33382034301758 7.089920043945313 C 57.88776016235352 3.048939943313599 68.03711700439453 1 78.5 1 C 88.96288299560547 1 99.11224365234375 3.048939943313599 108.6661987304688 7.089920043945313 C 113.2581787109375 9.032159805297852 117.6872177124023 11.43618011474609 121.8302993774414 14.23519992828369 C 125.9342575073242 17.00778007507324 129.7935028076172 20.19194030761719 133.30078125 23.69922065734863 C 136.8080596923828 27.20652008056641 139.9922180175781 31.06574058532715 142.7648162841797 35.16971969604492 C 145.5638275146484 39.31280136108398 147.9678344726563 43.74184036254883 149.9100799560547 48.33382034301758 C 153.9510650634766 57.88776016235352 156 68.03711700439453 156 78.5 C 156 88.96288299560547 153.9510650634766 99.11225891113281 149.9100799560547 108.6661987304688 C 147.9678344726563 113.2581787109375 145.5638275146484 117.6872177124023 142.7648162841797 121.8302993774414 C 139.9922180175781 125.9342575073242 136.8080596923828 129.7935028076172 133.30078125 133.30078125 C 129.7935028076172 136.8080596923828 125.9342575073242 139.9922180175781 121.8302993774414 142.7648162841797 C 117.6872177124023 145.5638275146484 113.2581787109375 147.9678344726563 108.6661987304688 149.9100799560547 C 99.11225891113281 153.9510650634766 88.96288299560547 156 78.5 156 Z" stroke="none"/>
        <path d="M 78.5 2 C 68.17169189453125 2 58.15336608886719 4.022369384765625 48.72336578369141 8.010940551757813 C 44.19084930419922 9.928024291992188 39.81908416748047 12.30094909667969 35.72952270507813 15.06379699707031 C 31.67828369140625 17.80078125 27.86860656738281 20.94404602050781 24.40632629394531 24.40632629394531 C 20.94404602050781 27.86860656738281 17.80078125 31.67828369140625 15.06379699707031 35.72952270507813 C 12.30094909667969 39.81908416748047 9.928024291992188 44.19084930419922 8.010940551757813 48.72336578369141 C 4.022369384765625 58.15336608886719 2 68.17169189453125 2 78.5 C 2 88.82830810546875 4.022369384765625 98.84663391113281 8.010940551757813 108.2766265869141 C 9.928024291992188 112.8091506958008 12.30094909667969 117.180908203125 15.06379699707031 121.2704772949219 C 17.80078125 125.3217163085938 20.94404602050781 129.1313934326172 24.40632629394531 132.5936737060547 C 27.86860656738281 136.0559539794922 31.67828369140625 139.19921875 35.72952270507813 141.9361877441406 C 39.81908416748047 144.6990356445313 44.19084930419922 147.0719757080078 48.72336578369141 148.9890594482422 C 58.15336608886719 152.9776306152344 68.17169189453125 155 78.5 155 C 88.82830810546875 155 98.84663391113281 152.9776306152344 108.2766265869141 148.9890594482422 C 112.8091506958008 147.0719757080078 117.180908203125 144.6990356445313 121.2704772949219 141.9361877441406 C 125.3217163085938 139.19921875 129.1313934326172 136.0559539794922 132.5936737060547 132.5936737060547 C 136.0559539794922 129.1313934326172 139.19921875 125.3217163085938 141.9361877441406 121.2704772949219 C 144.6990356445313 117.180908203125 147.0719757080078 112.8091506958008 148.9890594482422 108.2766265869141 C 152.9776306152344 98.84663391113281 155 88.82830810546875 155 78.5 C 155 68.17169189453125 152.9776306152344 58.15336608886719 148.9890594482422 48.72336578369141 C 147.0719757080078 44.19084930419922 144.6990356445313 39.81908416748047 141.9361877441406 35.72952270507813 C 139.19921875 31.67828369140625 136.0559539794922 27.86860656738281 132.5936737060547 24.40632629394531 C 129.1313934326172 20.94404602050781 125.3217163085938 17.80078125 121.2704772949219 15.06379699707031 C 117.180908203125 12.30094909667969 112.8091506958008 9.928024291992188 108.2766265869141 8.010940551757813 C 98.84663391113281 4.022369384765625 88.82830810546875 2 78.5 2 M 78.5 0 C 121.8543472290039 0 157 35.14565277099609 157 78.5 C 157 121.8543472290039 121.8543472290039 157 78.5 157 C 35.14565277099609 157 0 121.8543472290039 0 78.5 C 0 35.14565277099609 35.14565277099609 0 78.5 0 Z" stroke="none" fill="#fff"/>
      </g>
    </g>
    <g id="Grupo_17814" data-name="Grupo 17814" transform="translate(489.701 1844.601)">
      <path id="Trazado_45078" data-name="Trazado 45078" d="M324.742,226.742,317,219v26.321h7.742Z" transform="translate(-282.657 -193.076)" fill="#ffc558"/>
      <circle id="Elipse_950" data-name="Elipse 950" cx="26.5" cy="26.5" r="26.5" transform="translate(0.299 41.399)" fill="#e9eaeb" style="mix-blend-mode: luminosity;isolation: isolate"/>
      <path id="Trazado_45079" data-name="Trazado 45079" d="M334.225,286.933,311,254.418h9.29V225l26.321,27.87v1.548H357.45Z" transform="translate(-285.947 -189.786)" fill="#fae7b7"/>
      <path id="Trazado_45080" data-name="Trazado 45080" d="M334.773,293.416a1.544,1.544,0,0,1-1.259-.649L310.29,260.252a1.546,1.546,0,0,1,1.259-2.448h7.742V216h3.1v43.353a1.548,1.548,0,0,1-1.548,1.548h-6.281l20.216,28.3,20.216-28.3h-7.83a1.548,1.548,0,0,1-1.548-1.548V243.87h3.1V257.8H358a1.546,1.546,0,0,1,1.259,2.448l-23.225,32.515A1.544,1.544,0,0,1,334.773,293.416Z" transform="translate(-286.496 -194.721)" fill="#2a5082"/>
      <rect id="Rectángulo_4363" data-name="Rectángulo 4363" width="3" height="3" transform="translate(33.299 15.399)" fill="#2a5082"/>
      <rect id="Rectángulo_4364" data-name="Rectángulo 4364" width="3" height="4" transform="translate(33.299 8.399)" fill="#2a5082"/>
      <rect id="Rectángulo_4365" data-name="Rectángulo 4365" width="5" height="20" transform="translate(24.299 16.399)" fill="#2a5082"/>
      <rect id="Rectángulo_4366" data-name="Rectángulo 4366" width="3" height="16" transform="translate(59.299 0.399)" fill="#2a5082"/>
      <path id="Trazado_45081" data-name="Trazado 45081" d="M342.967,236.935a6.967,6.967,0,1,1,6.967-6.967A6.976,6.976,0,0,1,342.967,236.935Zm0-10.838a3.871,3.871,0,1,0,3.871,3.871A3.875,3.875,0,0,0,342.967,226.1Z" transform="translate(-272.239 -190.883)" fill="#2a5082"/>
      <path id="Trazado_45082" data-name="Trazado 45082" d="M331.967,227.935a6.967,6.967,0,1,1,6.967-6.967A6.976,6.976,0,0,1,331.967,227.935Zm0-10.838a3.871,3.871,0,1,0,3.871,3.871A3.875,3.875,0,0,0,331.967,217.1Z" transform="translate(-278.271 -195.818)" fill="#2a5082"/>
      <path id="Trazado_45083" data-name="Trazado 45083" d="M328.548,241.87a1.55,1.55,0,0,1-1.166-2.569l21.676-24.773a1.549,1.549,0,0,1,2.332,2.041l-21.676,24.773A1.551,1.551,0,0,1,328.548,241.87Z" transform="translate(-277.174 -195.818)" fill="#2a5082"/>
      <g id="Grupo_17811" data-name="Grupo 17811" transform="translate(73.5 49.21)">
        <path id="Trazado_45084" data-name="Trazado 45084" d="M348.03,244.222l-5.74-5.74,2.189-2.189,3.55,3.55,3.55-3.55,2.189,2.189Z" transform="translate(-342.29 -232.804)" fill="#bcc0c4"/>
        <rect id="Rectángulo_4367" data-name="Rectángulo 4367" width="3" height="9" transform="translate(4.799 0.189)" fill="#bcc0c4"/>
      </g>
      <g id="Grupo_17812" data-name="Grupo 17812" transform="translate(14.664 44.816)">
        <path id="Trazado_45085" data-name="Trazado 45085" d="M310.03,241.222l-5.74-5.74,2.189-2.189,3.55,3.55,3.55-3.55,2.189,2.189Z" transform="translate(-304.29 -230.055)" fill="#bcc0c4"/>
        <rect id="Rectángulo_4368" data-name="Rectángulo 4368" width="4" height="9" transform="translate(3.635 -0.418)" fill="#bcc0c4"/>
      </g>
      <g id="Grupo_17813" data-name="Grupo 17813" transform="translate(17.76 0)">
        <path id="Trazado_45086" data-name="Trazado 45086" d="M312.03,212.222l-5.74-5.74,2.189-2.189,3.55,3.55,3.55-3.55,2.189,2.189Z" transform="translate(-306.29 -201.14)" fill="#bcc0c4"/>
        <rect id="Rectángulo_4369" data-name="Rectángulo 4369" width="2" height="8" transform="translate(4.539 0.399)" fill="#bcc0c4"/>
      </g>
    </g>
  </g>
</svg>
