<svg xmlns="http://www.w3.org/2000/svg" width="158.969" height="172.481" viewBox="0 0 158.969 172.481">
  <g id="Grupo_17761" data-name="Grupo 17761" transform="translate(-3226.429 -2050.775)">
    <g id="Grupo_17757" data-name="Grupo 17757" transform="translate(3255.578 2129.028)">
      <g id="Grupo_17744" data-name="Grupo 17744" transform="translate(0 35.673)">
        <g id="Grupo_17739" data-name="Grupo 17739" transform="translate(10.587 19.6)">
          <path id="Trazado_37813" data-name="Trazado 37813" d="M3292.106,2283.25c-.153-4.049-.357-9.448-.511-13.5.1,2.785.4,10.3.513,13.187C3292.1,2283.043,3292.1,2283.146,3292.106,2283.25Z" transform="translate(-3291.595 -2269.753)" fill="#ffc910"/>
        </g>
        <g id="Grupo_17740" data-name="Grupo 17740" transform="translate(0.003 13.919)">
          <path id="Trazado_37814" data-name="Trazado 37814" d="M3396.87,2260.437q.282,7.473.564,14.943c.145,3.807-4.847,7.825-15.174,11.284-22.305,7.471-61.043,9.512-86.527,4.559-13.684-2.66-20.764-6.8-20.931-11.213l-.566-14.943c.167,4.417,7.245,8.553,20.931,11.213,25.484,4.954,64.222,2.913,86.527-4.559C3392.021,2268.261,3397.014,2264.245,3396.87,2260.437Z" transform="translate(-3274.237 -2260.437)" fill="#ffab01"/>
        </g>
        <g id="Grupo_17741" data-name="Grupo 17741">
          <path id="Trazado_37815" data-name="Trazado 37815" d="M3375.936,2240.314c25.483,4.954,28.063,15.026,5.758,22.5s-61.044,9.514-86.528,4.559-28.058-15.025-5.754-22.5S3350.451,2235.362,3375.936,2240.314ZM3302.1,2265.05c21.108,4.1,53.2,2.411,71.671-3.776s16.341-14.533-4.766-18.636-53.192-2.41-71.667,3.779-16.341,14.531,4.763,18.634" transform="translate(-3274.233 -2237.61)" fill="#ffc910"/>
        </g>
        <path id="Trazado_37816" data-name="Trazado 37816" d="M3375.742,2244.421c21.107,4.1,23.242,12.446,4.766,18.636s-50.563,7.879-71.671,3.776-23.238-12.446-4.763-18.634S3354.637,2240.319,3375.742,2244.421Z" transform="translate(-3280.972 -2239.394)" fill="#ffab01"/>
        <path id="Trazado_37817" data-name="Trazado 37817" d="M3304.077,2250.059c18.476-6.19,50.563-7.879,71.667-3.778,10.5,2.042,16.305,5.134,17.21,8.489,1.055-4.049-4.787-7.933-17.21-10.349-21.1-4.1-53.192-2.411-71.667,3.779-9.281,3.109-13.358,6.761-12.444,10.146C3292.371,2255.516,3296.476,2252.6,3304.077,2250.059Z" transform="translate(-3280.974 -2239.394)" fill="#f99b0f"/>
        <path id="Trazado_37818" data-name="Trazado 37818" d="M3283.848,2278.705v14.642c3.5,1.941,8.726,3.662,15.636,5a156.932,156.932,0,0,0,22.792,2.5v-14.918a157.962,157.962,0,0,1-23.358-2.527C3292.369,2282.135,3287.338,2280.523,3283.848,2278.705Z" transform="translate(-3277.985 -2253.647)" fill="#f99b0f"/>
        <g id="Grupo_17742" data-name="Grupo 17742" transform="translate(30.897 8.642)">
          <path id="Trazado_37819" data-name="Trazado 37819" d="M3380.121,2252.825l-5.593,1.875c2.231.618,3.284,1.363,3.149,2.231s-1.431,1.766-3.907,2.693l-5.76-1.12q2.076-.793,1.812-1.543c-.175-.507-1.113-.921-2.809-1.251a23.611,23.611,0,0,0-5.841-.355,21.224,21.224,0,0,0-5.542.991,6.061,6.061,0,0,0-1.345.6c-.3.2-.448.41-.448.62-.025.434,1.015.988,3.131,1.665,1.265.4,2.17.729,2.733.977,1.96.855,2.822,1.715,2.564,2.584s-1.587,1.705-4.005,2.515a46.728,46.728,0,0,1-10.507,2.084,47.608,47.608,0,0,1-10.762-.119l-6.718,2.252-5.368-1.043,6.459-2.163q-4.25-1.132-4.077-2.692t4.79-3.119l5.545,1.078q-2.943,1.081-2.7,1.962t3.684,1.551a26.923,26.923,0,0,0,6.706.412,24.215,24.215,0,0,0,6.362-1.138,11.164,11.164,0,0,0,1.614-.656,2.253,2.253,0,0,0,.8-.611q.607-.95-2.875-2.116c-.384-.128-.666-.224-.85-.288q-4.257-1.482-4.458-2.785t3.623-2.589a40.582,40.582,0,0,1,9.434-1.849,49.465,49.465,0,0,1,10.258.158l5.539-1.855Z" transform="translate(-3324.904 -2251.782)" fill="#f99b0f"/>
        </g>
        <g id="Grupo_17743" data-name="Grupo 17743" transform="translate(30.897 6.544)">
          <path id="Trazado_37820" data-name="Trazado 37820" d="M3380.121,2249.384l-5.593,1.874c2.231.619,3.284,1.364,3.149,2.231s-1.431,1.767-3.907,2.693l-5.76-1.119q2.076-.792,1.812-1.543t-2.809-1.252a23.622,23.622,0,0,0-5.841-.355,21.254,21.254,0,0,0-5.542.992,5.982,5.982,0,0,0-1.345.6c-.3.2-.448.409-.448.621-.025.432,1.015.985,3.131,1.665,1.265.4,2.17.727,2.733.974,1.96.856,2.822,1.717,2.564,2.585s-1.587,1.705-4.005,2.515a46.646,46.646,0,0,1-10.507,2.084,47.685,47.685,0,0,1-10.762-.117l-6.718,2.25-5.368-1.042,6.459-2.165q-4.25-1.132-4.077-2.69t4.79-3.122l5.545,1.079q-2.943,1.083-2.7,1.962t3.684,1.552a26.946,26.946,0,0,0,6.706.412,24.175,24.175,0,0,0,6.362-1.139,10.906,10.906,0,0,0,1.614-.657,2.206,2.206,0,0,0,.8-.61q.607-.948-2.875-2.116c-.384-.127-.666-.225-.85-.287q-4.257-1.483-4.458-2.785t3.623-2.59a40.583,40.583,0,0,1,9.434-1.849,49.482,49.482,0,0,1,10.258.158l5.539-1.854Z" transform="translate(-3324.904 -2248.341)" fill="#ffc910"/>
        </g>
      </g>
      <g id="Grupo_17750" data-name="Grupo 17750" transform="translate(6.616 19.45)">
        <g id="Grupo_17745" data-name="Grupo 17745" transform="translate(10.587 19.599)">
          <path id="Trazado_37821" data-name="Trazado 37821" d="M3302.957,2256.645c-.154-4.048-.358-9.448-.511-13.5.1,2.785.4,10.3.513,13.187C3302.954,2256.438,3302.953,2256.541,3302.957,2256.645Z" transform="translate(-3302.446 -2243.148)" fill="#ffc910"/>
        </g>
        <g id="Grupo_17746" data-name="Grupo 17746" transform="translate(0.003 13.919)">
          <path id="Trazado_37822" data-name="Trazado 37822" d="M3407.721,2233.833q.282,7.473.565,14.943c.145,3.808-4.847,7.825-15.175,11.285-22.3,7.471-61.042,9.511-86.526,4.557-13.684-2.659-20.764-6.8-20.931-11.212l-.566-14.943c.167,4.415,7.245,8.552,20.931,11.212,25.483,4.954,64.222,2.914,86.527-4.559C3402.873,2241.658,3407.865,2237.641,3407.721,2233.833Z" transform="translate(-3285.088 -2233.833)" fill="#ffab01"/>
        </g>
        <g id="Grupo_17747" data-name="Grupo 17747">
          <path id="Trazado_37823" data-name="Trazado 37823" d="M3386.786,2213.71c25.483,4.953,28.063,15.026,5.758,22.5s-61.043,9.513-86.527,4.559-28.058-15.024-5.754-22.5S3361.3,2208.757,3386.786,2213.71Zm-73.836,24.735c21.107,4.1,53.2,2.411,71.671-3.777s16.341-14.531-4.767-18.636-53.191-2.41-71.668,3.778-16.34,14.531,4.764,18.635" transform="translate(-3285.084 -2211.005)" fill="#ffc910"/>
        </g>
        <path id="Trazado_37824" data-name="Trazado 37824" d="M3386.593,2217.817c21.107,4.1,23.242,12.445,4.767,18.635s-50.564,7.879-71.671,3.777-23.238-12.446-4.764-18.635S3365.488,2213.715,3386.593,2217.817Z" transform="translate(-3291.823 -2212.79)" fill="#ffab01"/>
        <path id="Trazado_37825" data-name="Trazado 37825" d="M3314.927,2223.455c18.477-6.189,50.564-7.88,71.668-3.778,10.5,2.042,16.305,5.135,17.21,8.489,1.056-4.049-4.787-7.933-17.21-10.349-21.1-4.1-53.192-2.411-71.668,3.778-9.281,3.11-13.357,6.761-12.443,10.146C3303.221,2228.912,3307.325,2226,3314.927,2223.455Z" transform="translate(-3291.825 -2212.79)" fill="#f99b0f"/>
        <path id="Trazado_37826" data-name="Trazado 37826" d="M3294.7,2252.1v14.641c3.5,1.943,8.726,3.663,15.637,5.005a157.014,157.014,0,0,0,22.792,2.5v-14.919a157.956,157.956,0,0,1-23.357-2.527C3303.22,2255.531,3298.188,2253.919,3294.7,2252.1Z" transform="translate(-3288.835 -2227.042)" fill="#f99b0f"/>
        <g id="Grupo_17748" data-name="Grupo 17748" transform="translate(30.897 8.642)">
          <path id="Trazado_37827" data-name="Trazado 37827" d="M3390.971,2226.221l-5.594,1.874q3.347.928,3.15,2.23c-.123.869-1.432,1.768-3.907,2.694l-5.76-1.12q2.077-.791,1.812-1.543c-.176-.507-1.113-.921-2.809-1.251a23.62,23.62,0,0,0-5.84-.355,21.284,21.284,0,0,0-5.543.992,6.028,6.028,0,0,0-1.344.6c-.3.2-.448.41-.448.621-.025.432,1.014.987,3.13,1.665,1.265.4,2.171.728,2.733.976,1.961.855,2.822,1.716,2.564,2.584s-1.587,1.706-4.005,2.515a46.652,46.652,0,0,1-10.507,2.084,47.577,47.577,0,0,1-10.761-.118l-6.718,2.252-5.369-1.044,6.459-2.163q-4.251-1.132-4.077-2.691t4.791-3.121l5.545,1.079q-2.943,1.08-2.7,1.961t3.684,1.551a26.945,26.945,0,0,0,6.706.412,24.192,24.192,0,0,0,6.362-1.138,11,11,0,0,0,1.614-.657,2.241,2.241,0,0,0,.8-.61q.606-.948-2.876-2.116c-.383-.127-.665-.224-.85-.287q-4.257-1.482-4.458-2.785t3.624-2.589a40.555,40.555,0,0,1,9.434-1.848,49.446,49.446,0,0,1,10.258.158l5.538-1.855Z" transform="translate(-3335.754 -2225.178)" fill="#f99b0f"/>
        </g>
        <g id="Grupo_17749" data-name="Grupo 17749" transform="translate(30.897 6.543)">
          <path id="Trazado_37828" data-name="Trazado 37828" d="M3390.971,2222.779l-5.594,1.873q3.347.928,3.15,2.232c-.123.868-1.432,1.766-3.907,2.693l-5.76-1.119q2.077-.793,1.812-1.543c-.176-.507-1.113-.921-2.809-1.251a23.584,23.584,0,0,0-5.84-.356,21.212,21.212,0,0,0-5.543.993,6.01,6.01,0,0,0-1.344.6c-.3.2-.448.41-.448.621-.025.432,1.014.986,3.13,1.665,1.265.4,2.171.727,2.733.975,1.961.856,2.822,1.717,2.564,2.585s-1.587,1.7-4.005,2.514a46.6,46.6,0,0,1-10.507,2.085,47.635,47.635,0,0,1-10.761-.118l-6.718,2.252-5.369-1.043,6.459-2.165q-4.251-1.131-4.077-2.69t4.791-3.121l5.545,1.078q-2.943,1.083-2.7,1.962t3.684,1.551a26.886,26.886,0,0,0,6.706.412,24.212,24.212,0,0,0,6.362-1.138,11.191,11.191,0,0,0,1.614-.657,2.239,2.239,0,0,0,.8-.61q.606-.948-2.876-2.116c-.383-.127-.665-.225-.85-.288q-4.257-1.483-4.458-2.784t3.624-2.59a40.593,40.593,0,0,1,9.434-1.849,49.447,49.447,0,0,1,10.258.157l5.538-1.854Z" transform="translate(-3335.754 -2221.736)" fill="#ffc910"/>
        </g>
      </g>
      <g id="Grupo_17756" data-name="Grupo 17756" transform="translate(1.312 0)">
        <g id="Grupo_17751" data-name="Grupo 17751" transform="translate(10.587 19.6)">
          <path id="Trazado_37829" data-name="Trazado 37829" d="M3294.257,2224.747c-.153-4.049-.357-9.448-.511-13.5.1,2.785.4,10.3.513,13.187C3294.254,2224.541,3294.253,2224.643,3294.257,2224.747Z" transform="translate(-3293.746 -2211.25)" fill="#ffc910"/>
        </g>
        <g id="Grupo_17752" data-name="Grupo 17752" transform="translate(0.002 13.92)">
          <path id="Trazado_37830" data-name="Trazado 37830" d="M3399.021,2201.935q.282,7.473.564,14.942c.145,3.809-4.847,7.825-15.174,11.285-22.3,7.471-61.043,9.512-86.527,4.558-13.684-2.659-20.764-6.8-20.931-11.213l-.566-14.943c.167,4.415,7.246,8.552,20.931,11.212,25.483,4.954,64.222,2.914,86.526-4.559C3394.173,2209.76,3399.165,2205.743,3399.021,2201.935Z" transform="translate(-3276.388 -2201.935)" fill="#ffab01"/>
        </g>
        <g id="Grupo_17753" data-name="Grupo 17753">
          <path id="Trazado_37831" data-name="Trazado 37831" d="M3378.087,2181.812c25.483,4.953,28.063,15.026,5.757,22.5s-61.043,9.513-86.526,4.559-28.059-15.025-5.754-22.5S3352.6,2176.859,3378.087,2181.812Zm-73.837,24.734c21.108,4.1,53.2,2.412,71.671-3.776s16.341-14.532-4.767-18.636-53.191-2.41-71.667,3.778-16.341,14.531,4.763,18.634" transform="translate(-3276.384 -2179.107)" fill="#ffc910"/>
        </g>
        <path id="Trazado_37832" data-name="Trazado 37832" d="M3377.893,2185.918c21.108,4.1,23.242,12.445,4.767,18.636s-50.564,7.879-71.671,3.776-23.238-12.445-4.763-18.634S3356.789,2181.816,3377.893,2185.918Z" transform="translate(-3283.123 -2180.891)" fill="#ffab01"/>
        <path id="Trazado_37833" data-name="Trazado 37833" d="M3306.228,2191.556c18.476-6.19,50.563-7.88,71.667-3.779,10.5,2.042,16.305,5.135,17.21,8.489,1.056-4.049-4.787-7.933-17.21-10.348-21.1-4.1-53.192-2.411-71.667,3.778-9.281,3.11-13.358,6.761-12.444,10.146C3294.521,2197.013,3298.626,2194.1,3306.228,2191.556Z" transform="translate(-3283.125 -2180.891)" fill="#f99b0f"/>
        <path id="Trazado_37834" data-name="Trazado 37834" d="M3286,2220.2v14.641c3.5,1.942,8.727,3.664,15.636,5.006a157,157,0,0,0,22.792,2.5v-14.918a158.042,158.042,0,0,1-23.358-2.527C3294.52,2223.632,3289.489,2222.021,3286,2220.2Z" transform="translate(-3280.136 -2195.144)" fill="#f99b0f"/>
        <g id="Grupo_17754" data-name="Grupo 17754" transform="translate(30.897 8.642)">
          <path id="Trazado_37835" data-name="Trazado 37835" d="M3382.272,2194.322l-5.594,1.875c2.231.618,3.284,1.363,3.149,2.23s-1.431,1.767-3.907,2.694l-5.76-1.12q2.076-.792,1.812-1.543c-.176-.507-1.113-.921-2.809-1.251a23.592,23.592,0,0,0-5.84-.355,21.271,21.271,0,0,0-5.542.991,6.03,6.03,0,0,0-1.345.6c-.3.2-.449.41-.449.621-.025.432,1.015.987,3.131,1.665,1.265.4,2.17.728,2.733.976,1.961.855,2.822,1.715,2.563,2.584s-1.587,1.706-4,2.515a46.688,46.688,0,0,1-10.508,2.084,47.636,47.636,0,0,1-10.761-.118l-6.718,2.252-5.369-1.044,6.46-2.164q-4.251-1.131-4.077-2.691t4.79-3.12l5.545,1.079q-2.943,1.081-2.7,1.962t3.683,1.551a26.9,26.9,0,0,0,6.705.412,24.2,24.2,0,0,0,6.362-1.138,11.21,11.21,0,0,0,1.614-.657,2.258,2.258,0,0,0,.8-.611q.606-.949-2.876-2.116c-.384-.127-.665-.224-.85-.288q-4.257-1.482-4.459-2.785t3.623-2.589a40.544,40.544,0,0,1,9.434-1.849,49.411,49.411,0,0,1,10.258.158l5.539-1.855Z" transform="translate(-3327.054 -2193.279)" fill="#f99b0f"/>
        </g>
        <g id="Grupo_17755" data-name="Grupo 17755" transform="translate(30.897 6.543)">
          <path id="Trazado_37836" data-name="Trazado 37836" d="M3382.272,2190.881l-5.594,1.873c2.231.618,3.284,1.363,3.149,2.232s-1.431,1.766-3.907,2.693l-5.76-1.119q2.076-.792,1.812-1.543t-2.809-1.251a23.6,23.6,0,0,0-5.84-.356,21.27,21.27,0,0,0-5.542.993,6.034,6.034,0,0,0-1.345.6c-.3.2-.449.41-.449.621-.025.432,1.015.986,3.131,1.666,1.265.4,2.17.727,2.733.974,1.961.856,2.822,1.717,2.563,2.586s-1.587,1.7-4,2.514a46.606,46.606,0,0,1-10.508,2.085,47.624,47.624,0,0,1-10.761-.118l-6.718,2.251-5.369-1.043,6.46-2.165q-4.251-1.132-4.077-2.69t4.79-3.121l5.545,1.078q-2.943,1.083-2.7,1.962t3.683,1.551a26.91,26.91,0,0,0,6.705.412,24.189,24.189,0,0,0,6.362-1.138,11.064,11.064,0,0,0,1.614-.657,2.22,2.22,0,0,0,.8-.61q.606-.948-2.876-2.116c-.384-.127-.665-.225-.85-.287q-4.257-1.483-4.459-2.785t3.623-2.589a40.558,40.558,0,0,1,9.434-1.848,49.463,49.463,0,0,1,10.258.157l5.539-1.854Z" transform="translate(-3327.054 -2189.838)" fill="#ffc910"/>
        </g>
      </g>
    </g>
    <g id="Grupo_17760" data-name="Grupo 17760" transform="translate(3226.429 2050.775)">
      <path id="Trazado_37837" data-name="Trazado 37837" d="M3382.99,2145.184s7.353,16.49-5.81,26.057c-3.913,2.846.647,1.765,4.97.307s13.952-11.048,14.322-22.441-.278-15.772-3.65-18.061S3382.99,2145.184,3382.99,2145.184Z" transform="translate(-3284.677 -2082.014)" fill="#e9d6b8"/>
      <path id="Trazado_37838" data-name="Trazado 37838" d="M3317.886,2151.537l46.838,20.291-14.621,1.946s-44.5,7.5-45.247-9.022S3317.886,2151.537,3317.886,2151.537Z" transform="translate(-3257.023 -2089.99)" fill="#163f59"/>
      <path id="Trazado_37839" data-name="Trazado 37839" d="M3275.241,2173.92c-.106,1.138.458,7.315,1.994,9.206,4.73,5.829,13-1.151,20.358-2.761.395-.087,9.207-13.094,9.207-13.094l2.66-7.979-31.3,1.125S3276.133,2164.442,3275.241,2173.92Z" transform="translate(-3245.472 -2093.122)" fill="#194866"/>
      <path id="Trazado_37840" data-name="Trazado 37840" d="M3300.558,2197.241s-2.946-2.634-.608-3.915c7.013-3.85,27.252-9.8,36.366-10.077,12.156-.367,16.155-.439,16.155-.439s7.672-.27,10.275,1.453c5.354,3.549-1.493,13.158-1.493,13.158Z" transform="translate(-3254.768 -2102.294)" fill="#163f59"/>
      <path id="Trazado_37841" data-name="Trazado 37841" d="M3297.848,2199.512l-3.572.708.026,3.644,1.092.225a16.648,16.648,0,0,0-1.069,3.191c0,.686.06,9.338.06,9.338l1.313-.006s2.1-9.947,4.083-11.416c.048-.038-.773-.486-.987-1.123A33.943,33.943,0,0,1,3297.848,2199.512Z" transform="translate(-3252.905 -2108.817)" fill="#282723"/>
      <path id="Trazado_37842" data-name="Trazado 37842" d="M3227.929,2322s-.307-1.841,1.841-4.143c2.411-2.582,2.915-2,2.915-2l.921,4.91Z" transform="translate(-3227.009 -2154.199)" fill="#d1dbea"/>
      <path id="Trazado_37843" data-name="Trazado 37843" d="M3371.2,2091.981s1.308-8.717,14.214,7.388a40.934,40.934,0,0,1,8.184,19.641l-1.4,9.216-16.1.787-.5-7.418,1.043-.626a2.74,2.74,0,0,0-.566-2.465c-.967-.946-3.853-6.454-11.79-15C3360.628,2099.557,3370.025,2092.736,3371.2,2091.981Z" transform="translate(-3279.898 -2065.936)" fill="#8dcfff"/>
      <path id="Trazado_37844" data-name="Trazado 37844" d="M3389.991,2134.32l-3.833,1.368-1.5.638a2.964,2.964,0,0,1,.263,2.083l2.661-1.555,3.472-1.259,5.017-.213Z" transform="translate(-3288.175 -2083.377)" fill="#7dc2f5"/>
      <path id="Trazado_37845" data-name="Trazado 37845" d="M3327.046,2171.8s.485-2.74-2.071-3.265-8.981,1.468-8.981,1.468a29.685,29.685,0,0,0,3.123,1.043c1.841.508,4.062.941,4.062.941Z" transform="translate(-3261.38 -2096.694)" fill="#e9d6b8"/>
      <path id="Trazado_37846" data-name="Trazado 37846" d="M3311.688,2135.686l-34.678-5.831s15.054-28.965,18.72-34.065c4.57-6.358,14.219-11.765,14.219-11.765s14.155-4.8,22.1-.407c11.536,6.389,14.731,9.82,14.731,9.82S3343.3,2119.421,3311.688,2135.686Z" transform="translate(-3246.167 -2062.868)" fill="#8dcfff"/>
      <path id="Trazado_37847" data-name="Trazado 37847" d="M3322.947,2135.946q1.169.968,2.338,1.933a157.661,157.661,0,0,0,24.484-50.22c-.839-.189-1.677-.382-2.518-.573A153.9,153.9,0,0,1,3322.947,2135.946Z" transform="translate(-3264.094 -2064.945)" fill="#7dc2f5"/>
      <path id="Trazado_37848" data-name="Trazado 37848" d="M3236.439,2291.76l-5.984-2.148s10.9-24.445,17.012-31.213a89.144,89.144,0,0,1,15.421-13.792l12.066,5.6Z" transform="translate(-3228 -2126.415)" fill="#194866"/>
      <path id="Trazado_37849" data-name="Trazado 37849" d="M3300.849,2178.2l-8.235,41.634-11.816-5.064s-13.19-43.429,2.9-47.275S3300.849,2178.2,3300.849,2178.2Z" transform="translate(-3245.659 -2096.069)" fill="#194866"/>
      <path id="Trazado_37850" data-name="Trazado 37850" d="M3357.579,2195.949l8.5,5.471,5.524.307s-.192.741-.409.817c-1.432.513-5.932,0-5.932,0a22.35,22.35,0,0,0-4.529-.971c-1.153.069-4.29,1.482-4.474,1.177-.655-1.076.884-.832,1.413-1.582a4.514,4.514,0,0,0,.341-2.68Z" transform="translate(-3277.032 -2107.427)" fill="#e9d6b8"/>
      <path id="Trazado_37851" data-name="Trazado 37851" d="M3324.727,2164.961l17.535,19.661,1.535,2.354a8.592,8.592,0,0,0-2.148-1.434c-3.666-1.136-15.654-6.54-19.355-9.914a55.82,55.82,0,0,1-7.833-9.064Z" transform="translate(-3260.782 -2095.334)" fill="#e9d6b8"/>
      <path id="Trazado_37852" data-name="Trazado 37852" d="M3326.167,2104.822l-3.826,26.063-1.7,1.081,1.332,1.428-10.118,3.818-6.122-7.111,5.9-35.507s2.99-9.817,13.7-11.033C3330.682,2082.951,3326.392,2102.677,3326.167,2104.822Z" transform="translate(-3257.376 -2063.564)" fill="#7dc2f5"/>
      <path id="Trazado_37853" data-name="Trazado 37853" d="M3312.951,2162.346s7.393-.021,11.249-.168l-.741.472,1.335,1.428-3.514,1.293-5.253,1.12-1.195-1.793,1.463-.682Z" transform="translate(-3260.193 -2094.249)" fill="#8dcfff"/>
      <g id="Grupo_17759" data-name="Grupo 17759" transform="translate(70.522)">
        <g id="Grupo_17758" data-name="Grupo 17758">
          <path id="Trazado_37854" data-name="Trazado 37854" d="M3360.7,2061.3a3.092,3.092,0,0,1-2.355,3.683l-11.408,2.507a3.093,3.093,0,0,1-3.682-2.357h0a3.092,3.092,0,0,1,2.358-3.684l11.4-2.508a3.094,3.094,0,0,1,3.684,2.36Z" transform="translate(-3342.51 -2053.932)" fill="#163f59"/>
          <path id="Trazado_37855" data-name="Trazado 37855" d="M3359.328,2069.319a5.713,5.713,0,0,1-4.352,6.806l-5.952,1.309a5.713,5.713,0,0,1-6.806-4.354h0a5.712,5.712,0,0,1,4.354-6.805l5.953-1.309a5.711,5.711,0,0,1,6.8,4.354Z" transform="translate(-3342.083 -2056.26)" fill="#163f59"/>
          <path id="Trazado_37856" data-name="Trazado 37856" d="M3370.947,2073.358l-3.832-17.448c-.614-2.778-2.255.5-5.035,1.108l-2.681.588a5.156,5.156,0,0,0-3.93,6.138l2.733,12.413Z" transform="translate(-3347.26 -2052.349)" fill="#e9d6b8"/>
          <path id="Trazado_37857" data-name="Trazado 37857" d="M3357.737,2073.913a2.26,2.26,0,0,1-1.723,2.7h0a2.262,2.262,0,0,1-2.7-1.724h0a2.261,2.261,0,0,1,1.724-2.7h0a2.263,2.263,0,0,1,2.7,1.724Z" transform="translate(-3346.447 -2059.111)" fill="#e9d6b8"/>
          <path id="Trazado_37858" data-name="Trazado 37858" d="M3375.8,2072.468a1.289,1.289,0,0,0,1.519,1.009l1.031-.225a1.291,1.291,0,0,0,.955-1.555s-3.716-6.124-4.4-5.976a2.146,2.146,0,0,0-.28,1.4Z" transform="translate(-3354.77 -2056.607)" fill="#e9d6b8"/>
          <path id="Trazado_37859" data-name="Trazado 37859" d="M3364.8,2084.887c-5.034,1.108-5.9-.319-6.43-2.054a37.243,37.243,0,0,0-.059,6.137l.348,1.588c.674,3.068,4.376,4.857,8.266,4l7.046-1.549-1.72-7.823-.408-1.851Z" transform="translate(-3348.369 -2063.285)" fill="#163f59"/>
          <path id="Trazado_37860" data-name="Trazado 37860" d="M3375.117,2078.35l-4.025.884a3.437,3.437,0,0,0-2.617,4.093,3.392,3.392,0,0,0,.3.813l7.26-1.594Z" transform="translate(-3352.351 -2061.536)" fill="#163f59"/>
          <path id="Trazado_37861" data-name="Trazado 37861" d="M3372.161,2085.387l.247,1.117a.573.573,0,0,0,.681.437l3.263-.717a.573.573,0,0,0,.435-.683l-.246-1.118Z" transform="translate(-3353.821 -2063.906)" fill="#e9d6b8"/>
          <path id="Trazado_37862" data-name="Trazado 37862" d="M3363.04,2052.161l-10.322,2.268a2.057,2.057,0,0,0-1.569,2.455l.882,4.028,12.335-2.712Z" transform="translate(-3345.602 -2051.316)" fill="#163f59"/>
          <path id="Trazado_37863" data-name="Trazado 37863" d="M3373.843,2053.222a3.113,3.113,0,0,1-2.373,3.707l-6.986,1.536a3.11,3.11,0,0,1-3.708-2.37h0a3.11,3.11,0,0,1,2.371-3.71l6.988-1.537a3.115,3.115,0,0,1,3.708,2.374Z" transform="translate(-3349.349 -2050.775)" fill="#163f59"/>
        </g>
        <rect id="Rect치ngulo_4304" data-name="Rect치ngulo 4304" width="2.855" height="7.518" transform="translate(7.314 7.876) rotate(-12.359)" fill="#163f59"/>
        <rect id="Rect치ngulo_4305" data-name="Rect치ngulo 4305" width="8.406" height="8.852" transform="translate(7.486 4.529) rotate(-12.4)" fill="#163f59"/>
        <path id="Trazado_37864" data-name="Trazado 37864" d="M3360.6,2068.27a4.254,4.254,0,0,1,3.24-5.068l2.144-.471c2.3-.5,3.933,1.085,4.437,3.38h0a4.254,4.254,0,0,1-3.241,5.067l-1.513.333a4.25,4.25,0,0,1-5.065-3.241Z" transform="translate(-3349.272 -2055.404)" fill="#e9d6b8"/>
      </g>
      <path id="Trazado_37865" data-name="Trazado 37865" d="M3227.35,2321.686l-.921,3.376,2.733,1.371.681-.883a16.657,16.657,0,0,0,2.393,2.369,8.432,8.432,0,0,0,1.641.8c1.452.489,7.632.136,7.632.136l.572-1.182s-4.232.5-6.717-2.023c-1.345-1.362-2.432-2.691-2.588-3.541-.013-.063-.778.479-1.444.388C3229.6,2322.248,3228.338,2321.737,3227.35,2321.686Z" transform="translate(-3226.429 -2156.494)" fill="#282723"/>
    </g>
  </g>
</svg>
