<svg xmlns="http://www.w3.org/2000/svg" width="130.065" height="50.05" viewBox="0 0 130.065 50.05">
  <g id="Grupo_17738" data-name="Grupo 17738" transform="translate(-3025.752 -2218.865)">
    <g id="Grupo_17733" data-name="Grupo 17733" transform="translate(3036.929 2239.557)">
      <path id="Trazado_37805" data-name="Trazado 37805" d="M3044.722,2267.234c-.161-4.274-.376-9.973-.539-14.247.11,2.94.418,10.877.541,13.921C3044.719,2267.017,3044.718,2267.126,3044.722,2267.234Z" transform="translate(-3044.183 -2252.987)" fill="#ffc910"/>
    </g>
    <g id="Grupo_17734" data-name="Grupo 17734" transform="translate(3025.755 2233.56)">
      <path id="Trazado_37806" data-name="Trazado 37806" d="M3155.22,2243.1q.3,7.89.6,15.776c.153,4.02-5.117,8.26-16.02,11.913-23.547,7.887-64.442,10.041-91.345,4.812-14.447-2.808-21.92-7.175-22.1-11.837l-.6-15.776c.177,4.662,7.649,9.029,22.1,11.837,26.9,5.23,67.8,3.076,91.346-4.813C3150.1,2251.359,3155.371,2247.118,3155.22,2243.1Z" transform="translate(-3025.757 -2243.098)" fill="#ffab01"/>
    </g>
    <g id="Grupo_17735" data-name="Grupo 17735" transform="translate(3025.752 2218.865)">
      <path id="Trazado_37807" data-name="Trazado 37807" d="M3133.119,2221.721c26.9,5.229,29.626,15.863,6.079,23.751s-64.444,10.043-91.346,4.813-29.622-15.861-6.075-23.75S3106.215,2216.491,3133.119,2221.721Zm-77.949,26.113c22.284,4.331,56.158,2.545,75.663-3.987s17.251-15.341-5.032-19.674-56.154-2.544-75.659,3.988-17.251,15.341,5.029,19.673" transform="translate(-3025.752 -2218.865)" fill="#ffc910"/>
    </g>
    <path id="Trazado_37808" data-name="Trazado 37808" d="M3133.016,2226.083c22.284,4.333,24.537,13.139,5.033,19.674s-53.38,8.318-75.663,3.987-24.532-13.139-5.028-19.673S3110.736,2221.753,3133.016,2226.083Z" transform="translate(-7.215 -1.91)" fill="#ffab01"/>
    <path id="Trazado_37809" data-name="Trazado 37809" d="M3057.36,2232.034c19.505-6.534,53.379-8.318,75.659-3.988,11.09,2.155,17.213,5.419,18.169,8.961,1.115-4.275-5.054-8.375-18.169-10.926-22.28-4.33-56.153-2.545-75.659,3.988-9.8,3.283-14.1,7.139-13.137,10.712C3045,2237.8,3049.334,2234.722,3057.36,2232.034Z" transform="translate(-7.218 -1.91)" fill="#f99b0f"/>
    <path id="Trazado_37810" data-name="Trazado 37810" d="M3035.959,2262.49v15.458c3.7,2.049,9.211,3.866,16.507,5.283a165.8,165.8,0,0,0,24.062,2.642v-15.75a166.69,166.69,0,0,1-24.659-2.667C3044.954,2266.111,3039.643,2264.41,3035.959,2262.49Z" transform="translate(-4.018 -17.17)" fill="#f99b0f"/>
    <g id="Grupo_17736" data-name="Grupo 17736" transform="translate(3058.37 2227.988)">
      <path id="Trazado_37811" data-name="Trazado 37811" d="M3137.834,2235.012l-5.905,1.978c2.355.652,3.468,1.439,3.324,2.354s-1.511,1.865-4.124,2.844l-6.081-1.182q2.193-.836,1.913-1.629t-2.965-1.321a24.936,24.936,0,0,0-6.166-.375,22.434,22.434,0,0,0-5.851,1.047,6.4,6.4,0,0,0-1.419.634c-.317.215-.473.433-.473.656-.027.457,1.071,1.042,3.306,1.758,1.335.426,2.291.769,2.885,1.03,2.069.9,2.979,1.811,2.706,2.729s-1.676,1.8-4.229,2.654a49.288,49.288,0,0,1-11.092,2.2,50.342,50.342,0,0,1-11.361-.124l-7.092,2.376-5.668-1.1,6.819-2.284q-4.486-1.194-4.3-2.842t5.057-3.293l5.854,1.138q-3.107,1.142-2.854,2.072t3.888,1.638a28.413,28.413,0,0,0,7.079.435,25.532,25.532,0,0,0,6.717-1.2,11.716,11.716,0,0,0,1.7-.692,2.376,2.376,0,0,0,.847-.645q.641-1-3.036-2.234c-.4-.135-.7-.237-.9-.3q-4.494-1.564-4.707-2.94t3.825-2.734a42.865,42.865,0,0,1,9.958-1.951,52.146,52.146,0,0,1,10.83.167l5.846-1.959Z" transform="translate(-3079.541 -2233.91)" fill="#f99b0f"/>
    </g>
    <g id="Grupo_17737" data-name="Grupo 17737" transform="translate(3058.37 2225.773)">
      <path id="Trazado_37812" data-name="Trazado 37812" d="M3137.834,2231.358l-5.905,1.979c2.355.653,3.468,1.439,3.324,2.355s-1.511,1.865-4.124,2.843l-6.081-1.182q2.193-.836,1.913-1.629T3124,2234.4a24.889,24.889,0,0,0-6.166-.375,22.455,22.455,0,0,0-5.851,1.047,6.365,6.365,0,0,0-1.419.634c-.317.214-.473.432-.473.656-.027.456,1.071,1.041,3.306,1.758,1.335.426,2.291.768,2.885,1.029,2.069.9,2.979,1.812,2.706,2.729s-1.676,1.8-4.229,2.655a49.26,49.26,0,0,1-11.092,2.2,50.4,50.4,0,0,1-11.361-.125l-7.092,2.377-5.668-1.1,6.819-2.285q-4.486-1.194-4.3-2.84t5.057-3.294l5.854,1.138q-3.107,1.143-2.854,2.071t3.888,1.638a28.4,28.4,0,0,0,7.079.435,25.563,25.563,0,0,0,6.717-1.2,11.666,11.666,0,0,0,1.7-.695,2.346,2.346,0,0,0,.847-.644q.641-1-3.036-2.234c-.4-.134-.7-.237-.9-.3q-4.494-1.566-4.707-2.94t3.825-2.733a42.838,42.838,0,0,1,9.958-1.952,52.231,52.231,0,0,1,10.83.166l5.846-1.958Z" transform="translate(-3079.541 -2230.257)" fill="#ffc910"/>
    </g>
  </g>
</svg>
