<svg xmlns="http://www.w3.org/2000/svg" width="480.664" height="313.54" viewBox="0 0 480.664 313.54">
  <g id="Grupo_17544" data-name="Grupo 17544" transform="translate(-2983.096 -398.069)">
    <path id="Trazado_37028" data-name="Trazado 37028" d="M3355.175,1050.624c-33.714-.253-138.187-1.431-201.594-5.351-117.571-7.269-213.573,5.307-150.479,19.337,17.631,3.921-33.171,27.723,91.278,32.842,109.245,4.494,220.587-5.78,274.477-10.2s78.75-12.133,90.292-15.613C3469.3,1068.58,3473.024,1051.512,3355.175,1050.624Z" transform="translate(0 -386.955)" fill="#e9f6ff"/>
    <g id="Grupo_17478" data-name="Grupo 17478" transform="translate(3044.307 588.225)">
      <g id="Grupo_17447" data-name="Grupo 17447" transform="translate(4.443 61.724)">
        <g id="Grupo_17442" data-name="Grupo 17442" transform="translate(6.599 12.217)">
          <path id="Trazado_37029" data-name="Trazado 37029" d="M3163.986,1066.493c-.1-2.524-.223-5.89-.318-8.413.065,1.736.247,6.422.32,8.22C3163.984,1066.364,3163.984,1066.428,3163.986,1066.493Z" transform="translate(-3163.668 -1058.08)" fill="#ffc910"/>
        </g>
        <g id="Grupo_17443" data-name="Grupo 17443" transform="translate(0.001 8.677)">
          <path id="Trazado_37030" data-name="Trazado 37030" d="M3223.622,1049.231q.175,4.658.352,9.314c.091,2.373-3.021,4.878-9.459,7.034-13.9,4.657-38.051,5.928-53.936,2.841-8.53-1.658-12.942-4.237-13.047-6.99l-.353-9.315c.1,2.753,4.517,5.332,13.047,6.989,15.885,3.089,40.033,1.816,53.936-2.841C3220.6,1054.108,3223.711,1051.6,3223.622,1049.231Z" transform="translate(-3147.179 -1049.231)" fill="#ffab01"/>
        </g>
        <g id="Grupo_17444" data-name="Grupo 17444">
          <path id="Trazado_37031" data-name="Trazado 37031" d="M3210.571,1029.233c15.885,3.088,17.493,9.366,3.589,14.024s-38.051,5.93-53.936,2.841-17.49-9.365-3.587-14.023S3194.686,1026.145,3210.571,1029.233Zm-46.026,15.418c13.157,2.558,33.159,1.5,44.676-2.354s10.186-9.059-2.972-11.616-33.156-1.5-44.673,2.356-10.186,9.058,2.969,11.615" transform="translate(-3147.176 -1027.547)" fill="#ffc910"/>
        </g>
        <path id="Trazado_37032" data-name="Trazado 37032" d="M3216.089,1033.285c13.157,2.558,14.488,7.758,2.972,11.616s-31.519,4.912-44.676,2.354-14.485-7.758-2.969-11.615S3202.935,1030.728,3216.089,1033.285Z" transform="translate(-3157.015 -1030.152)" fill="#ffab01"/>
        <path id="Trazado_37033" data-name="Trazado 37033" d="M3171.42,1036.8c11.517-3.858,31.518-4.912,44.673-2.355,6.548,1.273,10.164,3.2,10.728,5.292.658-2.524-2.984-4.945-10.728-6.451-13.155-2.557-33.156-1.5-44.673,2.356-5.785,1.938-8.326,4.214-7.756,6.324C3164.123,1040.2,3166.681,1038.387,3171.42,1036.8Z" transform="translate(-3157.019 -1030.152)" fill="#f99b0f"/>
        <path id="Trazado_37034" data-name="Trazado 37034" d="M3156.309,1066.582v9.127a34.323,34.323,0,0,0,9.747,3.12,97.851,97.851,0,0,0,14.208,1.559v-9.3a98.4,98.4,0,0,1-14.56-1.575A35.684,35.684,0,0,1,3156.309,1066.582Z" transform="translate(-3152.654 -1050.963)" fill="#f99b0f"/>
        <g id="Grupo_17445" data-name="Grupo 17445" transform="translate(19.26 5.387)">
          <path id="Trazado_37035" data-name="Trazado 37035" d="M3229.727,1041.659l-3.487,1.168q2.086.578,1.963,1.39c-.077.542-.892,1.1-2.435,1.679l-3.591-.7q1.294-.495,1.13-.962t-1.751-.779a14.738,14.738,0,0,0-3.641-.222,13.272,13.272,0,0,0-3.455.619,3.753,3.753,0,0,0-.838.375c-.187.126-.279.255-.279.387-.016.269.632.615,1.952,1.037.788.252,1.353.454,1.7.609,1.222.533,1.759,1.07,1.6,1.611s-.99,1.063-2.5,1.567a29.073,29.073,0,0,1-6.55,1.3,29.666,29.666,0,0,1-6.708-.073l-4.187,1.4-3.346-.651,4.026-1.349q-2.65-.7-2.542-1.678t2.986-1.944l3.457.672q-1.835.674-1.685,1.223t2.3.966a16.772,16.772,0,0,0,4.18.257,15.081,15.081,0,0,0,3.966-.709,6.938,6.938,0,0,0,1.006-.409,1.4,1.4,0,0,0,.5-.381q.378-.591-1.793-1.318l-.53-.18q-2.654-.924-2.779-1.736t2.259-1.614a25.3,25.3,0,0,1,5.88-1.152,30.828,30.828,0,0,1,6.394.1l3.452-1.156Z" transform="translate(-3195.308 -1041.009)" fill="#f99b0f"/>
        </g>
        <g id="Grupo_17446" data-name="Grupo 17446" transform="translate(19.26 4.079)">
          <path id="Trazado_37036" data-name="Trazado 37036" d="M3229.727,1038.39l-3.487,1.168q2.086.578,1.963,1.391c-.077.541-.892,1.1-2.435,1.679l-3.591-.7q1.294-.494,1.13-.962t-1.751-.781a14.75,14.75,0,0,0-3.641-.222,13.241,13.241,0,0,0-3.455.619,3.746,3.746,0,0,0-.838.374c-.187.126-.279.255-.279.387-.016.27.632.615,1.952,1.038.788.252,1.353.454,1.7.608,1.222.533,1.759,1.07,1.6,1.612s-.99,1.062-2.5,1.567a29.1,29.1,0,0,1-6.55,1.3,29.686,29.686,0,0,1-6.708-.074l-4.187,1.4-3.346-.65,4.026-1.349q-2.65-.706-2.542-1.677t2.986-1.945l3.457.672q-1.835.675-1.685,1.222t2.3.968a16.784,16.784,0,0,0,4.18.257,15.106,15.106,0,0,0,3.966-.709,6.916,6.916,0,0,0,1.006-.41,1.39,1.39,0,0,0,.5-.38q.378-.591-1.793-1.319c-.239-.079-.415-.14-.53-.179q-2.654-.925-2.779-1.736t2.259-1.615a25.3,25.3,0,0,1,5.88-1.152,30.821,30.821,0,0,1,6.394.1l3.452-1.156Z" transform="translate(-3195.308 -1037.74)" fill="#ffc910"/>
        </g>
      </g>
      <g id="Grupo_17453" data-name="Grupo 17453" transform="translate(4.159 49.407)">
        <g id="Grupo_17448" data-name="Grupo 17448" transform="translate(6.599 12.217)">
          <path id="Trazado_37037" data-name="Trazado 37037" d="M3163.275,1035.713c-.1-2.523-.223-5.889-.318-8.412.065,1.736.247,6.422.32,8.22C3163.273,1035.584,3163.273,1035.648,3163.275,1035.713Z" transform="translate(-3162.957 -1027.3)" fill="#ffc910"/>
        </g>
        <g id="Grupo_17449" data-name="Grupo 17449" transform="translate(0.002 8.677)">
          <path id="Trazado_37038" data-name="Trazado 37038" d="M3222.911,1018.451q.175,4.658.352,9.315c.09,2.373-3.021,4.877-9.459,7.034-13.9,4.657-38.05,5.929-53.935,2.841-8.53-1.658-12.943-4.237-13.047-6.99l-.353-9.315c.1,2.752,4.516,5.331,13.047,6.989,15.885,3.088,40.032,1.816,53.936-2.842C3219.889,1023.329,3223,1020.824,3222.911,1018.451Z" transform="translate(-3146.469 -1018.451)" fill="#ffab01"/>
        </g>
        <g id="Grupo_17450" data-name="Grupo 17450">
          <path id="Trazado_37039" data-name="Trazado 37039" d="M3209.86,998.453c15.885,3.087,17.493,9.366,3.589,14.024s-38.051,5.93-53.936,2.842-17.49-9.365-3.587-14.023S3193.975,995.366,3209.86,998.453Zm-46.026,15.419c13.158,2.557,33.159,1.5,44.676-2.354s10.186-9.059-2.971-11.617-33.156-1.5-44.674,2.354-10.186,9.058,2.969,11.616" transform="translate(-3146.465 -996.767)" fill="#ffc910"/>
        </g>
        <path id="Trazado_37040" data-name="Trazado 37040" d="M3215.379,1002.506c13.157,2.558,14.487,7.758,2.971,11.616s-31.519,4.911-44.676,2.354-14.485-7.758-2.969-11.617S3202.223,999.949,3215.379,1002.506Z" transform="translate(-3156.304 -999.372)" fill="#ffab01"/>
        <path id="Trazado_37041" data-name="Trazado 37041" d="M3170.709,1006.02c11.517-3.858,31.518-4.912,44.674-2.355,6.547,1.273,10.164,3.2,10.728,5.292.658-2.524-2.984-4.946-10.728-6.451-13.156-2.557-33.156-1.5-44.674,2.354-5.785,1.938-8.326,4.215-7.756,6.325C3163.412,1009.422,3165.971,1007.608,3170.709,1006.02Z" transform="translate(-3156.308 -999.372)" fill="#f99b0f"/>
        <path id="Trazado_37042" data-name="Trazado 37042" d="M3155.6,1035.8v9.126a34.3,34.3,0,0,0,9.747,3.12,97.844,97.844,0,0,0,14.207,1.559v-9.3a98.471,98.471,0,0,1-14.56-1.574A35.728,35.728,0,0,1,3155.6,1035.8Z" transform="translate(-3151.943 -1020.183)" fill="#f99b0f"/>
        <g id="Grupo_17451" data-name="Grupo 17451" transform="translate(19.259 5.387)">
          <path id="Trazado_37043" data-name="Trazado 37043" d="M3229.015,1010.88l-3.487,1.168c1.391.385,2.047.85,1.963,1.39s-.892,1.1-2.435,1.679l-3.59-.7q1.294-.493,1.129-.962c-.109-.316-.694-.574-1.751-.78a14.7,14.7,0,0,0-3.64-.221,13.258,13.258,0,0,0-3.455.618,3.77,3.77,0,0,0-.838.375c-.187.126-.279.255-.279.387-.016.27.632.615,1.951,1.038.788.252,1.353.455,1.7.609,1.222.533,1.759,1.069,1.6,1.611s-.99,1.063-2.5,1.568a29.081,29.081,0,0,1-6.55,1.3,29.663,29.663,0,0,1-6.708-.073l-4.187,1.4-3.347-.65,4.027-1.349q-2.65-.705-2.542-1.678t2.986-1.945l3.456.672q-1.835.674-1.685,1.223t2.3.967a16.773,16.773,0,0,0,4.179.257,15.089,15.089,0,0,0,3.966-.709,6.808,6.808,0,0,0,1.006-.41,1.391,1.391,0,0,0,.5-.38q.379-.591-1.793-1.318l-.53-.179q-2.654-.924-2.779-1.736t2.258-1.614a25.3,25.3,0,0,1,5.88-1.153,30.825,30.825,0,0,1,6.395.1l3.452-1.156Z" transform="translate(-3194.596 -1010.23)" fill="#f99b0f"/>
        </g>
        <g id="Grupo_17452" data-name="Grupo 17452" transform="translate(19.259 4.079)">
          <path id="Trazado_37044" data-name="Trazado 37044" d="M3229.015,1007.61l-3.487,1.168c1.391.385,2.047.849,1.963,1.391s-.892,1.1-2.435,1.678l-3.59-.7q1.294-.495,1.129-.962t-1.751-.78a14.723,14.723,0,0,0-3.64-.222,13.29,13.29,0,0,0-3.455.619,3.75,3.75,0,0,0-.838.375c-.187.126-.279.255-.279.387-.016.27.632.615,1.951,1.038.788.251,1.353.454,1.7.608,1.222.533,1.759,1.07,1.6,1.611s-.99,1.063-2.5,1.568a29.049,29.049,0,0,1-6.55,1.3,29.728,29.728,0,0,1-6.708-.073l-4.187,1.4-3.347-.65,4.027-1.349q-2.65-.706-2.542-1.678t2.986-1.945l3.456.672q-1.835.675-1.685,1.223t2.3.967a16.775,16.775,0,0,0,4.179.257,15.046,15.046,0,0,0,3.966-.71,6.772,6.772,0,0,0,1.006-.409,1.385,1.385,0,0,0,.5-.381q.379-.591-1.793-1.318c-.239-.079-.415-.14-.53-.18q-2.654-.924-2.779-1.735t2.258-1.615a25.285,25.285,0,0,1,5.88-1.152,30.826,30.826,0,0,1,6.395.1l3.452-1.156Z" transform="translate(-3194.596 -1006.96)" fill="#ffc910"/>
        </g>
      </g>
      <g id="Grupo_17459" data-name="Grupo 17459" transform="translate(5.509 36.343)">
        <g id="Grupo_17454" data-name="Grupo 17454" transform="translate(6.599 12.217)">
          <path id="Trazado_37045" data-name="Trazado 37045" d="M3166.649,1003.064c-.1-2.524-.223-5.889-.318-8.413.065,1.736.247,6.422.32,8.22C3166.647,1002.935,3166.647,1003,3166.649,1003.064Z" transform="translate(-3166.331 -994.651)" fill="#ffc910"/>
        </g>
        <g id="Grupo_17455" data-name="Grupo 17455" transform="translate(0.001 8.677)">
          <path id="Trazado_37046" data-name="Trazado 37046" d="M3226.285,985.8q.175,4.658.352,9.314c.091,2.374-3.021,4.878-9.458,7.034-13.9,4.657-38.051,5.929-53.936,2.842-8.53-1.659-12.943-4.237-13.047-6.99l-.353-9.314c.1,2.752,4.517,5.331,13.047,6.989,15.885,3.088,40.032,1.816,53.936-2.842C3223.262,990.679,3226.374,988.175,3226.285,985.8Z" transform="translate(-3149.842 -985.802)" fill="#ffab01"/>
        </g>
        <g id="Grupo_17456" data-name="Grupo 17456">
          <path id="Trazado_37047" data-name="Trazado 37047" d="M3213.234,965.8c15.885,3.088,17.493,9.366,3.589,14.024s-38.051,5.93-53.936,2.842-17.49-9.366-3.587-14.023S3197.349,962.717,3213.234,965.8Zm-46.026,15.419c13.157,2.557,33.159,1.5,44.676-2.354s10.186-9.058-2.971-11.617-33.156-1.5-44.673,2.355-10.186,9.058,2.969,11.616" transform="translate(-3149.839 -964.118)" fill="#ffc910"/>
        </g>
        <path id="Trazado_37048" data-name="Trazado 37048" d="M3218.752,969.856c13.157,2.558,14.488,7.758,2.971,11.617s-31.519,4.911-44.676,2.354-14.485-7.758-2.969-11.616S3205.6,967.3,3218.752,969.856Z" transform="translate(-3159.678 -966.723)" fill="#ffab01"/>
        <path id="Trazado_37049" data-name="Trazado 37049" d="M3174.083,973.37c11.517-3.857,31.518-4.911,44.673-2.354,6.548,1.272,10.164,3.2,10.728,5.291.658-2.524-2.984-4.945-10.728-6.451-13.155-2.557-33.156-1.5-44.673,2.355-5.785,1.938-8.326,4.214-7.756,6.325C3166.786,976.772,3169.344,974.958,3174.083,973.37Z" transform="translate(-3159.682 -966.723)" fill="#f99b0f"/>
        <path id="Trazado_37050" data-name="Trazado 37050" d="M3158.971,1003.153v9.127a34.327,34.327,0,0,0,9.747,3.121,97.972,97.972,0,0,0,14.207,1.559v-9.3a98.471,98.471,0,0,1-14.56-1.575A35.713,35.713,0,0,1,3158.971,1003.153Z" transform="translate(-3155.317 -987.534)" fill="#f99b0f"/>
        <g id="Grupo_17457" data-name="Grupo 17457" transform="translate(19.259 5.387)">
          <path id="Trazado_37051" data-name="Trazado 37051" d="M3232.389,978.231,3228.9,979.4c1.391.385,2.047.849,1.963,1.39s-.892,1.1-2.435,1.679l-3.59-.7q1.294-.493,1.129-.962c-.109-.316-.694-.574-1.751-.78a14.721,14.721,0,0,0-3.64-.221,13.254,13.254,0,0,0-3.455.618,3.78,3.78,0,0,0-.838.375c-.187.126-.279.256-.279.387-.016.27.632.615,1.952,1.038.788.252,1.353.454,1.7.608,1.222.533,1.759,1.069,1.6,1.611s-.99,1.063-2.5,1.568a29.1,29.1,0,0,1-6.55,1.3,29.707,29.707,0,0,1-6.708-.074l-4.187,1.4-3.347-.651,4.026-1.348q-2.649-.706-2.541-1.678t2.986-1.945l3.456.673q-1.835.673-1.685,1.222t2.3.967a16.774,16.774,0,0,0,4.18.257,15.058,15.058,0,0,0,3.966-.71,6.82,6.82,0,0,0,1.006-.409,1.4,1.4,0,0,0,.5-.381q.378-.592-1.793-1.319c-.239-.08-.415-.14-.53-.179q-2.654-.924-2.779-1.736t2.259-1.614a25.237,25.237,0,0,1,5.88-1.152,30.8,30.8,0,0,1,6.395.1l3.452-1.156Z" transform="translate(-3197.97 -977.581)" fill="#f99b0f"/>
        </g>
        <g id="Grupo_17458" data-name="Grupo 17458" transform="translate(19.259 4.079)">
          <path id="Trazado_37052" data-name="Trazado 37052" d="M3232.389,974.962l-3.487,1.168c1.391.385,2.047.85,1.963,1.391s-.892,1.1-2.435,1.679l-3.59-.7q1.294-.495,1.129-.962t-1.751-.78a14.7,14.7,0,0,0-3.64-.221,13.256,13.256,0,0,0-3.455.618,3.794,3.794,0,0,0-.838.374c-.187.127-.279.256-.279.387-.016.269.632.615,1.952,1.038.788.251,1.353.454,1.7.608,1.222.533,1.759,1.07,1.6,1.611s-.99,1.063-2.5,1.568a29.058,29.058,0,0,1-6.55,1.3,29.688,29.688,0,0,1-6.708-.074l-4.187,1.4-3.347-.65,4.026-1.349q-2.649-.706-2.541-1.677t2.986-1.945l3.456.672q-1.835.675-1.685,1.223t2.3.967a16.8,16.8,0,0,0,4.18.257,15.074,15.074,0,0,0,3.966-.709,6.859,6.859,0,0,0,1.006-.41,1.377,1.377,0,0,0,.5-.381q.378-.591-1.793-1.319c-.239-.079-.415-.14-.53-.179q-2.654-.924-2.779-1.736t2.259-1.614a25.3,25.3,0,0,1,5.88-1.153,30.825,30.825,0,0,1,6.395.1l3.452-1.156Z" transform="translate(-3197.97 -974.312)" fill="#ffc910"/>
        </g>
      </g>
      <g id="Grupo_17465" data-name="Grupo 17465" transform="translate(5.042 25.38)">
        <g id="Grupo_17460" data-name="Grupo 17460" transform="translate(6.599 12.217)">
          <path id="Trazado_37053" data-name="Trazado 37053" d="M3165.482,975.666c-.1-2.523-.222-5.889-.318-8.413.065,1.736.247,6.423.32,8.22C3165.48,975.537,3165.48,975.6,3165.482,975.666Z" transform="translate(-3165.164 -967.253)" fill="#ffc910"/>
        </g>
        <g id="Grupo_17461" data-name="Grupo 17461" transform="translate(0.002 8.677)">
          <path id="Trazado_37054" data-name="Trazado 37054" d="M3225.118,958.405q.175,4.658.352,9.314c.09,2.373-3.021,4.877-9.459,7.034-13.9,4.656-38.05,5.928-53.935,2.841-8.53-1.658-12.943-4.237-13.047-6.99l-.353-9.314c.1,2.753,4.516,5.331,13.047,6.989,15.885,3.089,40.032,1.816,53.936-2.841C3222.1,963.282,3225.208,960.779,3225.118,958.405Z" transform="translate(-3148.676 -958.405)" fill="#ffab01"/>
        </g>
        <g id="Grupo_17462" data-name="Grupo 17462">
          <path id="Trazado_37055" data-name="Trazado 37055" d="M3212.067,938.407c15.885,3.087,17.493,9.366,3.589,14.024s-38.051,5.93-53.936,2.841-17.49-9.365-3.587-14.023S3196.182,935.319,3212.067,938.407Zm-46.025,15.418c13.157,2.557,33.159,1.5,44.675-2.354s10.186-9.058-2.971-11.616-33.156-1.5-44.673,2.356-10.186,9.057,2.969,11.615" transform="translate(-3148.672 -936.721)" fill="#ffc910"/>
        </g>
        <path id="Trazado_37056" data-name="Trazado 37056" d="M3217.586,942.459c13.157,2.559,14.488,7.758,2.971,11.617s-31.518,4.912-44.675,2.354-14.485-7.758-2.969-11.615S3204.431,939.9,3217.586,942.459Z" transform="translate(-3158.512 -939.326)" fill="#ffab01"/>
        <path id="Trazado_37057" data-name="Trazado 37057" d="M3172.917,945.973c11.517-3.858,31.518-4.911,44.673-2.354,6.548,1.272,10.164,3.2,10.728,5.292.658-2.524-2.984-4.945-10.728-6.451-13.155-2.557-33.156-1.5-44.673,2.356-5.785,1.938-8.326,4.214-7.757,6.324C3165.619,949.375,3168.178,947.561,3172.917,945.973Z" transform="translate(-3158.516 -939.326)" fill="#f99b0f"/>
        <path id="Trazado_37058" data-name="Trazado 37058" d="M3157.8,975.757v9.126a34.288,34.288,0,0,0,9.747,3.12,97.857,97.857,0,0,0,14.207,1.56v-9.3a98.406,98.406,0,0,1-14.56-1.575A35.7,35.7,0,0,1,3157.8,975.757Z" transform="translate(-3154.15 -960.137)" fill="#f99b0f"/>
        <g id="Grupo_17463" data-name="Grupo 17463" transform="translate(19.259 5.387)">
          <path id="Trazado_37059" data-name="Trazado 37059" d="M3231.223,950.833,3227.736,952c1.39.385,2.047.85,1.962,1.39s-.892,1.1-2.435,1.679l-3.59-.7q1.295-.493,1.129-.962c-.11-.316-.694-.575-1.751-.78a14.67,14.67,0,0,0-3.641-.221,13.238,13.238,0,0,0-3.455.618,3.768,3.768,0,0,0-.838.375q-.28.189-.279.387c-.015.27.633.615,1.952,1.038.789.252,1.353.455,1.7.609,1.222.533,1.759,1.069,1.6,1.611s-.989,1.063-2.5,1.567a29.054,29.054,0,0,1-6.55,1.3,29.683,29.683,0,0,1-6.708-.073l-4.188,1.4-3.347-.651,4.026-1.348q-2.649-.707-2.541-1.678t2.986-1.945l3.457.672q-1.835.673-1.686,1.223t2.3.967a16.817,16.817,0,0,0,4.18.256,15.087,15.087,0,0,0,3.965-.709,6.92,6.92,0,0,0,1.006-.41,1.394,1.394,0,0,0,.5-.381q.378-.591-1.793-1.318c-.239-.08-.415-.14-.529-.179q-2.654-.924-2.779-1.736t2.258-1.614a25.326,25.326,0,0,1,5.88-1.152,30.821,30.821,0,0,1,6.395.1l3.452-1.156Z" transform="translate(-3196.803 -950.183)" fill="#f99b0f"/>
        </g>
        <g id="Grupo_17464" data-name="Grupo 17464" transform="translate(19.259 4.079)">
          <path id="Trazado_37060" data-name="Trazado 37060" d="M3231.223,947.564l-3.487,1.168c1.39.385,2.047.85,1.962,1.391s-.892,1.1-2.435,1.679l-3.59-.7q1.295-.494,1.129-.962t-1.751-.78a14.67,14.67,0,0,0-3.641-.221,13.223,13.223,0,0,0-3.455.618,3.787,3.787,0,0,0-.838.374c-.187.127-.279.256-.279.388-.015.269.633.614,1.952,1.038.789.251,1.353.454,1.7.608,1.222.533,1.759,1.07,1.6,1.611s-.989,1.063-2.5,1.567a29.046,29.046,0,0,1-6.55,1.3,29.683,29.683,0,0,1-6.708-.073l-4.188,1.4-3.347-.65,4.026-1.349q-2.649-.706-2.541-1.677t2.986-1.945l3.457.672q-1.835.675-1.686,1.223c.1.365.862.689,2.3.967a16.758,16.758,0,0,0,4.18.257,15.089,15.089,0,0,0,3.965-.709,6.887,6.887,0,0,0,1.006-.41,1.389,1.389,0,0,0,.5-.381q.378-.591-1.793-1.319c-.239-.079-.415-.14-.529-.179q-2.654-.925-2.779-1.736t2.258-1.615a25.279,25.279,0,0,1,5.88-1.152,30.826,30.826,0,0,1,6.395.1l3.452-1.156Z" transform="translate(-3196.803 -946.914)" fill="#ffc910"/>
        </g>
      </g>
      <g id="Grupo_17471" data-name="Grupo 17471" transform="translate(0 13.114)">
        <g id="Grupo_17466" data-name="Grupo 17466" transform="translate(6.599 12.217)">
          <path id="Trazado_37061" data-name="Trazado 37061" d="M3152.883,945.012c-.1-2.524-.223-5.889-.319-8.413.065,1.736.247,6.422.32,8.22C3152.88,944.884,3152.88,944.948,3152.883,945.012Z" transform="translate(-3152.564 -936.599)" fill="#ffc910"/>
        </g>
        <g id="Grupo_17467" data-name="Grupo 17467" transform="translate(0.002 8.676)">
          <path id="Trazado_37062" data-name="Trazado 37062" d="M3212.518,927.75q.175,4.658.352,9.314c.09,2.374-3.021,4.878-9.459,7.034-13.9,4.658-38.051,5.93-53.936,2.842-8.53-1.658-12.943-4.236-13.047-6.99l-.353-9.314c.1,2.753,4.516,5.331,13.047,6.99,15.885,3.087,40.032,1.816,53.936-2.842C3209.5,932.627,3212.607,930.124,3212.518,927.75Z" transform="translate(-3136.076 -927.75)" fill="#ffab01"/>
        </g>
        <g id="Grupo_17468" data-name="Grupo 17468">
          <path id="Trazado_37063" data-name="Trazado 37063" d="M3199.467,907.753c15.885,3.088,17.493,9.367,3.589,14.024s-38.051,5.93-53.936,2.842-17.49-9.366-3.587-14.023S3183.582,904.665,3199.467,907.753Zm-46.026,15.419c13.158,2.557,33.159,1.5,44.676-2.354s10.186-9.059-2.971-11.617-33.156-1.5-44.674,2.355-10.186,9.058,2.969,11.616" transform="translate(-3136.072 -906.067)" fill="#ffc910"/>
        </g>
        <path id="Trazado_37064" data-name="Trazado 37064" d="M3204.986,911.805c13.157,2.558,14.488,7.757,2.971,11.617s-31.519,4.911-44.676,2.354-14.485-7.758-2.969-11.616S3191.831,909.248,3204.986,911.805Z" transform="translate(-3145.911 -908.672)" fill="#ffab01"/>
        <path id="Trazado_37065" data-name="Trazado 37065" d="M3160.316,915.319c11.518-3.858,31.519-4.911,44.674-2.355,6.548,1.273,10.164,3.2,10.727,5.291.658-2.524-2.984-4.945-10.727-6.451-13.155-2.557-33.156-1.5-44.674,2.355-5.785,1.938-8.326,4.214-7.756,6.325C3153.019,918.721,3155.578,916.907,3160.316,915.319Z" transform="translate(-3145.915 -908.672)" fill="#f99b0f"/>
        <path id="Trazado_37066" data-name="Trazado 37066" d="M3145.205,945.1v9.126a34.3,34.3,0,0,0,9.747,3.12,97.924,97.924,0,0,0,14.208,1.56v-9.3a98.471,98.471,0,0,1-14.56-1.574A35.741,35.741,0,0,1,3145.205,945.1Z" transform="translate(-3141.55 -929.483)" fill="#f99b0f"/>
        <g id="Grupo_17469" data-name="Grupo 17469" transform="translate(19.26 5.386)">
          <path id="Trazado_37067" data-name="Trazado 37067" d="M3218.623,920.178l-3.487,1.168c1.391.385,2.047.849,1.963,1.39s-.892,1.1-2.435,1.679l-3.59-.7q1.294-.493,1.13-.962c-.11-.316-.694-.575-1.751-.78a14.686,14.686,0,0,0-3.641-.222,13.221,13.221,0,0,0-3.455.618,3.779,3.779,0,0,0-.838.374c-.187.126-.279.256-.279.387-.016.27.632.615,1.952,1.038.789.252,1.353.453,1.7.608,1.222.533,1.759,1.07,1.6,1.612s-.99,1.063-2.5,1.567a29.135,29.135,0,0,1-6.55,1.3,29.688,29.688,0,0,1-6.708-.074l-4.187,1.4-3.346-.651,4.026-1.348q-2.65-.705-2.542-1.678t2.986-1.945l3.457.673c-1.223.449-1.783.857-1.686,1.223s.862.688,2.3.967a16.8,16.8,0,0,0,4.18.256,15.093,15.093,0,0,0,3.965-.709,6.96,6.96,0,0,0,1.007-.41,1.4,1.4,0,0,0,.5-.381q.378-.591-1.792-1.319c-.239-.08-.415-.14-.53-.179q-2.654-.924-2.779-1.736t2.258-1.614a25.3,25.3,0,0,1,5.881-1.152,30.761,30.761,0,0,1,6.394.1l3.452-1.157Z" transform="translate(-3184.204 -919.528)" fill="#f99b0f"/>
        </g>
        <g id="Grupo_17470" data-name="Grupo 17470" transform="translate(19.26 4.079)">
          <path id="Trazado_37068" data-name="Trazado 37068" d="M3218.623,916.91l-3.487,1.168c1.391.385,2.047.85,1.963,1.391s-.892,1.1-2.435,1.679l-3.59-.7q1.294-.494,1.13-.962t-1.751-.78a14.727,14.727,0,0,0-3.641-.222,13.269,13.269,0,0,0-3.455.619,3.757,3.757,0,0,0-.838.374c-.187.126-.279.255-.279.387-.016.269.632.615,1.952,1.038.789.251,1.353.454,1.7.608,1.222.533,1.759,1.07,1.6,1.611s-.99,1.063-2.5,1.567a29.047,29.047,0,0,1-6.55,1.3,29.666,29.666,0,0,1-6.708-.073l-4.187,1.4-3.346-.65,4.026-1.349q-2.65-.705-2.542-1.677t2.986-1.945l3.457.671c-1.223.45-1.783.858-1.686,1.223s.862.689,2.3.967a16.779,16.779,0,0,0,4.18.256,15.076,15.076,0,0,0,3.965-.709,6.923,6.923,0,0,0,1.007-.409,1.385,1.385,0,0,0,.5-.381q.378-.591-1.792-1.319c-.239-.08-.415-.14-.53-.179q-2.654-.925-2.779-1.736t2.258-1.615a25.323,25.323,0,0,1,5.881-1.152,30.85,30.85,0,0,1,6.394.1l3.452-1.156Z" transform="translate(-3184.204 -916.26)" fill="#ffc910"/>
        </g>
      </g>
      <g id="Grupo_17477" data-name="Grupo 17477" transform="translate(6.107)">
        <g id="Grupo_17472" data-name="Grupo 17472" transform="translate(6.599 12.217)">
          <path id="Trazado_37069" data-name="Trazado 37069" d="M3168.146,912.237c-.1-2.524-.223-5.889-.319-8.413.065,1.736.247,6.423.32,8.22C3168.144,912.109,3168.143,912.172,3168.146,912.237Z" transform="translate(-3167.827 -903.824)" fill="#ffc910"/>
        </g>
        <g id="Grupo_17473" data-name="Grupo 17473" transform="translate(0.002 8.677)">
          <path id="Trazado_37070" data-name="Trazado 37070" d="M3227.781,894.977q.176,4.658.352,9.314c.09,2.374-3.021,4.877-9.459,7.034-13.9,4.657-38.051,5.929-53.936,2.841-8.53-1.658-12.943-4.236-13.047-6.989l-.352-9.314c.1,2.752,4.516,5.331,13.047,6.989,15.885,3.088,40.032,1.815,53.936-2.842C3224.759,899.854,3227.871,897.35,3227.781,894.977Z" transform="translate(-3151.339 -894.977)" fill="#ffab01"/>
        </g>
        <g id="Grupo_17474" data-name="Grupo 17474">
          <path id="Trazado_37071" data-name="Trazado 37071" d="M3214.73,874.978c15.885,3.088,17.493,9.366,3.589,14.024s-38.051,5.93-53.936,2.842-17.49-9.366-3.587-14.024S3198.845,871.891,3214.73,874.978ZM3168.7,890.4c13.158,2.558,33.16,1.5,44.676-2.355s10.186-9.058-2.971-11.617-33.156-1.5-44.674,2.356-10.186,9.058,2.969,11.616" transform="translate(-3151.335 -873.292)" fill="#ffc910"/>
        </g>
        <path id="Trazado_37072" data-name="Trazado 37072" d="M3220.249,879.03c13.157,2.559,14.488,7.758,2.971,11.617s-31.519,4.913-44.676,2.355-14.485-7.758-2.969-11.616S3207.093,876.473,3220.249,879.03Z" transform="translate(-3161.174 -875.896)" fill="#ffab01"/>
        <path id="Trazado_37073" data-name="Trazado 37073" d="M3175.579,882.544c11.517-3.858,31.518-4.911,44.674-2.355,6.548,1.272,10.164,3.2,10.728,5.292.658-2.524-2.984-4.945-10.728-6.451-13.156-2.557-33.156-1.5-44.674,2.356-5.785,1.938-8.326,4.215-7.756,6.325C3168.282,885.946,3170.841,884.131,3175.579,882.544Z" transform="translate(-3161.178 -875.896)" fill="#f99b0f"/>
        <path id="Trazado_37074" data-name="Trazado 37074" d="M3160.468,912.327v9.127a34.309,34.309,0,0,0,9.747,3.12,97.857,97.857,0,0,0,14.207,1.56v-9.3a98.521,98.521,0,0,1-14.56-1.575A35.694,35.694,0,0,1,3160.468,912.327Z" transform="translate(-3156.813 -896.708)" fill="#f99b0f"/>
        <g id="Grupo_17475" data-name="Grupo 17475" transform="translate(19.26 5.387)">
          <path id="Trazado_37075" data-name="Trazado 37075" d="M3233.886,887.4l-3.487,1.169q2.087.578,1.963,1.39c-.077.541-.893,1.1-2.436,1.679l-3.59-.7q1.294-.494,1.129-.962c-.109-.316-.693-.573-1.751-.78a14.707,14.707,0,0,0-3.64-.221,13.256,13.256,0,0,0-3.455.618,3.729,3.729,0,0,0-.838.375c-.187.126-.28.256-.28.387-.016.269.632.615,1.951,1.038.788.252,1.353.454,1.7.609,1.222.533,1.759,1.07,1.6,1.611s-.99,1.063-2.5,1.568a29.068,29.068,0,0,1-6.549,1.3,29.662,29.662,0,0,1-6.708-.073l-4.187,1.4-3.346-.65,4.026-1.349c-1.766-.47-2.616-1.03-2.541-1.678s1.064-1.295,2.986-1.944l3.456.672c-1.223.449-1.783.857-1.685,1.223s.861.689,2.3.967a16.745,16.745,0,0,0,4.18.257,15.056,15.056,0,0,0,3.965-.71,6.865,6.865,0,0,0,1.006-.409,1.4,1.4,0,0,0,.5-.381q.378-.592-1.793-1.319c-.239-.08-.415-.14-.53-.18q-2.653-.924-2.779-1.736t2.258-1.614a25.281,25.281,0,0,1,5.881-1.152,30.778,30.778,0,0,1,6.395.1l3.452-1.156Z" transform="translate(-3199.467 -886.755)" fill="#f99b0f"/>
        </g>
        <g id="Grupo_17476" data-name="Grupo 17476" transform="translate(19.26 4.079)">
          <path id="Trazado_37076" data-name="Trazado 37076" d="M3233.886,884.135,3230.4,885.3q2.087.579,1.963,1.391c-.077.541-.893,1.1-2.436,1.679l-3.59-.7q1.294-.493,1.129-.962t-1.751-.779a14.662,14.662,0,0,0-3.64-.222,13.218,13.218,0,0,0-3.455.619,3.752,3.752,0,0,0-.838.374q-.28.19-.28.387c-.016.27.632.615,1.951,1.038.788.251,1.353.454,1.7.608,1.222.533,1.759,1.07,1.6,1.611s-.99,1.063-2.5,1.568a29.1,29.1,0,0,1-6.549,1.3,29.686,29.686,0,0,1-6.708-.074l-4.187,1.4-3.346-.65,4.026-1.349c-1.766-.471-2.616-1.03-2.541-1.677s1.064-1.3,2.986-1.945l3.456.672c-1.223.45-1.783.857-1.685,1.223s.861.689,2.3.967a16.8,16.8,0,0,0,4.18.257,15.076,15.076,0,0,0,3.965-.709,6.863,6.863,0,0,0,1.006-.41,1.388,1.388,0,0,0,.5-.38q.378-.591-1.793-1.319c-.239-.079-.415-.139-.53-.179q-2.653-.924-2.779-1.736t2.258-1.614a25.284,25.284,0,0,1,5.881-1.152,30.829,30.829,0,0,1,6.395.1l3.452-1.156Z" transform="translate(-3199.467 -883.485)" fill="#ffc910"/>
        </g>
      </g>
    </g>
    <g id="Grupo_17488" data-name="Grupo 17488" transform="translate(3273.118 398.069)">
      <g id="Grupo_17479" data-name="Grupo 17479" transform="translate(5.968 15.121)">
        <path id="Trazado_37077" data-name="Trazado 37077" d="M3730.824,471.133a29.526,29.526,0,0,0,23.9,13.027l-2.983,3.278a29.526,29.526,0,0,1-23.884-13.007c.012-.033.022-.066.033-.1-.011.034-.021.066-.033.1a29.07,29.07,0,0,1-5.043-16.227,27.987,27.987,0,0,1,7.28-19.067l2.982-3.278a27.987,27.987,0,0,0-7.28,19.067,29.076,29.076,0,0,0,5.031,16.208,6.984,6.984,0,0,0-.954.885c-.685.752-1.3,1.568-1.972,2.33.674-.762,1.287-1.578,1.972-2.33A6.984,6.984,0,0,1,3730.824,471.133Z" transform="translate(-3722.811 -435.859)" fill="#ffc910"/>
      </g>
      <g id="Grupo_17480" data-name="Grupo 17480" transform="translate(34.895 54.26)">
        <path id="Trazado_37078" data-name="Trazado 37078" d="M3798.087,542.835a28.1,28.1,0,0,0,21.383-9.162l-2.983,3.276a28.1,28.1,0,0,1-21.383,9.163C3796,545.129,3797.191,543.818,3798.087,542.835Z" transform="translate(-3795.104 -533.673)" fill="#ffc910"/>
      </g>
      <path id="Trazado_37079" data-name="Trazado 37079" d="M3751.475,421.145A29.542,29.542,0,0,1,3780.4,450.38a28.01,28.01,0,0,1-28.663,28.229,29.541,29.541,0,0,1-28.927-29.235A28.01,28.01,0,0,1,3751.475,421.145Z" transform="translate(-3716.844 -411.909)" fill="#ffab01"/>
      <g id="Grupo_17481" data-name="Grupo 17481" transform="translate(5.968 9.232)">
        <path id="Trazado_37080" data-name="Trazado 37080" d="M3768.682,446.929l-.269,0v.028l.268.005Z" transform="translate(-3750.166 -436.608)" fill="#f99b0f"/>
        <path id="Trazado_37081" data-name="Trazado 37081" d="M3769.035,523.771l-.269-.006v.028l.268,0Z" transform="translate(-3750.378 -482.701)" fill="#f99b0f"/>
        <path id="Trazado_37082" data-name="Trazado 37082" d="M3724.407,449.374a28,28,0,0,1,27.314-28.218c-.083,0-.165-.01-.247-.011a28.01,28.01,0,0,0-28.663,28.229,29.541,29.541,0,0,0,28.927,29.235c.453.007.9,0,1.35-.011A29.539,29.539,0,0,1,3724.407,449.374Z" transform="translate(-3722.811 -421.141)" fill="#f99b0f"/>
      </g>
      <g id="Grupo_17482" data-name="Grupo 17482" transform="translate(13.248 5.955)">
        <path id="Trazado_37083" data-name="Trazado 37083" d="M3741,425.4l2.982-3.278a28.1,28.1,0,0,1,21.384-9.162l-2.983,3.277A28.1,28.1,0,0,0,3741,425.4Z" transform="translate(-3741.005 -412.951)" fill="#ffab01"/>
      </g>
      <g id="Grupo_17483" data-name="Grupo 17483" transform="translate(8.79)">
        <path id="Trazado_37084" data-name="Trazado 37084" d="M3729.864,412.413l2.982-3.278a33.918,33.918,0,0,1,25.814-11.061l-2.983,3.277A33.917,33.917,0,0,0,3729.864,412.413Z" transform="translate(-3729.864 -398.069)" fill="#ee8f01"/>
      </g>
      <g id="Grupo_17484" data-name="Grupo 17484" transform="translate(34.604 0.005)">
        <path id="Trazado_37085" data-name="Trazado 37085" d="M3823.5,456.39q-1.491,1.64-2.983,3.278a33.784,33.784,0,0,0,8.788-23.015,35.665,35.665,0,0,0-34.925-35.293l2.983-3.277a35.664,35.664,0,0,1,34.925,35.292A33.782,33.782,0,0,1,3823.5,456.39Z" transform="translate(-3794.376 -398.083)" fill="#f99b0f"/>
      </g>
      <g id="Grupo_17485" data-name="Grupo 17485" transform="translate(0 3.277)">
        <path id="Trazado_37086" data-name="Trazado 37086" d="M3742.5,406.265a35.665,35.665,0,0,1,34.925,35.293,33.817,33.817,0,0,1-34.606,34.078,35.662,35.662,0,0,1-34.922-35.293A33.814,33.814,0,0,1,3742.5,406.265Zm.291,63.417a28.01,28.01,0,0,0,28.663-28.229,29.542,29.542,0,0,0-28.927-29.235,28.01,28.01,0,0,0-28.663,28.229,29.54,29.54,0,0,0,28.927,29.234" transform="translate(-3707.897 -406.259)" fill="#ffc910"/>
      </g>
      <g id="Grupo_17486" data-name="Grupo 17486" transform="translate(25.192 16.288)">
        <path id="Trazado_37087" data-name="Trazado 37087" d="M3782.7,438.847l.022,4.8a7.431,7.431,0,0,1,4.693,2.713,9.744,9.744,0,0,1,1.989,5.634l-4.338-.076a4.636,4.636,0,0,0-1.347-3.1,4.435,4.435,0,0,0-3.124-1.191,4.284,4.284,0,0,0-3.28,1.208,4.489,4.489,0,0,0-1.215,3.335,4.338,4.338,0,0,0,.22,1.4,3.444,3.444,0,0,0,.668,1.16q.913,1.073,3.871,1.78a23.014,23.014,0,0,1,2.695.768,10.47,10.47,0,0,1,4.916,3.471,8.78,8.78,0,0,1,1.7,5.368,10.747,10.747,0,0,1-2.013,6.662,7.5,7.5,0,0,1-5.288,3.106l.026,5.77-4.045-.071-.026-5.541a8.947,8.947,0,0,1-5.786-3.179,10.25,10.25,0,0,1-2.186-6.61l4.179.073a6.014,6.014,0,0,0,1.521,4.062,5.522,5.522,0,0,0,3.971,1.42,4.956,4.956,0,0,0,3.781-1.375,5.168,5.168,0,0,0,1.4-3.831,6.946,6.946,0,0,0-.179-1.577,4.211,4.211,0,0,0-.492-1.252c-.712-1.172-2.177-2.035-4.394-2.6-.364-.1-.632-.167-.814-.218a12.837,12.837,0,0,1-6.1-3.218,7.556,7.556,0,0,1-1.978-5.372,9.276,9.276,0,0,1,1.834-5.947,7.824,7.824,0,0,1,5.1-2.884l-.022-4.756Z" transform="translate(-3770.855 -438.776)" fill="#f99b0f"/>
      </g>
      <g id="Grupo_17487" data-name="Grupo 17487" transform="translate(23.391 16.288)">
        <path id="Trazado_37088" data-name="Trazado 37088" d="M3778.2,438.847l.022,4.8a7.433,7.433,0,0,1,4.693,2.713,9.748,9.748,0,0,1,1.989,5.634l-4.338-.076a4.64,4.64,0,0,0-1.347-3.1,4.436,4.436,0,0,0-3.125-1.191,4.285,4.285,0,0,0-3.28,1.208,4.488,4.488,0,0,0-1.215,3.335,4.344,4.344,0,0,0,.22,1.4,3.45,3.45,0,0,0,.669,1.16q.912,1.073,3.871,1.78a22.986,22.986,0,0,1,2.695.768,10.471,10.471,0,0,1,4.916,3.471,8.778,8.778,0,0,1,1.7,5.368,10.747,10.747,0,0,1-2.013,6.662,7.5,7.5,0,0,1-5.288,3.106l.026,5.77-4.044-.071-.025-5.541a8.949,8.949,0,0,1-5.787-3.179,10.251,10.251,0,0,1-2.186-6.61l4.178.073a6.018,6.018,0,0,0,1.522,4.062,5.523,5.523,0,0,0,3.971,1.42,4.956,4.956,0,0,0,3.781-1.375,5.167,5.167,0,0,0,1.395-3.831,6.946,6.946,0,0,0-.178-1.577,4.2,4.2,0,0,0-.492-1.252c-.711-1.172-2.176-2.035-4.393-2.6-.364-.1-.633-.167-.815-.218a12.841,12.841,0,0,1-6.1-3.218,7.559,7.559,0,0,1-1.978-5.372,9.28,9.28,0,0,1,1.835-5.947,7.823,7.823,0,0,1,5.1-2.884l-.021-4.756Z" transform="translate(-3766.354 -438.776)" fill="#ffc910"/>
      </g>
    </g>
    <g id="Grupo_17492" data-name="Grupo 17492" transform="translate(3148.253 436.484)">
      <g id="Grupo_17489" data-name="Grupo 17489" transform="translate(275.039 93.601)">
        <path id="Trazado_37089" data-name="Trazado 37089" d="M4097.67,754.61a17.76,17.76,0,0,1-14.469-16.248l4.208-.288a13.513,13.513,0,0,0,14.409,12.573,10.386,10.386,0,0,0,9.665-11.076,7.886,7.886,0,0,0-8.411-7.342,5.892,5.892,0,0,0-5.483,6.281l-4.208.287a10.1,10.1,0,0,1,9.4-10.776,12.121,12.121,0,0,1,12.91,11.263,14.609,14.609,0,0,1-13.59,15.572A17.8,17.8,0,0,1,4097.67,754.61Z" transform="translate(-4083.201 -727.992)" fill="#387bff"/>
      </g>
      <g id="Grupo_17491" data-name="Grupo 17491" transform="translate(0 0)">
        <path id="Rectángulo_4245" data-name="Rectángulo 4245" d="M10.541,0H29.135A10.538,10.538,0,0,1,39.674,10.538V35.483A10.538,10.538,0,0,1,29.135,46.022h-18.6A10.538,10.538,0,0,1,0,35.484V10.541A10.541,10.541,0,0,1,10.541,0Z" transform="translate(88.878 196.794)" fill="#0063cb"/>
        <path id="Trazado_37090" data-name="Trazado 37090" d="M3915.433,1027.687a4.231,4.231,0,0,1-4.219,4.218h-31.24a4.229,4.229,0,0,1-4.219-4.218V990.1a4.226,4.226,0,0,1,4.219-4.217h31.24a4.229,4.229,0,0,1,4.219,4.217Z" transform="translate(-3683.723 -789.089)" fill="#0063cb"/>
        <path id="Trazado_37091" data-name="Trazado 37091" d="M3515.624,494.071c-.272,0-.524.036-.792.04v72.962h39.606a46.822,46.822,0,0,0-38.814-73Z" transform="translate(-3467.22 -494.071)" fill="#06497d"/>
        <path id="Trazado_37092" data-name="Trazado 37092" d="M3581.53,557.528H3511.7a95.266,95.266,0,0,0-90.864,66.656h-24.992v55.551h16.408l-3.539,17.124h17.063a95.171,95.171,0,0,0,85.924,54.29h69.83a95.222,95.222,0,0,0,95.219-95.224v-3.172A95.221,95.221,0,0,0,3581.53,557.528Z" transform="translate(-3395.844 -532.136)" fill="#387bff"/>
        <path id="Trazado_37093" data-name="Trazado 37093" d="M3889.8,1059.178a10.347,10.347,0,0,0,.2,1.946h29.64a4.231,4.231,0,0,0,4.219-4.218v-22.313a94.688,94.688,0,0,1-34.057,12.159Z" transform="translate(-3692.151 -818.308)" fill="#387bff"/>
        <path id="Trazado_37094" data-name="Trazado 37094" d="M3617.962,1063.34v10.81a4.229,4.229,0,0,0,4.217,4.218h24.208v-12.907h-8.478A94.939,94.939,0,0,1,3617.962,1063.34Z" transform="translate(-3529.083 -835.553)" fill="#387bff"/>
        <g id="Grupo_17490" data-name="Grupo 17490" transform="translate(40.842 96.383)">
          <path id="Trazado_37095" data-name="Trazado 37095" d="M3530.5,751.24h-4.021a12.271,12.271,0,1,0-24.542,0h-4.02a16.292,16.292,0,1,1,32.583,0Z" transform="translate(-3497.912 -734.944)" fill="#06497d"/>
        </g>
        <path id="Trazado_37096" data-name="Trazado 37096" d="M3602.885,494.071c-.274,0-.53.036-.793.04v72.962h39.61a46.825,46.825,0,0,0-38.817-73Z" transform="translate(-3519.564 -494.071)" fill="#387bff"/>
      </g>
      <path id="Trazado_37097" data-name="Trazado 37097" d="M4123.579,714.084a10.112,10.112,0,0,0-12.905-6.167l1.407,3.977a5.9,5.9,0,0,1,7.521,3.6,7.892,7.892,0,0,1-4.816,10.073c-1.846.652-3.828,0-5.569-.777-1.485-.657-.926,6.822,5.954,5.07.344-.085.682-.2,1.02-.316A12.123,12.123,0,0,0,4123.579,714.084Z" transform="translate(-3823.364 -622)" fill="#387bff"/>
    </g>
    <g id="Grupo_17496" data-name="Grupo 17496" transform="translate(3095.365 536.165)">
      <g id="Grupo_17494" data-name="Grupo 17494" transform="translate(28.537)">
        <g id="Grupo_17493" data-name="Grupo 17493" transform="translate(0 2.946)">
          <path id="Trazado_37098" data-name="Trazado 37098" d="M3376.01,765.688l6.776-12.156-1.364-2.984s-.166.07-.2.872c-.011.229.519,1.1.418,1.332-.137.306,0,1.378-.376,1.627-2.734,1.791-7.154,3.936-9.432,6.851C3368.167,765.925,3375.978,765.935,3376.01,765.688Z" transform="translate(-3356.501 -750.548)" fill="#e9d6b8"/>
          <path id="Trazado_37099" data-name="Trazado 37099" d="M3335.1,812.008s-1.341-5.445,5.222-18.868c6.707-13.714,7.422-13,7.422-13l2.234-2.65,5.6,2.859-12.314,30.329Z" transform="translate(-3334.986 -766.708)" fill="#d1dbea"/>
          <path id="Trazado_37100" data-name="Trazado 37100" d="M3371.786,782.857l3.428,2.034.931.4,1.386-2.549-4.313-1.419Z" transform="translate(-3357.061 -769.006)" fill="#b0bfde"/>
        </g>
        <path id="Trazado_37101" data-name="Trazado 37101" d="M3391.195,745.884c.086-1.077.029-3.042.617-2.645l.237,3.515.774,1.545,1.3.492-.591,1c.086.435.109.769-.614.888l-.235.433a8.132,8.132,0,0,1-1.251-1.879l-.3-1.647A7.253,7.253,0,0,1,3391.195,745.884Z" transform="translate(-3368.643 -743.186)" fill="#e9d6b8"/>
      </g>
      <path id="Trazado_37102" data-name="Trazado 37102" d="M3314.344,930.436s7.023,24.884,12.652,33.793,7.594-2.682,7.594-2.682l-6.99-41.377-16.35-.1S3311.663,920.914,3314.344,930.436Z" transform="translate(-3292.211 -849.288)" fill="#3c463b"/>
      <path id="Trazado_37103" data-name="Trazado 37103" d="M3315.02,919.446s-4.705,40.82-5.38,42.87c-2.276,6.94-7.486,2.461-8.289.146s-2.145-19.428-1.877-31.916.269-11.67.269-11.67Z" transform="translate(-3285.126 -848.57)" fill="#3c463b"/>
      <path id="Trazado_37104" data-name="Trazado 37104" d="M3302.347,1114.947c-.241.3-.065,1.068-.065,1.068a28.51,28.51,0,0,0,5.594.152,7.252,7.252,0,0,0,1.516-.712c.1-.054.265-.382.356-.436.168-.1.259.071.4-.022a4.806,4.806,0,0,0,.648-.445,4.034,4.034,0,0,0-.124-2.725s-3.6-1.2-4.279-.363C3304.806,1113.43,3302.878,1114.307,3302.347,1114.947Z" transform="translate(-3286.794 -963.924)" fill="#161711"/>
      <path id="Trazado_37105" data-name="Trazado 37105" d="M3368.323,1112.9l.6,3.155h3.216s.179-.447.451-.447c.229,0,.526.447.837.447h8.183s.144-.664-.031-.89a3.1,3.1,0,0,0-.988-.425c-1.662-.467-6.418-1.925-7.245-3.512C3372.344,1109.3,3368.323,1112.9,3368.323,1112.9Z" transform="translate(-3326.447 -963.618)" fill="#161711"/>
      <path id="Trazado_37106" data-name="Trazado 37106" d="M3313.768,804.987c.253,1.014-.1,1.972-.789,2.143h0c-.689.172-1.452-.508-1.7-1.521l-.316-1.273c-.252-1.013.1-1.971.79-2.144h0c.689-.17,1.45.509,1.7,1.523Z" transform="translate(-3291.988 -778.566)" fill="#e9d6b8"/>
      <path id="Trazado_37107" data-name="Trazado 37107" d="M3321.937,808.585c-.152,1.819-1.13,3.4-2.16,3.474h-2.931c-1.031-.076-2.01-1.655-2.162-3.474q-.36-4.5-.72-9.013c-.161-1.8.543-5.417,2.1-6.483a3.885,3.885,0,0,1,4.489,0c1.56,1.066,2.264,4.685,2.1,6.483Q3322.3,804.077,3321.937,808.585Z" transform="translate(-3293.825 -772.693)" fill="#e2c59c"/>
      <path id="Trazado_37108" data-name="Trazado 37108" d="M3275.039,904.562l10.454,10.7s-12.606-2.893-13.166-8.11S3275.039,904.562,3275.039,904.562Z" transform="translate(-3268.824 -839.593)" fill="#e9d6b8"/>
      <path id="Trazado_37109" data-name="Trazado 37109" d="M3319.97,830.354l-5.35-6.382-9.313,5.694-5.657-.645-6.231,2.7s-2.815,2.7-.2,11.391,1.608,22.3,1.608,22.3l22.183.988a136.439,136.439,0,0,0,.771-24.2C3317.295,834.792,3318.987,832.5,3319.97,830.354Z" transform="translate(-3280.728 -791.646)" fill="#d1dbea"/>
      <path id="Trazado_37110" data-name="Trazado 37110" d="M3280.381,843.215s-3.455-2.709-6.835,2.317a94.06,94.06,0,0,0-9.248,17.957c-.6,1.737-1.408,6.952,1.006,8.493l2.412,1.546,5.026-3.087-.8-1.547-.4-.966s2.814-6.179,5.829-11.779S3280.381,843.215,3280.381,843.215Z" transform="translate(-3263.669 -802.753)" fill="#d1dbea"/>
      <path id="Trazado_37111" data-name="Trazado 37111" d="M3322.387,800.483c-.468,1.7-1.167,2.1-2.409,2.292-1.18.116-1.467.234-2.649.351-1.249.06-2.526-1.6-2.816-3.112-.466-2.5-1.825-4.55-2.291-7.047-.3-1.495.341-2.837,2.164-3.921,1.668-.972,3.645-2.954,5.424-2.327,1.947.712,3.01,3.67,2.921,5.2C3322.618,794.481,3322.5,797.928,3322.387,800.483Z" transform="translate(-3292.752 -769.229)" fill="#e9d6b8"/>
      <path id="Trazado_37112" data-name="Trazado 37112" d="M3316.647,834.156l-1.862,3.049-3.667-4.061,1.62-1.743Z" transform="translate(-3292.132 -796.103)" fill="#b0bfde"/>
      <path id="Trazado_37113" data-name="Trazado 37113" d="M3331.248,831.273l-2.221,2.247,1.488,2.643,1.819-3.484Z" transform="translate(-3302.875 -796.026)" fill="#b0bfde"/>
      <path id="Trazado_37114" data-name="Trazado 37114" d="M3311.8,981.375s-1.045,15.481-.894,23.668a278.172,278.172,0,0,1-.816,28.091c-.056.62-5.093.152-5.093.152s-3.38-38.592-3.915-44.914S3307.78,976.859,3311.8,981.375Z" transform="translate(-3286.095 -885.043)" fill="#3c463b"/>
      <path id="Trazado_37115" data-name="Trazado 37115" d="M3355.891,1023.576a57.654,57.654,0,0,1-5.9.7c-2.04.176,5.965,35.718,5.965,35.718l6.338-2.733-4.773-35.807Z" transform="translate(-3315.252 -910.107)" fill="#323b31"/>
      <path id="Trazado_37116" data-name="Trazado 37116" d="M3310.056,786.912l.909,1.95s1.932-2.177,3.294-3.957c.429-.566,4.838-.616,5.933-.419.8.141.889,1.164,1.073,1.757.653,2.12-.28-3.572-.28-3.572a6,6,0,0,0-4.3-2.9c-1.548-.123-2.269.778-2.857,1.945-.139.274,1.707-.444,1.386-.485a19.382,19.382,0,0,0-1.95,1.706,9.572,9.572,0,0,1-.968,1.748C3310.8,786.687,3310.056,786.912,3310.056,786.912Z" transform="translate(-3291.495 -765.122)" fill="#163f59"/>
      <path id="Trazado_37117" data-name="Trazado 37117" d="M3322.854,800.557l1.216.17-.327.742.964.359.948,3.738-1.594.118-.249-2.288-.965-1.148-2.449-.227Z" transform="translate(-3297.698 -777.6)" fill="#e2c59c"/>
      <path id="Trazado_37118" data-name="Trazado 37118" d="M3273.5,912.139l4.334-3.655,1.7,2.314-4.244,3.461Z" transform="translate(-3269.568 -842.342)" fill="#d1dbea"/>
      <g id="Grupo_17495" data-name="Grupo 17495" transform="translate(12.62 71.579)">
        <path id="Trazado_37119" data-name="Trazado 37119" d="M3296.156,922.077c.7.208.658.167.658.167a2.678,2.678,0,0,0,.513,1.612c.274.339,1.292,1.289,1.292,1.289l1.491,1.427.745.606s.448.313.492.478c.128.479-.281.4-.281.4l-3.09-2.105,2.333,2.722s.242.4.093.592-.241.072-.241.072l-3.353-2.455,1.048,1.539s.226.395.092.591c-.146.214-.181.277-.181.277l-2.558-2.838S3295.459,921.87,3296.156,922.077Z" transform="translate(-3295.208 -922.07)" fill="#e9d6b8"/>
        <path id="Trazado_37120" data-name="Trazado 37120" d="M3300.045,933.226l1.531,2.009a2.111,2.111,0,0,1,.458.718.335.335,0,0,1-.226.424l-2.6-2.806Z" transform="translate(-3297.606 -928.762)" fill="#e9d6b8"/>
      </g>
      <path id="Trazado_37121" data-name="Trazado 37121" d="M3324.344,873.334h2.345a88.623,88.623,0,0,0-.36-36.8q-1.064.429-2.122.85A84.646,84.646,0,0,1,3324.344,873.334Z" transform="translate(-3299.983 -799.182)" fill="#b0bfde"/>
    </g>
    <g id="Grupo_17498" data-name="Grupo 17498" transform="translate(3338.336 534.275)">
      <g id="Grupo_17497" data-name="Grupo 17497">
        <path id="Trazado_37122" data-name="Trazado 37122" d="M3968.813,886.425h1.706l-39.646-147.961h-1.706Z" transform="translate(-3905.847 -738.464)" fill="#b0bfde"/>
        <path id="Trazado_37123" data-name="Trazado 37123" d="M3910.531,886.425h1.708l-39.647-147.961h-1.706Z" transform="translate(-3870.886 -738.464)" fill="#b0bfde"/>
        <path id="Trazado_37124" data-name="Trazado 37124" d="M3900.94,758.831l-.458-1.707h-23.891l.458,1.707Z" transform="translate(-3874.308 -749.657)" fill="#b0bfde"/>
        <path id="Trazado_37125" data-name="Trazado 37125" d="M3909.652,791.348l-.456-1.707h-23.891l.458,1.707Z" transform="translate(-3879.536 -769.163)" fill="#b0bfde"/>
        <path id="Trazado_37126" data-name="Trazado 37126" d="M3918.367,823.866l-.458-1.707h-23.89l.456,1.707Z" transform="translate(-3884.762 -788.669)" fill="#b0bfde"/>
        <path id="Trazado_37127" data-name="Trazado 37127" d="M3927.079,856.381l-.457-1.707H3902.73l.458,1.707Z" transform="translate(-3889.988 -808.174)" fill="#b0bfde"/>
        <path id="Trazado_37128" data-name="Trazado 37128" d="M3935.79,888.9l-.456-1.7h-23.892l.459,1.7Z" transform="translate(-3895.214 -827.681)" fill="#b0bfde"/>
        <path id="Trazado_37129" data-name="Trazado 37129" d="M3944.506,921.415l-.458-1.7h-23.891l.458,1.7Z" transform="translate(-3900.442 -847.187)" fill="#b0bfde"/>
        <path id="Trazado_37130" data-name="Trazado 37130" d="M3953.219,953.931l-.457-1.706h-23.89l.456,1.706Z" transform="translate(-3905.669 -866.691)" fill="#b0bfde"/>
        <path id="Trazado_37131" data-name="Trazado 37131" d="M3961.931,986.45l-.458-1.705h-23.89l.458,1.705Z" transform="translate(-3910.895 -886.198)" fill="#b0bfde"/>
        <path id="Trazado_37132" data-name="Trazado 37132" d="M3970.645,1018.967l-.458-1.707H3946.3l.457,1.707Z" transform="translate(-3916.122 -905.703)" fill="#b0bfde"/>
        <path id="Trazado_37133" data-name="Trazado 37133" d="M3979.358,1051.486l-.457-1.706h-23.889l.457,1.706Z" transform="translate(-3921.35 -925.21)" fill="#b0bfde"/>
        <path id="Trazado_37134" data-name="Trazado 37134" d="M3988.07,1084l-.458-1.706h-23.891l.457,1.706Z" transform="translate(-3926.574 -944.715)" fill="#b0bfde"/>
      </g>
    </g>
    <g id="Grupo_17499" data-name="Grupo 17499" transform="translate(3315.452 441.113)">
      <path id="Trazado_37135" data-name="Trazado 37135" d="M3935.07,819.233c-.264-.269-.151-1.043-.151-1.043a28.159,28.159,0,0,1,5.5-.593,7.008,7.008,0,0,1,1.55.583c.1.045.287.353.385.4.175.087.25-.089.4-.011a5.234,5.234,0,0,1,.674.39,4,4,0,0,1,.1,2.7s-3.35,1.345-4.19.7C3937.2,820.709,3935.642,819.825,3935.07,819.233Z" transform="translate(-3886.398 -692.75)" fill="#161711"/>
      <path id="Trazado_37136" data-name="Trazado 37136" d="M3893.3,811.4l.288,3.162-3.056.882s-.292-.376-.549-.3c-.217.065-.376.57-.674.657l-1.64.472-6.134,1.767s-.318-.591-.21-.857a3.056,3.056,0,0,1,.82-.672c1.452-.9,5.568-3.586,5.92-5.319C3888.49,809.079,3893.3,811.4,3893.3,811.4Z" transform="translate(-3854.248 -688.396)" fill="#161711"/>
      <path id="Trazado_37137" data-name="Trazado 37137" d="M3902.041,530.374l.493-3.825s-2.61-.666-2.639-2.2c-.068-3.084,2.256-7.188,3.274-8.215,2.9-2.918,5.706-8.8,12.069-1.21,2.419,2.89-5.335,10.282-6.345,12.109a8.708,8.708,0,0,0-.729,4.42l-2.353.771Z" transform="translate(-3865.402 -508.972)" fill="#e9d6b8"/>
      <path id="Trazado_37138" data-name="Trazado 37138" d="M3922.729,623.677l-15.907,4.613s9.41,2.094,17.274.409S3923.5,623.761,3922.729,623.677Z" transform="translate(-3869.559 -576.445)" fill="#e2c59c"/>
      <path id="Trazado_37139" data-name="Trazado 37139" d="M3923,720.907s-6.369,7.976-4.044,14.757c4.137,12.061,7.467,21.728,8.845,25.763.536,1.568.967,1.24.967,1.24l3.5.108,1.534-1.562-7.219-27.781Z" transform="translate(-3876.53 -634.77)" fill="#163f59"/>
      <path id="Trazado_37140" data-name="Trazado 37140" d="M3829.613,538.7l-9.8-11.882s3.758,16.348,9.073,17.668S3829.613,538.7,3829.613,538.7Z" transform="translate(-3817.362 -518.342)" fill="#e9d6b8"/>
      <path id="Trazado_37141" data-name="Trazado 37141" d="M3921.676,560.994s3.5-.4,10.151,12.468,5.223,12.788,5.223,12.788l.712,3.21-4.909,2.314-6.8-10.745Z" transform="translate(-3878.469 -538.844)" fill="#d4edff"/>
      <path id="Trazado_37142" data-name="Trazado 37142" d="M3882.088,648.363s6.5,26.785,15.207,42.047c4.66,8.169,4.363-3.569,4.363-3.569l-7.2-48.195-16.627-.786S3879.563,640.051,3882.088,648.363Z" transform="translate(-3852.166 -584.953)" fill="#163f59"/>
      <path id="Trazado_37143" data-name="Trazado 37143" d="M3884.253,642.471s-13.361,26.965-14,28.89c-3.131,9.395-7.111-2.146-7.307-4.436s.683-14.06,3.828-25.373l3.145-11.312Z" transform="translate(-3843.223 -580.382)" fill="#163f59"/>
      <path id="Trazado_37144" data-name="Trazado 37144" d="M3872.724,718.535s2.284,4.64,4.814,10.685c1.858,4.438,5.651,17.549,7.429,26.9.11.572-6.171.543-6.171.543s-9.462-24.887-11.592-30.456S3867.916,715.5,3872.724,718.535Z" transform="translate(-3845.363 -632.806)" fill="#163f59"/>
      <path id="Trazado_37145" data-name="Trazado 37145" d="M3895.1,559.3,3891.04,555l-1.717-2.306-7.487-1.047-1.589,2.3-6.143,2.2s-1.721,2.4-1.535,12.025c.2,10.67-5.108,25.284-2.981,26.883,13.938,10.46,21.317,2.274,21.317,2.274S3898.028,577.224,3895.1,559.3Z" transform="translate(-3846.922 -533.235)" fill="#d4edff"/>
      <path id="Trazado_37146" data-name="Trazado 37146" d="M3861.753,558.519s.84,1.788-4.089,3.188c-8.4,2.393-17.206,1.545-18.933,1.431s-4.136-.344-5.763-3.468c-1.248-2.385-1.677-3.168-1.677-3.168l4.735-3.334,1.054,1.286.456.79s6.367-.351,12.335-.731C3863.8,553.626,3861.753,558.519,3861.753,558.519Z" transform="translate(-3824.25 -534.151)" fill="#d4edff"/>
      <path id="Trazado_37147" data-name="Trazado 37147" d="M3909.693,514.595s1.1-.25,1,.493-1.1,2.112-1.57,2.112-1.241,1.832-1.241,1.832l.405,2.468,5.644,1.914s2-.176,2.569-1.382,4.957-9.587,4.957-9.587l-3.262-3.437a27.643,27.643,0,0,0-3.059-2.669c-2.028-1.4-2.907-.364-3.047.287s-.865.484-1.771.177-2.258.011-1.913.6c.145.241-.943.486-.812,1.274.19,1.123,1.8,2.013,1.417,3.592C3908.834,512.979,3908.341,515.378,3909.693,514.595Z" transform="translate(-3870.013 -505.64)" fill="#194866"/>
      <path id="Trazado_37148" data-name="Trazado 37148" d="M3816.757,520.764s2.365-1.118,2.537-1.843.618-3.435.618-3.435l.049-.7s-.741-.491-1.023,1.328-.628.855-.628.855l-.375-1.755-.625-2.117-.161-.972a1.781,1.781,0,0,0-.171-.681c-.359-.359-.495.048-.495.048l.3,3.831-1.234-3.47s-.234-.419-.479-.387-.19.177-.19.177l.473,4.242-.836-1.717s-.234-.407-.477-.388c-.267.022-.339.02-.339.02l2.31,7.061Z" transform="translate(-3813.696 -509.032)" fill="#e9d6b8"/>
    </g>
    <g id="Grupo_17513" data-name="Grupo 17513" transform="translate(3296.789 624.079)">
      <g id="Grupo_17504" data-name="Grupo 17504" transform="translate(16.346)">
        <path id="Trazado_37149" data-name="Trazado 37149" d="M3833.824,986.563c2.693.678,7.657,3.093,8.7,7.222,1.56,6.2-1.56,15.3,3.38,24.2,1.577,2.835-27.3,6.651-27.3,6.651l-5.57-31.322s6.959-6.8,8.383-7.256C3824.362,985.109,3828.442,985.21,3833.824,986.563Z" transform="translate(-3810.979 -976.414)" fill="#fec00f"/>
        <g id="Grupo_17500" data-name="Grupo 17500" transform="translate(0 16.855)">
          <path id="Trazado_37150" data-name="Trazado 37150" d="M3809.909,1005.08c-1,2.5-3.536,17.394-.712,20.9.325.406-1.466,1.036-1.143,2.888.055.311.6,1.786.6,1.786l2.308.6,6.972-3.971-1.335-1.625-.632.013a1.425,1.425,0,0,1-.431-1.24c.165-.681-1.6-1.793-4.267-13.349C3810.48,1007.69,3810.129,1004.528,3809.909,1005.08Z" transform="translate(-3807.903 -1005.017)" fill="#f99b1c"/>
          <path id="Trazado_37151" data-name="Trazado 37151" d="M3816.088,1054.77l2.063-.453.835-.133a1.527,1.527,0,0,0,.459.988l-1.6.05-1.875.4-2.264,1.291Z" transform="translate(-3811.385 -1034.51)" fill="#ecb60d"/>
        </g>
        <path id="Trazado_37152" data-name="Trazado 37152" d="M3820.464,1060.458a6.178,6.178,0,0,0-2.953.817c-1.034.637-1.984,2.022-1.035,2.77a15.405,15.405,0,0,0,2.414,1.449S3822.521,1065.593,3820.464,1060.458Z" transform="translate(-3812.811 -1021.419)" fill="#c4d1e1"/>
        <path id="Trazado_37153" data-name="Trazado 37153" d="M3816.6,1069.022l.972-.208s3.344-.3,3.82-.043,2.01,1.3,2.01,1.3l.315.29a1.611,1.611,0,0,1-1.75-.239c-1.01-.7-1.093-.163-1.093-.163l.169.893-.015,1.137.156.479s.141.26.03.357a.637.637,0,0,1-.635.144l-1.017-1.777-.276,1.933a.708.708,0,0,1-.456.33c-.3.064-.3-.016-.3-.016l-.23-.49a.6.6,0,0,1-.2.336.959.959,0,0,1-.606.172l.094-2.033-.417,1.034a.771.771,0,0,1-.457.33c-.339.078-.429.1-.429.1Z" transform="translate(-3812.927 -1026.343)" fill="#e4eef3"/>
        <g id="Grupo_17502" data-name="Grupo 17502" transform="translate(8.814 13.204)">
          <g id="Grupo_17501" data-name="Grupo 17501" transform="translate(2.605)">
            <path id="Trazado_37154" data-name="Trazado 37154" d="M3846.015,1046.149s-2.427,6.15-8.261,7.8c-1.01.285-1.63,1.376-1.144,1.725a4.929,4.929,0,0,0,2.944.542,14.9,14.9,0,0,0,10.073-3.734c4.25-4.113,5.59-5.983,5.16-8.051S3846.015,1046.149,3846.015,1046.149Z" transform="translate(-3836.441 -1024.636)" fill="#e9d6b8"/>
            <path id="Trazado_37155" data-name="Trazado 37155" d="M3866.2,997.988c1.235,2.029,1.95,5.292,1.941,9.957-.009,3.612-3.124,9.525-3.6,11.343-.081.3-.27,1.6-.27,1.6l-3.453,3.388-6.928-4.694,2.106-3.233.627.068a10.66,10.66,0,0,0,.292-2.478c-.109-.694,1.918-10.01,2.919-15.982C3860.409,994.521,3864.975,995.976,3866.2,997.988Z" transform="translate(-3846.906 -995.894)" fill="#f99b1c"/>
            <path id="Trazado_37156" data-name="Trazado 37156" d="M3864.1,1045.661l-2.016-.624-.822-.2a1.531,1.531,0,0,1-.54.946l1.589.185,1.835.559,2.147,1.475Z" transform="translate(-3851.003 -1025.25)" fill="#e8b00e"/>
          </g>
          <path id="Trazado_37157" data-name="Trazado 37157" d="M3834.293,1067.646l-3.528-.965s-1,1.341-.81,1.674a9.344,9.344,0,0,1,0,2.316l1.709,1.453,1.39-.462s.1-.607-.377-.666.32-.4.57-.548S3835.54,1069.253,3834.293,1067.646Z" transform="translate(-3829.932 -1038.356)" fill="#e9d6b8"/>
        </g>
        <path id="Rectángulo_4246" data-name="Rectángulo 4246" d="M3.218,0h0A3.216,3.216,0,0,1,6.434,3.216V6.488A3.217,3.217,0,0,1,3.217,9.7h0A3.217,3.217,0,0,1,0,6.488V3.218A3.218,3.218,0,0,1,3.218,0Z" transform="translate(10.011 4.857) rotate(-19.326)" fill="#e4eef3"/>
        <g id="Grupo_17503" data-name="Grupo 17503" transform="translate(6.447)">
          <path id="Trazado_37158" data-name="Trazado 37158" d="M3828.741,980.137a1.391,1.391,0,0,0,1.711.97l6.04-1.664a1.393,1.393,0,0,0,.972-1.713L3835,968.784a1.388,1.388,0,0,0-1.71-.97l-6.04,1.663a1.4,1.4,0,0,0-.972,1.712Z" transform="translate(-3825.341 -965.815)" fill="#e9d6b8"/>
          <path id="Trazado_37159" data-name="Trazado 37159" d="M3825.449,975.987a5.328,5.328,0,0,1-1.348-1.135,2.087,2.087,0,0,1,.4-1.912c.563-.576,1.321-.005,1.321-.005s-.907.893-.9,1.134S3825.449,975.987,3825.449,975.987Z" transform="translate(-3824.014 -968.767)" fill="#163f59"/>
          <path id="Trazado_37160" data-name="Trazado 37160" d="M3835.585,969.719s-.034-3.69-.481-4.649-.749-1.63-2.01-1.4c-1.886.339-1.8.737-2.85.425a28.224,28.224,0,0,0-3.62-1.2,1.911,1.911,0,0,0-1.92,2.484,2,2,0,0,1-.375,1.87c.113.137.491.191,1.156.323a5.3,5.3,0,0,0,4.156-.424c1.195-.69,3.39-2.078,3.93-1.2s1.231,3.814,1.406,4.006S3835.407,969.951,3835.585,969.719Z" transform="translate(-3824.202 -962.895)" fill="#194866"/>
          <path id="Trazado_37161" data-name="Trazado 37161" d="M3848.547,982.976a.46.46,0,0,0,.57.321l1.306-.357a.465.465,0,0,0,.323-.571l-.656-2.385a.465.465,0,0,0-.573-.324l-1.3.359a.465.465,0,0,0-.324.572Z" transform="translate(-3838.325 -972.941)" fill="#e9d6b8"/>
          <path id="Trazado_37162" data-name="Trazado 37162" d="M3829.1,988.332a.469.469,0,0,0,.573.327l1.3-.361a.465.465,0,0,0,.324-.569l-.657-2.388a.463.463,0,0,0-.571-.323l-1.306.361a.464.464,0,0,0-.324.571Z" transform="translate(-3826.66 -976.155)" fill="#e9d6b8"/>
          <path id="Trazado_37163" data-name="Trazado 37163" d="M3838.607,982.312s.971,3.522,1.3,4.7c.292,1.06.51,3.508-5.487,5.161-3.551.975-4.14-1.666-4.376-2.525a7.867,7.867,0,0,1,.292-3.291c.008-.014.4,1.455.4,1.455a2.938,2.938,0,0,1,2.036-2.086c2.723-.749,3.779.674,4.971.317C3838.658,985.763,3838.938,984.063,3838.607,982.312Z" transform="translate(-3827.588 -974.543)" fill="#194866"/>
          <path id="Trazado_37164" data-name="Trazado 37164" d="M3837.594,994.6l-1.863.515a.463.463,0,0,1-.57-.326l-.072-.257,2.758-.763.072.263A.46.46,0,0,1,3837.594,994.6Z" transform="translate(-3830.657 -981.413)" fill="#e9d6b8"/>
        </g>
      </g>
      <path id="Trazado_37165" data-name="Trazado 37165" d="M3767.321,1067.016c.859,2.377,15.927,11.126,20.977,10.607l15.219.725c12.942-1.581,19.066-21.687,19.066-21.687-.517-5.049-13.267,2.268-17.81,4.536-7.2,3.592-11.749,3.774-11.749,3.774-4.815.492-10.4-3.223-16.473-3.351C3769.875,1061.478,3765.965,1063.269,3767.321,1067.016Z" transform="translate(-3767.053 -1018.097)" fill="#282723"/>
      <g id="Grupo_17507" data-name="Grupo 17507" transform="translate(4.141 31.813)">
        <path id="Trazado_37166" data-name="Trazado 37166" d="M3811.19,1077.417a.194.194,0,0,1,.012-.019v-.634l-26.2-.478-.011.632a.05.05,0,0,0,0,.022l.064.118a1.721,1.721,0,0,0,1.621.678l22.8.414a1.718,1.718,0,0,0,1.645-.615Z" transform="translate(-3781.956 -1062.727)" fill="#b6c2c9"/>
        <path id="Trazado_37167" data-name="Trazado 37167" d="M3834.681,1078.325a.028.028,0,0,0,0,.017l.061.1a1.1,1.1,0,0,0,.377.329l3.984.07a1.81,1.81,0,0,0,1.579-.494l.065-.1a.066.066,0,0,0,.013-.017v-.309l-6.069-.111Z" transform="translate(-3811.76 -1063.643)" fill="#d8e5ed"/>
        <g id="Grupo_17505" data-name="Grupo 17505" transform="translate(6.297 13.765)">
          <rect id="Rectángulo_4247" data-name="Rectángulo 4247" width="0.447" height="13.092" transform="translate(0 0.447) rotate(-88.95)" fill="#879ba6"/>
        </g>
        <g id="Grupo_17506" data-name="Grupo 17506">
          <path id="Trazado_37168" data-name="Trazado 37168" d="M3800.19,1056.3l-3.161-12.936a.86.86,0,0,0-.767-.629l-18.377-.333a.456.456,0,0,0-.464.6l3.161,12.935Z" transform="translate(-3777.403 -1042.4)" fill="#b0bfde"/>
          <path id="Trazado_37169" data-name="Trazado 37169" d="M3805.063,1057.979a.884.884,0,0,1-.9,1.173,1.662,1.662,0,0,1-1.483-1.216.886.886,0,0,1,.9-1.173A1.651,1.651,0,0,1,3805.063,1057.979Z" transform="translate(-3792.547 -1051.015)" fill="#e1eefe"/>
        </g>
      </g>
      <g id="Grupo_17509" data-name="Grupo 17509" transform="translate(30.91 55.626)">
        <path id="Trazado_37170" data-name="Trazado 37170" d="M3852.179,1109.887c-1.813.311-3.193-1.8-3.193-1.8l-4.684-3.687.992-2.493,9.12,4.1S3853.993,1109.577,3852.179,1109.887Z" transform="translate(-3844.301 -1101.912)" fill="#e9d6b8"/>
        <path id="Trazado_37171" data-name="Trazado 37171" d="M3855.989,1112.422a4.63,4.63,0,0,0,.345,1.177c.349.963.777,1.3,1.229,1.43,1.749.517,3.007.256,7.213,1.066s5.467.2,6.7-1.738-.046-3.46-2.1-3.619c-2.968-.222-4.621.116-6.167-.118a4.926,4.926,0,0,1-2.668-1.194c-.89-.545-1.71,2.708-.868,3.463C3860.415,1113.552,3856.62,1113.655,3855.989,1112.422Z" transform="translate(-3851.312 -1106.383)" fill="#f99b1c"/>
        <path id="Trazado_37172" data-name="Trazado 37172" d="M3857.784,1117.189c1.747.515,3.009.255,7.213,1.066s5.466.2,6.7-1.739a2.242,2.242,0,0,0,.264-2.321,2.064,2.064,0,0,1,.408,3.059c-1.23,1.938-2.492,2.549-6.7,1.738s-5.465-.549-7.213-1.066a1.618,1.618,0,0,1-.978-.866A1.463,1.463,0,0,0,3857.784,1117.189Z" transform="translate(-3852.207 -1109.28)" fill="#fff"/>
        <path id="Trazado_37173" data-name="Trazado 37173" d="M3856,1117.06a.409.409,0,0,1-.006-.056.667.667,0,0,0,.041.064Z" transform="translate(-3851.312 -1110.965)" fill="#e9d6b8"/>
        <g id="Grupo_17508" data-name="Grupo 17508" transform="translate(10.882 3.917)">
          <path id="Trazado_37174" data-name="Trazado 37174" d="M3878.386,1115.626c.136.05.257-.2.3-.561a10.04,10.04,0,0,1,.487-2.167c.122-.355.118-.669-.029-.71s-.386.214-.5.561a10.173,10.173,0,0,0-.461,2.144C3878.144,1115.246,3878.252,1115.574,3878.386,1115.626Z" transform="translate(-3875.501 -1111.991)" fill="#fff"/>
          <path id="Trazado_37175" data-name="Trazado 37175" d="M3875.109,1115.343c.145.03.273-.221.313-.555a9.231,9.231,0,0,1,.48-2.04c.118-.334.112-.621-.044-.642s-.4.231-.513.565a9.231,9.231,0,0,0-.455,2.016C3874.856,1115.02,3874.969,1115.311,3875.109,1115.343Z" transform="translate(-3873.528 -1111.944)" fill="#fff"/>
          <path id="Trazado_37176" data-name="Trazado 37176" d="M3871.71,1115.04c.148.02.3-.244.349-.591a10.286,10.286,0,0,1,.57-2.1c.13-.344.132-.635-.031-.643s-.419.263-.549.6a10.109,10.109,0,0,0-.541,2.083C3871.459,1114.729,3871.563,1115.021,3871.71,1115.04Z" transform="translate(-3871.496 -1111.701)" fill="#fff"/>
        </g>
      </g>
      <path id="Trazado_37177" data-name="Trazado 37177" d="M3805.683,1086.934s-32.19-13.233-34.028-13.253c-6.217-.058-4.792,6.233-1.642,9.193,3.717,3.492,31.977,9.883,31.977,9.883Z" transform="translate(-3767.214 -1029.351)" fill="#323b31"/>
      <g id="Grupo_17512" data-name="Grupo 17512" transform="translate(10.016 31.77)">
        <path id="Trazado_37178" data-name="Trazado 37178" d="M3824.457,1094.494l8.788-8.331-3.746-3.709-9.594,10.085Z" transform="translate(-3808.773 -1066.383)" fill="#e9d6b8"/>
        <path id="Trazado_37179" data-name="Trazado 37179" d="M3826.731,1063.852s22.362-20.5,23.871-21.11c5.1-2.072,8.268,3.565,8.087,5.513-.232,2.525-22.951,23.054-22.951,23.054Z" transform="translate(-3812.867 -1042.292)" fill="#3c463b"/>
        <g id="Grupo_17511" data-name="Grupo 17511" transform="translate(0 24.494)">
          <path id="Trazado_37180" data-name="Trazado 37180" d="M3792.7,1107.774a3.674,3.674,0,0,0-.612,1.9s7.462,2.821,10.083,2.873a13.323,13.323,0,0,0,3.079-.585c.2-.052.653-.565.845-.622.358-.1.438.243.746.146a9.463,9.463,0,0,0,1.382-.509c1.577-3.352,1.042-5,1.042-5s-3.428.98-2.841.213c1.258-1.641-2.334-3.321-3.137-2.446C3800.089,1107.242,3794.21,1106.378,3792.7,1107.774Z" transform="translate(-3792.084 -1103.506)" fill="#f99b1c"/>
          <path id="Trazado_37181" data-name="Trazado 37181" d="M3792.28,1115.913c2.293.911,7.115,2.794,8.074,2.861a16.43,16.43,0,0,0,8.508-1.938,15.29,15.29,0,0,1-.642,1.587,9.447,9.447,0,0,1-1.382.509c-.308.1-.388-.25-.746-.146-.192.057-.647.57-.845.622a13.321,13.321,0,0,1-3.079.584c-2.622-.051-10.083-2.873-10.083-2.873A5.115,5.115,0,0,1,3792.28,1115.913Z" transform="translate(-3792.084 -1110.948)" fill="#fff"/>
          <g id="Grupo_17510" data-name="Grupo 17510" transform="translate(5.462 1.566)">
            <path id="Trazado_37182" data-name="Trazado 37182" d="M3805.745,1110.258c-.069.13.221.282.64.37a14.237,14.237,0,0,1,2.521.763c.408.168.779.2.837.062s-.227-.412-.629-.573a14.128,14.128,0,0,0-2.493-.736C3806.206,1110.065,3805.814,1110.13,3805.745,1110.258Z" transform="translate(-3805.734 -1109.033)" fill="#fff"/>
            <path id="Trazado_37183" data-name="Trazado 37183" d="M3809.928,1108.813c-.062.134.223.32.629.439a14.393,14.393,0,0,1,2.436.958c.392.2.751.258.8.109s-.218-.448-.607-.639a14.133,14.133,0,0,0-2.414-.926C3810.372,1108.642,3809.991,1108.683,3809.928,1108.813Z" transform="translate(-3808.245 -1108.181)" fill="#fff"/>
            <path id="Trazado_37184" data-name="Trazado 37184" d="M3813.96,1107.534c-.06.139.218.353.615.5a14.586,14.586,0,0,1,2.347,1.142c.378.226.719.308.767.151s-.207-.481-.58-.7a14.273,14.273,0,0,0-2.331-1.107C3814.387,1107.374,3814.018,1107.394,3813.96,1107.534Z" transform="translate(-3810.664 -1107.419)" fill="#fff"/>
          </g>
        </g>
      </g>
    </g>
    <g id="Grupo_17532" data-name="Grupo 17532" transform="translate(3017.294 634.569)">
      <g id="Grupo_17519" data-name="Grupo 17519" transform="translate(0 22.236)">
        <g id="Grupo_17514" data-name="Grupo 17514" transform="translate(6.599 12.217)">
          <path id="Trazado_37185" data-name="Trazado 37185" d="M3085.374,1083.628c-.1-2.523-.223-5.889-.319-8.412.065,1.736.247,6.422.32,8.22C3085.372,1083.5,3085.371,1083.564,3085.374,1083.628Z" transform="translate(-3085.055 -1075.216)" fill="#ffc910"/>
        </g>
        <g id="Grupo_17515" data-name="Grupo 17515" transform="translate(0.002 8.676)">
          <path id="Trazado_37186" data-name="Trazado 37186" d="M3145.009,1066.366q.176,4.658.352,9.314c.09,2.374-3.021,4.878-9.459,7.034-13.9,4.657-38.051,5.929-53.935,2.841-8.53-1.657-12.943-4.237-13.047-6.989l-.353-9.314c.1,2.752,4.517,5.331,13.047,6.989,15.884,3.088,40.032,1.816,53.936-2.842C3141.987,1071.244,3145.1,1068.74,3145.009,1066.366Z" transform="translate(-3068.567 -1066.366)" fill="#ffab01"/>
        </g>
        <g id="Grupo_17516" data-name="Grupo 17516">
          <path id="Trazado_37187" data-name="Trazado 37187" d="M3131.958,1046.369c15.885,3.088,17.493,9.366,3.589,14.024s-38.051,5.93-53.936,2.842-17.491-9.366-3.587-14.023S3116.073,1043.282,3131.958,1046.369Zm-46.025,15.419c13.157,2.557,33.159,1.5,44.675-2.354s10.186-9.058-2.971-11.617-33.157-1.5-44.673,2.355-10.187,9.058,2.969,11.616" transform="translate(-3068.563 -1044.683)" fill="#ffc910"/>
        </g>
        <path id="Trazado_37188" data-name="Trazado 37188" d="M3137.477,1050.421c13.157,2.558,14.487,7.758,2.971,11.616s-31.518,4.912-44.675,2.354-14.485-7.758-2.969-11.616S3124.322,1047.865,3137.477,1050.421Z" transform="translate(-3078.403 -1047.288)" fill="#ffab01"/>
        <path id="Trazado_37189" data-name="Trazado 37189" d="M3092.808,1053.936c11.517-3.858,31.518-4.911,44.673-2.355,6.548,1.272,10.164,3.2,10.728,5.292.658-2.525-2.984-4.946-10.728-6.451-13.156-2.557-33.157-1.5-44.673,2.355-5.785,1.938-8.327,4.215-7.757,6.325C3085.51,1057.337,3088.069,1055.523,3092.808,1053.936Z" transform="translate(-3078.406 -1047.288)" fill="#f99b0f"/>
        <path id="Trazado_37190" data-name="Trazado 37190" d="M3077.7,1083.719v9.126a34.292,34.292,0,0,0,9.747,3.12,97.8,97.8,0,0,0,14.208,1.56v-9.3a98.467,98.467,0,0,1-14.56-1.574A35.71,35.71,0,0,1,3077.7,1083.719Z" transform="translate(-3074.042 -1068.099)" fill="#f99b0f"/>
        <g id="Grupo_17517" data-name="Grupo 17517" transform="translate(19.26 5.387)">
          <path id="Trazado_37191" data-name="Trazado 37191" d="M3151.114,1058.8l-3.486,1.168c1.391.385,2.047.85,1.963,1.39s-.892,1.1-2.435,1.679l-3.59-.7q1.295-.493,1.129-.962c-.109-.316-.694-.574-1.751-.78a14.728,14.728,0,0,0-3.641-.221,13.25,13.25,0,0,0-3.455.618,3.74,3.74,0,0,0-.838.375c-.187.126-.28.255-.28.387-.016.27.632.615,1.952,1.038.788.252,1.353.455,1.7.609,1.222.533,1.759,1.069,1.6,1.611s-.99,1.063-2.5,1.568a29.076,29.076,0,0,1-6.549,1.3,29.663,29.663,0,0,1-6.708-.073l-4.188,1.4-3.346-.651,4.026-1.348c-1.766-.47-2.616-1.03-2.541-1.678s1.065-1.295,2.986-1.945l3.457.672q-1.835.674-1.686,1.223t2.3.967a16.8,16.8,0,0,0,4.18.257,15.09,15.09,0,0,0,3.965-.709,6.809,6.809,0,0,0,1.006-.41,1.4,1.4,0,0,0,.5-.38q.378-.591-1.793-1.318c-.239-.08-.415-.14-.53-.18q-2.653-.924-2.779-1.736t2.258-1.614a25.3,25.3,0,0,1,5.88-1.153,30.831,30.831,0,0,1,6.4.1l3.452-1.156Z" transform="translate(-3116.695 -1058.145)" fill="#f99b0f"/>
        </g>
        <g id="Grupo_17518" data-name="Grupo 17518" transform="translate(19.26 4.079)">
          <path id="Trazado_37192" data-name="Trazado 37192" d="M3151.114,1055.526l-3.486,1.168c1.391.385,2.047.85,1.963,1.391s-.892,1.1-2.435,1.679l-3.59-.7q1.295-.494,1.129-.962c-.109-.316-.694-.574-1.751-.78a14.751,14.751,0,0,0-3.641-.222,13.285,13.285,0,0,0-3.455.618,3.773,3.773,0,0,0-.838.375c-.187.127-.28.256-.28.388-.016.269.632.615,1.952,1.037.788.251,1.353.454,1.7.607,1.222.534,1.759,1.071,1.6,1.612s-.99,1.063-2.5,1.568a29.054,29.054,0,0,1-6.549,1.3,29.727,29.727,0,0,1-6.708-.073l-4.188,1.4-3.346-.65,4.026-1.349c-1.766-.47-2.616-1.03-2.541-1.677s1.065-1.294,2.986-1.945l3.457.672q-1.835.675-1.686,1.223t2.3.967a16.78,16.78,0,0,0,4.18.257,15.05,15.05,0,0,0,3.965-.71,6.761,6.761,0,0,0,1.006-.409,1.391,1.391,0,0,0,.5-.38q.378-.591-1.793-1.319c-.239-.08-.415-.14-.53-.18q-2.653-.924-2.779-1.735t2.258-1.615a25.28,25.28,0,0,1,5.88-1.152,30.856,30.856,0,0,1,6.4.1l3.452-1.156Z" transform="translate(-3116.695 -1054.876)" fill="#ffc910"/>
        </g>
      </g>
      <g id="Grupo_17525" data-name="Grupo 17525" transform="translate(4.124 12.124)">
        <g id="Grupo_17520" data-name="Grupo 17520" transform="translate(6.599 12.217)">
          <path id="Trazado_37193" data-name="Trazado 37193" d="M3095.681,1058.357c-.1-2.524-.223-5.89-.319-8.413.065,1.736.247,6.422.32,8.22C3095.679,1058.229,3095.678,1058.292,3095.681,1058.357Z" transform="translate(-3095.362 -1049.944)" fill="#ffc910"/>
        </g>
        <g id="Grupo_17521" data-name="Grupo 17521" transform="translate(0.002 8.676)">
          <path id="Trazado_37194" data-name="Trazado 37194" d="M3155.316,1041.095q.175,4.658.352,9.314c.091,2.374-3.021,4.878-9.459,7.034-13.9,4.657-38.05,5.929-53.935,2.842-8.53-1.658-12.943-4.237-13.047-6.99l-.353-9.315c.1,2.753,4.516,5.331,13.047,6.989,15.885,3.088,40.032,1.817,53.936-2.841C3152.294,1045.973,3155.406,1043.468,3155.316,1041.095Z" transform="translate(-3078.874 -1041.095)" fill="#ffab01"/>
        </g>
        <g id="Grupo_17522" data-name="Grupo 17522">
          <path id="Trazado_37195" data-name="Trazado 37195" d="M3142.265,1021.1c15.884,3.088,17.493,9.366,3.589,14.024s-38.051,5.929-53.936,2.841-17.49-9.365-3.587-14.022S3126.38,1018.01,3142.265,1021.1Zm-46.026,15.418c13.158,2.558,33.159,1.5,44.676-2.354s10.186-9.058-2.971-11.617-33.156-1.5-44.673,2.356-10.186,9.058,2.969,11.615" transform="translate(-3078.87 -1019.412)" fill="#ffc910"/>
        </g>
        <path id="Trazado_37196" data-name="Trazado 37196" d="M3147.784,1025.15c13.157,2.558,14.487,7.758,2.971,11.617s-31.519,4.912-44.676,2.354-14.485-7.758-2.969-11.615S3134.629,1022.594,3147.784,1025.15Z" transform="translate(-3088.709 -1022.017)" fill="#ffab01"/>
        <path id="Trazado_37197" data-name="Trazado 37197" d="M3103.115,1028.664c11.517-3.858,31.518-4.912,44.673-2.354,6.548,1.272,10.164,3.2,10.728,5.291.658-2.524-2.984-4.945-10.728-6.451-13.155-2.556-33.156-1.5-44.673,2.356-5.786,1.938-8.327,4.214-7.757,6.325C3095.817,1032.066,3098.376,1030.252,3103.115,1028.664Z" transform="translate(-3088.713 -1022.017)" fill="#f99b0f"/>
        <path id="Trazado_37198" data-name="Trazado 37198" d="M3088,1058.447v9.127a34.315,34.315,0,0,0,9.747,3.12,97.939,97.939,0,0,0,14.207,1.559v-9.3a98.308,98.308,0,0,1-14.56-1.575A35.676,35.676,0,0,1,3088,1058.447Z" transform="translate(-3084.348 -1042.828)" fill="#f99b0f"/>
        <g id="Grupo_17523" data-name="Grupo 17523" transform="translate(19.26 5.387)">
          <path id="Trazado_37199" data-name="Trazado 37199" d="M3161.421,1033.524l-3.487,1.168q2.086.579,1.963,1.391c-.077.541-.892,1.1-2.435,1.679l-3.59-.7q1.294-.493,1.129-.962c-.109-.315-.693-.573-1.751-.78a14.7,14.7,0,0,0-3.64-.221,13.237,13.237,0,0,0-3.455.618,3.763,3.763,0,0,0-.838.374c-.187.126-.28.256-.28.387-.016.27.632.615,1.952,1.038.788.252,1.353.454,1.7.609,1.222.533,1.759,1.069,1.6,1.611s-.99,1.063-2.5,1.568a29.08,29.08,0,0,1-6.55,1.3,29.692,29.692,0,0,1-6.708-.073l-4.187,1.4-3.346-.651,4.026-1.349q-2.65-.705-2.542-1.678t2.986-1.945l3.457.672q-1.834.674-1.685,1.223c.1.365.861.689,2.3.967a16.784,16.784,0,0,0,4.18.257,15.09,15.09,0,0,0,3.966-.71,6.775,6.775,0,0,0,1.006-.409,1.4,1.4,0,0,0,.5-.38q.378-.591-1.793-1.319c-.239-.079-.415-.14-.529-.179q-2.654-.924-2.78-1.736t2.259-1.615a25.276,25.276,0,0,1,5.88-1.152,30.789,30.789,0,0,1,6.394.1l3.452-1.156Z" transform="translate(-3127.002 -1032.874)" fill="#f99b0f"/>
        </g>
        <g id="Grupo_17524" data-name="Grupo 17524" transform="translate(19.26 4.079)">
          <path id="Trazado_37200" data-name="Trazado 37200" d="M3161.421,1030.256l-3.487,1.167q2.086.579,1.963,1.391c-.077.541-.892,1.1-2.435,1.678l-3.59-.7q1.294-.494,1.129-.962t-1.751-.78a14.719,14.719,0,0,0-3.64-.222,13.272,13.272,0,0,0-3.455.618,3.792,3.792,0,0,0-.838.374c-.187.127-.28.256-.28.388-.016.269.632.615,1.952,1.038.788.251,1.353.454,1.7.608,1.222.533,1.759,1.07,1.6,1.611s-.99,1.063-2.5,1.568a29.059,29.059,0,0,1-6.55,1.3,29.705,29.705,0,0,1-6.708-.074l-4.187,1.4-3.346-.65,4.026-1.349q-2.65-.705-2.542-1.677t2.986-1.946l3.457.672q-1.834.675-1.685,1.223c.1.365.861.689,2.3.967a16.791,16.791,0,0,0,4.18.257,15.07,15.07,0,0,0,3.966-.71,6.823,6.823,0,0,0,1.006-.41,1.4,1.4,0,0,0,.5-.38q.378-.591-1.793-1.319c-.239-.079-.415-.14-.529-.179q-2.654-.924-2.78-1.736t2.259-1.614a25.319,25.319,0,0,1,5.88-1.153,30.848,30.848,0,0,1,6.394.1l3.452-1.156Z" transform="translate(-3127.002 -1029.606)" fill="#ffc910"/>
        </g>
      </g>
      <g id="Grupo_17531" data-name="Grupo 17531" transform="translate(0.818)">
        <g id="Grupo_17526" data-name="Grupo 17526" transform="translate(6.599 12.217)">
          <path id="Trazado_37201" data-name="Trazado 37201" d="M3087.417,1028.057c-.1-2.524-.223-5.889-.319-8.413.065,1.736.247,6.422.32,8.22C3087.415,1027.929,3087.415,1027.992,3087.417,1028.057Z" transform="translate(-3087.098 -1019.644)" fill="#ffc910"/>
        </g>
        <g id="Grupo_17527" data-name="Grupo 17527" transform="translate(0.002 8.677)">
          <path id="Trazado_37202" data-name="Trazado 37202" d="M3147.052,1010.8q.176,4.658.352,9.314c.09,2.373-3.021,4.877-9.459,7.034-13.9,4.657-38.051,5.929-53.936,2.841-8.53-1.658-12.943-4.236-13.047-6.989l-.353-9.315c.1,2.753,4.516,5.331,13.047,6.99,15.885,3.088,40.032,1.815,53.936-2.842C3144.03,1015.673,3147.142,1013.169,3147.052,1010.8Z" transform="translate(-3070.61 -1010.796)" fill="#ffab01"/>
        </g>
        <g id="Grupo_17528" data-name="Grupo 17528">
          <path id="Trazado_37203" data-name="Trazado 37203" d="M3134,990.8c15.885,3.088,17.493,9.366,3.589,14.024s-38.051,5.93-53.936,2.842-17.49-9.366-3.587-14.023S3118.116,987.71,3134,990.8Zm-46.025,15.418c13.157,2.558,33.159,1.5,44.675-2.354s10.186-9.058-2.971-11.617-33.156-1.5-44.673,2.355-10.186,9.058,2.969,11.616" transform="translate(-3070.606 -989.112)" fill="#ffc910"/>
        </g>
        <path id="Trazado_37204" data-name="Trazado 37204" d="M3139.52,994.85c13.157,2.558,14.488,7.758,2.971,11.617s-31.518,4.912-44.675,2.354-14.485-7.758-2.969-11.616S3126.365,992.293,3139.52,994.85Z" transform="translate(-3080.446 -991.716)" fill="#ffab01"/>
        <path id="Trazado_37205" data-name="Trazado 37205" d="M3094.851,998.364c11.517-3.859,31.518-4.912,44.673-2.355,6.548,1.272,10.164,3.2,10.728,5.292.658-2.524-2.984-4.945-10.728-6.451-13.155-2.557-33.156-1.5-44.673,2.355-5.785,1.939-8.326,4.215-7.757,6.325C3087.553,1001.766,3090.112,999.951,3094.851,998.364Z" transform="translate(-3080.449 -991.716)" fill="#f99b0f"/>
        <path id="Trazado_37206" data-name="Trazado 37206" d="M3079.739,1028.148v9.126a34.321,34.321,0,0,0,9.747,3.12,97.855,97.855,0,0,0,14.208,1.559v-9.3a98.531,98.531,0,0,1-14.56-1.574A35.731,35.731,0,0,1,3079.739,1028.148Z" transform="translate(-3076.085 -1012.528)" fill="#f99b0f"/>
        <g id="Grupo_17529" data-name="Grupo 17529" transform="translate(19.259 5.387)">
          <path id="Trazado_37207" data-name="Trazado 37207" d="M3153.157,1003.224l-3.487,1.169c1.391.385,2.047.849,1.963,1.39s-.892,1.1-2.435,1.679l-3.59-.7q1.294-.493,1.129-.962c-.109-.316-.694-.574-1.751-.78a14.7,14.7,0,0,0-3.64-.221,13.225,13.225,0,0,0-3.455.618,3.774,3.774,0,0,0-.838.374c-.187.126-.279.256-.279.387-.016.27.632.615,1.952,1.038.788.252,1.353.454,1.7.608,1.222.533,1.759,1.07,1.6,1.612s-.989,1.063-2.5,1.567a29.121,29.121,0,0,1-6.55,1.3,29.706,29.706,0,0,1-6.708-.074l-4.187,1.4-3.347-.65,4.026-1.349q-2.649-.705-2.541-1.678t2.986-1.945l3.457.672q-1.835.673-1.686,1.222t2.3.967a16.763,16.763,0,0,0,4.18.257,15.072,15.072,0,0,0,3.965-.709,6.854,6.854,0,0,0,1.006-.409,1.4,1.4,0,0,0,.5-.38q.378-.591-1.793-1.319c-.239-.08-.415-.14-.53-.179q-2.654-.924-2.779-1.736t2.259-1.614a25.275,25.275,0,0,1,5.88-1.152,30.739,30.739,0,0,1,6.394.1l3.452-1.156Z" transform="translate(-3118.738 -1002.574)" fill="#f99b0f"/>
        </g>
        <g id="Grupo_17530" data-name="Grupo 17530" transform="translate(19.259 4.079)">
          <path id="Trazado_37208" data-name="Trazado 37208" d="M3153.157,999.956l-3.487,1.168c1.391.385,2.047.85,1.963,1.39s-.892,1.1-2.435,1.679l-3.59-.7q1.294-.493,1.129-.962t-1.751-.78a14.7,14.7,0,0,0-3.64-.222,13.239,13.239,0,0,0-3.455.619,3.754,3.754,0,0,0-.838.374c-.187.126-.279.255-.279.387-.016.27.632.615,1.952,1.038.788.251,1.353.454,1.7.608,1.222.533,1.759,1.07,1.6,1.611s-.989,1.063-2.5,1.567a29.058,29.058,0,0,1-6.55,1.3,29.691,29.691,0,0,1-6.708-.073l-4.187,1.4-3.347-.65,4.026-1.349q-2.649-.705-2.541-1.677t2.986-1.945l3.457.672q-1.835.675-1.686,1.223t2.3.968a16.783,16.783,0,0,0,4.18.257,15.072,15.072,0,0,0,3.965-.709,6.85,6.85,0,0,0,1.006-.41,1.381,1.381,0,0,0,.5-.38q.378-.591-1.793-1.319c-.239-.08-.415-.14-.53-.179q-2.654-.925-2.779-1.736t2.259-1.615a25.3,25.3,0,0,1,5.88-1.152,30.858,30.858,0,0,1,6.394.1l3.452-1.156Z" transform="translate(-3118.738 -999.306)" fill="#ffc910"/>
        </g>
      </g>
    </g>
    <g id="Grupo_17543" data-name="Grupo 17543" transform="translate(3056.635 629.701)">
      <g id="Grupo_17533" data-name="Grupo 17533" transform="translate(16.371 5.169)">
        <path id="Trazado_37209" data-name="Trazado 37209" d="M3207.791,992.361l8.332-2.1c8.192-2.067,17.551,4.087,22.188,15.274,5.3,12.784,2.424,27.3-6.419,32.417l-8.332,2.1c8.844-5.121,11.718-19.634,6.419-32.418C3225.342,996.448,3215.982,990.294,3207.791,992.361Z" transform="translate(-3207.791 -989.863)" fill="#ffc910"/>
      </g>
      <g id="Grupo_17534" data-name="Grupo 17534" transform="translate(28.716 53.256)">
        <path id="Trazado_37210" data-name="Trazado 37210" d="M3246.976,1111.437l-8.332,2.1a13.36,13.36,0,0,0,3.423-1.4l8.332-2.1A13.332,13.332,0,0,1,3246.976,1111.437Z" transform="translate(-3238.644 -1110.038)" fill="#ffc910"/>
      </g>
      <g id="Grupo_17535" data-name="Grupo 17535" transform="translate(12.949 5.565)">
        <path id="Trazado_37211" data-name="Trazado 37211" d="M3202.662,992.955l8.332-2.1a13.3,13.3,0,0,0-3.422,1.4l-8.331,2.1A13.3,13.3,0,0,1,3202.662,992.955Z" transform="translate(-3199.24 -990.853)" fill="#ffab01"/>
      </g>
      <g id="Grupo_17536" data-name="Grupo 17536" transform="translate(3.871 6.963)">
        <path id="Trazado_37212" data-name="Trazado 37212" d="M3209.73,1042.038l-8.332,2.1c-8.193,2.066-17.551-4.088-22.187-15.273-5.3-12.784-2.425-27.3,6.42-32.418l8.332-2.1c-8.846,5.121-11.72,19.635-6.42,32.418C3192.179,1037.95,3201.536,1044.1,3209.73,1042.038Z" transform="translate(-3176.553 -994.346)" fill="#ffab01"/>
      </g>
      <g id="Grupo_17537" data-name="Grupo 17537" transform="translate(0 2.167)">
        <path id="Trazado_37213" data-name="Trazado 37213" d="M3205.205,1039.934l-8.332,2.1c-9.891,2.5-21.189-4.932-26.787-18.436-6.4-15.434-2.926-32.955,7.753-39.138l8.332-2.1c-10.679,6.183-14.151,23.7-7.753,39.138C3184.016,1035,3195.313,1042.429,3205.205,1039.934Z" transform="translate(-3166.879 -982.36)" fill="#f99b0f"/>
      </g>
      <g id="Grupo_17538" data-name="Grupo 17538" transform="translate(8.332 0)">
        <path id="Trazado_37214" data-name="Trazado 37214" d="M3198.661,979.111c10.678-6.183,24.52,1.316,30.918,16.749s2.927,32.954-7.752,39.137-24.522-1.315-30.919-16.748S3187.982,985.294,3198.661,979.111Zm21.178,51.089c8.844-5.119,11.718-19.633,6.419-32.417s-16.765-19-25.61-13.876-11.72,19.635-6.42,32.419,16.765,19,25.611,13.874" transform="translate(-3187.701 -976.944)" fill="#ffc910"/>
      </g>
      <path id="Trazado_37215" data-name="Trazado 37215" d="M3206.453,991.657c8.844-5.119,20.31,1.092,25.61,13.876s2.425,27.3-6.419,32.417-20.312-1.09-25.611-13.875S3197.607,996.778,3206.453,991.657Z" transform="translate(-3185.172 -984.694)" fill="#ffab01"/>
      <g id="Grupo_17539" data-name="Grupo 17539" transform="translate(10.961 0.479)">
        <path id="Trazado_37216" data-name="Trazado 37216" d="M3198.4,980.243l8.332-2.1a16.033,16.033,0,0,0-4.132,1.688l-8.332,2.1A16.061,16.061,0,0,1,3198.4,980.243Z" transform="translate(-3194.271 -978.141)" fill="#ee8f01"/>
      </g>
      <g id="Grupo_17540" data-name="Grupo 17540" transform="translate(17.317 5.169)">
        <path id="Trazado_37217" data-name="Trazado 37217" d="M3214.12,991.657a15.128,15.128,0,0,0-3.963,3.36,14.958,14.958,0,0,1,3.507-2.841c8.844-5.12,20.31,1.091,25.61,13.875,4.4,10.62,3.159,22.429-2.457,29.059,6-6.519,7.432-18.674,2.913-29.577C3234.43,992.749,3222.964,986.538,3214.12,991.657Z" transform="translate(-3210.157 -989.863)" fill="#f99b0f"/>
      </g>
      <path id="Trazado_37218" data-name="Trazado 37218" d="M3220.794,1123.844l8.332-2.1c-4.832,1.219-10,.064-14.671-3l-7.7,2.508C3211.261,1124.011,3216.181,1125.008,3220.794,1123.844Z" transform="translate(-3190.8 -1062.001)" fill="#ee8f01"/>
      <g id="Grupo_17541" data-name="Grupo 17541" transform="translate(22.244 12.583)">
        <path id="Trazado_37219" data-name="Trazado 37219" d="M3225.019,1008.392l1.6,3.867a3.8,3.8,0,0,1,3.483.612,9.437,9.437,0,0,1,2.962,3.879l-2.413,1.4a4.221,4.221,0,0,0-1.77-2.053,2.1,2.1,0,0,0-2.114.088,2.869,2.869,0,0,0-1.4,2.078,5.426,5.426,0,0,0,.437,3.1,4.785,4.785,0,0,0,.586,1.057,2.85,2.85,0,0,0,.752.711,3.618,3.618,0,0,0,2.721.136,10.211,10.211,0,0,1,1.737-.286,5.716,5.716,0,0,1,3.857,1.149,8.73,8.73,0,0,1,2.714,3.761,13.177,13.177,0,0,1,1.1,6.056,5.936,5.936,0,0,1-1.88,4.283l1.927,4.649-2.25,1.3-1.851-4.464a4.514,4.514,0,0,1-4.24-.623,10.054,10.054,0,0,1-3.394-4.6l2.324-1.345a5.693,5.693,0,0,0,2.184,2.767,2.6,2.6,0,0,0,2.656-.188,3.311,3.311,0,0,0,1.625-2.381,6.245,6.245,0,0,0-.5-3.56,7.87,7.87,0,0,0-.622-1.214,3.981,3.981,0,0,0-.686-.845,3.574,3.574,0,0,0-3.28-.623c-.232.044-.4.078-.521.1a6.357,6.357,0,0,1-4.426-.547,7.2,7.2,0,0,1-2.869-3.672,11.353,11.353,0,0,1-.961-5.416,6.13,6.13,0,0,1,1.852-4.042l-1.589-3.831Z" transform="translate(-3222.468 -1008.392)" fill="#f99b0f"/>
      </g>
      <g id="Grupo_17542" data-name="Grupo 17542" transform="translate(23.696 11.995)">
        <path id="Trazado_37220" data-name="Trazado 37220" d="M3228.649,1006.921l1.6,3.866a3.8,3.8,0,0,1,3.483.613,9.435,9.435,0,0,1,2.962,3.879l-2.413,1.4a4.222,4.222,0,0,0-1.77-2.053,2.1,2.1,0,0,0-2.114.088,2.87,2.87,0,0,0-1.4,2.078,5.42,5.42,0,0,0,.437,3.1,4.826,4.826,0,0,0,.586,1.058,2.858,2.858,0,0,0,.752.711,3.619,3.619,0,0,0,2.721.136,10.256,10.256,0,0,1,1.737-.286,5.711,5.711,0,0,1,3.857,1.149,8.727,8.727,0,0,1,2.714,3.76,13.186,13.186,0,0,1,1.1,6.055,5.942,5.942,0,0,1-1.881,4.284l1.927,4.649-2.25,1.3-1.851-4.464a4.514,4.514,0,0,1-4.239-.623,10.053,10.053,0,0,1-3.395-4.6l2.324-1.346a5.7,5.7,0,0,0,2.185,2.767,2.6,2.6,0,0,0,2.656-.188,3.311,3.311,0,0,0,1.625-2.382,6.243,6.243,0,0,0-.5-3.56,7.863,7.863,0,0,0-.622-1.214,3.992,3.992,0,0,0-.686-.846,3.575,3.575,0,0,0-3.28-.623c-.233.044-.4.079-.52.1a6.358,6.358,0,0,1-4.426-.547,7.2,7.2,0,0,1-2.869-3.672,11.353,11.353,0,0,1-.961-5.416,6.124,6.124,0,0,1,1.852-4.043l-1.589-3.832Z" transform="translate(-3226.098 -1006.921)" fill="#ffc910"/>
      </g>
    </g>
  </g>
</svg>
