<svg xmlns="http://www.w3.org/2000/svg" width="935" height="862" viewBox="0 0 935 862">
  <g id="Grupo_18000" data-name="Grupo 18000" transform="translate(-475 -11697)">
    <g id="Rectángulo_4300" data-name="Rectángulo 4300" transform="translate(1051 12023)" fill="#dff1fa" stroke="#50a1c9" stroke-width="2">
      <rect width="260" height="86" rx="14" stroke="none"/>
      <rect x="1" y="1" width="258" height="84" rx="13" fill="none"/>
    </g>
    <g id="Rectángulo_4298" data-name="Rectángulo 4298" transform="translate(743 12473)" fill="#dff1fa" stroke="#50a1c9" stroke-width="2">
      <rect width="260" height="86" rx="14" stroke="none"/>
      <rect x="1" y="1" width="258" height="84" rx="13" fill="none"/>
    </g>
    <g id="Rectángulo_4293" data-name="Rectángulo 4293" transform="translate(475 12473)" fill="#dff1fa" stroke="#50a1c9" stroke-width="2">
      <rect width="217" height="86" rx="14" stroke="none"/>
      <rect x="1" y="1" width="215" height="84" rx="13" fill="none"/>
    </g>
    <g id="Rectángulo_4292" data-name="Rectángulo 4292" transform="translate(475 12247)" fill="#dff1fa" stroke="#50a1c9" stroke-width="2">
      <rect width="217" height="86" rx="14" stroke="none"/>
      <rect x="1" y="1" width="215" height="84" rx="13" fill="none"/>
    </g>
    <g id="Rectángulo_4291" data-name="Rectángulo 4291" transform="translate(475 12135)" fill="#dff1fa" stroke="#50a1c9" stroke-width="2">
      <rect width="217" height="86" rx="14" stroke="none"/>
      <rect x="1" y="1" width="215" height="84" rx="13" fill="none"/>
    </g>
    <g id="Rectángulo_4290" data-name="Rectángulo 4290" transform="translate(475 12023)" fill="#dff1fa" stroke="#50a1c9" stroke-width="2">
      <rect width="217" height="86" rx="14" stroke="none"/>
      <rect x="1" y="1" width="215" height="84" rx="13" fill="none"/>
    </g>
    <rect id="Rectángulo_4287" data-name="Rectángulo 4287" width="469" height="76" transform="translate(728 11697)" fill="#ffc558"/>
    <text id="Estructura_del_Sistema_Financiero_Colombiano" data-name="Estructura del Sistema Financiero Colombiano" transform="translate(760 11738)" fill="#00223d" font-size="18" font-family="SegoeUI-Bold, Segoe UI" font-weight="700"><tspan x="0" y="0">Estructura del Sistema Financiero Colombiano</tspan></text>
    <text id="Establecimientos_de_crédito" data-name="Establecimientos 
de crédito" transform="translate(506 12057)" fill="#00223d" font-size="18" font-family="SegoeUI, Segoe UI"><tspan x="0" y="0">Establecimientos </tspan><tspan x="0" y="30">de crédito</tspan></text>
    <text id="Sociedades_de_capitalización" data-name="Sociedades de capitalización" transform="translate(1083 12037)" fill="#00223d" font-size="18" font-family="SegoeUI, Segoe UI"><tspan x="0" y="19">Sociedades de </tspan><tspan x="0" y="49">capitalización</tspan></text>
    <text id="Establecimientos_bancarios" data-name="Establecimientos 
bancarios" transform="translate(506 12169)" fill="#00223d" font-size="18" font-family="SegoeUI, Segoe UI"><tspan x="0" y="0">Establecimientos </tspan><tspan x="0" y="30">bancarios</tspan></text>
    <text id="Corporaciones_financieras" data-name="Corporaciones 
financieras" transform="translate(489 12262)" fill="#00223d" font-size="18" font-family="SegoeUI, Segoe UI"><tspan x="0" y="19">Corporaciones </tspan><tspan x="0" y="49">financieras</tspan></text>
    <text id="Cooperativas_financieras" data-name="Cooperativas 
financieras" transform="translate(495 12490)" fill="#00223d" font-size="18" font-family="SegoeUI, Segoe UI"><tspan x="0" y="19">Cooperativas </tspan><tspan x="0" y="49">financieras</tspan></text>
    <text id="Almacenes_generales_de_depósito" data-name="Almacenes generales de depósito" transform="translate(762 12486)" fill="#00223d" font-size="18" font-family="SegoeUI, Segoe UI"><tspan x="0" y="19">Almacenes generales de </tspan><tspan x="0" y="49">depósito</tspan></text>
    <g id="Rectángulo_4288" data-name="Rectángulo 4288" transform="translate(475 11871)" fill="#bce5fa" stroke="#50a1c9" stroke-width="2">
      <rect width="286" height="86" rx="14" stroke="none"/>
      <rect x="1" y="1" width="284" height="84" rx="13" fill="none"/>
    </g>
    <text id="Entidades_Financieras" data-name="Entidades Financieras" transform="translate(524 11919)" fill="#00223d" font-size="18" font-family="SegoeUI-Bold, Segoe UI" font-weight="700"><tspan x="0" y="0">Entidades Financieras</tspan></text>
    <g id="Rectángulo_4289" data-name="Rectángulo 4289" transform="translate(1124 11871)" fill="#bce5fa" stroke="#50a1c9" stroke-width="2">
      <rect width="286" height="86" rx="14" stroke="none"/>
      <rect x="1" y="1" width="284" height="84" rx="13" fill="none"/>
    </g>
    <text id="Aseguradoras" transform="translate(1208 11919)" fill="#00223d" font-size="18" font-family="SegoeUI-Bold, Segoe UI" font-weight="700"><tspan x="0" y="0">Aseguradoras</tspan></text>
    <g id="Grupo_17692" data-name="Grupo 17692" transform="translate(6905.868 14540.876) rotate(120)">
      <path id="Trazado_37026" data-name="Trazado 37026" d="M70.93,5377.344h57.7" transform="translate(613 1296)" fill="none" stroke="#ffc558" stroke-width="2"/>
      <path id="Polígono_5" data-name="Polígono 5" d="M13.5,0,27,23H0Z" transform="translate(758 6660) rotate(90)" fill="#ffc558"/>
    </g>
    <g id="Grupo_17693" data-name="Grupo 17693" transform="translate(1110.139 11789.677) rotate(60)">
      <path id="Trazado_37026-2" data-name="Trazado 37026" d="M0,0H57.7" transform="translate(0 13.656)" fill="none" stroke="#ffc558" stroke-width="2"/>
      <path id="Polígono_5-2" data-name="Polígono 5" d="M13.5,0,27,23H0Z" transform="translate(74.07 0) rotate(90)" fill="#ffc558"/>
    </g>
    <g id="Rectángulo_4295" data-name="Rectángulo 4295" transform="translate(743 12023)" fill="#dff1fa" stroke="#50a1c9" stroke-width="2">
      <rect width="260" height="86" rx="14" stroke="none"/>
      <rect x="1" y="1" width="258" height="84" rx="13" fill="none"/>
    </g>
    <text id="Sociedades_de_Servicios_Financieros" data-name="Sociedades de 
Servicios Financieros" transform="translate(760 12057)" fill="#00223d" font-size="18" font-family="SegoeUI, Segoe UI"><tspan x="0" y="0">Sociedades de </tspan><tspan x="0" y="30">Servicios Financieros</tspan></text>
    <g id="Rectángulo_4296" data-name="Rectángulo 4296" transform="translate(743 12135)" fill="#dff1fa" stroke="#50a1c9" stroke-width="2">
      <rect width="260" height="86" rx="14" stroke="none"/>
      <rect x="1" y="1" width="258" height="84" rx="13" fill="none"/>
    </g>
    <text id="Sociedades_fiduciarias" data-name="Sociedades fiduciarias" transform="translate(761 12151)" fill="#00223d" font-size="18" font-family="SegoeUI, Segoe UI"><tspan x="0" y="19">Sociedades fiduciarias</tspan></text>
    <g id="Rectángulo_4297" data-name="Rectángulo 4297" transform="translate(743 12301)" fill="#dff1fa" stroke="#50a1c9" stroke-width="2">
      <rect width="260" height="86" rx="14" stroke="none"/>
      <rect x="1" y="1" width="258" height="84" rx="13" fill="none"/>
    </g>
    <text id="Administradoras_de_fondos_de_pensiones_y_cesantías" data-name="Administradoras de fondos de pensiones y cesantías" transform="translate(762 12316)" fill="#00223d" font-size="18" font-family="SegoeUI, Segoe UI"><tspan x="0" y="19">Administradoras de fondos </tspan><tspan x="0" y="49">de pensiones y cesantías</tspan></text>
    <g id="Rectángulo_4299" data-name="Rectángulo 4299" transform="translate(475 12364)" fill="#dff1fa" stroke="#50a1c9" stroke-width="2">
      <rect width="217" height="86" rx="14" stroke="none"/>
      <rect x="1" y="1" width="215" height="84" rx="13" fill="none"/>
    </g>
    <text id="Compañías_de_financiamiento" data-name="Compañías de financiamiento" transform="translate(495 12381)" fill="#00223d" font-size="18" font-family="SegoeUI, Segoe UI"><tspan x="0" y="19">Compañías de </tspan><tspan x="0" y="49">financiamiento</tspan></text>
    <path id="Trazado_37794" data-name="Trazado 37794" d="M99,10727v509.114" transform="translate(619 1296)" fill="none" stroke="#ffc558" stroke-width="2"/>
    <path id="Polígono_6" data-name="Polígono 6" d="M13.5,0,27,23H0Z" transform="translate(694.697 12085.114) rotate(-90)" fill="#ffc558"/>
    <path id="Polígono_7" data-name="Polígono 7" d="M13.5,0,27,23H0Z" transform="translate(694.697 12324.114) rotate(-90)" fill="#ffc558"/>
    <path id="Polígono_8" data-name="Polígono 8" d="M13.5,0,27,23H0Z" transform="translate(694.697 12085.114) rotate(-90)" fill="#ffc558"/>
    <path id="Polígono_9" data-name="Polígono 9" d="M13.5,0,27,23H0Z" transform="translate(694.697 12394.114) rotate(-90)" fill="#ffc558"/>
    <path id="Polígono_10" data-name="Polígono 10" d="M13.5,0,27,23H0Z" transform="translate(694.697 12193.114) rotate(-90)" fill="#ffc558"/>
    <path id="Polígono_11" data-name="Polígono 11" d="M13.5,0,27,23H0Z" transform="translate(694.697 12532.114) rotate(-90)" fill="#ffc558"/>
    <path id="Trazado_37795" data-name="Trazado 37795" d="M104.7,10775.614h15.829" transform="translate(613 1296)" fill="none" stroke="#ffc558" stroke-width="2"/>
    <path id="Trazado_37796" data-name="Trazado 37796" d="M104.7,10775.614h15.829" transform="translate(613 1404)" fill="none" stroke="#ffc558" stroke-width="2"/>
    <path id="Trazado_37797" data-name="Trazado 37797" d="M104.7,10775.614h15.829" transform="translate(613 1535)" fill="none" stroke="#ffc558" stroke-width="2"/>
    <path id="Trazado_37798" data-name="Trazado 37798" d="M104.7,10775.614h15.829" transform="translate(613 1605)" fill="none" stroke="#ffc558" stroke-width="2"/>
    <path id="Trazado_37799" data-name="Trazado 37799" d="M104.7,10775.614h15.829" transform="translate(613 1743)" fill="none" stroke="#ffc558" stroke-width="2"/>
    <path id="Trazado_37800" data-name="Trazado 37800" d="M99,10727v509.114" transform="translate(929 1296)" fill="none" stroke="#ffc558" stroke-width="2"/>
    <path id="Polígono_12" data-name="Polígono 12" d="M13.5,0,27,23H0Z" transform="translate(1004.697 12085.114) rotate(-90)" fill="#ffc558"/>
    <path id="Trazado_37801" data-name="Trazado 37801" d="M104.7,10775.614h15.829" transform="translate(923 1296)" fill="none" stroke="#ffc558" stroke-width="2"/>
  </g>
</svg>
