<svg xmlns="http://www.w3.org/2000/svg" width="183.62" height="218.906" viewBox="0 0 183.62 218.906">
  <g id="Grupo_17788" data-name="Grupo 17788" transform="translate(-3417.49 -1909.169)">
    <g id="Grupo_17786" data-name="Grupo 17786" transform="translate(3474.691 2030.74)">
      <g id="Grupo_17767" data-name="Grupo 17767" transform="translate(6.348 53.683)">
        <g id="Grupo_17762" data-name="Grupo 17762" transform="translate(9.747 18.046)">
          <path id="Trazado_37866" data-name="Trazado 37866" d="M3548.511,2265.894c-.141-3.729-.329-8.7-.47-12.427.1,2.564.364,9.486.473,12.142C3548.509,2265.7,3548.508,2265.8,3548.511,2265.894Z" transform="translate(-3548.041 -2253.467)" fill="#ffc910"/>
        </g>
        <g id="Grupo_17763" data-name="Grupo 17763" transform="translate(0.003 12.816)">
          <path id="Trazado_37867" data-name="Trazado 37867" d="M3643.6,2244.151q.259,6.881.52,13.759c.134,3.506-4.463,7.2-13.971,10.39-20.537,6.879-56.2,8.758-79.668,4.2-12.6-2.449-19.117-6.258-19.272-10.324l-.521-13.759c.153,4.065,6.671,7.875,19.272,10.324,23.463,4.561,59.131,2.682,79.668-4.2C3639.133,2251.356,3643.729,2247.656,3643.6,2244.151Z" transform="translate(-3530.684 -2244.151)" fill="#ffab01"/>
        </g>
        <g id="Grupo_17764" data-name="Grupo 17764">
          <path id="Trazado_37868" data-name="Trazado 37868" d="M3624.321,2223.814c23.463,4.561,25.839,13.834,5.3,20.714s-56.205,8.759-79.669,4.2-25.835-13.834-5.3-20.714S3600.856,2219.254,3624.321,2223.814Zm-67.985,22.774c19.435,3.778,48.979,2.219,65.99-3.477s15.046-13.38-4.388-17.16-48.976-2.219-65.988,3.479-15.045,13.379,4.385,17.157" transform="translate(-3530.679 -2221.324)" fill="#ffc910"/>
        </g>
        <path id="Trazado_37869" data-name="Trazado 37869" d="M3625.512,2227.957c19.434,3.78,21.4,11.46,4.388,17.16s-46.556,7.255-65.99,3.477-21.4-11.459-4.385-17.158S3606.08,2224.18,3625.512,2227.957Z" transform="translate(-3538.253 -2223.329)" fill="#ffab01"/>
        <path id="Trazado_37870" data-name="Trazado 37870" d="M3559.527,2233.147c17.012-5.7,46.555-7.254,65.988-3.478,9.671,1.88,15.013,4.727,15.845,7.816.972-3.729-4.407-7.3-15.845-9.529-19.432-3.776-48.976-2.219-65.988,3.479-8.545,2.863-12.3,6.226-11.457,9.343C3548.748,2238.173,3552.528,2235.493,3559.527,2233.147Z" transform="translate(-3538.256 -2223.329)" fill="#f99b0f"/>
        <path id="Trazado_37871" data-name="Trazado 37871" d="M3540.294,2262.418V2275.9c3.225,1.788,8.035,3.373,14.4,4.609a144.665,144.665,0,0,0,20.986,2.3v-13.737a145.45,145.45,0,0,1-21.506-2.326A52.752,52.752,0,0,1,3540.294,2262.418Z" transform="translate(-3534.896 -2239.346)" fill="#f99b0f"/>
        <g id="Grupo_17765" data-name="Grupo 17765" transform="translate(28.448 7.957)">
          <path id="Trazado_37872" data-name="Trazado 37872" d="M3632.191,2236.456l-5.151,1.726c2.054.569,3.024,1.255,2.9,2.053s-1.318,1.628-3.6,2.481l-5.3-1.031q1.912-.728,1.668-1.421c-.162-.466-1.026-.847-2.586-1.151a21.709,21.709,0,0,0-5.378-.327,19.561,19.561,0,0,0-5.1.913,5.577,5.577,0,0,0-1.238.553c-.276.187-.413.378-.413.571-.023.4.934.91,2.882,1.533,1.165.372,2,.671,2.516.9,1.805.789,2.6,1.581,2.361,2.38s-1.461,1.571-3.688,2.316a42.951,42.951,0,0,1-9.674,1.918,43.832,43.832,0,0,1-9.908-.109l-6.186,2.073-4.943-.961,5.947-1.992q-3.913-1.042-3.754-2.478t4.41-2.873l5.106.993c-1.807.664-2.634,1.266-2.49,1.806s1.272,1.017,3.391,1.428a24.814,24.814,0,0,0,6.174.379,22.288,22.288,0,0,0,5.858-1.048,10.127,10.127,0,0,0,1.486-.605,2.065,2.065,0,0,0,.739-.562q.558-.873-2.648-1.948c-.353-.117-.613-.207-.782-.265q-3.92-1.365-4.105-2.564t3.336-2.384a37.337,37.337,0,0,1,8.686-1.7,45.523,45.523,0,0,1,9.445.146l5.1-1.708Z" transform="translate(-3581.35 -2235.496)" fill="#f99b0f"/>
        </g>
        <g id="Grupo_17766" data-name="Grupo 17766" transform="translate(28.448 6.025)">
          <path id="Trazado_37873" data-name="Trazado 37873" d="M3632.191,2233.016l-5.151,1.725c2.054.569,3.024,1.255,2.9,2.055s-1.318,1.626-3.6,2.479l-5.3-1.03q1.912-.729,1.668-1.421t-2.586-1.152a21.742,21.742,0,0,0-5.378-.328,19.58,19.58,0,0,0-5.1.914,5.593,5.593,0,0,0-1.238.552c-.276.188-.413.378-.413.573-.023.4.934.908,2.882,1.533,1.165.372,2,.671,2.516.9,1.805.788,2.6,1.58,2.361,2.38s-1.461,1.57-3.688,2.315a42.909,42.909,0,0,1-9.674,1.919,43.791,43.791,0,0,1-9.908-.108l-6.186,2.073-4.943-.96,5.947-1.993q-3.913-1.042-3.754-2.478t4.41-2.874l5.106.993c-1.807.664-2.634,1.268-2.49,1.807s1.272,1.017,3.391,1.429a24.815,24.815,0,0,0,6.174.379,22.258,22.258,0,0,0,5.858-1.048,10.132,10.132,0,0,0,1.486-.6,2.059,2.059,0,0,0,.739-.562q.558-.874-2.648-1.949c-.353-.117-.613-.207-.782-.264q-3.92-1.366-4.105-2.564t3.336-2.384a37.362,37.362,0,0,1,8.686-1.7,45.592,45.592,0,0,1,9.445.145l5.1-1.707Z" transform="translate(-3581.35 -2232.055)" fill="#ffc910"/>
        </g>
      </g>
      <g id="Grupo_17773" data-name="Grupo 17773" transform="translate(12.982 35.49)">
        <g id="Grupo_17768" data-name="Grupo 17768" transform="translate(9.747 18.046)">
          <path id="Trazado_37874" data-name="Trazado 37874" d="M3560.328,2233.49c-.141-3.728-.329-8.7-.471-12.427.1,2.565.365,9.487.473,12.142C3560.325,2233.3,3560.324,2233.394,3560.328,2233.49Z" transform="translate(-3559.857 -2221.063)" fill="#ffc910"/>
        </g>
        <g id="Grupo_17769" data-name="Grupo 17769" transform="translate(0.002 12.816)">
          <path id="Trazado_37875" data-name="Trazado 37875" d="M3655.412,2211.748q.259,6.88.52,13.759c.133,3.506-4.463,7.2-13.972,10.39-20.537,6.879-56.2,8.758-79.668,4.2-12.6-2.448-19.119-6.257-19.272-10.324l-.521-13.759c.154,4.065,6.672,7.874,19.272,10.324,23.463,4.562,59.132,2.682,79.668-4.2C3650.948,2218.952,3655.545,2215.254,3655.412,2211.748Z" transform="translate(-3542.499 -2211.748)" fill="#ffab01"/>
        </g>
        <g id="Grupo_17770" data-name="Grupo 17770">
          <path id="Trazado_37876" data-name="Trazado 37876" d="M3636.137,2191.411c23.463,4.561,25.839,13.835,5.3,20.715s-56.205,8.76-79.668,4.2-25.834-13.834-5.3-20.714S3612.672,2186.85,3636.137,2191.411Zm-67.984,22.775c19.436,3.777,48.98,2.22,65.99-3.477s15.046-13.381-4.388-17.16-48.975-2.218-65.987,3.479-15.045,13.379,4.385,17.157" transform="translate(-3542.496 -2188.92)" fill="#ffc910"/>
        </g>
        <path id="Trazado_37877" data-name="Trazado 37877" d="M3637.328,2195.553c19.434,3.778,21.4,11.459,4.388,17.16s-46.556,7.254-65.99,3.477-21.4-11.459-4.385-17.157S3617.9,2191.777,3637.328,2195.553Z" transform="translate(-3550.069 -2190.925)" fill="#ffab01"/>
        <path id="Trazado_37878" data-name="Trazado 37878" d="M3571.344,2200.744c17.012-5.7,46.556-7.255,65.988-3.478,9.672,1.879,15.013,4.727,15.846,7.816.972-3.728-4.408-7.3-15.846-9.529-19.432-3.777-48.976-2.219-65.988,3.479-8.545,2.863-12.3,6.225-11.457,9.342C3560.565,2205.769,3564.344,2203.09,3571.344,2200.744Z" transform="translate(-3550.072 -2190.925)" fill="#f99b0f"/>
        <path id="Trazado_37879" data-name="Trazado 37879" d="M3552.11,2230.016v13.48c3.225,1.788,8.034,3.373,14.4,4.609a144.48,144.48,0,0,0,20.985,2.3v-13.736a145.516,145.516,0,0,1-21.506-2.326A52.754,52.754,0,0,1,3552.11,2230.016Z" transform="translate(-3546.713 -2206.944)" fill="#f99b0f"/>
        <g id="Grupo_17771" data-name="Grupo 17771" transform="translate(28.448 7.957)">
          <path id="Trazado_37880" data-name="Trazado 37880" d="M3644.007,2204.053l-5.151,1.726c2.054.569,3.024,1.255,2.9,2.053s-1.318,1.627-3.6,2.48l-5.3-1.03q1.912-.729,1.668-1.42c-.162-.467-1.025-.848-2.586-1.153a21.788,21.788,0,0,0-5.377-.327,19.577,19.577,0,0,0-5.1.913,5.579,5.579,0,0,0-1.238.553c-.276.187-.413.377-.413.572-.023.4.934.909,2.882,1.533,1.165.372,2,.671,2.516.9,1.806.788,2.6,1.58,2.361,2.379s-1.461,1.57-3.688,2.316a42.948,42.948,0,0,1-9.675,1.919,43.855,43.855,0,0,1-9.907-.109l-6.186,2.073-4.943-.96,5.947-1.992q-3.913-1.042-3.754-2.479t4.411-2.873l5.106.993q-2.71,1-2.49,1.807t3.392,1.428a24.76,24.76,0,0,0,6.174.379,22.262,22.262,0,0,0,5.858-1.048,10.2,10.2,0,0,0,1.486-.6,2.07,2.07,0,0,0,.739-.563q.558-.873-2.648-1.948c-.353-.118-.612-.207-.782-.264q-3.92-1.365-4.1-2.564t3.335-2.385a37.415,37.415,0,0,1,8.687-1.7,45.54,45.54,0,0,1,9.445.146l5.1-1.708Z" transform="translate(-3593.166 -2203.093)" fill="#f99b0f"/>
        </g>
        <g id="Grupo_17772" data-name="Grupo 17772" transform="translate(28.448 6.024)">
          <path id="Trazado_37881" data-name="Trazado 37881" d="M3644.007,2200.611l-5.151,1.726c2.054.569,3.024,1.255,2.9,2.054s-1.318,1.626-3.6,2.48l-5.3-1.03q1.912-.73,1.668-1.422t-2.586-1.152a21.728,21.728,0,0,0-5.377-.327,19.525,19.525,0,0,0-5.1.914,5.535,5.535,0,0,0-1.238.553c-.276.187-.413.377-.413.572-.023.4.934.908,2.882,1.533,1.165.371,2,.67,2.516.9,1.806.788,2.6,1.58,2.361,2.38s-1.461,1.57-3.688,2.315a42.947,42.947,0,0,1-9.675,1.919,43.914,43.914,0,0,1-9.907-.108l-6.186,2.072-4.943-.96,5.947-1.993q-3.913-1.042-3.754-2.477t4.411-2.873l5.106.993q-2.71,1-2.49,1.806t3.392,1.429a24.772,24.772,0,0,0,6.174.38,22.271,22.271,0,0,0,5.858-1.048,10.161,10.161,0,0,0,1.486-.605,2.056,2.056,0,0,0,.739-.561q.558-.873-2.648-1.949c-.353-.117-.612-.207-.782-.264q-3.92-1.365-4.1-2.564t3.335-2.384a37.377,37.377,0,0,1,8.687-1.7,45.542,45.542,0,0,1,9.445.145l5.1-1.707Z" transform="translate(-3593.166 -2199.651)" fill="#ffc910"/>
        </g>
      </g>
      <g id="Grupo_17779" data-name="Grupo 17779" transform="translate(7.921 16.193)">
        <g id="Grupo_17774" data-name="Grupo 17774" transform="translate(9.748 18.046)">
          <path id="Trazado_37882" data-name="Trazado 37882" d="M3551.316,2199.119c-.142-3.728-.329-8.7-.47-12.427.1,2.565.364,9.487.473,12.142C3551.313,2198.929,3551.312,2199.023,3551.316,2199.119Z" transform="translate(-3550.845 -2186.692)" fill="#ffc910"/>
        </g>
        <g id="Grupo_17775" data-name="Grupo 17775" transform="translate(0.002 12.817)">
          <path id="Trazado_37883" data-name="Trazado 37883" d="M3646.4,2177.377q.259,6.88.52,13.759c.133,3.506-4.463,7.2-13.972,10.39-20.537,6.879-56.2,8.758-79.668,4.2-12.6-2.449-19.118-6.257-19.271-10.324l-.521-13.759c.154,4.065,6.671,7.874,19.271,10.323,23.464,4.561,59.132,2.683,79.669-4.2C3641.936,2184.581,3646.532,2180.883,3646.4,2177.377Z" transform="translate(-3533.486 -2177.377)" fill="#ffab01"/>
        </g>
        <g id="Grupo_17776" data-name="Grupo 17776">
          <path id="Trazado_37884" data-name="Trazado 37884" d="M3627.124,2157.039c23.463,4.561,25.838,13.835,5.3,20.715s-56.205,8.758-79.669,4.2-25.834-13.833-5.3-20.713S3603.66,2152.478,3627.124,2157.039Zm-67.985,22.775c19.435,3.777,48.98,2.219,65.99-3.478s15.046-13.381-4.389-17.159-48.975-2.219-65.987,3.479-15.045,13.379,4.386,17.158" transform="translate(-3533.483 -2154.549)" fill="#ffc910"/>
        </g>
        <path id="Trazado_37885" data-name="Trazado 37885" d="M3628.314,2161.182c19.435,3.779,21.4,11.459,4.389,17.159s-46.556,7.255-65.99,3.478-21.4-11.459-4.386-17.158S3608.882,2157.406,3628.314,2161.182Z" transform="translate(-3541.056 -2156.554)" fill="#ffab01"/>
        <path id="Trazado_37886" data-name="Trazado 37886" d="M3562.33,2166.374c17.012-5.7,46.555-7.255,65.987-3.478,9.672,1.879,15.013,4.727,15.846,7.816.972-3.729-4.408-7.3-15.846-9.529-19.432-3.777-48.975-2.219-65.987,3.479-8.545,2.863-12.3,6.226-11.457,9.343C3551.552,2171.4,3555.331,2168.719,3562.33,2166.374Z" transform="translate(-3541.059 -2156.554)" fill="#f99b0f"/>
        <path id="Trazado_37887" data-name="Trazado 37887" d="M3543.1,2195.644v13.48c3.224,1.788,8.034,3.373,14.4,4.609a144.513,144.513,0,0,0,20.985,2.3V2202.3a145.366,145.366,0,0,1-21.507-2.326A52.72,52.72,0,0,1,3543.1,2195.644Z" transform="translate(-3537.7 -2172.572)" fill="#f99b0f"/>
        <g id="Grupo_17777" data-name="Grupo 17777" transform="translate(28.448 7.957)">
          <path id="Trazado_37888" data-name="Trazado 37888" d="M3634.994,2169.682l-5.151,1.726c2.054.569,3.024,1.254,2.9,2.053s-1.318,1.627-3.6,2.48l-5.3-1.031q1.911-.729,1.668-1.42c-.162-.466-1.025-.848-2.586-1.152a21.763,21.763,0,0,0-5.377-.327,19.547,19.547,0,0,0-5.1.913,5.614,5.614,0,0,0-1.238.553c-.276.186-.413.377-.413.572-.023.4.934.909,2.883,1.533,1.164.372,2,.671,2.516.9,1.806.788,2.6,1.58,2.361,2.38s-1.461,1.57-3.687,2.316a42.976,42.976,0,0,1-9.675,1.918,43.82,43.82,0,0,1-9.908-.108l-6.185,2.073-4.943-.961,5.947-1.991q-3.913-1.042-3.754-2.479t4.411-2.873l5.105.993q-2.71.995-2.489,1.807t3.392,1.428a24.807,24.807,0,0,0,6.174.379,22.342,22.342,0,0,0,5.858-1.048,10.146,10.146,0,0,0,1.486-.6,2.06,2.06,0,0,0,.739-.562q.559-.874-2.648-1.948c-.353-.118-.613-.207-.782-.265q-3.919-1.365-4.1-2.564t3.336-2.385a37.4,37.4,0,0,1,8.687-1.7,45.439,45.439,0,0,1,9.445.146l5.1-1.708Z" transform="translate(-3584.153 -2168.722)" fill="#f99b0f"/>
        </g>
        <g id="Grupo_17778" data-name="Grupo 17778" transform="translate(28.448 6.025)">
          <path id="Trazado_37889" data-name="Trazado 37889" d="M3634.994,2166.24l-5.151,1.725c2.054.569,3.024,1.256,2.9,2.055s-1.318,1.626-3.6,2.479l-5.3-1.03q1.911-.731,1.668-1.421t-2.586-1.152a21.751,21.751,0,0,0-5.377-.327,19.556,19.556,0,0,0-5.1.914,5.571,5.571,0,0,0-1.238.552c-.276.187-.413.378-.413.573-.023.4.934.908,2.883,1.533,1.164.371,2,.67,2.516.9,1.806.788,2.6,1.581,2.361,2.381s-1.461,1.57-3.687,2.315a42.961,42.961,0,0,1-9.675,1.919,43.862,43.862,0,0,1-9.908-.108l-6.185,2.073-4.943-.96,5.947-1.993q-3.913-1.042-3.754-2.477t4.411-2.873l5.105.992q-2.71,1-2.489,1.807t3.392,1.429a24.76,24.76,0,0,0,6.174.38,22.292,22.292,0,0,0,5.858-1.048,10.2,10.2,0,0,0,1.486-.605,2.052,2.052,0,0,0,.739-.561q.559-.875-2.648-1.949c-.353-.117-.613-.207-.782-.264q-3.919-1.366-4.1-2.563t3.336-2.385a37.425,37.425,0,0,1,8.687-1.7,45.54,45.54,0,0,1,9.445.146l5.1-1.707Z" transform="translate(-3584.153 -2165.28)" fill="#ffc910"/>
        </g>
      </g>
      <g id="Grupo_17785" data-name="Grupo 17785" transform="translate(0)">
        <g id="Grupo_17780" data-name="Grupo 17780" transform="translate(9.748 18.046)">
          <path id="Trazado_37890" data-name="Trazado 37890" d="M3537.206,2170.276c-.141-3.728-.329-8.7-.47-12.426.1,2.564.364,9.487.473,12.142C3537.2,2170.086,3537.2,2170.181,3537.206,2170.276Z" transform="translate(-3536.735 -2157.85)" fill="#ffc910"/>
        </g>
        <g id="Grupo_17781" data-name="Grupo 17781" transform="translate(0.002 12.816)">
          <path id="Trazado_37891" data-name="Trazado 37891" d="M3632.29,2148.534q.259,6.881.519,13.759c.134,3.506-4.463,7.2-13.971,10.39-20.537,6.879-56.2,8.757-79.668,4.2-12.6-2.449-19.118-6.258-19.272-10.324l-.521-13.759c.154,4.065,6.672,7.874,19.272,10.324,23.464,4.562,59.131,2.683,79.669-4.2C3627.826,2155.739,3632.423,2152.04,3632.29,2148.534Z" transform="translate(-3519.377 -2148.534)" fill="#ffab01"/>
        </g>
        <g id="Grupo_17782" data-name="Grupo 17782">
          <path id="Trazado_37892" data-name="Trazado 37892" d="M3613.015,2128.2c23.463,4.561,25.839,13.834,5.3,20.715s-56.206,8.759-79.669,4.2-25.834-13.834-5.3-20.713S3589.549,2123.636,3613.015,2128.2Zm-67.985,22.774c19.435,3.778,48.979,2.22,65.99-3.477s15.046-13.38-4.389-17.159-48.975-2.219-65.987,3.479-15.046,13.379,4.385,17.157" transform="translate(-3519.373 -2125.707)" fill="#ffc910"/>
        </g>
        <path id="Trazado_37893" data-name="Trazado 37893" d="M3614.205,2132.34c19.435,3.779,21.4,11.459,4.389,17.159s-46.556,7.255-65.99,3.477-21.4-11.459-4.385-17.157S3594.773,2128.564,3614.205,2132.34Z" transform="translate(-3526.946 -2127.712)" fill="#ffab01"/>
        <path id="Trazado_37894" data-name="Trazado 37894" d="M3548.221,2137.531c17.012-5.7,46.555-7.256,65.987-3.478,9.672,1.88,15.013,4.728,15.846,7.816.972-3.729-4.408-7.3-15.846-9.529-19.432-3.776-48.975-2.22-65.987,3.479-8.546,2.863-12.3,6.225-11.457,9.342C3537.442,2142.556,3541.221,2139.876,3548.221,2137.531Z" transform="translate(-3526.949 -2127.712)" fill="#f99b0f"/>
        <path id="Trazado_37895" data-name="Trazado 37895" d="M3528.988,2166.8v13.481c3.224,1.788,8.034,3.373,14.4,4.609a144.589,144.589,0,0,0,20.986,2.3v-13.736a145.382,145.382,0,0,1-21.507-2.326A52.767,52.767,0,0,1,3528.988,2166.8Z" transform="translate(-3523.59 -2143.73)" fill="#f99b0f"/>
        <g id="Grupo_17783" data-name="Grupo 17783" transform="translate(28.448 7.957)">
          <path id="Trazado_37896" data-name="Trazado 37896" d="M3620.884,2140.84l-5.15,1.726c2.054.569,3.024,1.254,2.9,2.053s-1.318,1.627-3.6,2.48l-5.3-1.031q1.912-.729,1.668-1.421c-.162-.467-1.024-.848-2.586-1.152a21.708,21.708,0,0,0-5.378-.327,19.6,19.6,0,0,0-5.1.913,5.51,5.51,0,0,0-1.238.554c-.276.186-.413.377-.413.571-.023.4.934.908,2.883,1.533,1.165.372,2,.67,2.516.9,1.806.788,2.6,1.58,2.361,2.38s-1.461,1.57-3.687,2.316a42.987,42.987,0,0,1-9.674,1.919,43.88,43.88,0,0,1-9.909-.109l-6.186,2.073-4.943-.961,5.947-1.992q-3.913-1.043-3.754-2.478t4.41-2.873l5.106.994q-2.71,1-2.489,1.806t3.392,1.428a24.773,24.773,0,0,0,6.174.38,22.264,22.264,0,0,0,5.857-1.048,10.159,10.159,0,0,0,1.486-.6,2.054,2.054,0,0,0,.739-.562q.558-.873-2.648-1.948c-.353-.118-.613-.207-.783-.265q-3.92-1.365-4.105-2.565t3.336-2.384a37.338,37.338,0,0,1,8.686-1.7,45.493,45.493,0,0,1,9.445.145l5.1-1.708Z" transform="translate(-3570.043 -2139.879)" fill="#f99b0f"/>
        </g>
        <g id="Grupo_17784" data-name="Grupo 17784" transform="translate(28.448 6.024)">
          <path id="Trazado_37897" data-name="Trazado 37897" d="M3620.884,2137.4l-5.15,1.726c2.054.569,3.024,1.255,2.9,2.054s-1.318,1.626-3.6,2.479l-5.3-1.031q1.912-.729,1.668-1.421t-2.586-1.152a21.754,21.754,0,0,0-5.378-.328,19.58,19.58,0,0,0-5.1.914,5.572,5.572,0,0,0-1.238.552c-.276.187-.413.377-.413.573-.023.4.934.907,2.883,1.533,1.165.37,2,.671,2.516.9,1.806.788,2.6,1.58,2.361,2.38s-1.461,1.569-3.687,2.315a42.918,42.918,0,0,1-9.674,1.92,43.9,43.9,0,0,1-9.909-.108l-6.186,2.073-4.943-.961,5.947-1.992q-3.913-1.043-3.754-2.478t4.41-2.873l5.106.992q-2.71,1-2.489,1.806t3.392,1.429a24.8,24.8,0,0,0,6.174.379,22.3,22.3,0,0,0,5.857-1.048,10.237,10.237,0,0,0,1.486-.605,2.063,2.063,0,0,0,.739-.561q.558-.874-2.648-1.949c-.353-.117-.613-.207-.783-.265q-3.92-1.365-4.105-2.563t3.336-2.385a37.35,37.35,0,0,1,8.686-1.7,45.51,45.51,0,0,1,9.445.145l5.1-1.708Z" transform="translate(-3570.043 -2136.437)" fill="#ffc910"/>
        </g>
      </g>
    </g>
    <g id="Grupo_17787" data-name="Grupo 17787" transform="translate(3417.49 1909.169)">
      <path id="Trazado_37898" data-name="Trazado 37898" d="M3660.606,1966.032l.882-6.85,2.976-2.159,3.008,3.243,1.7,2.722-.477,2.331s-3.565,3.23-6.215,2.973S3660.606,1966.032,3660.606,1966.032Z" transform="translate(-3524.066 -1930.156)" fill="#e9d6b8"/>
      <path id="Trazado_37899" data-name="Trazado 37899" d="M3565.686,1929.739a15.254,15.254,0,0,1-3.869,10.929c-4.437,4.658,13.132,5.482,13.132,5.482s-3.507-6.552,5.881-7.669C3585.83,1937.888,3567.669,1927.862,3565.686,1929.739Z" transform="translate(-3480.472 -1918.088)" fill="#e9d6b8"/>
      <path id="Trazado_37900" data-name="Trazado 37900" d="M3507.72,1949.929c-.489-.257-5.334-1.243-8.582.013-3.205,1.237-23.4,15.132-26.734,20.6s1.124,6.76,4.265,6.564,7.255-3.558,14.949-7.42c7.983-4.005,15.092-5.152,17-8.25S3511.886,1952.119,3507.72,1949.929Z" transform="translate(-3441.055 -1926.777)" fill="#194866"/>
      <path id="Trazado_37901" data-name="Trazado 37901" d="M3594.932,1963.113s13.4,30.965,20.725,34.442c7.152,3.393,3.3-3.9,1.368-9.748s-10.116-22.9-11.91-24.667S3596.345,1959.6,3594.932,1963.113Z" transform="translate(-3495.311 -1931.941)" fill="#163f59"/>
      <path id="Trazado_37902" data-name="Trazado 37902" d="M3534.694,1953.4a125.359,125.359,0,0,1,16.721,1.227c8.216,1.2,16.374,3.506,17.571,4.562,2.471,2.18-.447,18.946-9.4,28.853s-8.255,13.6-8.255,13.6-25.432,4.167-27.117,3.34-4.423-7.2-2.549-10.821,8.092-27.368,6.4-31.933S3529.97,1952.525,3534.694,1953.4Z" transform="translate(-3462.9 -1928.523)" fill="#d1dbea"/>
      <path id="Trazado_37903" data-name="Trazado 37903" d="M3580.872,1996.654s5.131-11.3,5.273-16.448-1.171-22.349-1.171-22.349l12.317,2.731s-.909,18.975-3.452,23.1S3580.872,1996.654,3580.872,1996.654Z" transform="translate(-3489.144 -1930.522)" fill="#194866"/>
      <path id="Trazado_37904" data-name="Trazado 37904" d="M3516.966,1949.38l15.341,2.539s1.01,23.527-8.353,30.656-10.043,11.141-11.8,16.623-6.367,10.21-6.367,10.21l-6.87-16.387s-.26-4.187,2.4-6.457,9.828-7.156,13.272-15.547S3517.562,1951.443,3516.966,1949.38Z" transform="translate(-3453.198 -1926.804)" fill="#194866"/>
      <path id="Trazado_37905" data-name="Trazado 37905" d="M3540.672,1952.639l-.855,8.694,2.852,4.494-3.763,3.271s2.385,4.521-4.229,18.251c-1.222,2.537,11.66-4,12.572-22.98.279-5.821.709-11.021.709-11.021Z" transform="translate(-3468.849 -1928.234)" fill="#163f59"/>
      <path id="Trazado_37906" data-name="Trazado 37906" d="M3588.768,1985.848a92.848,92.848,0,0,0,.247-10.993c-.192-6.762-.836-17-.836-17l6.894,1.9.948,7.648-2.981.889,2.2,5.234A108.779,108.779,0,0,1,3588.768,1985.848Z" transform="translate(-3492.349 -1930.522)" fill="#163f59"/>
      <path id="Trazado_37907" data-name="Trazado 37907" d="M3562.467,2001.332l2.85,1a118.924,118.924,0,0,0,6.254-48.152c-.853.061-1.711.121-2.567.181A116.2,116.2,0,0,1,3562.467,2001.332Z" transform="translate(-3481.073 -1928.908)" fill="#b0bfde"/>
      <rect id="Rectángulo_4306" data-name="Rectángulo 4306" width="11.189" height="7.342" transform="translate(125.37 133.167) rotate(-89.089)" fill="#593446"/>
      <path id="Trazado_37908" data-name="Trazado 37908" d="M3454.346,2175.016l-9.26,4.013,2.98,7.305,10.01-5.91Z" transform="translate(-3429.593 -2025.76)" fill="#593446"/>
      <path id="Trazado_37909" data-name="Trazado 37909" d="M3551.068,2063.35l58.565-19s4.647-12.308-9.626-11.425-45.82,5.763-45.82,5.763Z" transform="translate(-3476.073 -1963.423)" fill="#163f59"/>
      <path id="Trazado_37910" data-name="Trazado 37910" d="M3636.292,2047.137l1.536,49.287,8.863-1.454s3.8-51.206.565-53.123S3636.328,2044.807,3636.292,2047.137Z" transform="translate(-3513.449 -1967.166)" fill="#163f59"/>
      <path id="Trazado_37911" data-name="Trazado 37911" d="M3522.472,2041.257l3.69,51.327s6.1,7.934,9.651,4.939,15.513-43.109,13.389-54.619S3522.472,2041.257,3522.472,2041.257Z" transform="translate(-3463.532 -1965.374)" fill="#194866"/>
      <path id="Trazado_37912" data-name="Trazado 37912" d="M3496.8,2128.844l-43.97,26.428,5.087,8.477s47.336-20.3,47.3-27.156S3498.308,2128.021,3496.8,2128.844Z" transform="translate(-3432.988 -2005.428)" fill="#194866"/>
      <path id="Trazado_37913" data-name="Trazado 37913" d="M3640.98,2147.548l5.36.085.026-1.631,2.306,1.669,13.516.216s-.194-2.219-9.282-2.715c-2.33-.125-3.91-3.325-3.91-3.325s-1.146-1.066-2.937,1.351c-.463.63-5.351-.668-5.351-.668S3640.192,2145.785,3640.98,2147.548Z" transform="translate(-3515.314 -2011.111)" fill="#081832"/>
      <rect id="Rectángulo_4307" data-name="Rectángulo 4307" width="32.4" height="2.796" transform="matrix(0.998, -0.063, 0.063, 0.998, 58.767, 73.106)" fill="#0253a2"/>
      <rect id="Rectángulo_4308" data-name="Rectángulo 4308" width="1.164" height="4.662" transform="translate(88.734 70.523) rotate(-3.589)" fill="#163f59"/>
      <rect id="Rectángulo_4309" data-name="Rectángulo 4309" width="1.165" height="4.661" transform="translate(74.543 71.415) rotate(-3.588)" fill="#163f59"/>
      <rect id="Rectángulo_4310" data-name="Rectángulo 4310" width="1.166" height="4.661" transform="translate(61.399 72.239) rotate(-3.556)" fill="#163f59"/>
      <path id="Trazado_37914" data-name="Trazado 37914" d="M3631.58,1996.2s-1.041,4.812,1.941,6.645,8.03-3.375,12.106-11.907a137.781,137.781,0,0,0,6.476-16.187l-4.417-3.218S3631.054,1993.518,3631.58,1996.2Z" transform="translate(-3511.306 -1936.519)" fill="#194866"/>
      <path id="Trazado_37915" data-name="Trazado 37915" d="M3472.515,1983.328s-4.385-.075-5.438,8.224-2.884,26.633-2.884,26.633l8.191-.69s3.5-16.861,4.137-20.579S3480.729,1985.79,3472.515,1983.328Z" transform="translate(-3437.973 -1941.693)" fill="#194866"/>
      <rect id="Rectángulo_4311" data-name="Rectángulo 4311" width="29.721" height="41.052" transform="translate(0 103.944) rotate(-68.679)" fill="#163f59"/>
      <path id="Trazado_37916" data-name="Trazado 37916" d="M3459.3,2046.4l12.185,4.757-3.444,8.821-12.185-4.755Zm10.029,5.7-9.084-3.545-2.234,5.722,9.084,3.546Z" transform="translate(-3434.316 -1969.353)" fill="#163f59"/>
      <path id="Trazado_37917" data-name="Trazado 37917" d="M3572.042,1916.213c1.68-3.96,10.206-7.907,11.76-5.839a8.2,8.2,0,0,1,1.4,2.693q.363,1.6.727,3.142a3.016,3.016,0,0,1,.1.715c0,.018.012.034.013.052l.761,12.121a.675.675,0,0,1-.632.716l-7.961.5a38.556,38.556,0,0,1-5.752-4.348,16.688,16.688,0,0,1-2.38-2.286C3569.472,1922.681,3570.538,1919.763,3572.042,1916.213Z" transform="translate(-3484.334 -1909.448)" fill="#e9d6b8"/>
      <path id="Trazado_37918" data-name="Trazado 37918" d="M3588.269,1917.166l-2.561,5.163-2.564,5.163,5.752-.361,5.753-.362-3.19-4.8Z" transform="translate(-3490.14 -1912.676)" fill="#e9d6b8"/>
      <path id="Trazado_37919" data-name="Trazado 37919" d="M3568.974,1923.8l1.156-10.828s.365-1.873,5.981-3.119,7.613-.409,7.613-.409l2.542,1.344-1.141,2.767-6.557-.138,1.443,4.163-1.073,4.727-1.568.181-.059.117s.24-2.69-1.34-3.826-2.849.521-2.126,2.192.551,2.228.551,2.228l-2.077,1.862Z" transform="translate(-3483.926 -1909.169)" fill="#194866"/>
      <path id="Trazado_37920" data-name="Trazado 37920" d="M3481.414,1955.681c19.376-15.075,38.425,17.561,54.037-1.638,0-.74-2.131-.45-2.477-.371-19.7,13.138-31.955-19.735-51.482-5.413q-.919,2.019-1.852,4.173C3480.241,1953.475,3480.834,1954.561,3481.414,1955.681Z" transform="translate(-3444.747 -1924.693)" fill="#0253a2"/>
      <path id="Trazado_37921" data-name="Trazado 37921" d="M3575.866,1952.8l1.8,2.632s-.524,1.9-.867,2.04a15.651,15.651,0,0,1-2.571-.015,16.03,16.03,0,0,1-.673-2.352C3573.45,1954.29,3575.866,1952.8,3575.866,1952.8Z" transform="translate(-3485.935 -1928.302)" fill="#0253a2"/>
      <path id="Trazado_37922" data-name="Trazado 37922" d="M3577.4,1951.468l.177,2.792,2.574,3.809,3.3-3.244-1.41-3.882Z" transform="translate(-3487.623 -1927.49)" fill="#b0bfde"/>
      <path id="Trazado_37923" data-name="Trazado 37923" d="M3560.068,1948.306l-1.672,3.142,6.138,4.752,4.71-3.1-.176-2.792Z" transform="translate(-3479.287 -1926.333)" fill="#b0bfde"/>
      <path id="Trazado_37924" data-name="Trazado 37924" d="M3464.592,2044.356a3.466,3.466,0,0,0,.711,2.933c1.146,1.5-.283,1.068-.283,1.068l-1.83,1.515,1.974.752,5.168,1.428,4.221-2.544a2.741,2.741,0,0,0-.109-1.744,37.191,37.191,0,0,0-3.722-3.446Z" transform="translate(-3437.532 -1968.442)" fill="#e9d6b8"/>
      <path id="Trazado_37925" data-name="Trazado 37925" d="M3459.546,2205.516s.191-2.13-6.851-2.475a1.864,1.864,0,0,1-.236-.037l-1.12,2.508Z" transform="translate(-3432.335 -2038.035)" fill="#081832"/>
      <path id="Trazado_37926" data-name="Trazado 37926" d="M3446.4,2186.043l-.808,2.731,2.146,6.387h2.442c-.2-.939-.459-2-.82-3.226-.656-2.24,1.833-4.795,1.833-4.795s.624-1.439-2.252-2.318c-.749-.228-1.155-5.269-1.155-5.269s-3.241.6-4.64,1.927l1.707,5.084Z" transform="translate(-3428.743 -2027.75)" fill="#081832"/>
    </g>
  </g>
</svg>
