<svg xmlns="http://www.w3.org/2000/svg" width="251" height="251" viewBox="0 0 251 251">
  <g id="Grupo_18000" data-name="Grupo 18000" transform="translate(-566 -3332)">
    <g id="Grupo_17993" data-name="Grupo 17993" transform="translate(0 -48)">
      <circle id="Elipse_957" data-name="Elipse 957" cx="125.5" cy="125.5" r="125.5" transform="translate(566 3380)" fill="#fff7e2"/>
      <g id="Grupo_17875" data-name="Grupo 17875" transform="translate(-2381.795 2685.836)">
        <g id="Grupo_17851" data-name="Grupo 17851" transform="translate(3017.288 774.326)">
          <g id="Grupo_17820" data-name="Grupo 17820" transform="translate(5.347 74.284)">
            <g id="Grupo_17815" data-name="Grupo 17815" transform="translate(7.943 14.704)">
              <path id="Trazado_45088" data-name="Trazado 45088" d="M3080.266,1036.689c-.115-3.037-.268-7.088-.383-10.125.078,2.089.3,7.729.385,9.892C3080.263,1036.535,3080.263,1036.611,3080.266,1036.689Z" transform="translate(-3079.883 -1026.565)" fill="#ffc910"/>
            </g>
            <g id="Grupo_17816" data-name="Grupo 17816" transform="translate(0.002 10.443)">
              <path id="Trazado_45089" data-name="Trazado 45089" d="M3155.393,1017.716q.212,5.605.424,11.21c.109,2.857-3.636,5.871-11.384,8.466-16.733,5.6-45.794,7.135-64.912,3.419-10.266-1.995-15.577-5.1-15.7-8.412l-.425-11.21c.125,3.313,5.436,6.417,15.7,8.412,19.117,3.717,48.179,2.185,64.912-3.42C3151.756,1023.586,3155.5,1020.573,3155.393,1017.716Z" transform="translate(-3063.394 -1017.716)" fill="#ffab01"/>
            </g>
            <g id="Grupo_17817" data-name="Grupo 17817">
              <path id="Trazado_45090" data-name="Trazado 45090" d="M3139.686,998.06c19.117,3.716,21.054,11.272,4.32,16.878s-45.794,7.137-64.912,3.42-21.049-11.271-4.317-16.877S3120.569,994.345,3139.686,998.06Zm-55.391,18.556c15.835,3.078,39.907,1.808,53.767-2.834s12.259-10.9-3.576-13.98-39.9-1.808-53.765,2.835-12.259,10.9,3.573,13.979" transform="translate(-3063.39 -996.031)" fill="#ffc910"/>
            </g>
            <path id="Trazado_45091" data-name="Trazado 45091" d="M3142.99,1002.054c15.834,3.078,17.436,9.336,3.576,13.98s-37.933,5.911-53.767,2.834-17.433-9.337-3.573-13.979S3127.157,998.977,3142.99,1002.054Z" transform="translate(-3071.894 -998.283)" fill="#ffab01"/>
            <path id="Trazado_45092" data-name="Trazado 45092" d="M3089.229,1006.284c13.86-4.643,37.932-5.912,53.765-2.834,7.88,1.532,12.232,3.852,12.911,6.369.792-3.038-3.591-5.952-12.911-7.764-15.833-3.077-39.9-1.809-53.765,2.835-6.962,2.333-10.021,5.072-9.335,7.612C3080.447,1010.377,3083.526,1008.194,3089.229,1006.284Z" transform="translate(-3071.897 -998.283)" fill="#f99b0f"/>
            <path id="Trazado_45093" data-name="Trazado 45093" d="M3072.523,1035.067v10.984a41.309,41.309,0,0,0,11.73,3.755,117.786,117.786,0,0,0,17.1,1.877V1040.49a118.364,118.364,0,0,1-17.523-1.9A42.963,42.963,0,0,1,3072.523,1035.067Z" transform="translate(-3068.125 -1016.269)" fill="#f99b0f"/>
            <g id="Grupo_17818" data-name="Grupo 17818" transform="translate(23.179 6.483)">
              <path id="Trazado_45094" data-name="Trazado 45094" d="M3152.945,1010.276l-4.2,1.406c1.674.464,2.464,1.023,2.362,1.673s-1.074,1.326-2.931,2.021l-4.321-.84q1.557-.594,1.359-1.158t-2.108-.938a17.726,17.726,0,0,0-4.382-.267,15.949,15.949,0,0,0-4.157.745,4.532,4.532,0,0,0-1.009.451c-.225.152-.336.307-.336.466-.019.325.761.74,2.349,1.249.948.3,1.628.547,2.05.732,1.471.642,2.117,1.287,1.923,1.94s-1.19,1.279-3,1.886a35.041,35.041,0,0,1-7.882,1.563,35.7,35.7,0,0,1-8.073-.089l-5.04,1.689-4.027-.783,4.845-1.623q-3.188-.849-3.058-2.019t3.594-2.34l4.16.809q-2.209.811-2.028,1.472t2.763,1.163a20.194,20.194,0,0,0,5.031.309,18.17,18.17,0,0,0,4.773-.853,8.334,8.334,0,0,0,1.211-.493,1.674,1.674,0,0,0,.6-.458q.455-.711-2.157-1.587-.431-.144-.638-.216-3.194-1.112-3.345-2.089t2.718-1.943a30.462,30.462,0,0,1,7.078-1.387,37.026,37.026,0,0,1,7.7.119l4.155-1.392Z" transform="translate(-3111.522 -1009.493)" fill="#f99b0f"/>
            </g>
            <g id="Grupo_17819" data-name="Grupo 17819" transform="translate(23.179 4.909)">
              <path id="Trazado_45095" data-name="Trazado 45095" d="M3152.945,1007.007l-4.2,1.406c1.674.464,2.464,1.022,2.362,1.674s-1.074,1.326-2.931,2.021l-4.321-.84q1.557-.6,1.359-1.158t-2.108-.939a17.741,17.741,0,0,0-4.382-.267,15.966,15.966,0,0,0-4.157.745,4.5,4.5,0,0,0-1.009.451c-.225.152-.336.307-.336.466-.019.324.761.74,2.349,1.249.948.3,1.628.547,2.05.732,1.471.642,2.117,1.288,1.923,1.939s-1.19,1.279-3,1.886a34.959,34.959,0,0,1-7.882,1.564,35.728,35.728,0,0,1-8.073-.088l-5.04,1.689-4.027-.783,4.845-1.624q-3.188-.849-3.058-2.018t3.594-2.341l4.16.809q-2.209.812-2.028,1.472t2.763,1.164a20.194,20.194,0,0,0,5.031.309,18.169,18.169,0,0,0,4.773-.854,8.334,8.334,0,0,0,1.211-.493,1.666,1.666,0,0,0,.6-.458q.455-.712-2.157-1.587c-.287-.1-.5-.169-.638-.216q-3.194-1.113-3.345-2.089t2.718-1.944a30.459,30.459,0,0,1,7.078-1.386,37.123,37.123,0,0,1,7.7.119l4.155-1.391Z" transform="translate(-3111.522 -1006.225)" fill="#ffc910"/>
            </g>
          </g>
          <g id="Grupo_17826" data-name="Grupo 17826" transform="translate(5.005 59.462)">
            <g id="Grupo_17821" data-name="Grupo 17821" transform="translate(7.942 14.703)">
              <path id="Trazado_45096" data-name="Trazado 45096" d="M3079.555,1005.909c-.115-3.037-.268-7.088-.384-10.125.079,2.09.3,7.729.385,9.892C3079.552,1005.754,3079.552,1005.831,3079.555,1005.909Z" transform="translate(-3079.171 -995.784)" fill="#ffc910"/>
            </g>
            <g id="Grupo_17822" data-name="Grupo 17822" transform="translate(0.002 10.442)">
              <path id="Trazado_45097" data-name="Trazado 45097" d="M3154.682,986.936q.212,5.606.423,11.21c.109,2.857-3.636,5.87-11.383,8.465-16.733,5.605-45.794,7.136-64.912,3.42-10.266-2-15.577-5.1-15.7-8.412l-.425-11.21c.125,3.312,5.435,6.415,15.7,8.412,19.117,3.716,48.179,2.185,64.912-3.42C3151.044,992.806,3154.79,989.792,3154.682,986.936Z" transform="translate(-3062.683 -986.936)" fill="#ffab01"/>
            </g>
            <g id="Grupo_17823" data-name="Grupo 17823">
              <path id="Trazado_45098" data-name="Trazado 45098" d="M3138.976,967.281c19.117,3.715,21.053,11.272,4.319,16.878s-45.794,7.136-64.912,3.42-21.049-11.272-4.317-16.877S3119.857,963.565,3138.976,967.281Zm-55.392,18.556c15.835,3.078,39.907,1.808,53.767-2.833s12.259-10.9-3.576-13.981-39.9-1.808-53.765,2.834-12.259,10.9,3.573,13.98" transform="translate(-3062.679 -965.252)" fill="#ffc910"/>
            </g>
            <path id="Trazado_45099" data-name="Trazado 45099" d="M3142.279,971.274c15.835,3.079,17.437,9.337,3.576,13.981s-37.933,5.911-53.767,2.833-17.433-9.337-3.573-13.98S3126.447,968.2,3142.279,971.274Z" transform="translate(-3071.183 -967.503)" fill="#ffab01"/>
            <path id="Trazado_45100" data-name="Trazado 45100" d="M3088.518,975.5c13.86-4.643,37.932-5.911,53.764-2.834,7.88,1.531,12.232,3.852,12.911,6.368.792-3.038-3.591-5.952-12.911-7.764-15.833-3.077-39.9-1.809-53.764,2.834-6.963,2.333-10.021,5.072-9.335,7.613C3079.735,979.6,3082.815,977.414,3088.518,975.5Z" transform="translate(-3071.187 -967.503)" fill="#f99b0f"/>
            <path id="Trazado_45101" data-name="Trazado 45101" d="M3071.812,1004.287v10.984a41.3,41.3,0,0,0,11.731,3.755,117.844,117.844,0,0,0,17.1,1.876v-11.192a118.515,118.515,0,0,1-17.523-1.9A42.99,42.99,0,0,1,3071.812,1004.287Z" transform="translate(-3067.414 -985.489)" fill="#f99b0f"/>
            <g id="Grupo_17824" data-name="Grupo 17824" transform="translate(23.179 6.483)">
              <path id="Trazado_45102" data-name="Trazado 45102" d="M3152.235,979.5l-4.2,1.406c1.674.463,2.464,1.022,2.362,1.673s-1.073,1.326-2.931,2.021l-4.321-.84q1.557-.594,1.359-1.157c-.132-.38-.835-.691-2.107-.939a17.718,17.718,0,0,0-4.381-.266,15.921,15.921,0,0,0-4.158.744,4.543,4.543,0,0,0-1.009.451c-.225.152-.336.307-.336.465-.019.325.761.741,2.349,1.249.949.3,1.628.547,2.05.732,1.471.641,2.117,1.287,1.924,1.938s-1.19,1.28-3,1.887a35,35,0,0,1-7.882,1.563,35.738,35.738,0,0,1-8.073-.088l-5.04,1.689-4.028-.783,4.845-1.623q-3.188-.849-3.058-2.02t3.594-2.34l4.16.809q-2.208.811-2.029,1.472t2.763,1.163a20.167,20.167,0,0,0,5.031.31,18.15,18.15,0,0,0,4.773-.854,8.189,8.189,0,0,0,1.21-.493,1.674,1.674,0,0,0,.6-.458q.455-.712-2.157-1.587l-.638-.216q-3.194-1.112-3.345-2.089t2.718-1.942a30.422,30.422,0,0,1,7.077-1.387,37.1,37.1,0,0,1,7.7.118l4.154-1.391Z" transform="translate(-3110.811 -978.714)" fill="#f99b0f"/>
            </g>
            <g id="Grupo_17825" data-name="Grupo 17825" transform="translate(23.179 4.909)">
              <path id="Trazado_45103" data-name="Trazado 45103" d="M3152.235,976.228l-4.2,1.406c1.674.463,2.464,1.022,2.362,1.673s-1.073,1.325-2.931,2.02l-4.321-.839q1.557-.595,1.359-1.158t-2.107-.939a17.7,17.7,0,0,0-4.381-.267,15.968,15.968,0,0,0-4.158.745,4.518,4.518,0,0,0-1.009.451c-.225.152-.336.307-.336.466-.019.325.761.74,2.349,1.249.949.3,1.628.547,2.05.732,1.471.642,2.117,1.288,1.924,1.939s-1.19,1.279-3,1.887a34.958,34.958,0,0,1-7.882,1.564,35.786,35.786,0,0,1-8.073-.089l-5.04,1.689-4.028-.783,4.845-1.623q-3.188-.85-3.058-2.019t3.594-2.341l4.16.809q-2.208.813-2.029,1.472t2.763,1.164a20.22,20.22,0,0,0,5.031.309,18.135,18.135,0,0,0,4.773-.854,8.211,8.211,0,0,0,1.21-.493,1.662,1.662,0,0,0,.6-.458q.455-.711-2.157-1.587c-.288-.1-.5-.169-.638-.216q-3.194-1.112-3.345-2.088t2.718-1.943a30.442,30.442,0,0,1,7.077-1.387,37.093,37.093,0,0,1,7.7.118l4.154-1.391Z" transform="translate(-3110.811 -975.445)" fill="#ffc910"/>
            </g>
          </g>
          <g id="Grupo_17832" data-name="Grupo 17832" transform="translate(6.63 43.739)">
            <g id="Grupo_17827" data-name="Grupo 17827" transform="translate(7.942 14.704)">
              <path id="Trazado_45104" data-name="Trazado 45104" d="M3082.928,973.26c-.115-3.037-.268-7.087-.383-10.124.079,2.089.3,7.729.385,9.892C3082.926,973.106,3082.925,973.182,3082.928,973.26Z" transform="translate(-3082.545 -963.136)" fill="#ffc910"/>
            </g>
            <g id="Grupo_17828" data-name="Grupo 17828" transform="translate(0.002 10.442)">
              <path id="Trazado_45105" data-name="Trazado 45105" d="M3158.055,954.286q.211,5.606.423,11.21c.109,2.857-3.636,5.87-11.384,8.466-16.733,5.6-45.794,7.135-64.911,3.42-10.266-2-15.577-5.1-15.7-8.412l-.425-11.21c.125,3.312,5.436,6.416,15.7,8.411,19.117,3.717,48.179,2.185,64.912-3.42C3154.418,960.156,3158.163,957.143,3158.055,954.286Z" transform="translate(-3066.057 -954.286)" fill="#ffab01"/>
            </g>
            <g id="Grupo_17829" data-name="Grupo 17829">
              <path id="Trazado_45106" data-name="Trazado 45106" d="M3142.35,934.632c19.117,3.716,21.053,11.273,4.32,16.878s-45.794,7.136-64.912,3.42-21.05-11.271-4.317-16.877S3123.231,930.917,3142.35,934.632Zm-55.392,18.556c15.836,3.078,39.908,1.808,53.768-2.833s12.259-10.9-3.576-13.981-39.9-1.808-53.765,2.834-12.259,10.9,3.573,13.979" transform="translate(-3066.053 -932.603)" fill="#ffc910"/>
            </g>
            <path id="Trazado_45107" data-name="Trazado 45107" d="M3145.653,938.625c15.835,3.079,17.436,9.337,3.575,13.981s-37.933,5.911-53.767,2.833-17.432-9.337-3.573-13.979S3129.82,935.548,3145.653,938.625Z" transform="translate(-3074.557 -934.854)" fill="#ffab01"/>
            <path id="Trazado_45108" data-name="Trazado 45108" d="M3091.891,942.854c13.861-4.643,37.932-5.911,53.765-2.834,7.88,1.531,12.232,3.852,12.911,6.369.792-3.038-3.591-5.952-12.911-7.764-15.833-3.077-39.9-1.809-53.765,2.835-6.962,2.332-10.021,5.072-9.335,7.612C3083.109,946.948,3086.188,944.765,3091.891,942.854Z" transform="translate(-3074.56 -934.854)" fill="#f99b0f"/>
            <path id="Trazado_45109" data-name="Trazado 45109" d="M3075.186,971.638v10.984a41.3,41.3,0,0,0,11.73,3.755,117.833,117.833,0,0,0,17.1,1.877V977.062a118.572,118.572,0,0,1-17.523-1.9A42.953,42.953,0,0,1,3075.186,971.638Z" transform="translate(-3070.788 -952.84)" fill="#f99b0f"/>
            <g id="Grupo_17830" data-name="Grupo 17830" transform="translate(23.179 6.483)">
              <path id="Trazado_45110" data-name="Trazado 45110" d="M3155.609,946.848l-4.2,1.406q2.51.7,2.362,1.672c-.093.652-1.074,1.326-2.931,2.021l-4.321-.84q1.558-.594,1.359-1.158c-.132-.38-.835-.69-2.107-.939a17.7,17.7,0,0,0-4.382-.266,15.922,15.922,0,0,0-4.157.744,4.508,4.508,0,0,0-1.009.451c-.225.152-.337.307-.337.465-.019.325.761.741,2.349,1.249.949.3,1.628.547,2.05.732,1.471.642,2.117,1.287,1.924,1.939s-1.191,1.279-3.005,1.887a34.984,34.984,0,0,1-7.882,1.563,35.717,35.717,0,0,1-8.073-.088l-5.039,1.689-4.028-.783,4.845-1.622c-2.125-.566-3.148-1.24-3.059-2.019s1.282-1.558,3.594-2.34l4.16.809q-2.208.81-2.028,1.472t2.763,1.164a20.194,20.194,0,0,0,5.03.309,18.144,18.144,0,0,0,4.772-.854,8.307,8.307,0,0,0,1.211-.492,1.682,1.682,0,0,0,.6-.458q.455-.712-2.157-1.587c-.288-.1-.5-.169-.638-.216q-3.194-1.112-3.345-2.089t2.718-1.942a30.422,30.422,0,0,1,7.077-1.387,37.127,37.127,0,0,1,7.7.119l4.155-1.391Z" transform="translate(-3114.185 -946.066)" fill="#f99b0f"/>
            </g>
            <g id="Grupo_17831" data-name="Grupo 17831" transform="translate(23.179 4.909)">
              <path id="Trazado_45111" data-name="Trazado 45111" d="M3155.609,943.578l-4.2,1.405q2.51.7,2.362,1.674c-.093.651-1.074,1.325-2.931,2.02l-4.321-.839q1.558-.6,1.359-1.158t-2.107-.94a17.728,17.728,0,0,0-4.382-.266,15.917,15.917,0,0,0-4.157.744,4.534,4.534,0,0,0-1.009.45q-.337.229-.337.466c-.019.324.761.74,2.349,1.249.949.3,1.628.546,2.05.732,1.471.642,2.117,1.288,1.924,1.939s-1.191,1.279-3.005,1.886a34.992,34.992,0,0,1-7.882,1.564,35.758,35.758,0,0,1-8.073-.089l-5.039,1.689-4.028-.782,4.845-1.623c-2.125-.566-3.148-1.24-3.059-2.019s1.282-1.558,3.594-2.341l4.16.809q-2.208.812-2.028,1.471t2.763,1.164a20.19,20.19,0,0,0,5.03.31,18.119,18.119,0,0,0,4.772-.854,8.208,8.208,0,0,0,1.211-.493,1.667,1.667,0,0,0,.6-.458q.455-.712-2.157-1.588c-.288-.095-.5-.169-.638-.215q-3.194-1.112-3.345-2.089t2.718-1.942a30.424,30.424,0,0,1,7.077-1.387,37.106,37.106,0,0,1,7.7.118l4.155-1.391Z" transform="translate(-3114.185 -942.796)" fill="#ffc910"/>
            </g>
          </g>
          <g id="Grupo_17838" data-name="Grupo 17838" transform="translate(6.068 30.545)">
            <g id="Grupo_17833" data-name="Grupo 17833" transform="translate(7.942 14.704)">
              <path id="Trazado_45112" data-name="Trazado 45112" d="M3081.762,945.863c-.115-3.037-.268-7.088-.383-10.125.078,2.089.3,7.729.385,9.893Q3081.758,945.747,3081.762,945.863Z" transform="translate(-3081.379 -935.738)" fill="#ffc910"/>
            </g>
            <g id="Grupo_17834" data-name="Grupo 17834" transform="translate(0.002 10.443)">
              <path id="Trazado_45113" data-name="Trazado 45113" d="M3156.889,926.89q.211,5.605.424,11.209c.109,2.857-3.636,5.87-11.384,8.466-16.733,5.6-45.794,7.135-64.912,3.419-10.265-2-15.577-5.1-15.7-8.412l-.424-11.21c.125,3.313,5.435,6.415,15.7,8.412,19.117,3.717,48.178,2.186,64.912-3.42C3153.252,932.759,3157,929.747,3156.889,926.89Z" transform="translate(-3064.891 -926.89)" fill="#ffab01"/>
            </g>
            <g id="Grupo_17835" data-name="Grupo 17835">
              <path id="Trazado_45114" data-name="Trazado 45114" d="M3141.184,907.234c19.117,3.716,21.052,11.272,4.319,16.878s-45.794,7.136-64.912,3.42-21.049-11.272-4.317-16.877S3122.065,903.518,3141.184,907.234Zm-55.392,18.556c15.835,3.078,39.907,1.809,53.767-2.833s12.259-10.9-3.576-13.981-39.9-1.807-53.765,2.835-12.259,10.9,3.573,13.979" transform="translate(-3064.886 -905.205)" fill="#ffc910"/>
            </g>
            <path id="Trazado_45115" data-name="Trazado 45115" d="M3144.486,911.228c15.835,3.08,17.436,9.337,3.576,13.981s-37.933,5.911-53.768,2.833-17.432-9.336-3.573-13.979S3128.654,908.151,3144.486,911.228Z" transform="translate(-3073.39 -907.457)" fill="#ffab01"/>
            <path id="Trazado_45116" data-name="Trazado 45116" d="M3090.725,915.457c13.861-4.643,37.933-5.911,53.765-2.834,7.881,1.531,12.232,3.852,12.911,6.368.792-3.037-3.591-5.951-12.911-7.764-15.832-3.077-39.9-1.808-53.765,2.835-6.963,2.333-10.021,5.072-9.335,7.612C3081.943,919.552,3085.022,917.368,3090.725,915.457Z" transform="translate(-3073.394 -907.457)" fill="#f99b0f"/>
            <path id="Trazado_45117" data-name="Trazado 45117" d="M3074.02,944.241v10.984a41.281,41.281,0,0,0,11.73,3.755,117.776,117.776,0,0,0,17.1,1.877V949.664a118.387,118.387,0,0,1-17.523-1.895A42.978,42.978,0,0,1,3074.02,944.241Z" transform="translate(-3069.621 -925.443)" fill="#f99b0f"/>
            <g id="Grupo_17836" data-name="Grupo 17836" transform="translate(23.179 6.483)">
              <path id="Trazado_45118" data-name="Trazado 45118" d="M3154.441,919.45l-4.2,1.406q2.511.7,2.363,1.673c-.093.652-1.074,1.326-2.931,2.021l-4.321-.84q1.557-.593,1.359-1.157c-.131-.38-.835-.691-2.107-.939a17.669,17.669,0,0,0-4.381-.266,15.909,15.909,0,0,0-4.158.744,4.52,4.52,0,0,0-1.009.45c-.225.152-.336.308-.336.466-.019.325.761.74,2.349,1.249.948.3,1.628.547,2.05.732,1.471.642,2.117,1.287,1.924,1.94s-1.191,1.279-3.005,1.886a35.022,35.022,0,0,1-7.882,1.563,35.731,35.731,0,0,1-8.073-.088l-5.04,1.689-4.028-.783,4.845-1.622c-2.125-.567-3.148-1.24-3.058-2.02s1.281-1.558,3.594-2.34l4.16.809q-2.208.811-2.029,1.472t2.763,1.164a20.217,20.217,0,0,0,5.03.309,18.162,18.162,0,0,0,4.773-.853,8.355,8.355,0,0,0,1.211-.493,1.687,1.687,0,0,0,.6-.458q.454-.711-2.158-1.587c-.288-.1-.5-.169-.638-.216q-3.193-1.112-3.344-2.089t2.718-1.942a30.478,30.478,0,0,1,7.077-1.387,37.036,37.036,0,0,1,7.7.119l4.155-1.392Z" transform="translate(-3113.018 -918.667)" fill="#f99b0f"/>
            </g>
            <g id="Grupo_17837" data-name="Grupo 17837" transform="translate(23.179 4.909)">
              <path id="Trazado_45119" data-name="Trazado 45119" d="M3154.441,916.182l-4.2,1.406q2.511.7,2.363,1.674c-.093.652-1.074,1.325-2.931,2.021l-4.321-.84q1.557-.595,1.359-1.158t-2.107-.939a17.674,17.674,0,0,0-4.381-.266,15.916,15.916,0,0,0-4.158.744,4.506,4.506,0,0,0-1.009.45c-.225.153-.336.307-.336.466-.019.324.761.74,2.349,1.249.948.3,1.628.546,2.05.732,1.471.642,2.117,1.288,1.924,1.939s-1.191,1.279-3.005,1.886a34.963,34.963,0,0,1-7.882,1.564,35.73,35.73,0,0,1-8.073-.088l-5.04,1.689-4.028-.783,4.845-1.624c-2.125-.566-3.148-1.24-3.058-2.018s1.281-1.558,3.594-2.341l4.16.809q-2.208.812-2.029,1.472c.118.439,1.037.829,2.763,1.164a20.17,20.17,0,0,0,5.03.309,18.2,18.2,0,0,0,4.773-.853,8.41,8.41,0,0,0,1.211-.493,1.673,1.673,0,0,0,.6-.459q.454-.711-2.158-1.587c-.288-.1-.5-.168-.638-.215q-3.193-1.113-3.344-2.089t2.718-1.943a30.466,30.466,0,0,1,7.077-1.386,37.164,37.164,0,0,1,7.7.118l4.155-1.391Z" transform="translate(-3113.018 -915.399)" fill="#ffc910"/>
            </g>
          </g>
          <g id="Grupo_17844" data-name="Grupo 17844" transform="translate(0 15.783)">
            <g id="Grupo_17839" data-name="Grupo 17839" transform="translate(7.942 14.703)">
              <path id="Trazado_45120" data-name="Trazado 45120" d="M3069.162,915.208c-.115-3.037-.268-7.087-.383-10.125.078,2.089.3,7.73.385,9.893C3069.16,915.054,3069.159,915.131,3069.162,915.208Z" transform="translate(-3068.779 -905.083)" fill="#ffc910"/>
            </g>
            <g id="Grupo_17840" data-name="Grupo 17840" transform="translate(0.002 10.442)">
              <path id="Trazado_45121" data-name="Trazado 45121" d="M3144.289,896.235q.211,5.605.423,11.21c.109,2.857-3.636,5.87-11.383,8.465-16.733,5.605-45.794,7.136-64.912,3.42-10.266-2-15.577-5.1-15.7-8.412l-.425-11.21c.126,3.312,5.436,6.416,15.7,8.412,19.117,3.716,48.178,2.185,64.912-3.42C3140.651,902.1,3144.4,899.092,3144.289,896.235Z" transform="translate(-3052.29 -896.235)" fill="#ffab01"/>
            </g>
            <g id="Grupo_17841" data-name="Grupo 17841">
              <path id="Trazado_45122" data-name="Trazado 45122" d="M3128.583,876.581c19.117,3.716,21.053,11.273,4.32,16.878s-45.795,7.136-64.912,3.42-21.05-11.272-4.317-16.877S3109.465,872.865,3128.583,876.581Zm-55.392,18.556c15.835,3.078,39.907,1.809,53.767-2.833s12.259-10.9-3.576-13.981-39.9-1.808-53.765,2.835-12.259,10.9,3.573,13.979" transform="translate(-3052.286 -874.552)" fill="#ffc910"/>
            </g>
            <path id="Trazado_45123" data-name="Trazado 45123" d="M3131.886,880.573c15.835,3.079,17.436,9.337,3.575,13.981s-37.932,5.911-53.767,2.833-17.433-9.337-3.573-13.979S3116.054,877.5,3131.886,880.573Z" transform="translate(-3060.79 -876.802)" fill="#ffab01"/>
            <path id="Trazado_45124" data-name="Trazado 45124" d="M3078.125,884.8c13.861-4.642,37.932-5.91,53.764-2.834,7.881,1.531,12.233,3.852,12.911,6.368.792-3.037-3.591-5.951-12.911-7.764-15.832-3.077-39.9-1.809-53.764,2.835-6.963,2.333-10.02,5.072-9.335,7.611C3069.343,888.9,3072.422,886.713,3078.125,884.8Z" transform="translate(-3060.794 -876.802)" fill="#f99b0f"/>
            <path id="Trazado_45125" data-name="Trazado 45125" d="M3061.419,913.587v10.984a41.307,41.307,0,0,0,11.731,3.755,117.832,117.832,0,0,0,17.1,1.877V919.01a118.453,118.453,0,0,1-17.523-1.895A43,43,0,0,1,3061.419,913.587Z" transform="translate(-3057.021 -894.789)" fill="#f99b0f"/>
            <g id="Grupo_17842" data-name="Grupo 17842" transform="translate(23.179 6.483)">
              <path id="Trazado_45126" data-name="Trazado 45126" d="M3141.842,888.8l-4.2,1.406c1.674.464,2.464,1.022,2.363,1.673s-1.074,1.325-2.931,2.021l-4.321-.84q1.557-.595,1.359-1.158c-.132-.38-.835-.691-2.108-.939a17.691,17.691,0,0,0-4.381-.267,15.943,15.943,0,0,0-4.158.744,4.549,4.549,0,0,0-1.009.451c-.225.152-.336.308-.336.466-.018.324.761.74,2.349,1.249.949.3,1.628.546,2.05.732,1.471.642,2.117,1.287,1.923,1.939s-1.191,1.28-3,1.886a35.022,35.022,0,0,1-7.882,1.564,35.723,35.723,0,0,1-8.073-.089l-5.04,1.689-4.028-.783,4.845-1.623q-3.188-.848-3.059-2.019t3.594-2.341l4.16.809q-2.208.811-2.029,1.472t2.763,1.164a20.216,20.216,0,0,0,5.031.309,18.15,18.15,0,0,0,4.773-.854,8.291,8.291,0,0,0,1.21-.493,1.686,1.686,0,0,0,.6-.458q.455-.712-2.157-1.587c-.288-.1-.5-.169-.638-.216q-3.194-1.112-3.345-2.089t2.718-1.943a30.435,30.435,0,0,1,7.077-1.386,37.019,37.019,0,0,1,7.7.119l4.154-1.392Z" transform="translate(-3100.418 -888.013)" fill="#f99b0f"/>
            </g>
            <g id="Grupo_17843" data-name="Grupo 17843" transform="translate(23.179 4.908)">
              <path id="Trazado_45127" data-name="Trazado 45127" d="M3141.842,885.527l-4.2,1.406c1.674.464,2.464,1.023,2.363,1.674s-1.074,1.324-2.931,2.02l-4.321-.839q1.557-.594,1.359-1.158t-2.108-.939a17.7,17.7,0,0,0-4.381-.267,15.944,15.944,0,0,0-4.158.745,4.523,4.523,0,0,0-1.009.45c-.225.153-.336.308-.336.467-.018.324.761.739,2.349,1.249.949.3,1.628.546,2.05.731,1.471.642,2.117,1.288,1.923,1.94s-1.191,1.279-3,1.886a35.022,35.022,0,0,1-7.882,1.564,35.7,35.7,0,0,1-8.073-.089l-5.04,1.689-4.028-.783,4.845-1.624q-3.188-.849-3.059-2.018t3.594-2.341l4.16.809q-2.208.812-2.029,1.472t2.763,1.164a20.219,20.219,0,0,0,5.031.309,18.165,18.165,0,0,0,4.773-.854,8.294,8.294,0,0,0,1.21-.493,1.672,1.672,0,0,0,.6-.458q.455-.712-2.157-1.588c-.288-.1-.5-.168-.638-.215q-3.194-1.113-3.345-2.089t2.718-1.943a30.479,30.479,0,0,1,7.077-1.387,37.07,37.07,0,0,1,7.7.118l4.154-1.392Z" transform="translate(-3100.418 -884.744)" fill="#ffc910"/>
            </g>
          </g>
          <g id="Grupo_17850" data-name="Grupo 17850" transform="translate(7.35 0)">
            <g id="Grupo_17845" data-name="Grupo 17845" transform="translate(7.942 14.703)">
              <path id="Trazado_45128" data-name="Trazado 45128" d="M3084.424,882.434c-.115-3.037-.268-7.087-.384-10.125.079,2.09.3,7.73.385,9.892C3084.422,882.279,3084.422,882.356,3084.424,882.434Z" transform="translate(-3084.041 -872.309)" fill="#ffc910"/>
            </g>
            <g id="Grupo_17846" data-name="Grupo 17846" transform="translate(0.002 10.442)">
              <path id="Trazado_45129" data-name="Trazado 45129" d="M3159.552,863.461q.212,5.606.424,11.21c.108,2.856-3.636,5.869-11.384,8.465-16.733,5.6-45.794,7.136-64.912,3.419-10.266-1.995-15.577-5.1-15.7-8.412l-.425-11.21c.126,3.313,5.436,6.416,15.7,8.412,19.117,3.716,48.179,2.185,64.912-3.421C3155.915,869.331,3159.66,866.317,3159.552,863.461Z" transform="translate(-3067.553 -863.461)" fill="#ffab01"/>
            </g>
            <g id="Grupo_17847" data-name="Grupo 17847">
              <path id="Trazado_45130" data-name="Trazado 45130" d="M3143.846,843.806c19.117,3.716,21.053,11.272,4.32,16.878s-45.794,7.137-64.912,3.421-21.05-11.272-4.317-16.878S3124.728,840.091,3143.846,843.806Zm-55.392,18.556c15.835,3.078,39.907,1.808,53.767-2.834s12.259-10.9-3.576-13.98-39.9-1.807-53.764,2.834-12.259,10.9,3.573,13.98" transform="translate(-3067.549 -841.777)" fill="#ffc910"/>
            </g>
            <path id="Trazado_45131" data-name="Trazado 45131" d="M3147.149,847.8c15.834,3.079,17.436,9.337,3.576,13.981s-37.933,5.912-53.767,2.834-17.432-9.337-3.573-13.98S3131.316,844.722,3147.149,847.8Z" transform="translate(-3076.053 -844.028)" fill="#ffab01"/>
            <path id="Trazado_45132" data-name="Trazado 45132" d="M3093.388,852.028c13.861-4.643,37.932-5.911,53.765-2.834,7.88,1.531,12.232,3.852,12.911,6.369.791-3.038-3.592-5.952-12.911-7.764-15.833-3.077-39.9-1.808-53.765,2.835-6.962,2.333-10.021,5.073-9.335,7.612C3084.606,856.122,3087.685,853.939,3093.388,852.028Z" transform="translate(-3076.057 -844.028)" fill="#f99b0f"/>
            <path id="Trazado_45133" data-name="Trazado 45133" d="M3076.683,880.812V891.8a41.256,41.256,0,0,0,11.73,3.755,117.678,117.678,0,0,0,17.1,1.878V886.236a118.635,118.635,0,0,1-17.523-1.9A42.948,42.948,0,0,1,3076.683,880.812Z" transform="translate(-3072.284 -862.014)" fill="#f99b0f"/>
            <g id="Grupo_17848" data-name="Grupo 17848" transform="translate(23.179 6.483)">
              <path id="Trazado_45134" data-name="Trazado 45134" d="M3157.1,856.022l-4.2,1.406c1.673.463,2.464,1.022,2.362,1.673s-1.073,1.326-2.93,2.021l-4.321-.839q1.557-.594,1.359-1.158c-.131-.38-.835-.691-2.107-.939a17.675,17.675,0,0,0-4.382-.266,15.932,15.932,0,0,0-4.158.744,4.5,4.5,0,0,0-1.009.45c-.225.152-.336.308-.336.466-.019.325.761.74,2.348,1.249.949.3,1.628.547,2.05.732,1.471.642,2.116,1.287,1.924,1.939s-1.191,1.279-3,1.887a34.986,34.986,0,0,1-7.883,1.563,35.694,35.694,0,0,1-8.073-.089l-5.04,1.689-4.028-.782,4.846-1.623q-3.188-.849-3.059-2.019t3.594-2.34l4.16.809q-2.208.81-2.028,1.472t2.763,1.164a20.175,20.175,0,0,0,5.031.309,18.144,18.144,0,0,0,4.773-.854,8.247,8.247,0,0,0,1.21-.493,1.676,1.676,0,0,0,.6-.458q.456-.712-2.157-1.587c-.287-.1-.5-.168-.637-.216q-3.193-1.112-3.345-2.089t2.719-1.942a30.447,30.447,0,0,1,7.077-1.387,37.03,37.03,0,0,1,7.7.118l4.155-1.391Z" transform="translate(-3115.681 -855.24)" fill="#f99b0f"/>
            </g>
            <g id="Grupo_17849" data-name="Grupo 17849" transform="translate(23.179 4.909)">
              <path id="Trazado_45135" data-name="Trazado 45135" d="M3157.1,852.752l-4.2,1.405c1.673.464,2.464,1.023,2.362,1.674s-1.073,1.325-2.93,2.02l-4.321-.84q1.557-.594,1.359-1.158t-2.107-.938a17.674,17.674,0,0,0-4.382-.267,15.954,15.954,0,0,0-4.158.745,4.525,4.525,0,0,0-1.009.45c-.225.152-.336.308-.336.466-.019.325.761.74,2.348,1.249.949.3,1.628.547,2.05.732,1.471.642,2.116,1.288,1.924,1.939s-1.191,1.279-3,1.887a34.961,34.961,0,0,1-7.883,1.564,35.721,35.721,0,0,1-8.073-.088l-5.04,1.689-4.028-.783,4.846-1.624q-3.188-.85-3.059-2.019t3.594-2.341l4.16.809q-2.208.813-2.028,1.472t2.763,1.164a20.185,20.185,0,0,0,5.031.31,18.133,18.133,0,0,0,4.773-.854,8.218,8.218,0,0,0,1.21-.493,1.665,1.665,0,0,0,.6-.458q.456-.711-2.157-1.588c-.287-.095-.5-.168-.637-.215q-3.193-1.113-3.345-2.089t2.719-1.943a30.394,30.394,0,0,1,7.077-1.386,37.085,37.085,0,0,1,7.7.118l4.155-1.391Z" transform="translate(-3115.681 -851.97)" fill="#ffc910"/>
            </g>
          </g>
        </g>
        <g id="Grupo_17855" data-name="Grupo 17855" transform="translate(3078.735 711.671)">
          <g id="Grupo_17853" data-name="Grupo 17853" transform="translate(34.344)">
            <g id="Grupo_17852" data-name="Grupo 17852" transform="translate(0 3.545)">
              <path id="Trazado_45136" data-name="Trazado 45136" d="M3293.274,737.254l8.155-14.63-1.642-3.591s-.2.084-.243,1.049c-.013.276.625,1.329.5,1.6-.166.368,0,1.659-.453,1.958-3.291,2.155-8.611,4.737-11.352,8.245C3283.834,737.538,3293.235,737.551,3293.274,737.254Z" transform="translate(-3269.795 -719.033)" fill="#e9d6b8"/>
              <path id="Trazado_45137" data-name="Trazado 45137" d="M3251.337,787.518s-1.613-6.553,6.284-22.708c8.072-16.5,8.933-15.649,8.933-15.649l2.688-3.19,6.737,3.44-14.82,36.5Z" transform="translate(-3251.201 -732.999)" fill="#d1dbea"/>
              <path id="Trazado_45138" data-name="Trazado 45138" d="M3288,751.655l4.126,2.447,1.12.478,1.669-3.068-5.191-1.708Z" transform="translate(-3270.279 -734.986)" fill="#b0bfde"/>
            </g>
            <path id="Trazado_45139" data-name="Trazado 45139" d="M3307.43,714.917c.1-1.3.035-3.661.742-3.183l.285,4.23.933,1.86,1.567.592-.711,1.207c.1.524.131.926-.739,1.069l-.283.521a9.81,9.81,0,0,1-1.506-2.261l-.365-1.982A8.737,8.737,0,0,1,3307.43,714.917Z" transform="translate(-3280.289 -711.671)" fill="#e9d6b8"/>
          </g>
          <path id="Trazado_45140" data-name="Trazado 45140" d="M3231.188,901.031s8.453,29.948,15.226,40.669,9.139-3.227,9.139-3.227l-8.412-49.8-19.677-.126S3227.961,889.572,3231.188,901.031Z" transform="translate(-3204.551 -803.37)" fill="#3c463b"/>
          <path id="Trazado_45141" data-name="Trazado 45141" d="M3234.406,888.048s-5.663,49.128-6.475,51.595c-2.739,8.352-9.01,2.962-9.976.176s-2.582-23.382-2.259-38.411.323-14.045.323-14.045Z" transform="translate(-3198.428 -802.749)" fill="#3c463b"/>
          <path id="Trazado_45142" data-name="Trazado 45142" d="M3218.588,1084.2c-.291.356-.078,1.285-.078,1.285s5.1.566,6.732.183a8.725,8.725,0,0,0,1.824-.857c.115-.065.319-.46.429-.524.2-.12.311.085.485-.027a5.811,5.811,0,0,0,.78-.536c.447-2.339-.149-3.279-.149-3.279s-4.337-1.442-5.149-.437C3221.547,1082.375,3219.226,1083.43,3218.588,1084.2Z" transform="translate(-3199.87 -902.444)" fill="#161711"/>
          <path id="Trazado_45143" data-name="Trazado 45143" d="M3284.538,1081.84l.727,3.8h3.871s.215-.537.542-.537c.276,0,.633.537,1.008.537h9.847s.174-.8-.038-1.071a3.714,3.714,0,0,0-1.189-.511c-2-.562-7.724-2.317-8.72-4.226C3289.377,1077.5,3284.538,1081.84,3284.538,1081.84Z" transform="translate(-3234.14 -902.18)" fill="#161711"/>
          <path id="Trazado_45144" data-name="Trazado 45144" d="M3230.57,774.045c.3,1.221-.121,2.374-.949,2.579h0c-.829.208-1.747-.612-2.049-1.831l-.381-1.531c-.3-1.22.123-2.373.951-2.58h0c.828-.205,1.745.613,2.048,1.833Z" transform="translate(-3204.358 -742.248)" fill="#e9d6b8"/>
          <path id="Trazado_45145" data-name="Trazado 45145" d="M3239.778,780.368c-.182,2.19-1.359,4.09-2.6,4.182h-3.528c-1.242-.091-2.421-1.992-2.6-4.182q-.434-5.421-.867-10.846c-.193-2.165.654-6.519,2.53-7.8a4.674,4.674,0,0,1,5.4,0c1.877,1.283,2.724,5.638,2.531,7.8Q3240.213,774.944,3239.778,780.368Z" transform="translate(-3205.946 -737.172)" fill="#e2c59c"/>
          <path id="Trazado_45146" data-name="Trazado 45146" d="M3191.819,873.181l12.581,12.881s-15.171-3.481-15.844-9.76S3191.819,873.181,3191.819,873.181Z" transform="translate(-3184.339 -794.99)" fill="#e9d6b8"/>
          <path id="Trazado_45147" data-name="Trazado 45147" d="M3241.854,800.137l-6.438-7.681-11.208,6.853-6.809-.776-7.5,3.251s-3.388,3.254-.242,13.709,1.936,26.843,1.936,26.843l26.7,1.189a164.257,164.257,0,0,0,.928-29.122C3238.635,805.478,3240.672,802.72,3241.854,800.137Z" transform="translate(-3194.626 -753.552)" fill="#d1dbea"/>
          <path id="Trazado_45148" data-name="Trazado 45148" d="M3200,811.848s-4.158-3.259-8.226,2.788a113.176,113.176,0,0,0-11.129,21.611c-.725,2.091-1.695,8.367,1.21,10.222l2.9,1.861,6.048-3.716-.968-1.861-.484-1.163s3.386-7.436,7.016-14.176S3200,811.848,3200,811.848Z" transform="translate(-3179.883 -763.151)" fill="#d1dbea"/>
          <path id="Trazado_45149" data-name="Trazado 45149" d="M3240.685,771.793c-.564,2.046-1.4,2.532-2.9,2.758-1.42.14-1.765.282-3.187.423-1.5.072-3.04-1.922-3.389-3.745-.561-3.005-2.2-5.476-2.758-8.481-.362-1.8.41-3.414,2.6-4.718,2.008-1.169,4.386-3.555,6.529-2.8,2.343.857,3.622,4.417,3.515,6.264C3240.961,764.57,3240.823,768.719,3240.685,771.793Z" transform="translate(-3205.018 -734.178)" fill="#e9d6b8"/>
          <path id="Trazado_45150" data-name="Trazado 45150" d="M3233.987,803.2l-2.241,3.67-4.413-4.887,1.949-2.1Z" transform="translate(-3204.483 -757.405)" fill="#b0bfde"/>
          <path id="Trazado_45151" data-name="Trazado 45151" d="M3247.914,799.757l-2.673,2.7,1.791,3.181,2.189-4.193Z" transform="translate(-3213.767 -757.338)" fill="#b0bfde"/>
          <path id="Trazado_45152" data-name="Trazado 45152" d="M3230.2,950.207s-1.258,18.632-1.076,28.485a334.841,334.841,0,0,1-.982,33.808c-.067.746-6.13.183-6.13.183s-4.067-46.447-4.712-54.054S3225.363,944.771,3230.2,950.207Z" transform="translate(-3199.265 -834.271)" fill="#3c463b"/>
          <path id="Trazado_45153" data-name="Trazado 45153" d="M3273.374,992.493a69.213,69.213,0,0,1-7.1.841c-2.455.212,7.178,42.987,7.178,42.987l7.627-3.29-5.744-43.094Z" transform="translate(-3224.465 -855.932)" fill="#323b31"/>
          <path id="Trazado_45154" data-name="Trazado 45154" d="M3226.27,756.853l1.095,2.347s2.325-2.62,3.964-4.762c.516-.681,5.822-.741,7.14-.5.96.17,1.071,1.4,1.291,2.114.787,2.552-.337-4.3-.337-4.3s-1.8-3.223-5.172-3.494c-1.863-.148-2.731.936-3.439,2.341-.167.33,2.055-.535,1.668-.585a23.409,23.409,0,0,0-2.347,2.053,11.515,11.515,0,0,1-1.165,2.1C3227.167,756.583,3226.27,756.853,3226.27,756.853Z" transform="translate(-3203.932 -730.63)" fill="#163f59"/>
          <path id="Trazado_45155" data-name="Trazado 45155" d="M3239.568,769.041l1.463.2-.393.893,1.159.432,1.142,4.5-1.918.142-.3-2.754-1.162-1.382-2.947-.274Z" transform="translate(-3209.293 -741.414)" fill="#e2c59c"/>
          <path id="Trazado_45156" data-name="Trazado 45156" d="M3189.717,881.368l5.217-4.4,2.04,2.785-5.107,4.166Z" transform="translate(-3184.981 -797.367)" fill="#d1dbea"/>
          <g id="Grupo_17854" data-name="Grupo 17854" transform="translate(15.188 86.145)">
            <path id="Trazado_45157" data-name="Trazado 45157" d="M3212.564,890.563c.837.25.791.2.791.2a3.226,3.226,0,0,0,.618,1.94c.331.407,1.556,1.551,1.556,1.551l1.795,1.718.9.73s.539.377.592.575c.154.575-.338.477-.338.477l-3.718-2.534,2.807,3.276s.292.481.113.712c-.167.216-.291.087-.291.087l-4.035-2.954,1.261,1.852s.272.476.111.712c-.176.258-.218.334-.218.334l-3.079-3.416S3211.726,890.315,3212.564,890.563Z" transform="translate(-3211.423 -890.555)" fill="#e9d6b8"/>
            <path id="Trazado_45158" data-name="Trazado 45158" d="M3216.43,901.71l1.842,2.419a2.53,2.53,0,0,1,.551.864.4.4,0,0,1-.271.51l-3.134-3.376Z" transform="translate(-3213.495 -896.338)" fill="#e9d6b8"/>
          </g>
          <path id="Trazado_45159" data-name="Trazado 45159" d="M3240.586,849.308h2.822a106.673,106.673,0,0,0-.433-44.288q-1.281.516-2.554,1.023A101.88,101.88,0,0,1,3240.586,849.308Z" transform="translate(-3211.268 -760.066)" fill="#b0bfde"/>
        </g>
        <g id="Grupo_17874" data-name="Grupo 17874" transform="translate(2984.778 830.102)">
          <g id="Grupo_17861" data-name="Grupo 17861" transform="translate(0 26.761)">
            <g id="Grupo_17856" data-name="Grupo 17856" transform="translate(7.942 14.704)">
              <path id="Trazado_45160" data-name="Trazado 45160" d="M3001.653,1053.825c-.115-3.037-.267-7.088-.383-10.125.078,2.089.3,7.729.385,9.892C3001.651,1053.671,3001.65,1053.747,3001.653,1053.825Z" transform="translate(-3001.27 -1043.7)" fill="#ffc910"/>
            </g>
            <g id="Grupo_17857" data-name="Grupo 17857" transform="translate(0.002 10.442)">
              <path id="Trazado_45161" data-name="Trazado 45161" d="M3076.78,1034.851q.211,5.606.423,11.21c.109,2.856-3.636,5.871-11.384,8.465-16.733,5.605-45.794,7.136-64.912,3.42-10.266-2-15.577-5.1-15.7-8.411l-.425-11.21c.125,3.312,5.436,6.416,15.7,8.412,19.117,3.716,48.179,2.185,64.912-3.42C3073.143,1040.721,3076.888,1037.708,3076.78,1034.851Z" transform="translate(-2984.781 -1034.851)" fill="#ffab01"/>
            </g>
            <g id="Grupo_17858" data-name="Grupo 17858">
              <path id="Trazado_45162" data-name="Trazado 45162" d="M3061.074,1015.2c19.117,3.716,21.053,11.272,4.32,16.878s-45.794,7.136-64.912,3.42-21.049-11.272-4.317-16.877S3041.956,1011.481,3061.074,1015.2Zm-55.392,18.556c15.835,3.078,39.907,1.809,53.767-2.833s12.259-10.9-3.576-13.981-39.9-1.807-53.764,2.835-12.259,10.9,3.573,13.98" transform="translate(-2984.778 -1013.167)" fill="#ffc910"/>
            </g>
            <path id="Trazado_45163" data-name="Trazado 45163" d="M3064.377,1019.19c15.835,3.079,17.436,9.337,3.576,13.981s-37.932,5.911-53.767,2.833-17.432-9.336-3.573-13.979S3048.545,1016.113,3064.377,1019.19Z" transform="translate(-2993.281 -1015.419)" fill="#ffab01"/>
            <path id="Trazado_45164" data-name="Trazado 45164" d="M3010.616,1023.42c13.861-4.643,37.932-5.911,53.764-2.834,7.88,1.531,12.232,3.851,12.911,6.368.792-3.038-3.591-5.952-12.911-7.764-15.833-3.077-39.9-1.808-53.764,2.835-6.962,2.333-10.021,5.072-9.335,7.612C3001.834,1027.514,3004.914,1025.33,3010.616,1023.42Z" transform="translate(-2993.285 -1015.419)" fill="#f99b0f"/>
            <path id="Trazado_45165" data-name="Trazado 45165" d="M2993.911,1052.2v10.984a41.284,41.284,0,0,0,11.73,3.755,117.76,117.76,0,0,0,17.1,1.877v-11.192a118.5,118.5,0,0,1-17.523-1.9A42.992,42.992,0,0,1,2993.911,1052.2Z" transform="translate(-2989.512 -1033.405)" fill="#f99b0f"/>
            <g id="Grupo_17859" data-name="Grupo 17859" transform="translate(23.179 6.483)">
              <path id="Trazado_45166" data-name="Trazado 45166" d="M3074.332,1027.412l-4.2,1.406c1.673.463,2.464,1.022,2.363,1.673s-1.074,1.326-2.931,2.021l-4.321-.84q1.557-.594,1.359-1.157c-.132-.38-.835-.691-2.107-.94a17.756,17.756,0,0,0-4.381-.266,15.956,15.956,0,0,0-4.158.744,4.51,4.51,0,0,0-1.009.451c-.225.152-.336.307-.336.465-.019.325.761.741,2.349,1.249.949.3,1.628.547,2.05.733,1.471.641,2.117,1.287,1.924,1.939s-1.191,1.279-3.005,1.887a35.008,35.008,0,0,1-7.883,1.563,35.736,35.736,0,0,1-8.073-.088l-5.04,1.689-4.028-.783,4.846-1.622c-2.125-.566-3.148-1.24-3.058-2.02s1.281-1.558,3.594-2.34l4.16.809q-2.208.811-2.028,1.472t2.764,1.164a20.193,20.193,0,0,0,5.03.31,18.149,18.149,0,0,0,4.773-.854,8.172,8.172,0,0,0,1.211-.493,1.671,1.671,0,0,0,.6-.458q.455-.712-2.157-1.587c-.287-.1-.5-.169-.637-.216q-3.193-1.112-3.344-2.089t2.718-1.942a30.415,30.415,0,0,1,7.077-1.387,37.1,37.1,0,0,1,7.7.118l4.155-1.391Z" transform="translate(-3032.908 -1026.63)" fill="#f99b0f"/>
            </g>
            <g id="Grupo_17860" data-name="Grupo 17860" transform="translate(23.179 4.909)">
              <path id="Trazado_45167" data-name="Trazado 45167" d="M3074.332,1024.143l-4.2,1.406c1.673.463,2.464,1.023,2.363,1.674s-1.074,1.325-2.931,2.02l-4.321-.839q1.557-.594,1.359-1.157t-2.107-.939a17.719,17.719,0,0,0-4.381-.267,15.971,15.971,0,0,0-4.158.744,4.533,4.533,0,0,0-1.009.451c-.225.153-.336.307-.336.466-.019.324.761.74,2.349,1.249.949.3,1.628.547,2.05.731,1.471.642,2.117,1.288,1.924,1.94s-1.191,1.279-3.005,1.887a34.96,34.96,0,0,1-7.883,1.564,35.777,35.777,0,0,1-8.073-.089l-5.04,1.688-4.028-.782,4.846-1.623c-2.125-.566-3.148-1.24-3.058-2.019s1.281-1.558,3.594-2.342l4.16.809q-2.208.813-2.028,1.472t2.764,1.164a20.206,20.206,0,0,0,5.03.309,18.149,18.149,0,0,0,4.773-.854,8.193,8.193,0,0,0,1.211-.493,1.656,1.656,0,0,0,.6-.458q.455-.711-2.157-1.587c-.287-.1-.5-.168-.637-.216q-3.193-1.112-3.344-2.089t2.718-1.943a30.415,30.415,0,0,1,7.077-1.387,37.086,37.086,0,0,1,7.7.118l4.155-1.391Z" transform="translate(-3032.908 -1023.361)" fill="#ffc910"/>
            </g>
          </g>
          <g id="Grupo_17867" data-name="Grupo 17867" transform="translate(4.964 14.592)">
            <g id="Grupo_17862" data-name="Grupo 17862" transform="translate(7.942 14.703)">
              <path id="Trazado_45168" data-name="Trazado 45168" d="M3011.96,1028.553c-.115-3.037-.268-7.088-.384-10.124.078,2.09.3,7.729.385,9.893C3011.958,1028.4,3011.957,1028.476,3011.96,1028.553Z" transform="translate(-3011.577 -1018.429)" fill="#ffc910"/>
            </g>
            <g id="Grupo_17863" data-name="Grupo 17863" transform="translate(0.002 10.442)">
              <path id="Trazado_45169" data-name="Trazado 45169" d="M3087.086,1009.579q.212,5.606.424,11.21c.108,2.857-3.636,5.87-11.384,8.466-16.733,5.6-45.794,7.135-64.912,3.42-10.266-1.995-15.577-5.1-15.7-8.411l-.425-11.211c.126,3.313,5.436,6.416,15.7,8.412,19.118,3.717,48.179,2.186,64.912-3.419C3083.449,1015.45,3087.195,1012.436,3087.086,1009.579Z" transform="translate(-2995.088 -1009.579)" fill="#ffab01"/>
            </g>
            <g id="Grupo_17864" data-name="Grupo 17864">
              <path id="Trazado_45170" data-name="Trazado 45170" d="M3071.381,989.926c19.118,3.716,21.053,11.272,4.32,16.878s-45.794,7.136-64.912,3.419-21.05-11.271-4.317-16.877S3052.263,986.21,3071.381,989.926Zm-55.392,18.556c15.835,3.078,39.907,1.809,53.767-2.833s12.259-10.9-3.576-13.981-39.9-1.807-53.764,2.835-12.259,10.9,3.573,13.979" transform="translate(-2995.085 -987.897)" fill="#ffc910"/>
            </g>
            <path id="Trazado_45171" data-name="Trazado 45171" d="M3074.684,993.919c15.835,3.079,17.437,9.337,3.576,13.981s-37.933,5.911-53.768,2.833-17.433-9.337-3.573-13.979S3058.852,990.842,3074.684,993.919Z" transform="translate(-3003.588 -990.148)" fill="#ffab01"/>
            <path id="Trazado_45172" data-name="Trazado 45172" d="M3020.923,998.148c13.861-4.643,37.933-5.911,53.765-2.834,7.88,1.531,12.232,3.851,12.911,6.368.792-3.038-3.591-5.951-12.911-7.764-15.832-3.077-39.9-1.808-53.765,2.835-6.962,2.332-10.02,5.072-9.335,7.611C3012.141,1002.242,3015.22,1000.059,3020.923,998.148Z" transform="translate(-3003.592 -990.148)" fill="#f99b0f"/>
            <path id="Trazado_45173" data-name="Trazado 45173" d="M3004.218,1026.932v10.984a41.276,41.276,0,0,0,11.73,3.755,117.85,117.85,0,0,0,17.1,1.877v-11.192a118.444,118.444,0,0,1-17.523-1.9A42.938,42.938,0,0,1,3004.218,1026.932Z" transform="translate(-2999.82 -1008.134)" fill="#f99b0f"/>
            <g id="Grupo_17865" data-name="Grupo 17865" transform="translate(23.179 6.483)">
              <path id="Trazado_45174" data-name="Trazado 45174" d="M3084.639,1002.141l-4.2,1.406c1.673.464,2.463,1.023,2.362,1.673s-1.073,1.326-2.93,2.021l-4.321-.84q1.558-.594,1.359-1.158t-2.107-.938a17.692,17.692,0,0,0-4.381-.267,15.928,15.928,0,0,0-4.158.745,4.536,4.536,0,0,0-1.009.45c-.225.152-.336.307-.336.465-.019.325.761.741,2.349,1.249.949.3,1.628.547,2.05.733,1.471.642,2.117,1.287,1.923,1.938s-1.19,1.279-3,1.887a34.991,34.991,0,0,1-7.883,1.563,35.727,35.727,0,0,1-8.073-.089l-5.04,1.689-4.028-.783,4.846-1.622q-3.188-.85-3.059-2.019t3.594-2.341l4.16.81q-2.208.81-2.028,1.472t2.763,1.163a20.22,20.22,0,0,0,5.031.309,18.182,18.182,0,0,0,4.773-.854,8.25,8.25,0,0,0,1.211-.493,1.678,1.678,0,0,0,.6-.458q.454-.711-2.158-1.587c-.287-.1-.5-.168-.637-.216q-3.193-1.112-3.345-2.089t2.719-1.943a30.453,30.453,0,0,1,7.077-1.386,37.122,37.122,0,0,1,7.7.118l4.155-1.391Z" transform="translate(-3043.216 -1001.359)" fill="#f99b0f"/>
            </g>
            <g id="Grupo_17866" data-name="Grupo 17866" transform="translate(23.179 4.909)">
              <path id="Trazado_45175" data-name="Trazado 45175" d="M3084.639,998.872l-4.2,1.406c1.673.464,2.463,1.023,2.362,1.674s-1.073,1.325-2.93,2.02l-4.321-.839q1.558-.594,1.359-1.158c-.131-.38-.835-.692-2.107-.94a17.743,17.743,0,0,0-4.381-.266,15.947,15.947,0,0,0-4.158.744,4.578,4.578,0,0,0-1.009.45c-.225.152-.336.308-.336.467-.019.324.761.74,2.349,1.249.949.3,1.628.546,2.05.732,1.471.642,2.117,1.288,1.923,1.939s-1.19,1.28-3,1.887a34.992,34.992,0,0,1-7.883,1.564,35.788,35.788,0,0,1-8.073-.089l-5.04,1.688-4.028-.782,4.846-1.624q-3.188-.849-3.059-2.018t3.594-2.341l4.16.809q-2.208.813-2.028,1.472t2.763,1.164a20.191,20.191,0,0,0,5.031.31,18.129,18.129,0,0,0,4.773-.855,8.149,8.149,0,0,0,1.211-.493,1.672,1.672,0,0,0,.6-.457q.454-.712-2.158-1.588c-.287-.1-.5-.169-.637-.215q-3.193-1.113-3.345-2.089t2.719-1.943a30.426,30.426,0,0,1,7.077-1.387,37.13,37.13,0,0,1,7.7.119l4.155-1.391Z" transform="translate(-3043.216 -998.09)" fill="#ffc910"/>
            </g>
          </g>
          <g id="Grupo_17873" data-name="Grupo 17873" transform="translate(0.984)">
            <g id="Grupo_17868" data-name="Grupo 17868" transform="translate(7.942 14.703)">
              <path id="Trazado_45176" data-name="Trazado 45176" d="M3003.7,998.253c-.115-3.038-.268-7.088-.383-10.126.079,2.09.3,7.73.385,9.892C3003.694,998.1,3003.693,998.175,3003.7,998.253Z" transform="translate(-3003.313 -988.128)" fill="#ffc910"/>
            </g>
            <g id="Grupo_17869" data-name="Grupo 17869" transform="translate(0.002 10.443)">
              <path id="Trazado_45177" data-name="Trazado 45177" d="M3078.824,979.281q.211,5.605.423,11.21c.109,2.856-3.636,5.869-11.384,8.465-16.733,5.6-45.794,7.135-64.912,3.42-10.265-2-15.576-5.1-15.7-8.412l-.425-11.211c.125,3.313,5.435,6.416,15.7,8.412,19.117,3.717,48.179,2.185,64.912-3.42C3075.186,985.151,3078.931,982.137,3078.824,979.281Z" transform="translate(-2986.825 -979.281)" fill="#ffab01"/>
            </g>
            <g id="Grupo_17870" data-name="Grupo 17870">
              <path id="Trazado_45178" data-name="Trazado 45178" d="M3063.117,959.626c19.117,3.716,21.053,11.272,4.319,16.878s-45.794,7.137-64.912,3.42-21.049-11.272-4.316-16.877S3044,955.91,3063.117,959.626Zm-55.392,18.556c15.835,3.078,39.907,1.808,53.767-2.833s12.259-10.9-3.576-13.98-39.9-1.808-53.764,2.834-12.26,10.9,3.573,13.979" transform="translate(-2986.821 -957.596)" fill="#ffc910"/>
            </g>
            <path id="Trazado_45179" data-name="Trazado 45179" d="M3066.421,963.618c15.835,3.079,17.436,9.337,3.576,13.98s-37.933,5.912-53.768,2.834-17.432-9.337-3.573-13.979S3050.588,960.541,3066.421,963.618Z" transform="translate(-2995.324 -959.847)" fill="#ffab01"/>
            <path id="Trazado_45180" data-name="Trazado 45180" d="M3012.66,967.848c13.86-4.643,37.932-5.911,53.764-2.835,7.881,1.532,12.232,3.852,12.911,6.369.792-3.038-3.592-5.951-12.911-7.764-15.832-3.077-39.9-1.809-53.764,2.834-6.963,2.333-10.021,5.072-9.335,7.612C3003.877,971.941,3006.957,969.758,3012.66,967.848Z" transform="translate(-2995.328 -959.847)" fill="#f99b0f"/>
            <path id="Trazado_45181" data-name="Trazado 45181" d="M2995.954,996.632v10.984a41.313,41.313,0,0,0,11.73,3.755,117.824,117.824,0,0,0,17.1,1.877v-11.192a118.639,118.639,0,0,1-17.523-1.9A42.97,42.97,0,0,1,2995.954,996.632Z" transform="translate(-2991.556 -977.834)" fill="#f99b0f"/>
            <g id="Grupo_17871" data-name="Grupo 17871" transform="translate(23.179 6.483)">
              <path id="Trazado_45182" data-name="Trazado 45182" d="M3076.375,971.841l-4.2,1.407c1.674.463,2.464,1.022,2.363,1.673s-1.075,1.325-2.931,2.021l-4.321-.839q1.558-.595,1.36-1.158c-.132-.38-.835-.691-2.108-.938a17.7,17.7,0,0,0-4.381-.267,15.951,15.951,0,0,0-4.158.744,4.536,4.536,0,0,0-1.009.451c-.225.152-.336.307-.336.466-.018.324.761.74,2.349,1.249.949.3,1.628.547,2.051.732,1.471.642,2.117,1.287,1.924,1.939s-1.191,1.279-3.005,1.886a35.011,35.011,0,0,1-7.882,1.564,35.73,35.73,0,0,1-8.073-.089l-5.04,1.689-4.027-.782,4.846-1.623q-3.189-.848-3.059-2.019t3.593-2.34l4.16.809q-2.208.81-2.028,1.472c.117.44,1.036.829,2.764,1.164a20.17,20.17,0,0,0,5.03.309,18.116,18.116,0,0,0,4.772-.854,8.264,8.264,0,0,0,1.211-.492,1.685,1.685,0,0,0,.6-.458q.455-.712-2.158-1.587c-.287-.1-.5-.169-.638-.216q-3.193-1.112-3.344-2.089t2.718-1.943a30.463,30.463,0,0,1,7.077-1.387,37.034,37.034,0,0,1,7.7.12l4.155-1.392Z" transform="translate(-3034.953 -971.059)" fill="#f99b0f"/>
            </g>
            <g id="Grupo_17872" data-name="Grupo 17872" transform="translate(23.179 4.909)">
              <path id="Trazado_45183" data-name="Trazado 45183" d="M3076.375,968.572l-4.2,1.406c1.674.464,2.464,1.023,2.363,1.674s-1.075,1.325-2.931,2.02l-4.321-.839q1.558-.594,1.36-1.158t-2.108-.939a17.684,17.684,0,0,0-4.381-.267,15.919,15.919,0,0,0-4.158.745,4.526,4.526,0,0,0-1.009.45c-.225.153-.336.308-.336.466-.018.325.761.74,2.349,1.249.949.3,1.628.547,2.051.732,1.471.642,2.117,1.288,1.924,1.94s-1.191,1.279-3.005,1.886a35.014,35.014,0,0,1-7.882,1.564,35.73,35.73,0,0,1-8.073-.089l-5.04,1.689-4.027-.783,4.846-1.624q-3.189-.849-3.059-2.019t3.593-2.341l4.16.809q-2.208.812-2.028,1.471c.117.44,1.036.829,2.764,1.164a20.193,20.193,0,0,0,5.03.309,18.166,18.166,0,0,0,4.772-.854,8.24,8.24,0,0,0,1.211-.493,1.669,1.669,0,0,0,.6-.457q.455-.712-2.158-1.588c-.287-.1-.5-.168-.638-.215q-3.193-1.113-3.344-2.089t2.718-1.943a30.458,30.458,0,0,1,7.077-1.386,37.06,37.06,0,0,1,7.7.119l4.155-1.391Z" transform="translate(-3034.953 -967.79)" fill="#ffc910"/>
            </g>
          </g>
        </g>
      </g>
    </g>
  </g>
</svg>
