<svg xmlns="http://www.w3.org/2000/svg" xmlns:xlink="http://www.w3.org/1999/xlink" width="175" height="175" viewBox="0 0 175 175">
  <defs>
    <radialGradient id="radial-gradient" cx="0.5" cy="0.5" r="0.5" gradientUnits="objectBoundingBox">
      <stop offset="0" stop-color="#fff"/>
      <stop offset="1" stop-color="#fae7b7"/>
    </radialGradient>
    <filter id="Trazado_54422" x="0" y="0" width="175" height="175" filterUnits="userSpaceOnUse">
      <feOffset dy="3" input="SourceAlpha"/>
      <feGaussianBlur stdDeviation="3" result="blur"/>
      <feFlood flood-opacity="0.161"/>
      <feComposite operator="in" in2="blur"/>
      <feComposite in="SourceGraphic"/>
    </filter>
  </defs>
  <g id="Grupo_24614" data-name="Grupo 24614" transform="translate(-445 -2210)">
    <g transform="matrix(1, 0, 0, 1, 445, 2210)" filter="url(#Trazado_54422)">
      <g id="Trazado_54422-2" data-name="Trazado 54422" transform="translate(9 6)" fill="url(#radial-gradient)">
        <path d="M 78.5 156 C 68.03711700439453 156 57.88776016235352 153.9510650634766 48.33382034301758 149.9100799560547 C 43.74184036254883 147.9678344726563 39.31280136108398 145.5638275146484 35.16971969604492 142.7648162841797 C 31.06574058532715 139.9922180175781 27.20652008056641 136.8080596923828 23.69922065734863 133.30078125 C 20.19194030761719 129.7935028076172 17.00778007507324 125.9342575073242 14.23519992828369 121.8302993774414 C 11.43618011474609 117.6872177124023 9.032159805297852 113.2581787109375 7.089920043945313 108.6661987304688 C 3.048939943313599 99.11224365234375 1 88.96288299560547 1 78.5 C 1 68.03711700439453 3.048939943313599 57.88776016235352 7.089920043945313 48.33382034301758 C 9.032159805297852 43.74184036254883 11.43618011474609 39.31280136108398 14.23519992828369 35.16971969604492 C 17.00778007507324 31.06574058532715 20.19194030761719 27.20652008056641 23.69922065734863 23.69922065734863 C 27.20652008056641 20.19194030761719 31.06574058532715 17.00778007507324 35.16971969604492 14.23519992828369 C 39.31280136108398 11.43618011474609 43.74184036254883 9.032159805297852 48.33382034301758 7.089920043945313 C 57.88776016235352 3.048939943313599 68.03711700439453 1 78.5 1 C 88.96288299560547 1 99.11224365234375 3.048939943313599 108.6661987304688 7.089920043945313 C 113.2581787109375 9.032159805297852 117.6872177124023 11.43618011474609 121.8302993774414 14.23519992828369 C 125.9342575073242 17.00778007507324 129.7935028076172 20.19194030761719 133.30078125 23.69922065734863 C 136.8080596923828 27.20652008056641 139.9922180175781 31.06574058532715 142.7648162841797 35.16971969604492 C 145.5638275146484 39.31280136108398 147.9678344726563 43.74184036254883 149.9100799560547 48.33382034301758 C 153.9510650634766 57.88776016235352 156 68.03711700439453 156 78.5 C 156 88.96288299560547 153.9510650634766 99.11225891113281 149.9100799560547 108.6661987304688 C 147.9678344726563 113.2581787109375 145.5638275146484 117.6872177124023 142.7648162841797 121.8302993774414 C 139.9922180175781 125.9342575073242 136.8080596923828 129.7935028076172 133.30078125 133.30078125 C 129.7935028076172 136.8080596923828 125.9342575073242 139.9922180175781 121.8302993774414 142.7648162841797 C 117.6872177124023 145.5638275146484 113.2581787109375 147.9678344726563 108.6661987304688 149.9100799560547 C 99.11225891113281 153.9510650634766 88.96288299560547 156 78.5 156 Z" stroke="none"/>
        <path d="M 78.5 2 C 68.17169189453125 2 58.15336608886719 4.022369384765625 48.72336578369141 8.010940551757813 C 44.19084930419922 9.928024291992188 39.81908416748047 12.30094909667969 35.72952270507813 15.06379699707031 C 31.67828369140625 17.80078125 27.86860656738281 20.94404602050781 24.40632629394531 24.40632629394531 C 20.94404602050781 27.86860656738281 17.80078125 31.67828369140625 15.06379699707031 35.72952270507813 C 12.30094909667969 39.81908416748047 9.928024291992188 44.19084930419922 8.010940551757813 48.72336578369141 C 4.022369384765625 58.15336608886719 2 68.17169189453125 2 78.5 C 2 88.82830810546875 4.022369384765625 98.84663391113281 8.010940551757813 108.2766265869141 C 9.928024291992188 112.8091506958008 12.30094909667969 117.180908203125 15.06379699707031 121.2704772949219 C 17.80078125 125.3217163085938 20.94404602050781 129.1313934326172 24.40632629394531 132.5936737060547 C 27.86860656738281 136.0559539794922 31.67828369140625 139.19921875 35.72952270507813 141.9361877441406 C 39.81908416748047 144.6990356445313 44.19084930419922 147.0719757080078 48.72336578369141 148.9890594482422 C 58.15336608886719 152.9776306152344 68.17169189453125 155 78.5 155 C 88.82830810546875 155 98.84663391113281 152.9776306152344 108.2766265869141 148.9890594482422 C 112.8091506958008 147.0719757080078 117.180908203125 144.6990356445313 121.2704772949219 141.9361877441406 C 125.3217163085938 139.19921875 129.1313934326172 136.0559539794922 132.5936737060547 132.5936737060547 C 136.0559539794922 129.1313934326172 139.19921875 125.3217163085938 141.9361877441406 121.2704772949219 C 144.6990356445313 117.180908203125 147.0719757080078 112.8091506958008 148.9890594482422 108.2766265869141 C 152.9776306152344 98.84663391113281 155 88.82830810546875 155 78.5 C 155 68.17169189453125 152.9776306152344 58.15336608886719 148.9890594482422 48.72336578369141 C 147.0719757080078 44.19084930419922 144.6990356445313 39.81908416748047 141.9361877441406 35.72952270507813 C 139.19921875 31.67828369140625 136.0559539794922 27.86860656738281 132.5936737060547 24.40632629394531 C 129.1313934326172 20.94404602050781 125.3217163085938 17.80078125 121.2704772949219 15.06379699707031 C 117.180908203125 12.30094909667969 112.8091506958008 9.928024291992188 108.2766265869141 8.010940551757813 C 98.84663391113281 4.022369384765625 88.82830810546875 2 78.5 2 M 78.5 0 C 121.8543472290039 0 157 35.14565277099609 157 78.5 C 157 121.8543472290039 121.8543472290039 157 78.5 157 C 35.14565277099609 157 0 121.8543472290039 0 78.5 C 0 35.14565277099609 35.14565277099609 0 78.5 0 Z" stroke="none" fill="#fff"/>
      </g>
    </g>
    <g id="Grupo_17808" data-name="Grupo 17808" transform="translate(94.531 2051)">
      <ellipse id="Elipse_948" data-name="Elipse 948" cx="28" cy="28.5" rx="28" ry="28.5" transform="translate(398.469 203)" fill="#e9eaeb" style="mix-blend-mode: luminosity;isolation: isolate"/>
      <path id="Trazado_45060" data-name="Trazado 45060" d="M458.841,209H423.61a2.609,2.609,0,0,0-2.61,2.61v62.633a2.609,2.609,0,0,0,2.61,2.61h43.06a2.609,2.609,0,0,0,2.61-2.61v-54.8Z" transform="translate(7.139 1.829)" fill="#fff"/>
      <path id="Trazado_45061" data-name="Trazado 45061" d="M450.3,209H449v11.744h11.744v-1.3Z" transform="translate(15.675 1.829)" fill="#fae7b7"/>
      <path id="Trazado_45062" data-name="Trazado 45062" d="M466.975,278.462h-43.06A3.919,3.919,0,0,1,420,274.547v-3.915h2.61v3.915a1.306,1.306,0,0,0,1.3,1.3h43.06a1.306,1.306,0,0,0,1.3-1.3V220.284l-9.674-9.674H423.915a1.306,1.306,0,0,0-1.3,1.3v13.049H420V211.915A3.919,3.919,0,0,1,423.915,208h35.231a1.3,1.3,0,0,1,.923.382l10.439,10.439a1.3,1.3,0,0,1,.382.923v54.8A3.919,3.919,0,0,1,466.975,278.462Z" transform="translate(6.835 1.524)" fill="#2a5082"/>
      <path id="Trazado_45063" data-name="Trazado 45063" d="M457.134,221.134H449.3a1.3,1.3,0,0,1-1.3-1.3V212h2.61v6.524h6.524Z" transform="translate(15.371 2.744)" fill="#2a5082"/>
      <rect id="Rectángulo_4355" data-name="Rectángulo 4355" width="31" height="40" transform="translate(440.469 270) rotate(180)" fill="#fff"/>
      <rect id="Rectángulo_4356" data-name="Rectángulo 4356" width="31" height="12" transform="translate(440.469 242) rotate(180)" fill="#fae7b7"/>
      <path id="Trazado_45064" data-name="Trazado 45064" d="M439.926,264.755H406V223h33.926Zm-31.316-2.61h28.707V225.61H408.61Z" transform="translate(2.567 6.097)" fill="#2a5082"/>
      <rect id="Rectángulo_4357" data-name="Rectángulo 4357" width="31" height="2" transform="translate(409.469 241)" fill="#2a5082"/>
      <rect id="Rectángulo_4358" data-name="Rectángulo 4358" width="31" height="3" transform="translate(409.469 250)" fill="#2a5082"/>
      <rect id="Rectángulo_4359" data-name="Rectángulo 4359" width="19" height="4" transform="translate(421.469 258)" fill="#2a5082"/>
      <rect id="Rectángulo_4360" data-name="Rectángulo 4360" width="3" height="28" transform="translate(429.469 242)" fill="#2a5082"/>
      <rect id="Rectángulo_4361" data-name="Rectángulo 4361" width="2" height="28" transform="translate(419.469 242)" fill="#2a5082"/>
      <path id="Trazado_45065" data-name="Trazado 45065" d="M440.872,242.744a5.872,5.872,0,1,1,5.872-5.872A5.879,5.879,0,0,1,440.872,242.744Zm0-9.134a3.262,3.262,0,1,0,3.262,3.262A3.266,3.266,0,0,0,440.872,233.61Z" transform="translate(11.407 8.536)" fill="#2a5082"/>
      <path id="Trazado_45066" data-name="Trazado 45066" d="M451.872,251.744a5.872,5.872,0,1,1,5.872-5.872A5.879,5.879,0,0,1,451.872,251.744Zm0-9.134a3.262,3.262,0,1,0,3.262,3.262A3.266,3.266,0,0,0,451.872,242.61Z" transform="translate(14.761 11.279)" fill="#2a5082"/>
      <path id="Trazado_45067" data-name="Trazado 45067" d="M438.3,254.487a1.306,1.306,0,0,1-.983-2.165l18.268-20.878a1.306,1.306,0,0,1,1.965,1.72l-18.268,20.878A1.307,1.307,0,0,1,438.3,254.487Z" transform="translate(12.017 8.536)" fill="#2a5082"/>
    </g>
  </g>
</svg>
