<svg xmlns="http://www.w3.org/2000/svg" width="157" height="157" viewBox="0 0 157 157">
  <g id="Grupo_18001" data-name="Grupo 18001" transform="translate(-443 -1816)">
    <circle id="Elipse_952" data-name="Elipse 952" cx="78.5" cy="78.5" r="78.5" transform="translate(443 1816)" fill="#fff7e2"/>
    <g id="Grupo_17814" data-name="Grupo 17814" transform="translate(475.701 1844.601)">
      <path id="Trazado_45078" data-name="Trazado 45078" d="M324.742,226.742,317,219v26.321h7.742Z" transform="translate(-282.657 -193.076)" fill="#ffc558"/>
      <circle id="Elipse_950" data-name="Elipse 950" cx="26.5" cy="26.5" r="26.5" transform="translate(0.299 41.399)" fill="#e9eaeb"/>
      <path id="Trazado_45079" data-name="Trazado 45079" d="M334.225,286.933,311,254.418h9.29V225l26.321,27.87v1.548H357.45Z" transform="translate(-285.947 -189.786)" fill="#fae7b7"/>
      <path id="Trazado_45080" data-name="Trazado 45080" d="M334.773,293.416a1.544,1.544,0,0,1-1.259-.649L310.29,260.252a1.546,1.546,0,0,1,1.259-2.448h7.742V216h3.1v43.353a1.548,1.548,0,0,1-1.548,1.548h-6.281l20.216,28.3,20.216-28.3h-7.83a1.548,1.548,0,0,1-1.548-1.548V243.87h3.1V257.8H358a1.546,1.546,0,0,1,1.259,2.448l-23.225,32.515A1.544,1.544,0,0,1,334.773,293.416Z" transform="translate(-286.496 -194.721)" fill="#2a5082"/>
      <rect id="Rectángulo_4363" data-name="Rectángulo 4363" width="3" height="3" transform="translate(33.299 15.399)" fill="#2a5082"/>
      <rect id="Rectángulo_4364" data-name="Rectángulo 4364" width="3" height="4" transform="translate(33.299 8.399)" fill="#2a5082"/>
      <rect id="Rectángulo_4365" data-name="Rectángulo 4365" width="5" height="20" transform="translate(24.299 16.399)" fill="#2a5082"/>
      <rect id="Rectángulo_4366" data-name="Rectángulo 4366" width="3" height="16" transform="translate(59.299 0.399)" fill="#2a5082"/>
      <path id="Trazado_45081" data-name="Trazado 45081" d="M342.967,236.935a6.967,6.967,0,1,1,6.967-6.967A6.976,6.976,0,0,1,342.967,236.935Zm0-10.838a3.871,3.871,0,1,0,3.871,3.871A3.875,3.875,0,0,0,342.967,226.1Z" transform="translate(-272.239 -190.883)" fill="#2a5082"/>
      <path id="Trazado_45082" data-name="Trazado 45082" d="M331.967,227.935a6.967,6.967,0,1,1,6.967-6.967A6.976,6.976,0,0,1,331.967,227.935Zm0-10.838a3.871,3.871,0,1,0,3.871,3.871A3.875,3.875,0,0,0,331.967,217.1Z" transform="translate(-278.271 -195.818)" fill="#2a5082"/>
      <path id="Trazado_45083" data-name="Trazado 45083" d="M328.548,241.87a1.55,1.55,0,0,1-1.166-2.569l21.676-24.773a1.549,1.549,0,0,1,2.332,2.041l-21.676,24.773A1.551,1.551,0,0,1,328.548,241.87Z" transform="translate(-277.174 -195.818)" fill="#2a5082"/>
      <g id="Grupo_17811" data-name="Grupo 17811" transform="translate(73.5 49.21)">
        <path id="Trazado_45084" data-name="Trazado 45084" d="M348.03,244.222l-5.74-5.74,2.189-2.189,3.55,3.55,3.55-3.55,2.189,2.189Z" transform="translate(-342.29 -232.804)" fill="#bcc0c4"/>
        <rect id="Rectángulo_4367" data-name="Rectángulo 4367" width="3" height="9" transform="translate(4.799 0.189)" fill="#bcc0c4"/>
      </g>
      <g id="Grupo_17812" data-name="Grupo 17812" transform="translate(14.664 44.816)">
        <path id="Trazado_45085" data-name="Trazado 45085" d="M310.03,241.222l-5.74-5.74,2.189-2.189,3.55,3.55,3.55-3.55,2.189,2.189Z" transform="translate(-304.29 -230.055)" fill="#bcc0c4"/>
        <rect id="Rectángulo_4368" data-name="Rectángulo 4368" width="4" height="9" transform="translate(3.635 -0.418)" fill="#bcc0c4"/>
      </g>
      <g id="Grupo_17813" data-name="Grupo 17813" transform="translate(17.76 0)">
        <path id="Trazado_45086" data-name="Trazado 45086" d="M312.03,212.222l-5.74-5.74,2.189-2.189,3.55,3.55,3.55-3.55,2.189,2.189Z" transform="translate(-306.29 -201.14)" fill="#bcc0c4"/>
        <rect id="Rectángulo_4369" data-name="Rectángulo 4369" width="2" height="8" transform="translate(4.539 0.399)" fill="#bcc0c4"/>
      </g>
    </g>
  </g>
</svg>
