<svg xmlns="http://www.w3.org/2000/svg" xmlns:xlink="http://www.w3.org/1999/xlink" width="175" height="175" viewBox="0 0 175 175">
  <defs>
    <radialGradient id="radial-gradient" cx="0.5" cy="0.5" r="0.5" gradientUnits="objectBoundingBox">
      <stop offset="0" stop-color="#fff"/>
      <stop offset="1" stop-color="#fae7b7"/>
    </radialGradient>
    <filter id="Trazado_54424" x="0" y="0" width="175" height="175" filterUnits="userSpaceOnUse">
      <feOffset dy="3" input="SourceAlpha"/>
      <feGaussianBlur stdDeviation="3" result="blur"/>
      <feFlood flood-opacity="0.161"/>
      <feComposite operator="in" in2="blur"/>
      <feComposite in="SourceGraphic"/>
    </filter>
  </defs>
  <g id="Grupo_24616" data-name="Grupo 24616" transform="translate(-445 -2662)">
    <g transform="matrix(1, 0, 0, 1, 445, 2662)" filter="url(#Trazado_54424)">
      <g id="Trazado_54424-2" data-name="Trazado 54424" transform="translate(9 6)" fill="url(#radial-gradient)">
        <path d="M 78.5 156 C 68.03711700439453 156 57.88776016235352 153.9510650634766 48.33382034301758 149.9100799560547 C 43.74184036254883 147.9678344726563 39.31280136108398 145.5638275146484 35.16971969604492 142.7648162841797 C 31.06574058532715 139.9922180175781 27.20652008056641 136.8080596923828 23.69922065734863 133.30078125 C 20.19194030761719 129.7935028076172 17.00778007507324 125.9342575073242 14.23519992828369 121.8302993774414 C 11.43618011474609 117.6872177124023 9.032159805297852 113.2581787109375 7.089920043945313 108.6661987304688 C 3.048939943313599 99.11224365234375 1 88.96288299560547 1 78.5 C 1 68.03711700439453 3.048939943313599 57.88776016235352 7.089920043945313 48.33382034301758 C 9.032159805297852 43.74184036254883 11.43618011474609 39.31280136108398 14.23519992828369 35.16971969604492 C 17.00778007507324 31.06574058532715 20.19194030761719 27.20652008056641 23.69922065734863 23.69922065734863 C 27.20652008056641 20.19194030761719 31.06574058532715 17.00778007507324 35.16971969604492 14.23519992828369 C 39.31280136108398 11.43618011474609 43.74184036254883 9.032159805297852 48.33382034301758 7.089920043945313 C 57.88776016235352 3.048939943313599 68.03711700439453 1 78.5 1 C 88.96288299560547 1 99.11224365234375 3.048939943313599 108.6661987304688 7.089920043945313 C 113.2581787109375 9.032159805297852 117.6872177124023 11.43618011474609 121.8302993774414 14.23519992828369 C 125.9342575073242 17.00778007507324 129.7935028076172 20.19194030761719 133.30078125 23.69922065734863 C 136.8080596923828 27.20652008056641 139.9922180175781 31.06574058532715 142.7648162841797 35.16971969604492 C 145.5638275146484 39.31280136108398 147.9678344726563 43.74184036254883 149.9100799560547 48.33382034301758 C 153.9510650634766 57.88776016235352 156 68.03711700439453 156 78.5 C 156 88.96288299560547 153.9510650634766 99.11225891113281 149.9100799560547 108.6661987304688 C 147.9678344726563 113.2581787109375 145.5638275146484 117.6872177124023 142.7648162841797 121.8302993774414 C 139.9922180175781 125.9342575073242 136.8080596923828 129.7935028076172 133.30078125 133.30078125 C 129.7935028076172 136.8080596923828 125.9342575073242 139.9922180175781 121.8302993774414 142.7648162841797 C 117.6872177124023 145.5638275146484 113.2581787109375 147.9678344726563 108.6661987304688 149.9100799560547 C 99.11225891113281 153.9510650634766 88.96288299560547 156 78.5 156 Z" stroke="none"/>
        <path d="M 78.5 2 C 68.17169189453125 2 58.15336608886719 4.022369384765625 48.72336578369141 8.010940551757813 C 44.19084930419922 9.928024291992188 39.81908416748047 12.30094909667969 35.72952270507813 15.06379699707031 C 31.67828369140625 17.80078125 27.86860656738281 20.94404602050781 24.40632629394531 24.40632629394531 C 20.94404602050781 27.86860656738281 17.80078125 31.67828369140625 15.06379699707031 35.72952270507813 C 12.30094909667969 39.81908416748047 9.928024291992188 44.19084930419922 8.010940551757813 48.72336578369141 C 4.022369384765625 58.15336608886719 2 68.17169189453125 2 78.5 C 2 88.82830810546875 4.022369384765625 98.84663391113281 8.010940551757813 108.2766265869141 C 9.928024291992188 112.8091506958008 12.30094909667969 117.180908203125 15.06379699707031 121.2704772949219 C 17.80078125 125.3217163085938 20.94404602050781 129.1313934326172 24.40632629394531 132.5936737060547 C 27.86860656738281 136.0559539794922 31.67828369140625 139.19921875 35.72952270507813 141.9361877441406 C 39.81908416748047 144.6990356445313 44.19084930419922 147.0719757080078 48.72336578369141 148.9890594482422 C 58.15336608886719 152.9776306152344 68.17169189453125 155 78.5 155 C 88.82830810546875 155 98.84663391113281 152.9776306152344 108.2766265869141 148.9890594482422 C 112.8091506958008 147.0719757080078 117.180908203125 144.6990356445313 121.2704772949219 141.9361877441406 C 125.3217163085938 139.19921875 129.1313934326172 136.0559539794922 132.5936737060547 132.5936737060547 C 136.0559539794922 129.1313934326172 139.19921875 125.3217163085938 141.9361877441406 121.2704772949219 C 144.6990356445313 117.180908203125 147.0719757080078 112.8091506958008 148.9890594482422 108.2766265869141 C 152.9776306152344 98.84663391113281 155 88.82830810546875 155 78.5 C 155 68.17169189453125 152.9776306152344 58.15336608886719 148.9890594482422 48.72336578369141 C 147.0719757080078 44.19084930419922 144.6990356445313 39.81908416748047 141.9361877441406 35.72952270507813 C 139.19921875 31.67828369140625 136.0559539794922 27.86860656738281 132.5936737060547 24.40632629394531 C 129.1313934326172 20.94404602050781 125.3217163085938 17.80078125 121.2704772949219 15.06379699707031 C 117.180908203125 12.30094909667969 112.8091506958008 9.928024291992188 108.2766265869141 8.010940551757813 C 98.84663391113281 4.022369384765625 88.82830810546875 2 78.5 2 M 78.5 0 C 121.8543472290039 0 157 35.14565277099609 157 78.5 C 157 121.8543472290039 121.8543472290039 157 78.5 157 C 35.14565277099609 157 0 121.8543472290039 0 78.5 C 0 35.14565277099609 35.14565277099609 0 78.5 0 Z" stroke="none" fill="#fff"/>
      </g>
    </g>
    <g id="Grupo_17799" data-name="Grupo 17799" transform="translate(418 2604.751)">
      <path id="Trazado_55804" data-name="Trazado 55804" d="M26,0A25.754,25.754,0,0,1,52,25.5,25.754,25.754,0,0,1,26,51,25.754,25.754,0,0,1,0,25.5,25.754,25.754,0,0,1,26,0Z" transform="translate(104.702 98.249)" fill="#e9eaeb" style="mix-blend-mode: luminosity;isolation: isolate"/>
      <circle id="Elipse_944" data-name="Elipse 944" cx="26" cy="26" r="26" transform="translate(82.702 117.249)" fill="#fff"/>
      <path id="Trazado_45032" data-name="Trazado 45032" d="M141.661,147.014a34.141,34.141,0,1,0-28.384,26.953l-1-8.144a26.307,26.307,0,0,1-4.1.321,25.944,25.944,0,1,1,25.395-20.5Z" transform="translate(0.367 2.935)" fill="#fae7b7"/>
      <rect id="Rectángulo_4339" data-name="Rectángulo 4339" width="2" height="4" transform="translate(107.702 121.249)" fill="#2a5082"/>
      <rect id="Rectángulo_4340" data-name="Rectángulo 4340" width="4" height="2" transform="translate(86.702 142.249)" fill="#2a5082"/>
      <rect id="Rectángulo_4341" data-name="Rectángulo 4341" width="5" height="2" transform="translate(125.702 142.249)" fill="#2a5082"/>
      <path id="Trazado_45033" data-name="Trazado 45033" d="M101.915,138.7l-11.7-14.62,2.134-1.707,10.175,12.719,9.9-6.19,1.448,2.319Z" transform="translate(6.318 8.944)" fill="#2a5082"/>
      <path id="Trazado_45034" data-name="Trazado 45034" d="M106.338,165.677a27.309,27.309,0,1,1,26.731-21.584,1.367,1.367,0,1,1-2.674-.573,24.577,24.577,0,1,0-20.172,19.118,1.367,1.367,0,0,1,.428,2.7A27.539,27.539,0,0,1,106.338,165.677Z" transform="translate(2.201 4.77)" fill="#2a5082"/>
      <path id="Trazado_45035" data-name="Trazado 45035" d="M108.54,176.08a35.5,35.5,0,1,1,34.828-28.425,1.367,1.367,0,0,1-2.679-.545,32.774,32.774,0,1,0-27.247,25.873,1.367,1.367,0,0,1,.4,2.7A36.02,36.02,0,0,1,108.54,176.08Z" transform="translate(0 2.568)" fill="#2a5082"/>
      <g id="Grupo_17798" data-name="Grupo 17798" transform="translate(116.741 155.41)">
        <path id="Trazado_45036" data-name="Trazado 45036" d="M111.835,153.669a6.835,6.835,0,1,1,6.835-6.835A6.842,6.842,0,0,1,111.835,153.669Zm0-10.935a4.1,4.1,0,1,0,4.1,4.1A4.106,4.106,0,0,0,111.835,142.734Z" transform="translate(-105 -139.999)" fill="#2a5082"/>
        <path id="Trazado_45037" data-name="Trazado 45037" d="M123.835,163.669a6.835,6.835,0,1,1,6.835-6.835A6.842,6.842,0,0,1,123.835,163.669Zm0-10.935a4.1,4.1,0,1,0,4.1,4.1A4.106,4.106,0,0,0,123.835,152.734Z" transform="translate(-100.597 -136.33)" fill="#2a5082"/>
        <path id="Trazado_45038" data-name="Trazado 45038" d="M108.367,167.338a1.367,1.367,0,0,1-1.022-2.276l21.871-24.6a1.368,1.368,0,1,1,2.045,1.818l-21.871,24.6A1.367,1.367,0,0,1,108.367,167.338Z" transform="translate(-104.266 -140)" fill="#2a5082"/>
      </g>
    </g>
  </g>
</svg>
