<svg xmlns="http://www.w3.org/2000/svg" width="157" height="157" viewBox="0 0 157 157">
  <g id="Grupo_18003" data-name="Grupo 18003" transform="translate(-439 -2218)">
    <circle id="Elipse_954" data-name="Elipse 954" cx="78.5" cy="78.5" r="78.5" transform="translate(439 2218)" fill="#fff7e2"/>
    <g id="Grupo_17808" data-name="Grupo 17808" transform="translate(76.531 2051)">
      <ellipse id="Elipse_948" data-name="Elipse 948" cx="28" cy="28.5" rx="28" ry="28.5" transform="translate(398.469 203)" fill="#e9eaeb"/>
      <path id="Trazado_45060" data-name="Trazado 45060" d="M458.841,209H423.61a2.609,2.609,0,0,0-2.61,2.61v62.633a2.609,2.609,0,0,0,2.61,2.61h43.06a2.609,2.609,0,0,0,2.61-2.61v-54.8Z" transform="translate(7.139 1.829)" fill="#fff"/>
      <path id="Trazado_45061" data-name="Trazado 45061" d="M450.3,209H449v11.744h11.744v-1.3Z" transform="translate(15.675 1.829)" fill="#fae7b7"/>
      <path id="Trazado_45062" data-name="Trazado 45062" d="M466.975,278.462h-43.06A3.919,3.919,0,0,1,420,274.547v-3.915h2.61v3.915a1.306,1.306,0,0,0,1.3,1.3h43.06a1.306,1.306,0,0,0,1.3-1.3V220.284l-9.674-9.674H423.915a1.306,1.306,0,0,0-1.3,1.3v13.049H420V211.915A3.919,3.919,0,0,1,423.915,208h35.231a1.3,1.3,0,0,1,.923.382l10.439,10.439a1.3,1.3,0,0,1,.382.923v54.8A3.919,3.919,0,0,1,466.975,278.462Z" transform="translate(6.835 1.524)" fill="#2a5082"/>
      <path id="Trazado_45063" data-name="Trazado 45063" d="M457.134,221.134H449.3a1.3,1.3,0,0,1-1.3-1.3V212h2.61v6.524h6.524Z" transform="translate(15.371 2.744)" fill="#2a5082"/>
      <rect id="Rectángulo_4355" data-name="Rectángulo 4355" width="31" height="40" transform="translate(440.469 270) rotate(180)" fill="#fff"/>
      <rect id="Rectángulo_4356" data-name="Rectángulo 4356" width="31" height="12" transform="translate(440.469 242) rotate(180)" fill="#fae7b7"/>
      <path id="Trazado_45064" data-name="Trazado 45064" d="M439.926,264.755H406V223h33.926Zm-31.316-2.61h28.707V225.61H408.61Z" transform="translate(2.567 6.097)" fill="#2a5082"/>
      <rect id="Rectángulo_4357" data-name="Rectángulo 4357" width="31" height="2" transform="translate(409.469 241)" fill="#2a5082"/>
      <rect id="Rectángulo_4358" data-name="Rectángulo 4358" width="31" height="3" transform="translate(409.469 250)" fill="#2a5082"/>
      <rect id="Rectángulo_4359" data-name="Rectángulo 4359" width="19" height="4" transform="translate(421.469 258)" fill="#2a5082"/>
      <rect id="Rectángulo_4360" data-name="Rectángulo 4360" width="3" height="28" transform="translate(429.469 242)" fill="#2a5082"/>
      <rect id="Rectángulo_4361" data-name="Rectángulo 4361" width="2" height="28" transform="translate(419.469 242)" fill="#2a5082"/>
      <path id="Trazado_45065" data-name="Trazado 45065" d="M440.872,242.744a5.872,5.872,0,1,1,5.872-5.872A5.879,5.879,0,0,1,440.872,242.744Zm0-9.134a3.262,3.262,0,1,0,3.262,3.262A3.266,3.266,0,0,0,440.872,233.61Z" transform="translate(11.407 8.536)" fill="#2a5082"/>
      <path id="Trazado_45066" data-name="Trazado 45066" d="M451.872,251.744a5.872,5.872,0,1,1,5.872-5.872A5.879,5.879,0,0,1,451.872,251.744Zm0-9.134a3.262,3.262,0,1,0,3.262,3.262A3.266,3.266,0,0,0,451.872,242.61Z" transform="translate(14.761 11.279)" fill="#2a5082"/>
      <path id="Trazado_45067" data-name="Trazado 45067" d="M438.3,254.487a1.306,1.306,0,0,1-.983-2.165l18.268-20.878a1.306,1.306,0,0,1,1.965,1.72l-18.268,20.878A1.307,1.307,0,0,1,438.3,254.487Z" transform="translate(12.017 8.536)" fill="#2a5082"/>
    </g>
  </g>
</svg>
