<svg xmlns="http://www.w3.org/2000/svg" xmlns:xlink="http://www.w3.org/1999/xlink" width="175" height="175" viewBox="0 0 175 175">
  <defs>
    <radialGradient id="radial-gradient" cx="0.5" cy="0.5" r="0.5" gradientUnits="objectBoundingBox">
      <stop offset="0" stop-color="#fff"/>
      <stop offset="1" stop-color="#fae7b7"/>
    </radialGradient>
    <filter id="Trazado_54421" x="0" y="0" width="175" height="175" filterUnits="userSpaceOnUse">
      <feOffset dy="3" input="SourceAlpha"/>
      <feGaussianBlur stdDeviation="3" result="blur"/>
      <feFlood flood-opacity="0.161"/>
      <feComposite operator="in" in2="blur"/>
      <feComposite in="SourceGraphic"/>
    </filter>
  </defs>
  <g id="Grupo_24613" data-name="Grupo 24613" transform="translate(-445 -2008)">
    <g transform="matrix(1, 0, 0, 1, 445, 2008)" filter="url(#Trazado_54421)">
      <g id="Trazado_54421-2" data-name="Trazado 54421" transform="translate(9 6)" fill="url(#radial-gradient)">
        <path d="M 78.5 156 C 68.03711700439453 156 57.88776016235352 153.9510650634766 48.33382034301758 149.9100799560547 C 43.74184036254883 147.9678344726563 39.31280136108398 145.5638275146484 35.16971969604492 142.7648162841797 C 31.06574058532715 139.9922180175781 27.20652008056641 136.8080596923828 23.69922065734863 133.30078125 C 20.19194030761719 129.7935028076172 17.00778007507324 125.9342575073242 14.23519992828369 121.8302993774414 C 11.43618011474609 117.6872177124023 9.032159805297852 113.2581787109375 7.089920043945313 108.6661987304688 C 3.048939943313599 99.11224365234375 1 88.96288299560547 1 78.5 C 1 68.03711700439453 3.048939943313599 57.88776016235352 7.089920043945313 48.33382034301758 C 9.032159805297852 43.74184036254883 11.43618011474609 39.31280136108398 14.23519992828369 35.16971969604492 C 17.00778007507324 31.06574058532715 20.19194030761719 27.20652008056641 23.69922065734863 23.69922065734863 C 27.20652008056641 20.19194030761719 31.06574058532715 17.00778007507324 35.16971969604492 14.23519992828369 C 39.31280136108398 11.43618011474609 43.74184036254883 9.032159805297852 48.33382034301758 7.089920043945313 C 57.88776016235352 3.048939943313599 68.03711700439453 1 78.5 1 C 88.96288299560547 1 99.11224365234375 3.048939943313599 108.6661987304688 7.089920043945313 C 113.2581787109375 9.032159805297852 117.6872177124023 11.43618011474609 121.8302993774414 14.23519992828369 C 125.9342575073242 17.00778007507324 129.7935028076172 20.19194030761719 133.30078125 23.69922065734863 C 136.8080596923828 27.20652008056641 139.9922180175781 31.06574058532715 142.7648162841797 35.16971969604492 C 145.5638275146484 39.31280136108398 147.9678344726563 43.74184036254883 149.9100799560547 48.33382034301758 C 153.9510650634766 57.88776016235352 156 68.03711700439453 156 78.5 C 156 88.96288299560547 153.9510650634766 99.11225891113281 149.9100799560547 108.6661987304688 C 147.9678344726563 113.2581787109375 145.5638275146484 117.6872177124023 142.7648162841797 121.8302993774414 C 139.9922180175781 125.9342575073242 136.8080596923828 129.7935028076172 133.30078125 133.30078125 C 129.7935028076172 136.8080596923828 125.9342575073242 139.9922180175781 121.8302993774414 142.7648162841797 C 117.6872177124023 145.5638275146484 113.2581787109375 147.9678344726563 108.6661987304688 149.9100799560547 C 99.11225891113281 153.9510650634766 88.96288299560547 156 78.5 156 Z" stroke="none"/>
        <path d="M 78.5 2 C 68.17169189453125 2 58.15336608886719 4.022369384765625 48.72336578369141 8.010940551757813 C 44.19084930419922 9.928024291992188 39.81908416748047 12.30094909667969 35.72952270507813 15.06379699707031 C 31.67828369140625 17.80078125 27.86860656738281 20.94404602050781 24.40632629394531 24.40632629394531 C 20.94404602050781 27.86860656738281 17.80078125 31.67828369140625 15.06379699707031 35.72952270507813 C 12.30094909667969 39.81908416748047 9.928024291992188 44.19084930419922 8.010940551757813 48.72336578369141 C 4.022369384765625 58.15336608886719 2 68.17169189453125 2 78.5 C 2 88.82830810546875 4.022369384765625 98.84663391113281 8.010940551757813 108.2766265869141 C 9.928024291992188 112.8091506958008 12.30094909667969 117.180908203125 15.06379699707031 121.2704772949219 C 17.80078125 125.3217163085938 20.94404602050781 129.1313934326172 24.40632629394531 132.5936737060547 C 27.86860656738281 136.0559539794922 31.67828369140625 139.19921875 35.72952270507813 141.9361877441406 C 39.81908416748047 144.6990356445313 44.19084930419922 147.0719757080078 48.72336578369141 148.9890594482422 C 58.15336608886719 152.9776306152344 68.17169189453125 155 78.5 155 C 88.82830810546875 155 98.84663391113281 152.9776306152344 108.2766265869141 148.9890594482422 C 112.8091506958008 147.0719757080078 117.180908203125 144.6990356445313 121.2704772949219 141.9361877441406 C 125.3217163085938 139.19921875 129.1313934326172 136.0559539794922 132.5936737060547 132.5936737060547 C 136.0559539794922 129.1313934326172 139.19921875 125.3217163085938 141.9361877441406 121.2704772949219 C 144.6990356445313 117.180908203125 147.0719757080078 112.8091506958008 148.9890594482422 108.2766265869141 C 152.9776306152344 98.84663391113281 155 88.82830810546875 155 78.5 C 155 68.17169189453125 152.9776306152344 58.15336608886719 148.9890594482422 48.72336578369141 C 147.0719757080078 44.19084930419922 144.6990356445313 39.81908416748047 141.9361877441406 35.72952270507813 C 139.19921875 31.67828369140625 136.0559539794922 27.86860656738281 132.5936737060547 24.40632629394531 C 129.1313934326172 20.94404602050781 125.3217163085938 17.80078125 121.2704772949219 15.06379699707031 C 117.180908203125 12.30094909667969 112.8091506958008 9.928024291992188 108.2766265869141 8.010940551757813 C 98.84663391113281 4.022369384765625 88.82830810546875 2 78.5 2 M 78.5 0 C 121.8543472290039 0 157 35.14565277099609 157 78.5 C 157 121.8543472290039 121.8543472290039 157 78.5 157 C 35.14565277099609 157 0 121.8543472290039 0 78.5 C 0 35.14565277099609 35.14565277099609 0 78.5 0 Z" stroke="none" fill="#fff"/>
      </g>
    </g>
    <g id="Grupo_17807" data-name="Grupo 17807" transform="translate(488.58 2043.202)">
      <circle id="Elipse_946" data-name="Elipse 946" cx="36" cy="36" r="36" transform="translate(0.42 -0.202)" fill="#e9eaeb" style="mix-blend-mode: luminosity;isolation: isolate"/>
      <ellipse id="Elipse_947" data-name="Elipse 947" cx="12.5" cy="11.5" rx="12.5" ry="11.5" transform="translate(30.42 14.798)" fill="#fae7b7"/>
      <path id="Trazado_45052" data-name="Trazado 45052" d="M214.188,341.377a13.188,13.188,0,1,1,13.188-13.188A13.2,13.2,0,0,1,214.188,341.377Zm0-23.446a10.258,10.258,0,1,0,10.258,10.258A10.27,10.27,0,0,0,214.188,317.931Z" transform="translate(-171.296 -301.832)" fill="#2a5082"/>
      <path id="Trazado_45053" data-name="Trazado 45053" d="M222.973,330c-4.6,0-12.454,1.678-17.519,4.878-5.124-4.2-11.8-4.85-12.818-3.568-.862,1.084,1.836,5.794,3.678,8.993a17.535,17.535,0,0,0-6.112,7.381,15.125,15.125,0,0,1-6.621,1.139c-2.57-.018-1.413,7.1.948,11.6,2.154,4.107,16.08,12.567,17.927,12.889l1.465,12.368h4.4l3.376-7.39a50,50,0,0,0,12.743,1.528c4.311,0,8.852-.091,13.083-1.377l4.5,7.239h4.4l2.819-14.142c4.572-4.371,7.438-9.7,7.438-16.631C256.676,341.045,240.134,330,222.973,330Z" transform="translate(-180.08 -294.852)" fill="#fff"/>
      <path id="Trazado_45054" data-name="Trazado 45054" d="M248.086,387.615h-6.413l-4.349-7a49.275,49.275,0,0,1-12.421,1.134,56.217,56.217,0,0,1-11.927-1.251l-3.25,7.113h-6.641l-1.512-12.774c-4.1-1.8-15.751-9.22-17.876-13.268-1.843-3.518-3.539-9.8-1.926-12.448a2.608,2.608,0,0,1,2.286-1.3,15.234,15.234,0,0,0,5.517-.8,19.041,19.041,0,0,1,5.286-6.66c-3.06-5.4-4.107-7.988-2.906-9.5.61-.768,1.748-1.155,3.408-1.139a19.36,19.36,0,0,1,10.631,3.811A40.018,40.018,0,0,1,223.438,329c18.735,0,35.169,12.325,35.169,26.377,0,6.681-2.472,12.365-7.555,17.365Zm-4.783-2.931h2.38l2.674-13.417.334-.319c4.7-4.5,6.986-9.589,6.986-15.571,0-12.49-15.064-23.446-32.238-23.446a37.88,37.88,0,0,0-15.066,3.656,17.862,17.862,0,0,1,1.369,1.571,1.466,1.466,0,1,1-2.32,1.792,15.379,15.379,0,0,0-2.318-2.4,1.41,1.41,0,0,1-.278-.226c-4.015-3.2-8.879-3.943-10.4-3.62.295,1.558,2.677,5.7,3.621,7.334l.678,1.18-1.125.763a16.05,16.05,0,0,0-5.6,6.766l-.223.5-.5.232a16.374,16.374,0,0,1-7.032,1.276h-.04c-.492,1.058.082,5.649,2.079,9.458,1.877,3.58,15.142,11.7,16.9,12.132l.988.24.193,1.027,1.313,11.074h2.151l3.52-7.7,1.229.378a48.54,48.54,0,0,0,12.312,1.464c4.395,0,8.669-.1,12.657-1.314l1.077-.328Zm-49.189-51.872h0Z" transform="translate(-180.546 -295.317)" fill="#2a5082"/>
      <path id="Trazado_45055" data-name="Trazado 45055" d="M196.4,343.931h-2.931a1.465,1.465,0,1,1,0-2.931H196.4a1.465,1.465,0,1,1,0,2.931Z" transform="translate(-175.485 -289.732)" fill="#2a5082"/>
      <path id="Trazado_45056" data-name="Trazado 45056" d="M241.121,349.381a3.153,3.153,0,0,1-.717-.082,3.33,3.33,0,0,1-2.446-2.32.448.448,0,0,0-.271-.316.269.269,0,0,0-.249.045l-.205.123-3.117,1.546a1.465,1.465,0,0,1-1.3-2.626l3.025-1.5a3.149,3.149,0,0,1,2.778-.368,3.4,3.4,0,0,1,2.142,2.233.424.424,0,0,0,.3.324.272.272,0,0,0,.286-.108l1.306-1.411a1.466,1.466,0,1,1,2.151,1.992l-1.306,1.411A3.225,3.225,0,0,1,241.121,349.381Z" transform="translate(-156.869 -288.469)" fill="#2a5082"/>
      <path id="Trazado_45057" data-name="Trazado 45057" d="M207.862,350.723a5.862,5.862,0,1,1,5.862-5.862A5.868,5.868,0,0,1,207.862,350.723Zm0-8.792a2.931,2.931,0,1,0,2.931,2.931A2.934,2.934,0,0,0,207.862,341.931Z" transform="translate(-170.831 -290.663)" fill="#2a5082"/>
      <path id="Trazado_45058" data-name="Trazado 45058" d="M217.862,358.723a5.862,5.862,0,1,1,5.862-5.862A5.868,5.868,0,0,1,217.862,358.723Zm0-8.792a2.931,2.931,0,1,0,2.931,2.931A2.934,2.934,0,0,0,217.862,349.931Z" transform="translate(-166.177 -286.94)" fill="#2a5082"/>
      <path id="Trazado_45059" data-name="Trazado 45059" d="M205.465,362.446a1.465,1.465,0,0,1-1.112-2.418l17.585-20.515a1.464,1.464,0,1,1,2.224,1.9l-17.585,20.515A1.455,1.455,0,0,1,205.465,362.446Z" transform="translate(-169.9 -290.663)" fill="#2a5082"/>
      <g id="Grupo_17804" data-name="Grupo 17804" transform="translate(11.083 12.132)">
        <rect id="Rectángulo_4343" data-name="Rectángulo 4343" width="4.145" height="2.93" transform="translate(0 10.258) rotate(-45)" fill="#bcc0c4"/>
        <rect id="Rectángulo_4344" data-name="Rectángulo 4344" width="4.145" height="2.93" transform="translate(7.327 2.931) rotate(-45)" fill="#bcc0c4"/>
        <rect id="Rectángulo_4345" data-name="Rectángulo 4345" width="2.93" height="4.145" transform="translate(7.327 9.399) rotate(-45)" fill="#bcc0c4"/>
        <rect id="Rectángulo_4346" data-name="Rectángulo 4346" width="2.93" height="4.145" transform="translate(0 2.072) rotate(-45)" fill="#bcc0c4"/>
      </g>
      <g id="Grupo_17805" data-name="Grupo 17805" transform="translate(76.659 35.675)">
        <rect id="Rectángulo_4347" data-name="Rectángulo 4347" width="3" height="2" transform="translate(2.762 0.123)" fill="#bcc0c4"/>
        <rect id="Rectángulo_4348" data-name="Rectángulo 4348" width="3" height="3" transform="translate(2.762 5.123)" fill="#bcc0c4"/>
        <rect id="Rectángulo_4349" data-name="Rectángulo 4349" width="3" height="3" transform="translate(-0.238 2.123)" fill="#bcc0c4"/>
        <rect id="Rectángulo_4350" data-name="Rectángulo 4350" width="3" height="3" transform="translate(5.762 2.123)" fill="#bcc0c4"/>
      </g>
      <g id="Grupo_17806" data-name="Grupo 17806" transform="translate(65.896 20.428)">
        <rect id="Rectángulo_4351" data-name="Rectángulo 4351" width="3" height="2" transform="translate(3.525 0.371)" fill="#bcc0c4"/>
        <rect id="Rectángulo_4352" data-name="Rectángulo 4352" width="3" height="3" transform="translate(3.525 6.371)" fill="#bcc0c4"/>
        <rect id="Rectángulo_4353" data-name="Rectángulo 4353" width="4" height="4" transform="translate(-0.475 2.371)" fill="#bcc0c4"/>
        <rect id="Rectángulo_4354" data-name="Rectángulo 4354" width="3" height="4" transform="translate(6.525 2.371)" fill="#bcc0c4"/>
      </g>
    </g>
  </g>
</svg>
