<svg xmlns="http://www.w3.org/2000/svg" width="251" height="251" viewBox="0 0 251 251">
  <g id="Grupo_17994" data-name="Grupo 17994" transform="translate(-1104 -3380)">
    <circle id="Elipse_958" data-name="Elipse 958" cx="125.5" cy="125.5" r="125.5" transform="translate(1104 3380)" fill="#fff7e2"/>
    <g id="Grupo_17992" data-name="Grupo 17992" transform="translate(-2418.376 1541.563)">
      <g id="Grupo_17900" data-name="Grupo 17900" transform="translate(3541.376 1960.521)">
        <g id="Grupo_17881" data-name="Grupo 17881" transform="translate(3.985 33.703)">
          <g id="Grupo_17876" data-name="Grupo 17876" transform="translate(6.119 11.33)">
            <path id="Trazado_45184" data-name="Trazado 45184" d="M3571.616,2299.274c-.088-2.341-.206-5.462-.3-7.8.061,1.61.229,5.955.3,7.622C3571.615,2299.155,3571.614,2299.214,3571.616,2299.274Z" transform="translate(-3571.321 -2291.473)" fill="#ffc910"/>
          </g>
          <g id="Grupo_17877" data-name="Grupo 17877" transform="translate(0.001 8.046)">
            <path id="Trazado_45185" data-name="Trazado 45185" d="M3624.079,2281.742q.163,4.319.326,8.638c.084,2.2-2.8,4.523-8.772,6.523-12.893,4.319-35.286,5.5-50.017,2.635-7.911-1.537-12-3.929-12.1-6.481l-.327-8.638c.1,2.552,4.188,4.943,12.1,6.481,14.73,2.863,37.123,1.684,50.017-2.635C3621.276,2286.266,3624.162,2283.943,3624.079,2281.742Z" transform="translate(-3553.19 -2281.742)" fill="#ffab01"/>
          </g>
          <g id="Grupo_17878" data-name="Grupo 17878">
            <path id="Trazado_45186" data-name="Trazado 45186" d="M3611.976,2259.461c14.731,2.864,16.222,8.686,3.328,13.005s-35.286,5.5-50.017,2.635-16.219-8.685-3.326-13S3597.245,2256.6,3611.976,2259.461Zm-42.682,14.3c12.2,2.372,30.75,1.393,41.43-2.183s9.446-8.4-2.755-10.773-30.748-1.393-41.428,2.184-9.446,8.4,2.753,10.771" transform="translate(-3553.187 -2257.897)" fill="#ffc910"/>
          </g>
          <path id="Trazado_45187" data-name="Trazado 45187" d="M3619.92,2263.966c12.2,2.373,13.436,7.194,2.755,10.773s-29.229,4.555-41.43,2.183-13.433-7.195-2.753-10.772S3607.72,2261.595,3619.92,2263.966Z" transform="translate(-3565.138 -2261.061)" fill="#ffab01"/>
          <path id="Trazado_45188" data-name="Trazado 45188" d="M3578.5,2267.225c10.68-3.578,29.228-4.554,41.428-2.184,6.072,1.18,9.425,2.968,9.948,4.907.61-2.341-2.767-4.586-9.948-5.982-12.2-2.371-30.748-1.394-41.428,2.184-5.365,1.8-7.722,3.908-7.193,5.865C3571.729,2270.38,3574.1,2268.7,3578.5,2267.225Z" transform="translate(-3565.142 -2261.061)" fill="#f99b0f"/>
          <path id="Trazado_45189" data-name="Trazado 45189" d="M3563.23,2300.823v8.464a31.82,31.82,0,0,0,9.039,2.894,90.8,90.8,0,0,0,13.175,1.447V2305a91.287,91.287,0,0,1-13.5-1.46A33.1,33.1,0,0,1,3563.23,2300.823Z" transform="translate(-3559.841 -2286.338)" fill="#f99b0f"/>
          <g id="Grupo_17879" data-name="Grupo 17879" transform="translate(17.86 4.995)">
            <path id="Trazado_45190" data-name="Trazado 45190" d="M3638.033,2273.3l-3.233,1.083c1.289.357,1.9.788,1.82,1.289s-.828,1.021-2.259,1.557l-3.329-.647q1.2-.457,1.047-.892c-.1-.293-.643-.532-1.624-.723a13.626,13.626,0,0,0-3.376-.206,12.305,12.305,0,0,0-3.2.573,3.505,3.505,0,0,0-.777.347c-.174.117-.259.237-.259.359-.014.25.587.571,1.81.963.731.233,1.254.421,1.58.564,1.134.5,1.632.992,1.482,1.494s-.917.986-2.315,1.454a26.969,26.969,0,0,1-6.074,1.2,27.509,27.509,0,0,1-6.22-.068l-3.884,1.3-3.1-.6,3.734-1.251q-2.457-.654-2.356-1.556t2.769-1.8l3.205.624q-1.7.625-1.562,1.134t2.129.9a15.6,15.6,0,0,0,3.876.238,14.019,14.019,0,0,0,3.678-.658,6.427,6.427,0,0,0,.933-.38,1.3,1.3,0,0,0,.464-.353q.35-.549-1.663-1.223c-.222-.074-.385-.13-.491-.167q-2.461-.857-2.577-1.61t2.095-1.5a23.463,23.463,0,0,1,5.453-1.069,28.586,28.586,0,0,1,5.93.092l3.2-1.072Z" transform="translate(-3606.115 -2272.701)" fill="#f99b0f"/>
          </g>
          <g id="Grupo_17880" data-name="Grupo 17880" transform="translate(17.86 3.782)">
            <path id="Trazado_45191" data-name="Trazado 45191" d="M3638.033,2269.709l-3.233,1.083c1.289.357,1.9.788,1.82,1.29s-.828,1.021-2.259,1.556l-3.329-.647q1.2-.457,1.047-.892t-1.624-.723a13.626,13.626,0,0,0-3.376-.206,12.285,12.285,0,0,0-3.2.573,3.519,3.519,0,0,0-.777.347c-.174.118-.259.237-.259.36-.014.25.587.57,1.81.962.731.233,1.254.421,1.58.563,1.134.5,1.632.992,1.482,1.495s-.917.986-2.315,1.453a26.914,26.914,0,0,1-6.074,1.205,27.482,27.482,0,0,1-6.22-.068l-3.884,1.3-3.1-.6,3.734-1.251q-2.457-.654-2.356-1.555t2.769-1.8l3.205.623q-1.7.626-1.562,1.135t2.129.9a15.577,15.577,0,0,0,3.876.238,14,14,0,0,0,3.678-.658,6.429,6.429,0,0,0,.933-.379,1.294,1.294,0,0,0,.464-.353q.35-.548-1.663-1.223c-.222-.073-.385-.13-.491-.166q-2.461-.857-2.577-1.61t2.095-1.5a23.438,23.438,0,0,1,5.453-1.069,28.6,28.6,0,0,1,5.93.091l3.2-1.072Z" transform="translate(-3606.115 -2269.106)" fill="#ffc910"/>
          </g>
        </g>
        <g id="Grupo_17887" data-name="Grupo 17887" transform="translate(8.15 22.281)">
          <g id="Grupo_17882" data-name="Grupo 17882" transform="translate(6.12 11.33)">
            <path id="Trazado_45192" data-name="Trazado 45192" d="M3583.96,2265.427c-.089-2.341-.207-5.461-.3-7.8.06,1.61.229,5.956.3,7.623C3583.958,2265.308,3583.958,2265.366,3583.96,2265.427Z" transform="translate(-3583.665 -2257.625)" fill="#ffc910"/>
          </g>
          <g id="Grupo_17883" data-name="Grupo 17883" transform="translate(0.001 8.046)">
            <path id="Trazado_45193" data-name="Trazado 45193" d="M3636.422,2247.894q.163,4.32.326,8.638c.083,2.2-2.8,4.523-8.771,6.522-12.894,4.319-35.286,5.5-50.017,2.635-7.91-1.538-12-3.929-12.1-6.481l-.327-8.638c.1,2.552,4.188,4.944,12.1,6.481,14.73,2.864,37.124,1.684,50.017-2.635C3633.619,2252.417,3636.5,2250.1,3636.422,2247.894Z" transform="translate(-3565.533 -2247.894)" fill="#ffab01"/>
          </g>
          <g id="Grupo_17884" data-name="Grupo 17884">
            <path id="Trazado_45194" data-name="Trazado 45194" d="M3624.318,2225.613c14.731,2.864,16.222,8.686,3.328,13.006s-35.286,5.5-50.017,2.635-16.219-8.685-3.326-13S3609.587,2222.75,3624.318,2225.613Zm-42.682,14.3c12.2,2.372,30.75,1.394,41.43-2.183s9.446-8.4-2.755-10.773-30.748-1.393-41.428,2.185-9.446,8.4,2.753,10.772" transform="translate(-3565.529 -2224.049)" fill="#ffc910"/>
          </g>
          <path id="Trazado_45195" data-name="Trazado 45195" d="M3632.263,2230.119c12.2,2.372,13.435,7.194,2.755,10.773s-29.229,4.555-41.43,2.183-13.432-7.195-2.753-10.771S3620.063,2227.748,3632.263,2230.119Z" transform="translate(-3577.48 -2227.213)" fill="#ffab01"/>
          <path id="Trazado_45196" data-name="Trazado 45196" d="M3590.84,2233.377c10.68-3.577,29.228-4.554,41.428-2.184,6.072,1.18,9.425,2.968,9.948,4.907.61-2.341-2.768-4.586-9.948-5.983-12.2-2.371-30.748-1.393-41.428,2.185-5.365,1.8-7.721,3.908-7.193,5.865C3584.073,2236.532,3586.445,2234.85,3590.84,2233.377Z" transform="translate(-3577.485 -2227.213)" fill="#f99b0f"/>
          <path id="Trazado_45197" data-name="Trazado 45197" d="M3575.572,2266.977v8.463a31.816,31.816,0,0,0,9.039,2.893,90.707,90.707,0,0,0,13.175,1.446v-8.623a91.333,91.333,0,0,1-13.5-1.461A33.1,33.1,0,0,1,3575.572,2266.977Z" transform="translate(-3572.183 -2252.492)" fill="#f99b0f"/>
          <g id="Grupo_17885" data-name="Grupo 17885" transform="translate(17.86 4.996)">
            <path id="Trazado_45198" data-name="Trazado 45198" d="M3650.376,2239.457l-3.234,1.084q1.935.535,1.821,1.289c-.071.5-.828,1.021-2.258,1.557l-3.33-.647q1.2-.457,1.048-.892c-.1-.293-.643-.532-1.624-.724a13.66,13.66,0,0,0-3.376-.205,12.312,12.312,0,0,0-3.2.573,3.545,3.545,0,0,0-.777.347c-.173.118-.259.237-.259.359-.015.25.586.571,1.81.962.731.234,1.255.421,1.58.564,1.133.5,1.631.992,1.482,1.494s-.917.986-2.315,1.454a26.973,26.973,0,0,1-6.074,1.205,27.54,27.54,0,0,1-6.22-.068l-3.883,1.3-3.1-.6,3.734-1.25q-2.457-.654-2.357-1.556t2.769-1.8l3.205.624q-1.7.625-1.563,1.134t2.129.9a15.572,15.572,0,0,0,3.876.239,13.975,13.975,0,0,0,3.677-.659,6.476,6.476,0,0,0,.933-.379,1.306,1.306,0,0,0,.464-.353q.351-.549-1.663-1.223l-.491-.166q-2.461-.857-2.577-1.61t2.094-1.5a23.488,23.488,0,0,1,5.453-1.068,28.566,28.566,0,0,1,5.93.092l3.2-1.072Z" transform="translate(-3618.458 -2238.854)" fill="#f99b0f"/>
          </g>
          <g id="Grupo_17886" data-name="Grupo 17886" transform="translate(17.86 3.783)">
            <path id="Trazado_45199" data-name="Trazado 45199" d="M3650.376,2235.862l-3.234,1.083q1.935.535,1.821,1.29c-.071.5-.828,1.021-2.258,1.557l-3.33-.647q1.2-.458,1.048-.892c-.1-.293-.643-.532-1.624-.724a13.649,13.649,0,0,0-3.376-.205,12.3,12.3,0,0,0-3.2.573,3.488,3.488,0,0,0-.777.347c-.173.118-.259.237-.259.359-.015.25.586.57,1.81.963.731.233,1.255.421,1.58.563,1.133.5,1.631.993,1.482,1.495s-.917.986-2.315,1.454a26.959,26.959,0,0,1-6.074,1.205,27.556,27.556,0,0,1-6.22-.068l-3.883,1.3-3.1-.6,3.734-1.251q-2.457-.655-2.357-1.555t2.769-1.8l3.205.623q-1.7.626-1.563,1.134t2.129.9a15.527,15.527,0,0,0,3.876.238,13.956,13.956,0,0,0,3.677-.658,6.356,6.356,0,0,0,.933-.38,1.278,1.278,0,0,0,.464-.353q.351-.548-1.663-1.223c-.221-.073-.384-.13-.491-.166q-2.461-.857-2.577-1.609t2.094-1.5a23.462,23.462,0,0,1,5.453-1.069,28.618,28.618,0,0,1,5.93.091l3.2-1.072Z" transform="translate(-3618.458 -2235.259)" fill="#ffc910"/>
          </g>
        </g>
        <g id="Grupo_17893" data-name="Grupo 17893" transform="translate(4.973 10.166)">
          <g id="Grupo_17888" data-name="Grupo 17888" transform="translate(6.12 11.33)">
            <path id="Trazado_45200" data-name="Trazado 45200" d="M3574.545,2229.524c-.088-2.341-.206-5.462-.3-7.8.06,1.61.229,5.956.3,7.623C3574.543,2229.4,3574.543,2229.464,3574.545,2229.524Z" transform="translate(-3574.25 -2221.722)" fill="#ffc910"/>
          </g>
          <g id="Grupo_17889" data-name="Grupo 17889" transform="translate(0.001 8.046)">
            <path id="Trazado_45201" data-name="Trazado 45201" d="M3627.007,2211.991q.163,4.319.327,8.638c.083,2.2-2.8,4.523-8.772,6.523-12.894,4.319-35.286,5.5-50.017,2.635-7.91-1.538-12-3.929-12.1-6.482l-.327-8.638c.1,2.552,4.189,4.944,12.1,6.482,14.731,2.864,37.124,1.684,50.017-2.636C3624.2,2216.514,3627.09,2214.192,3627.007,2211.991Z" transform="translate(-3556.118 -2211.991)" fill="#ffab01"/>
          </g>
          <g id="Grupo_17890" data-name="Grupo 17890">
            <path id="Trazado_45202" data-name="Trazado 45202" d="M3614.9,2189.709c14.73,2.864,16.222,8.686,3.328,13.005s-35.286,5.5-50.017,2.636-16.219-8.685-3.326-13S3600.172,2186.846,3614.9,2189.709Zm-42.682,14.3c12.2,2.372,30.75,1.394,41.43-2.183s9.446-8.4-2.756-10.773-30.748-1.393-41.428,2.184-9.446,8.4,2.754,10.772" transform="translate(-3556.114 -2188.146)" fill="#ffc910"/>
          </g>
          <path id="Trazado_45203" data-name="Trazado 45203" d="M3622.848,2194.215c12.2,2.373,13.435,7.195,2.755,10.773s-29.229,4.555-41.43,2.183-13.433-7.195-2.754-10.772S3610.648,2191.845,3622.848,2194.215Z" transform="translate(-3568.066 -2191.31)" fill="#ffab01"/>
          <path id="Trazado_45204" data-name="Trazado 45204" d="M3581.425,2197.474c10.68-3.578,29.229-4.555,41.428-2.183,6.072,1.179,9.426,2.968,9.948,4.907.61-2.341-2.767-4.586-9.948-5.983-12.2-2.371-30.748-1.393-41.428,2.184-5.365,1.8-7.721,3.908-7.193,5.865C3574.658,2200.629,3577.03,2198.947,3581.425,2197.474Z" transform="translate(-3568.07 -2191.31)" fill="#f99b0f"/>
          <path id="Trazado_45205" data-name="Trazado 45205" d="M3566.158,2231.072v8.464a31.822,31.822,0,0,0,9.039,2.894,90.836,90.836,0,0,0,13.175,1.446v-8.624a91.274,91.274,0,0,1-13.5-1.46A33.111,33.111,0,0,1,3566.158,2231.072Z" transform="translate(-3562.769 -2216.587)" fill="#f99b0f"/>
          <g id="Grupo_17891" data-name="Grupo 17891" transform="translate(17.86 4.996)">
            <path id="Trazado_45206" data-name="Trazado 45206" d="M3640.962,2203.553l-3.233,1.083c1.29.358,1.9.788,1.82,1.289s-.827,1.021-2.258,1.557l-3.329-.647q1.2-.457,1.047-.892t-1.624-.723a13.686,13.686,0,0,0-3.376-.206,12.3,12.3,0,0,0-3.2.574,3.491,3.491,0,0,0-.778.347c-.173.117-.259.237-.259.358-.014.251.587.571,1.81.963.731.233,1.254.421,1.58.564,1.134.495,1.632.991,1.482,1.494s-.917.986-2.315,1.454a27,27,0,0,1-6.073,1.2,27.517,27.517,0,0,1-6.221-.068l-3.883,1.3-3.1-.6,3.733-1.25q-2.457-.654-2.357-1.556t2.769-1.8l3.206.623q-1.7.625-1.563,1.135t2.129.9a15.568,15.568,0,0,0,3.876.238,14.01,14.01,0,0,0,3.678-.658,6.4,6.4,0,0,0,.933-.38,1.292,1.292,0,0,0,.464-.353q.351-.548-1.663-1.223l-.491-.166q-2.46-.858-2.577-1.61t2.094-1.5a23.462,23.462,0,0,1,5.454-1.069,28.533,28.533,0,0,1,5.93.092l3.2-1.073Z" transform="translate(-3609.044 -2202.95)" fill="#f99b0f"/>
          </g>
          <g id="Grupo_17892" data-name="Grupo 17892" transform="translate(17.86 3.783)">
            <path id="Trazado_45207" data-name="Trazado 45207" d="M3640.962,2199.959l-3.233,1.083c1.29.357,1.9.788,1.82,1.29s-.827,1.021-2.258,1.557l-3.329-.646q1.2-.458,1.047-.892t-1.624-.724a13.663,13.663,0,0,0-3.376-.206,12.3,12.3,0,0,0-3.2.573,3.513,3.513,0,0,0-.778.347c-.173.118-.259.237-.259.36-.014.25.587.57,1.81.962.731.234,1.254.421,1.58.564,1.134.5,1.632.993,1.482,1.495s-.917.986-2.315,1.453a26.942,26.942,0,0,1-6.073,1.2,27.531,27.531,0,0,1-6.221-.068l-3.883,1.3-3.1-.6,3.733-1.251q-2.457-.654-2.357-1.555t2.769-1.8l3.206.623q-1.7.626-1.563,1.134t2.129.9a15.591,15.591,0,0,0,3.876.238,14,14,0,0,0,3.678-.658,6.374,6.374,0,0,0,.933-.38,1.292,1.292,0,0,0,.464-.352q.351-.549-1.663-1.224c-.222-.074-.384-.13-.491-.166q-2.46-.858-2.577-1.61t2.094-1.5a23.45,23.45,0,0,1,5.454-1.068,28.534,28.534,0,0,1,5.93.091l3.2-1.072Z" transform="translate(-3609.044 -2199.356)" fill="#ffc910"/>
          </g>
        </g>
        <g id="Grupo_17899" data-name="Grupo 17899" transform="translate(0 0)">
          <g id="Grupo_17894" data-name="Grupo 17894" transform="translate(6.12 11.33)">
            <path id="Trazado_45208" data-name="Trazado 45208" d="M3559.807,2199.4c-.089-2.34-.207-5.461-.3-7.8.06,1.61.229,5.956.3,7.623C3559.806,2199.276,3559.805,2199.335,3559.807,2199.4Z" transform="translate(-3559.512 -2191.594)" fill="#ffc910"/>
          </g>
          <g id="Grupo_17895" data-name="Grupo 17895" transform="translate(0.001 8.046)">
            <path id="Trazado_45209" data-name="Trazado 45209" d="M3612.269,2181.862q.163,4.321.326,8.638c.084,2.2-2.8,4.523-8.771,6.523-12.894,4.319-35.287,5.5-50.018,2.635-7.91-1.537-12-3.929-12.1-6.481l-.327-8.638c.1,2.552,4.188,4.944,12.1,6.481,14.731,2.864,37.124,1.684,50.018-2.635C3609.466,2186.386,3612.352,2184.063,3612.269,2181.862Z" transform="translate(-3541.38 -2181.862)" fill="#ffab01"/>
          </g>
          <g id="Grupo_17896" data-name="Grupo 17896">
            <path id="Trazado_45210" data-name="Trazado 45210" d="M3600.166,2159.581c14.73,2.864,16.222,8.686,3.329,13.005s-35.287,5.5-50.018,2.635-16.219-8.685-3.326-13S3585.434,2156.718,3600.166,2159.581Zm-42.682,14.3c12.2,2.372,30.75,1.394,41.43-2.183s9.446-8.4-2.755-10.773-30.748-1.393-41.428,2.184-9.446,8.4,2.754,10.771" transform="translate(-3541.376 -2158.018)" fill="#ffc910"/>
          </g>
          <path id="Trazado_45211" data-name="Trazado 45211" d="M3608.11,2164.088c12.2,2.372,13.435,7.194,2.755,10.773s-29.229,4.555-41.43,2.183-13.433-7.194-2.753-10.771S3595.91,2161.717,3608.11,2164.088Z" transform="translate(-3553.327 -2161.182)" fill="#ffab01"/>
          <path id="Trazado_45212" data-name="Trazado 45212" d="M3566.686,2167.347c10.681-3.578,29.229-4.555,41.428-2.184,6.072,1.18,9.425,2.968,9.948,4.907.61-2.341-2.767-4.585-9.948-5.982-12.2-2.371-30.748-1.394-41.428,2.184-5.365,1.8-7.721,3.908-7.193,5.865C3559.919,2170.5,3562.292,2168.819,3566.686,2167.347Z" transform="translate(-3553.332 -2161.182)" fill="#f99b0f"/>
          <path id="Trazado_45213" data-name="Trazado 45213" d="M3551.419,2200.944v8.464a31.793,31.793,0,0,0,9.039,2.894,90.833,90.833,0,0,0,13.175,1.446v-8.624a91.236,91.236,0,0,1-13.5-1.46A33.117,33.117,0,0,1,3551.419,2200.944Z" transform="translate(-3548.03 -2186.459)" fill="#f99b0f"/>
          <g id="Grupo_17897" data-name="Grupo 17897" transform="translate(17.86 4.995)">
            <path id="Trazado_45214" data-name="Trazado 45214" d="M3626.223,2173.424l-3.233,1.084q1.935.536,1.82,1.29c-.071.5-.827,1.021-2.258,1.557l-3.33-.647q1.2-.458,1.047-.892t-1.624-.723a13.616,13.616,0,0,0-3.376-.205,12.269,12.269,0,0,0-3.2.573,3.455,3.455,0,0,0-.777.347c-.173.117-.259.237-.259.359-.014.25.586.57,1.81.962.731.233,1.254.421,1.58.564,1.134.495,1.631.992,1.482,1.494s-.917.985-2.315,1.453a26.958,26.958,0,0,1-6.074,1.2,27.529,27.529,0,0,1-6.221-.068l-3.883,1.3-3.1-.6,3.734-1.251q-2.457-.654-2.357-1.556t2.769-1.8l3.206.623q-1.7.625-1.563,1.134c.091.339.8.638,2.129.9a15.565,15.565,0,0,0,3.876.238,14.01,14.01,0,0,0,3.677-.658,6.48,6.48,0,0,0,.933-.38,1.294,1.294,0,0,0,.464-.353q.35-.548-1.663-1.223c-.222-.074-.385-.13-.491-.166q-2.461-.857-2.577-1.61t2.094-1.5a23.433,23.433,0,0,1,5.453-1.068,28.551,28.551,0,0,1,5.93.091l3.2-1.073Z" transform="translate(-3594.305 -2172.821)" fill="#f99b0f"/>
          </g>
          <g id="Grupo_17898" data-name="Grupo 17898" transform="translate(17.86 3.783)">
            <path id="Trazado_45215" data-name="Trazado 45215" d="M3626.223,2169.831l-3.233,1.083q1.935.535,1.82,1.29c-.071.5-.827,1.021-2.258,1.556l-3.33-.647q1.2-.458,1.047-.892t-1.624-.723a13.627,13.627,0,0,0-3.376-.206,12.278,12.278,0,0,0-3.2.574,3.5,3.5,0,0,0-.777.347c-.173.118-.259.237-.259.36-.014.249.586.569,1.81.962.731.233,1.254.421,1.58.563,1.134.495,1.631.993,1.482,1.5s-.917.985-2.315,1.453a26.984,26.984,0,0,1-6.074,1.205,27.557,27.557,0,0,1-6.221-.068l-3.883,1.3-3.1-.6,3.734-1.251q-2.457-.655-2.357-1.556t2.769-1.8l3.206.623q-1.7.626-1.563,1.135c.091.339.8.639,2.129.9a15.577,15.577,0,0,0,3.876.238,14.009,14.009,0,0,0,3.677-.658,6.478,6.478,0,0,0,.933-.38,1.3,1.3,0,0,0,.464-.353q.35-.549-1.663-1.224c-.222-.074-.385-.13-.491-.166q-2.461-.858-2.577-1.61t2.094-1.5a23.457,23.457,0,0,1,5.453-1.069,28.618,28.618,0,0,1,5.93.091l3.2-1.071Z" transform="translate(-3594.305 -2169.228)" fill="#ffc910"/>
          </g>
        </g>
      </g>
      <g id="Grupo_17937" data-name="Grupo 17937" transform="translate(3636.988 1941.609)">
        <g id="Grupo_17906" data-name="Grupo 17906" transform="translate(4.12 57.24)">
          <g id="Grupo_17901" data-name="Grupo 17901" transform="translate(6.12 11.33)">
            <path id="Trazado_45216" data-name="Trazado 45216" d="M3855.364,2312.98c-.089-2.34-.207-5.461-.3-7.8.061,1.61.229,5.956.3,7.623Q3855.36,2312.891,3855.364,2312.98Z" transform="translate(-3855.068 -2305.179)" fill="#ffc910"/>
          </g>
          <g id="Grupo_17902" data-name="Grupo 17902" transform="translate(0.001 8.046)">
            <path id="Trazado_45217" data-name="Trazado 45217" d="M3907.826,2295.448q.163,4.319.326,8.638c.084,2.2-2.8,4.523-8.772,6.523-12.894,4.319-35.286,5.5-50.017,2.635-7.91-1.537-12-3.928-12.1-6.481l-.327-8.638c.1,2.552,4.188,4.944,12.1,6.481,14.731,2.864,37.124,1.684,50.017-2.635C3905.023,2299.971,3907.909,2297.649,3907.826,2295.448Z" transform="translate(-3836.937 -2295.448)" fill="#ffab01"/>
          </g>
          <g id="Grupo_17903" data-name="Grupo 17903">
            <path id="Trazado_45218" data-name="Trazado 45218" d="M3895.722,2273.166c14.731,2.864,16.222,8.686,3.328,13.006s-35.286,5.5-50.017,2.635-16.219-8.685-3.326-13S3880.991,2270.3,3895.722,2273.166Zm-42.682,14.3c12.2,2.372,30.75,1.394,41.43-2.183s9.446-8.4-2.756-10.773-30.748-1.393-41.428,2.184-9.446,8.4,2.753,10.771" transform="translate(-3836.933 -2271.603)" fill="#ffc910"/>
          </g>
          <path id="Trazado_45219" data-name="Trazado 45219" d="M3903.667,2277.673c12.2,2.372,13.436,7.194,2.756,10.773s-29.229,4.555-41.43,2.183-13.433-7.194-2.753-10.772S3891.467,2275.3,3903.667,2277.673Z" transform="translate(-3848.884 -2274.767)" fill="#ffab01"/>
          <path id="Trazado_45220" data-name="Trazado 45220" d="M3862.243,2280.932c10.68-3.578,29.229-4.555,41.428-2.184,6.072,1.18,9.426,2.968,9.948,4.907.61-2.341-2.768-4.585-9.948-5.982-12.2-2.371-30.748-1.394-41.428,2.184-5.365,1.8-7.721,3.908-7.193,5.865C3855.477,2284.087,3857.849,2282.4,3862.243,2280.932Z" transform="translate(-3848.889 -2274.767)" fill="#f99b0f"/>
          <path id="Trazado_45221" data-name="Trazado 45221" d="M3846.976,2314.53v8.464a31.808,31.808,0,0,0,9.039,2.893,90.727,90.727,0,0,0,13.175,1.446v-8.624a91.24,91.24,0,0,1-13.5-1.46A33.139,33.139,0,0,1,3846.976,2314.53Z" transform="translate(-3843.587 -2300.045)" fill="#f99b0f"/>
          <g id="Grupo_17904" data-name="Grupo 17904" transform="translate(17.86 4.995)">
            <path id="Trazado_45222" data-name="Trazado 45222" d="M3921.781,2287.01l-3.234,1.083c1.29.357,1.9.788,1.821,1.289s-.828,1.021-2.259,1.557l-3.33-.647q1.2-.457,1.048-.892t-1.625-.723a13.611,13.611,0,0,0-3.376-.206,12.289,12.289,0,0,0-3.2.573,3.488,3.488,0,0,0-.777.347c-.173.117-.259.237-.259.359-.015.25.586.571,1.81.963.731.233,1.254.421,1.58.564,1.134.494,1.631.991,1.482,1.494s-.917.985-2.316,1.454a26.933,26.933,0,0,1-6.073,1.2,27.515,27.515,0,0,1-6.221-.068l-3.883,1.3-3.1-.6,3.734-1.25q-2.457-.654-2.357-1.556t2.769-1.8l3.205.624q-1.7.625-1.562,1.134t2.129.9a15.553,15.553,0,0,0,3.876.238,14.006,14.006,0,0,0,3.678-.657,6.445,6.445,0,0,0,.933-.38,1.3,1.3,0,0,0,.464-.354q.349-.548-1.663-1.223c-.221-.074-.385-.13-.491-.167q-2.461-.856-2.577-1.61t2.094-1.5a23.434,23.434,0,0,1,5.453-1.069,28.551,28.551,0,0,1,5.93.092l3.2-1.073Z" transform="translate(-3889.862 -2286.407)" fill="#f99b0f"/>
          </g>
          <g id="Grupo_17905" data-name="Grupo 17905" transform="translate(17.86 3.782)">
            <path id="Trazado_45223" data-name="Trazado 45223" d="M3921.781,2283.415l-3.234,1.083c1.29.357,1.9.788,1.821,1.29s-.828,1.021-2.259,1.557l-3.33-.647q1.2-.458,1.048-.892t-1.625-.723a13.646,13.646,0,0,0-3.376-.206,12.309,12.309,0,0,0-3.2.574,3.489,3.489,0,0,0-.777.347c-.173.117-.259.237-.259.36-.015.249.586.57,1.81.962.731.233,1.254.421,1.58.563,1.134.495,1.631.992,1.482,1.495s-.917.985-2.316,1.453a26.932,26.932,0,0,1-6.073,1.205,27.557,27.557,0,0,1-6.221-.068l-3.883,1.3-3.1-.6,3.734-1.251q-2.457-.655-2.357-1.556t2.769-1.8l3.205.623q-1.7.626-1.562,1.134t2.129.9a15.577,15.577,0,0,0,3.876.238,14,14,0,0,0,3.678-.658,6.5,6.5,0,0,0,.933-.38,1.3,1.3,0,0,0,.464-.353q.349-.549-1.663-1.223c-.221-.074-.385-.13-.491-.166q-2.461-.857-2.577-1.61t2.094-1.5a23.409,23.409,0,0,1,5.453-1.068,28.569,28.569,0,0,1,5.93.091l3.2-1.072Z" transform="translate(-3889.862 -2282.812)" fill="#ffc910"/>
          </g>
        </g>
        <g id="Grupo_17912" data-name="Grupo 17912" transform="translate(3.856 45.818)">
          <g id="Grupo_17907" data-name="Grupo 17907" transform="translate(6.12 11.33)">
            <path id="Trazado_45224" data-name="Trazado 45224" d="M3854.583,2279.133c-.089-2.34-.207-5.461-.3-7.8.061,1.61.229,5.955.3,7.622C3854.581,2279.014,3854.58,2279.073,3854.583,2279.133Z" transform="translate(-3854.287 -2271.332)" fill="#ffc910"/>
          </g>
          <g id="Grupo_17908" data-name="Grupo 17908" transform="translate(0.001 8.047)">
            <path id="Trazado_45225" data-name="Trazado 45225" d="M3907.044,2261.6q.163,4.319.326,8.637c.084,2.2-2.8,4.524-8.771,6.523-12.894,4.318-35.286,5.5-50.017,2.635-7.911-1.537-12-3.928-12.1-6.481l-.327-8.638c.1,2.553,4.188,4.944,12.1,6.481,14.73,2.864,37.124,1.684,50.018-2.635C3904.241,2266.124,3907.127,2263.8,3907.044,2261.6Z" transform="translate(-3836.155 -2261.601)" fill="#ffab01"/>
          </g>
          <g id="Grupo_17909" data-name="Grupo 17909">
            <path id="Trazado_45226" data-name="Trazado 45226" d="M3894.941,2239.319c14.73,2.864,16.222,8.686,3.328,13s-35.287,5.5-50.017,2.635-16.22-8.685-3.327-13S3880.209,2236.455,3894.941,2239.319Zm-42.682,14.3c12.2,2.372,30.75,1.394,41.43-2.183s9.446-8.4-2.756-10.773-30.747-1.393-41.427,2.184-9.446,8.4,2.753,10.771" transform="translate(-3836.151 -2237.755)" fill="#ffc910"/>
          </g>
          <path id="Trazado_45227" data-name="Trazado 45227" d="M3902.885,2243.825c12.2,2.373,13.436,7.194,2.756,10.772s-29.229,4.555-41.43,2.183-13.432-7.195-2.753-10.772S3890.686,2241.454,3902.885,2243.825Z" transform="translate(-3848.103 -2240.919)" fill="#ffab01"/>
          <path id="Trazado_45228" data-name="Trazado 45228" d="M3861.462,2247.084c10.68-3.577,29.228-4.555,41.427-2.184,6.073,1.18,9.426,2.968,9.948,4.907.611-2.341-2.767-4.586-9.948-5.982-12.2-2.371-30.747-1.394-41.427,2.184-5.365,1.8-7.721,3.908-7.193,5.865C3854.695,2250.239,3857.067,2248.556,3861.462,2247.084Z" transform="translate(-3848.107 -2240.919)" fill="#f99b0f"/>
          <path id="Trazado_45229" data-name="Trazado 45229" d="M3846.194,2280.683v8.463a31.815,31.815,0,0,0,9.039,2.893,90.772,90.772,0,0,0,13.175,1.446v-8.624a91.226,91.226,0,0,1-13.5-1.46A33.122,33.122,0,0,1,3846.194,2280.683Z" transform="translate(-3842.805 -2266.198)" fill="#f99b0f"/>
          <g id="Grupo_17910" data-name="Grupo 17910" transform="translate(17.86 4.996)">
            <path id="Trazado_45230" data-name="Trazado 45230" d="M3921,2253.163l-3.233,1.083c1.29.357,1.9.788,1.82,1.29s-.827,1.021-2.258,1.557l-3.329-.647q1.2-.458,1.047-.892c-.1-.293-.644-.532-1.624-.723a13.638,13.638,0,0,0-3.376-.206,12.279,12.279,0,0,0-3.2.573,3.5,3.5,0,0,0-.777.347c-.173.117-.259.237-.259.359-.014.25.586.571,1.81.963.731.233,1.255.421,1.58.564,1.134.494,1.631.992,1.482,1.494s-.917.986-2.315,1.454a26.992,26.992,0,0,1-6.074,1.2,27.542,27.542,0,0,1-6.221-.068l-3.883,1.3-3.1-.6,3.734-1.25q-2.457-.654-2.357-1.556t2.769-1.8l3.205.624q-1.7.624-1.563,1.134t2.129.9a15.557,15.557,0,0,0,3.876.238,13.976,13.976,0,0,0,3.678-.658,6.386,6.386,0,0,0,.933-.379,1.306,1.306,0,0,0,.464-.353q.35-.548-1.663-1.223l-.491-.167q-2.461-.856-2.577-1.61t2.095-1.5a23.444,23.444,0,0,1,5.453-1.069,28.566,28.566,0,0,1,5.93.092l3.2-1.072Z" transform="translate(-3889.08 -2252.56)" fill="#f99b0f"/>
          </g>
          <g id="Grupo_17911" data-name="Grupo 17911" transform="translate(17.86 3.783)">
            <path id="Trazado_45231" data-name="Trazado 45231" d="M3921,2249.569l-3.233,1.083c1.29.357,1.9.788,1.82,1.29s-.827,1.021-2.258,1.557l-3.329-.647q1.2-.458,1.047-.893t-1.624-.723a13.627,13.627,0,0,0-3.376-.206,12.279,12.279,0,0,0-3.2.573,3.474,3.474,0,0,0-.777.347c-.173.117-.259.237-.259.359-.014.25.586.57,1.81.962.731.233,1.255.421,1.58.563,1.134.495,1.631.993,1.482,1.494s-.917.985-2.315,1.454a26.965,26.965,0,0,1-6.074,1.205,27.542,27.542,0,0,1-6.221-.068l-3.883,1.3-3.1-.6,3.734-1.251q-2.457-.654-2.357-1.555t2.769-1.8l3.205.623q-1.7.626-1.563,1.134t2.129.9a15.5,15.5,0,0,0,3.876.238,13.976,13.976,0,0,0,3.678-.657,6.376,6.376,0,0,0,.933-.38,1.281,1.281,0,0,0,.464-.353q.35-.548-1.663-1.223c-.222-.073-.385-.129-.491-.166q-2.461-.857-2.577-1.609t2.095-1.5a23.42,23.42,0,0,1,5.453-1.068,28.567,28.567,0,0,1,5.93.091l3.2-1.072Z" transform="translate(-3889.08 -2248.966)" fill="#ffc910"/>
          </g>
        </g>
        <g id="Grupo_17918" data-name="Grupo 17918" transform="translate(5.108 33.703)">
          <g id="Grupo_17913" data-name="Grupo 17913" transform="translate(6.12 11.33)">
            <path id="Trazado_45232" data-name="Trazado 45232" d="M3858.292,2243.229c-.089-2.341-.206-5.461-.3-7.8.06,1.61.229,5.956.3,7.623C3858.291,2243.11,3858.29,2243.17,3858.292,2243.229Z" transform="translate(-3857.997 -2235.428)" fill="#ffc910"/>
          </g>
          <g id="Grupo_17914" data-name="Grupo 17914" transform="translate(0.001 8.046)">
            <path id="Trazado_45233" data-name="Trazado 45233" d="M3910.754,2225.7q.162,4.319.326,8.638c.084,2.2-2.8,4.523-8.772,6.523-12.893,4.319-35.286,5.5-50.017,2.635-7.911-1.537-12-3.928-12.1-6.481l-.328-8.638c.1,2.552,4.188,4.944,12.1,6.481,14.73,2.864,37.124,1.684,50.017-2.635C3907.951,2230.22,3910.837,2227.9,3910.754,2225.7Z" transform="translate(-3839.865 -2225.697)" fill="#ffab01"/>
          </g>
          <g id="Grupo_17915" data-name="Grupo 17915">
            <path id="Trazado_45234" data-name="Trazado 45234" d="M3898.65,2203.416c14.731,2.863,16.222,8.686,3.329,13.005s-35.287,5.5-50.017,2.635-16.219-8.685-3.326-13S3883.919,2200.553,3898.65,2203.416Zm-42.682,14.3c12.2,2.372,30.75,1.394,41.43-2.183s9.446-8.4-2.755-10.773-30.748-1.393-41.428,2.185-9.446,8.4,2.753,10.771" transform="translate(-3839.861 -2201.852)" fill="#ffc910"/>
          </g>
          <path id="Trazado_45235" data-name="Trazado 45235" d="M3906.595,2207.921c12.2,2.372,13.435,7.195,2.755,10.773s-29.229,4.555-41.43,2.183-13.432-7.194-2.753-10.771S3894.4,2205.551,3906.595,2207.921Z" transform="translate(-3851.812 -2205.016)" fill="#ffab01"/>
          <path id="Trazado_45236" data-name="Trazado 45236" d="M3865.172,2211.181c10.68-3.578,29.228-4.554,41.428-2.184,6.072,1.18,9.426,2.968,9.948,4.907.61-2.34-2.767-4.585-9.948-5.982-12.2-2.371-30.748-1.393-41.428,2.185-5.365,1.8-7.721,3.908-7.193,5.865C3858.4,2214.335,3860.777,2212.653,3865.172,2211.181Z" transform="translate(-3851.817 -2205.016)" fill="#f99b0f"/>
          <path id="Trazado_45237" data-name="Trazado 45237" d="M3849.9,2244.779v8.464a31.827,31.827,0,0,0,9.039,2.893,90.74,90.74,0,0,0,13.175,1.446v-8.624a91.261,91.261,0,0,1-13.5-1.461A33.124,33.124,0,0,1,3849.9,2244.779Z" transform="translate(-3846.515 -2230.294)" fill="#f99b0f"/>
          <g id="Grupo_17916" data-name="Grupo 17916" transform="translate(17.86 4.995)">
            <path id="Trazado_45238" data-name="Trazado 45238" d="M3924.708,2217.259l-3.234,1.084c1.29.357,1.9.788,1.82,1.29s-.828,1.021-2.258,1.557l-3.33-.647q1.2-.457,1.047-.892c-.1-.293-.644-.532-1.624-.723a13.637,13.637,0,0,0-3.376-.206,12.283,12.283,0,0,0-3.2.574,3.484,3.484,0,0,0-.777.346c-.174.118-.259.237-.259.359-.014.25.586.571,1.81.963.731.234,1.255.421,1.58.565,1.133.495,1.631.991,1.482,1.494s-.917.986-2.315,1.454a26.974,26.974,0,0,1-6.073,1.205,27.573,27.573,0,0,1-6.221-.068l-3.883,1.3-3.1-.6,3.734-1.25q-2.457-.654-2.357-1.556t2.769-1.8l3.205.623c-1.135.417-1.654.8-1.563,1.135s.8.638,2.129.9a15.6,15.6,0,0,0,3.876.238,13.993,13.993,0,0,0,3.677-.658,6.363,6.363,0,0,0,.933-.379,1.3,1.3,0,0,0,.464-.353q.35-.549-1.663-1.223l-.491-.166q-2.461-.857-2.578-1.61t2.094-1.5a23.443,23.443,0,0,1,5.453-1.069,28.583,28.583,0,0,1,5.93.092l3.2-1.072Z" transform="translate(-3892.789 -2216.656)" fill="#f99b0f"/>
          </g>
          <g id="Grupo_17917" data-name="Grupo 17917" transform="translate(17.86 3.782)">
            <path id="Trazado_45239" data-name="Trazado 45239" d="M3924.708,2213.665l-3.234,1.083c1.29.357,1.9.788,1.82,1.29s-.828,1.021-2.258,1.557l-3.33-.647q1.2-.457,1.047-.892c-.1-.293-.644-.532-1.624-.723a13.649,13.649,0,0,0-3.376-.206,12.283,12.283,0,0,0-3.2.573,3.481,3.481,0,0,0-.777.347c-.174.118-.259.237-.259.36-.014.249.586.57,1.81.962.731.233,1.255.421,1.58.563,1.133.5,1.631.993,1.482,1.495s-.917.986-2.315,1.453a26.96,26.96,0,0,1-6.073,1.205,27.573,27.573,0,0,1-6.221-.068l-3.883,1.3-3.1-.6,3.734-1.251q-2.457-.654-2.357-1.555t2.769-1.8l3.205.623c-1.135.417-1.654.8-1.563,1.134s.8.638,2.129.9a15.55,15.55,0,0,0,3.876.238,13.954,13.954,0,0,0,3.677-.658,6.361,6.361,0,0,0,.933-.379,1.282,1.282,0,0,0,.464-.353q.35-.548-1.663-1.223c-.222-.073-.384-.13-.491-.166q-2.461-.857-2.578-1.61t2.094-1.5a23.444,23.444,0,0,1,5.453-1.069,28.618,28.618,0,0,1,5.93.091l3.2-1.071Z" transform="translate(-3892.789 -2213.062)" fill="#ffc910"/>
          </g>
        </g>
        <g id="Grupo_17924" data-name="Grupo 17924" transform="translate(4.675 23.537)">
          <g id="Grupo_17919" data-name="Grupo 17919" transform="translate(6.12 11.33)">
            <path id="Trazado_45240" data-name="Trazado 45240" d="M3857.01,2213.1c-.089-2.341-.207-5.462-.3-7.8.061,1.61.229,5.955.3,7.623C3857.008,2212.983,3857.007,2213.042,3857.01,2213.1Z" transform="translate(-3856.714 -2205.301)" fill="#ffc910"/>
          </g>
          <g id="Grupo_17920" data-name="Grupo 17920" transform="translate(0.002 8.046)">
            <path id="Trazado_45241" data-name="Trazado 45241" d="M3909.472,2195.569q.163,4.32.326,8.638c.084,2.2-2.8,4.523-8.772,6.523-12.894,4.319-35.286,5.5-50.017,2.635-7.91-1.538-12-3.929-12.1-6.482l-.327-8.638c.1,2.552,4.188,4.943,12.1,6.481,14.731,2.864,37.124,1.684,50.017-2.635C3906.669,2200.093,3909.555,2197.771,3909.472,2195.569Z" transform="translate(-3838.583 -2195.569)" fill="#ffab01"/>
          </g>
          <g id="Grupo_17921" data-name="Grupo 17921">
            <path id="Trazado_45242" data-name="Trazado 45242" d="M3897.368,2173.287c14.731,2.864,16.222,8.686,3.329,13.005s-35.287,5.5-50.017,2.635-16.219-8.685-3.326-13S3882.636,2170.424,3897.368,2173.287Zm-42.682,14.3c12.2,2.372,30.75,1.394,41.43-2.183s9.446-8.4-2.755-10.773-30.748-1.393-41.428,2.184-9.446,8.4,2.753,10.771" transform="translate(-3838.578 -2171.724)" fill="#ffc910"/>
          </g>
          <path id="Trazado_45243" data-name="Trazado 45243" d="M3905.313,2177.794c12.2,2.372,13.435,7.195,2.755,10.773s-29.229,4.555-41.43,2.183-13.432-7.194-2.753-10.771S3893.113,2175.423,3905.313,2177.794Z" transform="translate(-3850.53 -2174.888)" fill="#ffab01"/>
          <path id="Trazado_45244" data-name="Trazado 45244" d="M3863.889,2181.053c10.68-3.577,29.229-4.555,41.428-2.184,6.072,1.18,9.425,2.968,9.948,4.907.61-2.341-2.767-4.585-9.948-5.982-12.2-2.371-30.748-1.394-41.428,2.184-5.365,1.8-7.721,3.909-7.193,5.865C3857.122,2184.208,3859.495,2182.525,3863.889,2181.053Z" transform="translate(-3850.534 -2174.888)" fill="#f99b0f"/>
          <path id="Trazado_45245" data-name="Trazado 45245" d="M3848.621,2214.65v8.464a31.806,31.806,0,0,0,9.039,2.894,90.808,90.808,0,0,0,13.175,1.446v-8.624a91.329,91.329,0,0,1-13.5-1.46A33.114,33.114,0,0,1,3848.621,2214.65Z" transform="translate(-3845.232 -2200.165)" fill="#f99b0f"/>
          <g id="Grupo_17922" data-name="Grupo 17922" transform="translate(17.86 4.995)">
            <path id="Trazado_45246" data-name="Trazado 45246" d="M3923.426,2187.131l-3.234,1.083c1.29.357,1.9.788,1.82,1.289s-.828,1.021-2.258,1.557l-3.33-.647q1.2-.457,1.047-.892t-1.624-.723a13.65,13.65,0,0,0-3.376-.205,12.287,12.287,0,0,0-3.2.573,3.459,3.459,0,0,0-.777.347c-.174.117-.26.237-.26.358-.015.251.586.571,1.81.963.731.233,1.254.422,1.58.564,1.134.495,1.631.991,1.482,1.495s-.918.985-2.316,1.454a27,27,0,0,1-6.074,1.2,27.524,27.524,0,0,1-6.22-.068l-3.884,1.3-3.1-.6,3.734-1.251q-2.457-.654-2.357-1.556t2.769-1.8l3.206.623c-1.135.417-1.654.8-1.563,1.135s.8.638,2.129.9a15.579,15.579,0,0,0,3.876.238,14.008,14.008,0,0,0,3.677-.658,6.393,6.393,0,0,0,.933-.379,1.3,1.3,0,0,0,.464-.353q.35-.548-1.663-1.223l-.492-.166q-2.46-.858-2.577-1.611t2.094-1.5a23.445,23.445,0,0,1,5.453-1.069,28.55,28.55,0,0,1,5.93.092l3.2-1.073Z" transform="translate(-3891.507 -2186.528)" fill="#f99b0f"/>
          </g>
          <g id="Grupo_17923" data-name="Grupo 17923" transform="translate(17.86 3.783)">
            <path id="Trazado_45247" data-name="Trazado 45247" d="M3923.426,2183.537l-3.234,1.083c1.29.357,1.9.788,1.82,1.29s-.828,1.021-2.258,1.556l-3.33-.646q1.2-.458,1.047-.893c-.1-.292-.643-.532-1.624-.723a13.661,13.661,0,0,0-3.376-.205,12.277,12.277,0,0,0-3.2.573,3.471,3.471,0,0,0-.777.347c-.174.117-.26.237-.26.359-.015.25.586.57,1.81.962.731.233,1.254.421,1.58.563,1.134.5,1.631.993,1.482,1.495s-.918.986-2.316,1.454a26.956,26.956,0,0,1-6.074,1.205,27.523,27.523,0,0,1-6.22-.068l-3.884,1.3-3.1-.6,3.734-1.252q-2.457-.654-2.357-1.555t2.769-1.8l3.206.623c-1.135.417-1.654.8-1.563,1.134s.8.639,2.129.9a15.555,15.555,0,0,0,3.876.238,13.988,13.988,0,0,0,3.677-.658,6.358,6.358,0,0,0,.933-.38,1.291,1.291,0,0,0,.464-.353q.35-.549-1.663-1.223l-.492-.166q-2.46-.858-2.577-1.61t2.094-1.5a23.457,23.457,0,0,1,5.453-1.069,28.584,28.584,0,0,1,5.93.091l3.2-1.072Z" transform="translate(-3891.507 -2182.934)" fill="#ffc910"/>
          </g>
        </g>
        <g id="Grupo_17930" data-name="Grupo 17930" transform="translate(0 12.162)">
          <g id="Grupo_17925" data-name="Grupo 17925" transform="translate(6.119 11.33)">
            <path id="Trazado_45248" data-name="Trazado 45248" d="M3843.152,2179.393c-.088-2.341-.206-5.461-.3-7.8.061,1.61.229,5.956.3,7.623C3843.151,2179.273,3843.15,2179.333,3843.152,2179.393Z" transform="translate(-3842.857 -2171.591)" fill="#ffc910"/>
          </g>
          <g id="Grupo_17926" data-name="Grupo 17926" transform="translate(0.002 8.046)">
            <path id="Trazado_45249" data-name="Trazado 45249" d="M3895.616,2161.86q.163,4.319.326,8.638c.084,2.2-2.8,4.523-8.772,6.523-12.893,4.319-35.286,5.5-50.017,2.635-7.911-1.537-12-3.929-12.1-6.482l-.327-8.638c.1,2.553,4.188,4.944,12.1,6.482,14.731,2.864,37.124,1.684,50.017-2.635C3892.813,2166.383,3895.7,2164.061,3895.616,2161.86Z" transform="translate(-3824.727 -2161.86)" fill="#ffab01"/>
          </g>
          <g id="Grupo_17927" data-name="Grupo 17927">
            <path id="Trazado_45250" data-name="Trazado 45250" d="M3883.512,2139.578c14.731,2.864,16.223,8.686,3.329,13s-35.287,5.5-50.017,2.635-16.219-8.685-3.326-13S3868.78,2136.715,3883.512,2139.578Zm-42.682,14.3c12.2,2.372,30.75,1.394,41.43-2.183s9.446-8.4-2.755-10.773-30.748-1.393-41.428,2.185-9.446,8.4,2.753,10.771" transform="translate(-3824.722 -2138.015)" fill="#ffc910"/>
          </g>
          <path id="Trazado_45251" data-name="Trazado 45251" d="M3891.457,2144.084c12.2,2.372,13.435,7.194,2.755,10.773s-29.229,4.555-41.43,2.183-13.432-7.194-2.753-10.771S3879.257,2141.714,3891.457,2144.084Z" transform="translate(-3836.674 -2141.179)" fill="#ffab01"/>
          <path id="Trazado_45252" data-name="Trazado 45252" d="M3850.032,2147.343c10.68-3.578,29.228-4.555,41.428-2.184,6.072,1.18,9.425,2.968,9.948,4.907.61-2.341-2.767-4.585-9.948-5.982-12.2-2.371-30.748-1.394-41.428,2.185-5.365,1.8-7.721,3.908-7.194,5.865C3843.265,2150.5,3845.638,2148.816,3850.032,2147.343Z" transform="translate(-3836.678 -2141.179)" fill="#f99b0f"/>
          <path id="Trazado_45253" data-name="Trazado 45253" d="M3834.766,2180.941v8.464a31.815,31.815,0,0,0,9.039,2.894,90.776,90.776,0,0,0,13.175,1.446v-8.624a91.334,91.334,0,0,1-13.5-1.461A33.1,33.1,0,0,1,3834.766,2180.941Z" transform="translate(-3831.377 -2166.456)" fill="#f99b0f"/>
          <g id="Grupo_17928" data-name="Grupo 17928" transform="translate(17.86 4.996)">
            <path id="Trazado_45254" data-name="Trazado 45254" d="M3909.569,2153.422l-3.233,1.083q1.935.536,1.821,1.289c-.071.5-.828,1.021-2.259,1.557l-3.329-.647q1.2-.458,1.047-.892c-.1-.293-.644-.532-1.624-.724a13.661,13.661,0,0,0-3.376-.205,12.306,12.306,0,0,0-3.2.573,3.49,3.49,0,0,0-.778.347q-.259.175-.259.359c-.014.25.587.57,1.81.962.731.233,1.255.421,1.58.564,1.133.495,1.632.991,1.482,1.494s-.917.986-2.315,1.454a26.981,26.981,0,0,1-6.074,1.205,27.54,27.54,0,0,1-6.221-.069l-3.883,1.3-3.1-.6,3.734-1.25q-2.457-.654-2.357-1.557t2.769-1.8l3.205.623c-1.134.417-1.653.8-1.563,1.135s.8.638,2.129.9a15.565,15.565,0,0,0,3.876.238,14,14,0,0,0,3.677-.658,6.39,6.39,0,0,0,.933-.38,1.3,1.3,0,0,0,.464-.353q.35-.548-1.663-1.223c-.221-.074-.385-.13-.491-.166q-2.461-.857-2.577-1.61t2.094-1.5a23.437,23.437,0,0,1,5.453-1.068,28.589,28.589,0,0,1,5.93.091l3.2-1.072Z" transform="translate(-3877.651 -2152.819)" fill="#f99b0f"/>
          </g>
          <g id="Grupo_17929" data-name="Grupo 17929" transform="translate(17.86 3.782)">
            <path id="Trazado_45255" data-name="Trazado 45255" d="M3909.569,2149.827l-3.233,1.083q1.935.535,1.821,1.29c-.071.5-.828,1.021-2.259,1.556l-3.329-.647q1.2-.458,1.047-.892t-1.624-.724a13.661,13.661,0,0,0-3.376-.205,12.255,12.255,0,0,0-3.2.573,3.5,3.5,0,0,0-.778.347q-.259.176-.259.359c-.014.25.587.57,1.81.962.731.233,1.255.421,1.58.563,1.133.495,1.632.992,1.482,1.495s-.917.985-2.315,1.453a26.967,26.967,0,0,1-6.074,1.205,27.571,27.571,0,0,1-6.221-.068l-3.883,1.3-3.1-.6,3.734-1.251q-2.457-.655-2.357-1.555t2.769-1.8l3.205.624c-1.134.417-1.653.795-1.563,1.134s.8.639,2.129.9a15.553,15.553,0,0,0,3.876.238,13.976,13.976,0,0,0,3.677-.658,6.355,6.355,0,0,0,.933-.38,1.288,1.288,0,0,0,.464-.352q.35-.548-1.663-1.223c-.221-.074-.385-.13-.491-.166q-2.461-.857-2.577-1.61t2.094-1.5a23.462,23.462,0,0,1,5.453-1.069,28.657,28.657,0,0,1,5.93.091l3.2-1.072Z" transform="translate(-3877.651 -2149.224)" fill="#ffc910"/>
          </g>
        </g>
        <g id="Grupo_17936" data-name="Grupo 17936" transform="translate(5.664 0)">
          <g id="Grupo_17931" data-name="Grupo 17931" transform="translate(6.12 11.33)">
            <path id="Trazado_45256" data-name="Trazado 45256" d="M3859.938,2143.351c-.089-2.341-.207-5.461-.3-7.8.06,1.609.229,5.955.3,7.622C3859.936,2143.232,3859.936,2143.291,3859.938,2143.351Z" transform="translate(-3859.642 -2135.55)" fill="#ffc910"/>
          </g>
          <g id="Grupo_17932" data-name="Grupo 17932" transform="translate(0.001 8.046)">
            <path id="Trazado_45257" data-name="Trazado 45257" d="M3912.4,2125.817q.162,4.321.326,8.638c.084,2.2-2.8,4.523-8.771,6.523-12.893,4.318-35.286,5.5-50.017,2.635-7.91-1.538-12-3.929-12.1-6.482l-.327-8.638c.1,2.552,4.188,4.943,12.1,6.481,14.731,2.864,37.124,1.685,50.017-2.635C3909.6,2130.341,3912.482,2128.019,3912.4,2125.817Z" transform="translate(-3841.51 -2125.817)" fill="#ffab01"/>
          </g>
          <g id="Grupo_17933" data-name="Grupo 17933">
            <path id="Trazado_45258" data-name="Trazado 45258" d="M3900.3,2103.536c14.73,2.864,16.222,8.686,3.328,13.005s-35.287,5.5-50.017,2.635-16.219-8.685-3.326-13S3885.565,2100.673,3900.3,2103.536Zm-42.682,14.3c12.2,2.372,30.75,1.393,41.43-2.183s9.446-8.4-2.755-10.772-30.748-1.393-41.428,2.184-9.446,8.4,2.753,10.772" transform="translate(-3841.507 -2101.973)" fill="#ffc910"/>
          </g>
          <path id="Trazado_45259" data-name="Trazado 45259" d="M3908.24,2108.043c12.2,2.372,13.435,7.194,2.755,10.773s-29.229,4.555-41.43,2.183-13.432-7.195-2.753-10.771S3896.041,2105.672,3908.24,2108.043Z" transform="translate(-3853.458 -2105.137)" fill="#ffab01"/>
          <path id="Trazado_45260" data-name="Trazado 45260" d="M3866.817,2111.3c10.68-3.577,29.228-4.555,41.428-2.184,6.072,1.181,9.425,2.969,9.948,4.907.61-2.341-2.767-4.585-9.948-5.982-12.2-2.371-30.748-1.394-41.428,2.184-5.365,1.8-7.721,3.908-7.193,5.865C3860.05,2114.456,3862.423,2112.774,3866.817,2111.3Z" transform="translate(-3853.462 -2105.137)" fill="#f99b0f"/>
          <path id="Trazado_45261" data-name="Trazado 45261" d="M3851.55,2144.9v8.464a31.78,31.78,0,0,0,9.039,2.894,90.773,90.773,0,0,0,13.175,1.446v-8.624a91.269,91.269,0,0,1-13.5-1.46A33.1,33.1,0,0,1,3851.55,2144.9Z" transform="translate(-3848.161 -2130.414)" fill="#f99b0f"/>
          <g id="Grupo_17934" data-name="Grupo 17934" transform="translate(17.86 4.996)">
            <path id="Trazado_45262" data-name="Trazado 45262" d="M3926.354,2117.38l-3.234,1.083q1.935.536,1.82,1.29c-.071.5-.827,1.021-2.258,1.557l-3.329-.647q1.2-.457,1.047-.892c-.1-.292-.644-.532-1.624-.723a13.651,13.651,0,0,0-3.376-.205,12.271,12.271,0,0,0-3.2.573,3.484,3.484,0,0,0-.778.347c-.173.117-.259.237-.259.359-.014.25.586.57,1.81.962.731.233,1.255.421,1.58.564,1.134.495,1.632.992,1.482,1.494s-.917.986-2.315,1.454a26.968,26.968,0,0,1-6.074,1.205,27.539,27.539,0,0,1-6.22-.069l-3.883,1.3-3.1-.6,3.734-1.251c-1.637-.436-2.426-.955-2.357-1.556s.987-1.2,2.769-1.8l3.205.623q-1.7.625-1.563,1.134t2.129.9a15.542,15.542,0,0,0,3.876.238,14,14,0,0,0,3.678-.658,6.358,6.358,0,0,0,.933-.38,1.306,1.306,0,0,0,.464-.353q.35-.548-1.663-1.222l-.491-.167q-2.461-.857-2.577-1.61t2.094-1.5a23.419,23.419,0,0,1,5.454-1.068,28.568,28.568,0,0,1,5.93.091l3.2-1.072Z" transform="translate(-3894.436 -2116.778)" fill="#f99b0f"/>
          </g>
          <g id="Grupo_17935" data-name="Grupo 17935" transform="translate(17.86 3.783)">
            <path id="Trazado_45263" data-name="Trazado 45263" d="M3926.354,2113.786l-3.234,1.083q1.935.536,1.82,1.29c-.071.5-.827,1.021-2.258,1.556l-3.329-.646q1.2-.458,1.047-.892t-1.624-.723a13.65,13.65,0,0,0-3.376-.206,12.261,12.261,0,0,0-3.2.573,3.52,3.52,0,0,0-.778.347c-.173.117-.259.237-.259.36-.014.25.586.569,1.81.962.731.233,1.255.421,1.58.563,1.134.495,1.632.993,1.482,1.495s-.917.985-2.315,1.453a26.981,26.981,0,0,1-6.074,1.205,27.54,27.54,0,0,1-6.22-.068l-3.883,1.3-3.1-.6,3.734-1.252c-1.637-.436-2.426-.955-2.357-1.555s.987-1.2,2.769-1.8l3.205.623q-1.7.625-1.563,1.134t2.129.9a15.519,15.519,0,0,0,3.876.238,14,14,0,0,0,3.678-.658,6.383,6.383,0,0,0,.933-.38,1.284,1.284,0,0,0,.464-.353q.35-.548-1.663-1.223l-.491-.166q-2.461-.857-2.577-1.61t2.094-1.5a23.469,23.469,0,0,1,5.454-1.069,28.6,28.6,0,0,1,5.93.091l3.2-1.072Z" transform="translate(-3894.436 -2113.183)" fill="#ffc910"/>
          </g>
        </g>
      </g>
      <g id="Grupo_17962" data-name="Grupo 17962" transform="translate(3634.954 1894.8)">
        <g id="Grupo_17943" data-name="Grupo 17943" transform="translate(5.108 33.703)">
          <g id="Grupo_17938" data-name="Grupo 17938" transform="translate(6.12 11.33)">
            <path id="Trazado_45264" data-name="Trazado 45264" d="M3852.267,2104.51c-.089-2.34-.207-5.461-.3-7.8.06,1.61.229,5.956.3,7.623C3852.266,2104.391,3852.265,2104.45,3852.267,2104.51Z" transform="translate(-3851.972 -2096.708)" fill="#ffc910"/>
          </g>
          <g id="Grupo_17939" data-name="Grupo 17939" transform="translate(0.001 8.046)">
            <path id="Trazado_45265" data-name="Trazado 45265" d="M3904.728,2086.978q.162,4.319.326,8.638c.083,2.2-2.8,4.523-8.772,6.523-12.894,4.319-35.286,5.5-50.017,2.635-7.91-1.538-12-3.929-12.1-6.482l-.328-8.638c.1,2.552,4.189,4.944,12.1,6.481,14.731,2.864,37.124,1.684,50.018-2.635C3901.926,2091.5,3904.811,2089.179,3904.728,2086.978Z" transform="translate(-3833.839 -2086.978)" fill="#ffab01"/>
          </g>
          <g id="Grupo_17940" data-name="Grupo 17940">
            <path id="Trazado_45266" data-name="Trazado 45266" d="M3892.625,2064.7c14.731,2.863,16.222,8.686,3.328,13s-35.287,5.5-50.018,2.635-16.219-8.685-3.326-13S3877.894,2061.833,3892.625,2064.7Zm-42.682,14.3c12.2,2.371,30.75,1.393,41.43-2.183s9.446-8.4-2.756-10.772-30.748-1.394-41.428,2.184-9.446,8.4,2.753,10.772" transform="translate(-3833.835 -2063.133)" fill="#ffc910"/>
          </g>
          <path id="Trazado_45267" data-name="Trazado 45267" d="M3900.57,2069.2c12.2,2.372,13.435,7.194,2.756,10.773s-29.229,4.554-41.43,2.183-13.432-7.195-2.753-10.772S3888.37,2066.832,3900.57,2069.2Z" transform="translate(-3845.787 -2066.297)" fill="#ffab01"/>
          <path id="Trazado_45268" data-name="Trazado 45268" d="M3859.146,2072.461c10.68-3.577,29.228-4.555,41.428-2.184,6.072,1.18,9.425,2.968,9.949,4.907.61-2.341-2.768-4.586-9.949-5.982-12.2-2.371-30.748-1.394-41.428,2.184-5.365,1.8-7.721,3.909-7.193,5.866C3852.379,2075.616,3854.752,2073.934,3859.146,2072.461Z" transform="translate(-3845.792 -2066.297)" fill="#f99b0f"/>
          <path id="Trazado_45269" data-name="Trazado 45269" d="M3843.879,2106.059v8.464a31.822,31.822,0,0,0,9.039,2.894,90.8,90.8,0,0,0,13.175,1.446v-8.624a91.309,91.309,0,0,1-13.5-1.46A33.1,33.1,0,0,1,3843.879,2106.059Z" transform="translate(-3840.49 -2091.574)" fill="#f99b0f"/>
          <g id="Grupo_17941" data-name="Grupo 17941" transform="translate(17.86 4.995)">
            <path id="Trazado_45270" data-name="Trazado 45270" d="M3918.684,2078.54l-3.234,1.083q1.935.535,1.82,1.289c-.071.5-.827,1.021-2.258,1.557l-3.33-.647q1.2-.457,1.048-.892c-.1-.293-.644-.532-1.624-.723a13.634,13.634,0,0,0-3.375-.205,12.291,12.291,0,0,0-3.2.573,3.494,3.494,0,0,0-.777.348q-.26.176-.259.358c-.014.25.586.571,1.81.963.731.233,1.255.421,1.58.564,1.133.495,1.631.992,1.482,1.494s-.917.986-2.315,1.454a26.968,26.968,0,0,1-6.074,1.2,27.54,27.54,0,0,1-6.22-.068l-3.883,1.3-3.1-.6,3.734-1.251q-2.457-.654-2.357-1.556t2.77-1.8l3.205.623q-1.7.625-1.562,1.134t2.129.9a15.55,15.55,0,0,0,3.876.238,13.988,13.988,0,0,0,3.678-.658,6.385,6.385,0,0,0,.933-.38,1.3,1.3,0,0,0,.464-.353q.35-.548-1.663-1.223c-.222-.074-.385-.13-.491-.166q-2.461-.857-2.577-1.61t2.094-1.5a23.456,23.456,0,0,1,5.454-1.069,28.618,28.618,0,0,1,5.93.092l3.2-1.072Z" transform="translate(-3886.765 -2077.937)" fill="#f99b0f"/>
          </g>
          <g id="Grupo_17942" data-name="Grupo 17942" transform="translate(17.86 3.782)">
            <path id="Trazado_45271" data-name="Trazado 45271" d="M3918.684,2074.945l-3.234,1.083q1.935.536,1.82,1.29c-.071.5-.827,1.021-2.258,1.556l-3.33-.646q1.2-.458,1.048-.892t-1.624-.724a13.668,13.668,0,0,0-3.375-.206,12.321,12.321,0,0,0-3.2.573,3.532,3.532,0,0,0-.777.347q-.26.177-.259.359c-.014.25.586.57,1.81.963.731.233,1.255.421,1.58.563,1.133.495,1.631.993,1.482,1.494s-.917.986-2.315,1.454a26.941,26.941,0,0,1-6.074,1.2,27.527,27.527,0,0,1-6.22-.068l-3.883,1.3-3.1-.6,3.734-1.251q-2.457-.654-2.357-1.555t2.77-1.8l3.205.623q-1.7.626-1.562,1.135t2.129.9a15.55,15.55,0,0,0,3.876.238,13.978,13.978,0,0,0,3.678-.658,6.353,6.353,0,0,0,.933-.38,1.288,1.288,0,0,0,.464-.353q.35-.549-1.663-1.223c-.222-.073-.385-.13-.491-.166q-2.461-.857-2.577-1.609t2.094-1.5a23.481,23.481,0,0,1,5.454-1.069,28.6,28.6,0,0,1,5.93.091l3.2-1.072Z" transform="translate(-3886.765 -2074.342)" fill="#ffc910"/>
          </g>
        </g>
        <g id="Grupo_17949" data-name="Grupo 17949" transform="translate(9.15 22.899)">
          <g id="Grupo_17944" data-name="Grupo 17944" transform="translate(6.12 11.329)">
            <path id="Trazado_45272" data-name="Trazado 45272" d="M3864.243,2072.492c-.088-2.341-.206-5.462-.3-7.8.06,1.61.229,5.956.3,7.623C3864.242,2072.373,3864.241,2072.432,3864.243,2072.492Z" transform="translate(-3863.948 -2064.69)" fill="#ffc910"/>
          </g>
          <g id="Grupo_17945" data-name="Grupo 17945" transform="translate(0.001 8.046)">
            <path id="Trazado_45273" data-name="Trazado 45273" d="M3916.705,2054.96q.163,4.319.326,8.638c.084,2.2-2.8,4.522-8.771,6.523-12.894,4.318-35.286,5.5-50.017,2.635-7.911-1.537-12-3.928-12.1-6.482l-.327-8.638c.1,2.552,4.188,4.943,12.1,6.481,14.73,2.864,37.124,1.684,50.017-2.635C3913.9,2059.483,3916.788,2057.161,3916.705,2054.96Z" transform="translate(-3845.816 -2054.96)" fill="#ffab01"/>
          </g>
          <g id="Grupo_17946" data-name="Grupo 17946">
            <path id="Trazado_45274" data-name="Trazado 45274" d="M3904.6,2032.678c14.73,2.863,16.222,8.686,3.328,13.005s-35.287,5.5-50.017,2.635-16.22-8.685-3.327-13S3889.871,2029.815,3904.6,2032.678Zm-42.682,14.3c12.2,2.371,30.75,1.394,41.43-2.184s9.446-8.4-2.755-10.772-30.748-1.393-41.428,2.184-9.446,8.4,2.753,10.772" transform="translate(-3845.812 -2031.115)" fill="#ffc910"/>
          </g>
          <path id="Trazado_45275" data-name="Trazado 45275" d="M3912.546,2037.185c12.2,2.372,13.435,7.194,2.756,10.772s-29.229,4.555-41.43,2.184-13.433-7.195-2.753-10.772S3900.347,2034.814,3912.546,2037.185Z" transform="translate(-3857.763 -2034.279)" fill="#ffab01"/>
          <path id="Trazado_45276" data-name="Trazado 45276" d="M3871.124,2040.444c10.68-3.578,29.229-4.555,41.428-2.184,6.072,1.18,9.426,2.968,9.949,4.907.61-2.341-2.768-4.586-9.949-5.982-12.2-2.371-30.748-1.394-41.428,2.184-5.365,1.8-7.721,3.909-7.193,5.866C3864.356,2043.6,3866.729,2041.916,3871.124,2040.444Z" transform="translate(-3857.769 -2034.279)" fill="#f99b0f"/>
          <path id="Trazado_45277" data-name="Trazado 45277" d="M3855.856,2074.041v8.464a31.809,31.809,0,0,0,9.039,2.894,90.7,90.7,0,0,0,13.175,1.446v-8.624a91.241,91.241,0,0,1-13.5-1.46A33.1,33.1,0,0,1,3855.856,2074.041Z" transform="translate(-3852.467 -2059.556)" fill="#f99b0f"/>
          <g id="Grupo_17947" data-name="Grupo 17947" transform="translate(17.861 4.995)">
            <path id="Trazado_45278" data-name="Trazado 45278" d="M3930.661,2046.522l-3.234,1.084q1.935.536,1.821,1.289c-.071.5-.827,1.021-2.259,1.557l-3.33-.647q1.2-.457,1.047-.891c-.1-.293-.643-.532-1.624-.724a13.672,13.672,0,0,0-3.376-.2,12.288,12.288,0,0,0-3.2.573,3.508,3.508,0,0,0-.777.348c-.173.117-.259.236-.259.358-.015.25.586.57,1.809.962.731.234,1.255.422,1.581.564,1.133.494,1.631.991,1.482,1.494s-.917.986-2.315,1.454a27,27,0,0,1-6.074,1.2,27.529,27.529,0,0,1-6.221-.068l-3.883,1.3-3.1-.6,3.734-1.251q-2.457-.654-2.357-1.556t2.769-1.8l3.206.623q-1.7.625-1.562,1.134t2.129.9a15.537,15.537,0,0,0,3.876.238,13.987,13.987,0,0,0,3.678-.658,6.388,6.388,0,0,0,.933-.379,1.293,1.293,0,0,0,.464-.353q.351-.548-1.662-1.223c-.221-.074-.385-.13-.491-.167q-2.461-.857-2.577-1.61t2.094-1.5a23.475,23.475,0,0,1,5.453-1.069,28.563,28.563,0,0,1,5.93.092l3.2-1.072Z" transform="translate(-3898.742 -2045.919)" fill="#f99b0f"/>
          </g>
          <g id="Grupo_17948" data-name="Grupo 17948" transform="translate(17.861 3.782)">
            <path id="Trazado_45279" data-name="Trazado 45279" d="M3930.661,2042.927l-3.234,1.083q1.935.536,1.821,1.29c-.071.5-.827,1.021-2.259,1.556l-3.33-.646q1.2-.458,1.047-.892t-1.624-.724a13.671,13.671,0,0,0-3.376-.206,12.291,12.291,0,0,0-3.2.574,3.478,3.478,0,0,0-.777.347c-.173.117-.259.237-.259.359-.015.25.586.57,1.809.963.731.233,1.255.421,1.581.564,1.133.495,1.631.993,1.482,1.494s-.917.985-2.315,1.454a26.982,26.982,0,0,1-6.074,1.2,27.542,27.542,0,0,1-6.221-.068l-3.883,1.3-3.1-.6,3.734-1.251q-2.457-.654-2.357-1.555t2.769-1.8l3.206.623q-1.7.626-1.562,1.135t2.129.9a15.572,15.572,0,0,0,3.876.238,14.007,14.007,0,0,0,3.678-.658,6.356,6.356,0,0,0,.933-.38,1.288,1.288,0,0,0,.464-.353q.351-.549-1.662-1.224c-.221-.073-.385-.13-.491-.166q-2.461-.858-2.577-1.61t2.094-1.5a23.456,23.456,0,0,1,5.453-1.069,28.631,28.631,0,0,1,5.93.091l3.2-1.072Z" transform="translate(-3898.742 -2042.324)" fill="#ffc910"/>
          </g>
        </g>
        <g id="Grupo_17955" data-name="Grupo 17955" transform="translate(0 12.162)">
          <g id="Grupo_17950" data-name="Grupo 17950" transform="translate(6.12 11.33)">
            <path id="Trazado_45280" data-name="Trazado 45280" d="M3837.127,2040.672c-.089-2.34-.207-5.461-.3-7.8.06,1.61.229,5.955.3,7.622C3837.125,2040.553,3837.125,2040.613,3837.127,2040.672Z" transform="translate(-3836.832 -2032.871)" fill="#ffc910"/>
          </g>
          <g id="Grupo_17951" data-name="Grupo 17951" transform="translate(0.001 8.046)">
            <path id="Trazado_45281" data-name="Trazado 45281" d="M3889.59,2023.141q.163,4.32.326,8.638c.084,2.2-2.8,4.523-8.771,6.523-12.894,4.319-35.286,5.5-50.018,2.635-7.91-1.537-12-3.929-12.1-6.481l-.327-8.638c.1,2.552,4.188,4.944,12.1,6.481,14.73,2.863,37.124,1.684,50.017-2.635C3886.787,2027.664,3889.673,2025.342,3889.59,2023.141Z" transform="translate(-3818.701 -2023.141)" fill="#ffab01"/>
          </g>
          <g id="Grupo_17952" data-name="Grupo 17952">
            <path id="Trazado_45282" data-name="Trazado 45282" d="M3877.487,2000.859c14.73,2.863,16.222,8.686,3.328,13.005s-35.286,5.5-50.017,2.635-16.22-8.685-3.327-13S3862.755,1998,3877.487,2000.859Zm-42.682,14.3c12.2,2.372,30.75,1.393,41.43-2.183s9.446-8.4-2.756-10.773-30.747-1.393-41.427,2.184-9.446,8.4,2.753,10.772" transform="translate(-3818.697 -1999.296)" fill="#ffc910"/>
          </g>
          <path id="Trazado_45283" data-name="Trazado 45283" d="M3885.431,2005.364c12.2,2.373,13.435,7.195,2.755,10.773s-29.229,4.555-41.43,2.183-13.433-7.194-2.753-10.772S3873.231,2002.994,3885.431,2005.364Z" transform="translate(-3830.648 -2002.459)" fill="#ffab01"/>
          <path id="Trazado_45284" data-name="Trazado 45284" d="M3844.008,2008.623c10.68-3.577,29.228-4.554,41.427-2.184,6.072,1.18,9.426,2.968,9.948,4.907.611-2.341-2.767-4.586-9.948-5.983-12.2-2.371-30.747-1.394-41.427,2.184-5.365,1.8-7.722,3.909-7.193,5.866C3837.24,2011.778,3839.613,2010.1,3844.008,2008.623Z" transform="translate(-3830.653 -2002.459)" fill="#f99b0f"/>
          <path id="Trazado_45285" data-name="Trazado 45285" d="M3828.74,2042.222v8.464a31.816,31.816,0,0,0,9.039,2.893,90.807,90.807,0,0,0,13.175,1.446V2046.4a91.338,91.338,0,0,1-13.5-1.46A33.1,33.1,0,0,1,3828.74,2042.222Z" transform="translate(-3825.351 -2027.737)" fill="#f99b0f"/>
          <g id="Grupo_17953" data-name="Grupo 17953" transform="translate(17.86 4.996)">
            <path id="Trazado_45286" data-name="Trazado 45286" d="M3903.544,2014.7l-3.234,1.083c1.29.357,1.9.788,1.821,1.289s-.827,1.021-2.258,1.557l-3.33-.647q1.2-.457,1.048-.892c-.1-.292-.643-.532-1.624-.723a13.647,13.647,0,0,0-3.376-.205,12.3,12.3,0,0,0-3.2.573,3.539,3.539,0,0,0-.777.347c-.173.118-.259.237-.259.359-.014.25.586.571,1.81.962.731.234,1.254.421,1.58.564,1.134.5,1.631.992,1.482,1.494s-.918.986-2.316,1.453a26.936,26.936,0,0,1-6.073,1.205,27.507,27.507,0,0,1-6.221-.068l-3.883,1.3-3.1-.6,3.734-1.251q-2.456-.654-2.357-1.556t2.769-1.8l3.206.624q-1.7.625-1.563,1.134t2.13.9a15.576,15.576,0,0,0,3.876.238,13.99,13.99,0,0,0,3.677-.658,6.331,6.331,0,0,0,.933-.38,1.294,1.294,0,0,0,.464-.353q.351-.549-1.663-1.223c-.221-.074-.384-.13-.491-.166q-2.461-.857-2.577-1.61t2.094-1.5a23.447,23.447,0,0,1,5.453-1.069,28.561,28.561,0,0,1,5.93.091l3.2-1.072Z" transform="translate(-3871.625 -2014.1)" fill="#f99b0f"/>
          </g>
          <g id="Grupo_17954" data-name="Grupo 17954" transform="translate(17.86 3.782)">
            <path id="Trazado_45287" data-name="Trazado 45287" d="M3903.544,2011.108l-3.234,1.083c1.29.357,1.9.788,1.821,1.29s-.827,1.022-2.258,1.557l-3.33-.647q1.2-.458,1.048-.892t-1.624-.723a13.629,13.629,0,0,0-3.376-.206,12.294,12.294,0,0,0-3.2.574,3.49,3.49,0,0,0-.777.347c-.173.118-.259.237-.259.359-.014.25.586.57,1.81.963.731.233,1.254.421,1.58.563,1.134.5,1.631.993,1.482,1.495s-.918.986-2.316,1.454a26.93,26.93,0,0,1-6.073,1.2,27.53,27.53,0,0,1-6.221-.068l-3.883,1.3-3.1-.6,3.734-1.251q-2.456-.654-2.357-1.555t2.769-1.8l3.206.623q-1.7.625-1.563,1.134t2.13.9a15.558,15.558,0,0,0,3.876.238,13.985,13.985,0,0,0,3.677-.658,6.358,6.358,0,0,0,.933-.38,1.278,1.278,0,0,0,.464-.353q.351-.548-1.663-1.223c-.221-.073-.384-.13-.491-.166q-2.461-.857-2.577-1.609t2.094-1.5a23.472,23.472,0,0,1,5.453-1.069,28.612,28.612,0,0,1,5.93.091l3.2-1.072Z" transform="translate(-3871.625 -2010.505)" fill="#ffc910"/>
          </g>
        </g>
        <g id="Grupo_17961" data-name="Grupo 17961" transform="translate(5.664)">
          <g id="Grupo_17956" data-name="Grupo 17956" transform="translate(6.12 11.329)">
            <path id="Trazado_45288" data-name="Trazado 45288" d="M3853.912,2004.631c-.088-2.34-.207-5.461-.3-7.8.06,1.611.229,5.956.3,7.623C3853.911,2004.512,3853.91,2004.571,3853.912,2004.631Z" transform="translate(-3853.617 -1996.829)" fill="#ffc910"/>
          </g>
          <g id="Grupo_17957" data-name="Grupo 17957" transform="translate(0.001 8.046)">
            <path id="Trazado_45289" data-name="Trazado 45289" d="M3906.374,1987.1q.163,4.32.326,8.638c.084,2.2-2.8,4.523-8.771,6.523-12.894,4.319-35.286,5.5-50.017,2.635-7.911-1.538-12-3.929-12.1-6.482l-.327-8.638c.1,2.552,4.189,4.944,12.1,6.481,14.73,2.864,37.124,1.685,50.017-2.635C3903.572,1991.622,3906.457,1989.3,3906.374,1987.1Z" transform="translate(-3835.485 -1987.099)" fill="#ffab01"/>
          </g>
          <g id="Grupo_17958" data-name="Grupo 17958">
            <path id="Trazado_45290" data-name="Trazado 45290" d="M3894.271,1964.818c14.731,2.863,16.222,8.685,3.328,13.005s-35.286,5.5-50.017,2.635-16.22-8.685-3.327-13S3879.539,1961.954,3894.271,1964.818Zm-42.682,14.3c12.2,2.371,30.75,1.394,41.43-2.183s9.446-8.4-2.755-10.772-30.748-1.393-41.428,2.184-9.446,8.4,2.753,10.772" transform="translate(-3835.481 -1963.254)" fill="#ffc910"/>
          </g>
          <path id="Trazado_45291" data-name="Trazado 45291" d="M3902.215,1969.324c12.2,2.372,13.435,7.194,2.755,10.772s-29.229,4.555-41.43,2.183-13.433-7.194-2.753-10.772S3890.015,1966.953,3902.215,1969.324Z" transform="translate(-3847.432 -1966.418)" fill="#ffab01"/>
          <path id="Trazado_45292" data-name="Trazado 45292" d="M3860.792,1972.583c10.68-3.578,29.228-4.555,41.428-2.184,6.072,1.18,9.425,2.968,9.948,4.907.61-2.341-2.768-4.586-9.948-5.983-12.2-2.371-30.748-1.394-41.428,2.184-5.365,1.8-7.721,3.908-7.193,5.865C3854.024,1975.737,3856.4,1974.055,3860.792,1972.583Z" transform="translate(-3847.437 -1966.418)" fill="#f99b0f"/>
          <path id="Trazado_45293" data-name="Trazado 45293" d="M3845.524,2006.181v8.464a31.826,31.826,0,0,0,9.039,2.893,90.816,90.816,0,0,0,13.175,1.446v-8.624a91.256,91.256,0,0,1-13.5-1.46A33.128,33.128,0,0,1,3845.524,2006.181Z" transform="translate(-3842.135 -1991.696)" fill="#f99b0f"/>
          <g id="Grupo_17959" data-name="Grupo 17959" transform="translate(17.86 4.995)">
            <path id="Trazado_45294" data-name="Trazado 45294" d="M3920.328,1978.661l-3.234,1.084c1.29.357,1.9.787,1.821,1.289s-.827,1.021-2.258,1.557l-3.33-.647q1.2-.457,1.047-.892c-.1-.293-.643-.532-1.624-.723a13.632,13.632,0,0,0-3.376-.2,12.271,12.271,0,0,0-3.2.573,3.528,3.528,0,0,0-.777.347q-.259.176-.259.359c-.015.25.586.57,1.81.962.731.233,1.254.421,1.58.564,1.133.495,1.631.992,1.482,1.494s-.918.986-2.315,1.454a27.013,27.013,0,0,1-6.074,1.2,27.557,27.557,0,0,1-6.221-.068l-3.883,1.3-3.1-.6,3.734-1.25q-2.457-.654-2.357-1.556t2.769-1.8l3.206.624q-1.7.624-1.562,1.134t2.129.9a15.537,15.537,0,0,0,3.876.238,13.981,13.981,0,0,0,3.677-.658,6.411,6.411,0,0,0,.933-.38,1.282,1.282,0,0,0,.463-.353q.352-.548-1.662-1.223c-.221-.074-.385-.13-.491-.166q-2.46-.857-2.577-1.61t2.095-1.5a23.437,23.437,0,0,1,5.453-1.069,28.528,28.528,0,0,1,5.93.091l3.2-1.072Z" transform="translate(-3888.41 -1978.058)" fill="#f99b0f"/>
          </g>
          <g id="Grupo_17960" data-name="Grupo 17960" transform="translate(17.86 3.782)">
            <path id="Trazado_45295" data-name="Trazado 45295" d="M3920.328,1975.066l-3.234,1.083c1.29.357,1.9.788,1.821,1.29s-.827,1.021-2.258,1.557l-3.33-.646q1.2-.458,1.047-.892t-1.624-.724a13.654,13.654,0,0,0-3.376-.206,12.321,12.321,0,0,0-3.2.574,3.517,3.517,0,0,0-.777.347c-.173.117-.259.237-.259.359-.015.249.586.57,1.81.963.731.233,1.254.421,1.58.563,1.133.494,1.631.992,1.482,1.494s-.918.985-2.315,1.453a26.938,26.938,0,0,1-6.074,1.2,27.566,27.566,0,0,1-6.221-.068l-3.883,1.3-3.1-.6,3.734-1.251q-2.457-.655-2.357-1.556t2.769-1.8l3.206.623q-1.7.626-1.562,1.134t2.129.9a15.555,15.555,0,0,0,3.876.238,14,14,0,0,0,3.677-.658,6.458,6.458,0,0,0,.933-.38,1.278,1.278,0,0,0,.463-.353q.352-.549-1.662-1.223c-.221-.074-.385-.13-.491-.166q-2.46-.857-2.577-1.609t2.095-1.5a23.431,23.431,0,0,1,5.453-1.068,28.561,28.561,0,0,1,5.93.091l3.2-1.072Z" transform="translate(-3888.41 -1974.463)" fill="#ffc910"/>
          </g>
        </g>
      </g>
      <g id="Grupo_17974" data-name="Grupo 17974" transform="translate(3625.046 1974.042)">
        <g id="Grupo_17963" data-name="Grupo 17963" transform="translate(22.399 12.186)">
          <path id="Trazado_45296" data-name="Trazado 45296" d="M3855.713,2234.2l8.45.616.474.186-8.45-.617Z" transform="translate(-3855.713 -2234.202)" fill="#ee5a28"/>
        </g>
        <g id="Grupo_17964" data-name="Grupo 17964" transform="translate(22.873 12.058)">
          <path id="Trazado_45297" data-name="Trazado 45297" d="M3857.2,2233.82l8.45.617-.08.313-8.45-.617Z" transform="translate(-3857.117 -2233.82)" fill="#ffab01"/>
        </g>
        <g id="Grupo_17965" data-name="Grupo 17965" transform="translate(22.953 12.058)">
          <path id="Trazado_45298" data-name="Trazado 45298" d="M3857.355,2233.82l8.45.617,2.89,1.129-8.449-.617Z" transform="translate(-3857.355 -2233.82)" fill="#ffca10"/>
        </g>
        <g id="Grupo_17966" data-name="Grupo 17966" transform="translate(19.549 5.562)">
          <path id="Trazado_45299" data-name="Trazado 45299" d="M3854.451,2214.61l5.093.372c-.9-.058-1.753-.113-3.067-.121-1.293-.007-2.383.042-3.07.086-.391.025-1.579.1-3.072.3-1.334.176-2.137.332-3.067.512A16.159,16.159,0,0,1,3854.451,2214.61Z" transform="translate(-3847.267 -2214.569)" fill="#ffc910"/>
        </g>
        <path id="Trazado_45300" data-name="Trazado 45300" d="M3829.077,2215.674c-10.738-4.2-22.394,3.927-26.034,18.14s2.115,29.136,12.852,33.331,22.4-3.925,26.036-18.138S3839.816,2219.87,3829.077,2215.674Z" transform="translate(-3797.693 -2209.008)" fill="#ffab01"/>
        <g id="Grupo_17967" data-name="Grupo 17967" transform="translate(4.258 5.562)">
          <path id="Trazado_45301" data-name="Trazado 45301" d="M3804.335,2234.934c3.64-14.213,15.3-22.335,26.034-18.14a17.749,17.749,0,0,1,4.54,2.625,18.194,18.194,0,0,0-5.832-3.744c-10.738-4.2-22.394,3.927-26.034,18.14-3.086,12.051.583,24.608,8.314,30.708C3804.52,2258.094,3801.427,2246.29,3804.335,2234.934Z" transform="translate(-3801.951 -2214.57)" fill="#f99b0f"/>
        </g>
        <g id="Grupo_17968" data-name="Grupo 17968" transform="translate(26.733 5.603)">
          <path id="Trazado_45302" data-name="Trazado 45302" d="M3868.556,2214.692l8.45.618a15.891,15.891,0,0,1,4.651,1.063l-8.45-.617A15.941,15.941,0,0,0,3868.556,2214.692Z" transform="translate(-3868.556 -2214.692)" fill="#ffab01"/>
        </g>
        <g id="Grupo_17969" data-name="Grupo 17969" transform="translate(0)">
          <path id="Trazado_45303" data-name="Trazado 45303" d="M3822.083,2199.421c12.966,5.065,19.915,23.08,15.521,40.241s-18.467,26.962-31.434,21.9-19.913-23.08-15.518-40.24S3809.119,2194.357,3822.083,2199.421Zm-14.548,56.8c10.74,4.2,22.4-3.925,26.037-18.138s-2.115-29.138-12.854-33.333-22.394,3.927-26.034,18.14,2.115,29.136,12.852,33.331" transform="translate(-3789.333 -2198.087)" fill="#ffc910"/>
        </g>
        <g id="Grupo_17970" data-name="Grupo 17970" transform="translate(27.133 0.049)">
          <path id="Trazado_45304" data-name="Trazado 45304" d="M3869.743,2198.234l8.45.617a19.237,19.237,0,0,1,5.616,1.284l-8.45-.617A19.276,19.276,0,0,0,3869.743,2198.234Z" transform="translate(-3869.743 -2198.234)" fill="#ee8f01"/>
        </g>
        <g id="Grupo_17971" data-name="Grupo 17971" transform="translate(22.455 1.333)">
          <path id="Trazado_45305" data-name="Trazado 45305" d="M3864.328,2266.077l-8.45-.616c11.187.816,22.052-8.484,25.815-23.18,4.395-17.161-2.555-35.176-15.521-40.241l8.45.617c12.966,5.065,19.915,23.081,15.521,40.24C3886.379,2257.593,3875.516,2266.893,3864.328,2266.077Z" transform="translate(-3855.878 -2202.039)" fill="#f99b0f"/>
        </g>
        <path id="Trazado_45306" data-name="Trazado 45306" d="M3927.986,2287.391a38.325,38.325,0,0,0,3.986-9.827,41.265,41.265,0,0,0-.726-23.2l-8.177.228a41.392,41.392,0,0,1,.453,22.356,37.967,37.967,0,0,1-4.512,10.694Z" transform="translate(-3875.252 -2235.374)" fill="#ffab01"/>
        <g id="Grupo_17972" data-name="Grupo 17972" transform="translate(15.86 12.815)">
          <path id="Trazado_45307" data-name="Trazado 45307" d="M3851.215,2237.131l-1.1,4.3a6.007,6.007,0,0,1,2.557,3.592,11.511,11.511,0,0,1,.042,5.534l-2.931-1.145a5.373,5.373,0,0,0-.193-3.111,3.186,3.186,0,0,0-1.846-1.841,2.492,2.492,0,0,0-2.509.267,4.519,4.519,0,0,0-1.6,2.682,5.23,5.23,0,0,0-.176,1.31,3.99,3.99,0,0,0,.185,1.2,5.727,5.727,0,0,0,2.216,2.553,15.161,15.161,0,0,1,1.653,1.356,9.1,9.1,0,0,1,2.533,4.324,10.422,10.422,0,0,1-.094,5.223,11.236,11.236,0,0,1-2.917,5.462,4.7,4.7,0,0,1-4.314,1.465l-1.323,5.169-2.728-1.066,1.271-4.963a7.108,7.108,0,0,1-3.193-4.282,12.131,12.131,0,0,1,.047-6.457l2.825,1.1a7.024,7.024,0,0,0,.086,4.01,3.927,3.927,0,0,0,2.368,2.256,2.881,2.881,0,0,0,2.889-.292,5.2,5.2,0,0,0,1.838-3.08,8.357,8.357,0,0,0,.245-1.456,4.939,4.939,0,0,0-.044-1.242,5.65,5.65,0,0,0-2.38-3.417c-.221-.177-.391-.306-.5-.4a10.126,10.126,0,0,1-3.4-4.393,8.853,8.853,0,0,1-.1-5.3,9.653,9.653,0,0,1,2.629-4.864,4.855,4.855,0,0,1,4.14-1.312l1.091-4.261Z" transform="translate(-3836.334 -2236.065)" fill="#f99b0f"/>
        </g>
        <g id="Grupo_17973" data-name="Grupo 17973" transform="translate(14.248 12.403)">
          <path id="Trazado_45308" data-name="Trazado 45308" d="M3846.438,2235.911l-1.1,4.3a6.009,6.009,0,0,1,2.558,3.592,11.513,11.513,0,0,1,.042,5.533l-2.931-1.144a5.375,5.375,0,0,0-.193-3.112,3.184,3.184,0,0,0-1.846-1.841,2.49,2.49,0,0,0-2.509.267,4.52,4.52,0,0,0-1.6,2.682,5.235,5.235,0,0,0-.176,1.31,3.986,3.986,0,0,0,.184,1.2,5.726,5.726,0,0,0,2.216,2.554,15.115,15.115,0,0,1,1.653,1.356,9.1,9.1,0,0,1,2.533,4.325,10.422,10.422,0,0,1-.094,5.222,11.236,11.236,0,0,1-2.917,5.463,4.707,4.707,0,0,1-4.314,1.465l-1.323,5.169-2.728-1.065,1.271-4.963a7.1,7.1,0,0,1-3.192-4.282,12.123,12.123,0,0,1,.047-6.457l2.825,1.1a7.032,7.032,0,0,0,.086,4.011,3.927,3.927,0,0,0,2.368,2.256,2.879,2.879,0,0,0,2.889-.292,5.2,5.2,0,0,0,1.838-3.081,8.342,8.342,0,0,0,.245-1.455,4.917,4.917,0,0,0-.044-1.243,5.655,5.655,0,0,0-2.379-3.417c-.221-.176-.391-.305-.5-.4a10.122,10.122,0,0,1-3.4-4.394,8.852,8.852,0,0,1-.095-5.3,9.658,9.658,0,0,1,2.629-4.865,4.858,4.858,0,0,1,4.14-1.312l1.09-4.26Z" transform="translate(-3831.558 -2234.845)" fill="#ffc910"/>
        </g>
      </g>
      <g id="Grupo_17979" data-name="Grupo 17979" transform="translate(3642.137 1859.937)">
        <g id="Grupo_17976" data-name="Grupo 17976" transform="translate(14.787 16.419)">
          <g id="Grupo_17975" data-name="Grupo 17975" transform="translate(0 15.959)">
            <path id="Trazado_45309" data-name="Trazado 45309" d="M3910.092,1956.986s-.083.873-4.272.873a75.963,75.963,0,0,1-10.266-1.051l9.723-.911S3909,1955.725,3910.092,1956.986Z" transform="translate(-3891.59 -1955.889)" fill="#e2c59c"/>
            <path id="Trazado_45310" data-name="Trazado 45310" d="M3891.664,1958.562c-2.363-.008-3.381,1.173-4.319,1.538a16.588,16.588,0,0,0-1.875.912c.529-1.009,1.292-1.036,1.676-1.362s.283-.163-.557-.227c-.478-.037-1.323.8-1.93,1.269a1.915,1.915,0,0,1-.854.433,10.5,10.5,0,0,1,1.4-1.534,12.1,12.1,0,0,1,2.387-1.623,9.268,9.268,0,0,1,3.211-.093C3892.069,1958.049,3893.366,1958.567,3891.664,1958.562Z" transform="translate(-3883.805 -1957.146)" fill="#e2c59c"/>
            <path id="Trazado_45311" data-name="Trazado 45311" d="M3888.956,1958.467a12.849,12.849,0,0,0-2.129.692c-.222.165-1.148,1.132-1.148,1.132a2.362,2.362,0,0,0,1.069-.472A20.455,20.455,0,0,1,3888.956,1958.467Z" transform="translate(-3885.047 -1957.597)" fill="#e2c59c"/>
          </g>
          <path id="Trazado_45312" data-name="Trazado 45312" d="M3918.422,1953.921s4.573.288,4.258,3a2.119,2.119,0,0,1-2.6,1.964c-2.568-.209-5.478-.584-5.478-.584l-1.3-4.216Z" transform="translate(-3903.347 -1938.626)" fill="#0063cb"/>
          <path id="Trazado_45313" data-name="Trazado 45313" d="M3929.161,1924.265l4.485-13.962s.66-2.046,1.748-1.661c1.569.554.791,2.227.654,3.219a32.779,32.779,0,0,1-1.543,7.78c-.894,3.007-1.666,6.472-2.446,8.449-.537,1.363-1.45-.589-2.832-1.135C3926.649,1925.936,3929.161,1924.265,3929.161,1924.265Z" transform="translate(-3913.129 -1908.594)" fill="#0063cb"/>
        </g>
        <path id="Trazado_45314" data-name="Trazado 45314" d="M3933.373,1878.947a5.821,5.821,0,1,0,3.555-7.328A5.761,5.761,0,0,0,3933.373,1878.947Z" transform="translate(-3901.641 -1867.445)" fill="#001f46"/>
        <path id="Trazado_45315" data-name="Trazado 45315" d="M3913.324,1870.487a4.376,4.376,0,0,0,6.089,1.105l-.283-2.332a4.377,4.377,0,0,0,1.105-6.09l-.935-1.348a4.377,4.377,0,0,0-6.09-1.107l-.9.624a4.376,4.376,0,0,0-1.105,6.089Z" transform="translate(-3886.656 -1859.937)" fill="#001f46"/>
        <path id="Trazado_45316" data-name="Trazado 45316" d="M3912.126,1872.574a8.646,8.646,0,0,0,.789.953c1.963,2.059,4.583,2.84,6.267,1.994a13.319,13.319,0,0,0,2.44,2.433,9.021,9.021,0,0,0,3.273,1c1.378,1.433-3.768,9.872-4.121,9.841-.75-.065-1.71-4.728-1.012-6.419.313-.758.841-1.674.69-2.081a2.666,2.666,0,0,0-2.046-1.918,3.584,3.584,0,0,0-2.792.462.5.5,0,0,1-.4.078,3.1,3.1,0,0,1-.634-.675l-2.055-2.966A3.093,3.093,0,0,1,3912.126,1872.574Z" transform="translate(-3887.685 -1868.31)" fill="#e9d6b8"/>
        <path id="Trazado_45317" data-name="Trazado 45317" d="M3941.022,1927.891a15.082,15.082,0,0,1-2.176,2.153c-.682.29-2.767-.32-2.767-.32s-.553-8.889-1.191-12.359-1.585-4.38-1.626-5.471c-.063-1.745-1.574-2.451-1.324-3.819s.7-6.226.854-5.578c1.307,5.516,2.914.937,3.258.208C3936.238,1902.3,3941.022,1927.891,3941.022,1927.891Z" transform="translate(-3900.89 -1888.096)" fill="#fec00f"/>
        <path id="Trazado_45318" data-name="Trazado 45318" d="M3932.109,1897.647s-2.021,2.151-1.882,2.988-.869,3.491.13,7.164a52.056,52.056,0,0,1,1.939,9.773c.215,2.74-.747,5.257-.372,8.616.293,2.631.924,2.79.924,2.79a2.195,2.195,0,0,0,2.075-.734c.862-1.02-.43-9.989-.859-12.234s-1.8-7.488-2.157-9.024a16.638,16.638,0,0,1-.341-4.4,18.682,18.682,0,0,1,.571-3.921C3932.171,1898.541,3932.284,1897.393,3932.109,1897.647Z" transform="translate(-3899.565 -1884.898)" fill="#387bff"/>
        <path id="Trazado_45319" data-name="Trazado 45319" d="M3946.892,1894.284a6.08,6.08,0,1,0,3.713-7.654A6.019,6.019,0,0,0,3946.892,1894.284Z" transform="translate(-3910.589 -1877.38)" fill="#001f46"/>
        <path id="Trazado_45320" data-name="Trazado 45320" d="M3901.966,2062.675l1.136,8.717-4.913,2.254-2.728.575,4.84-3.614-1.583-7.865Z" transform="translate(-3876.741 -1994.264)" fill="#e9d6b8"/>
        <path id="Trazado_45321" data-name="Trazado 45321" d="M3901,2088.282l-1.066.278-.716-.644-3.924,1.907-3.481.8a.643.643,0,0,1,.074-.419,15.728,15.728,0,0,1,2.875-1.782s.04.808.386.831a26.16,26.16,0,0,0,4.049-1.927c1.2-.732,1.422-1.186,1.513-1.13C3900.955,2086.34,3901,2088.282,3901,2088.282Z" transform="translate(-3874.321 -2009.841)" fill="#161711"/>
        <path id="Trazado_45322" data-name="Trazado 45322" d="M3856.058,2024.97l-3.9,7.429-5.4-.265-2.685-.746,5.962-.975,3.255-6.347Z" transform="translate(-3842.692 -1968.682)" fill="#e9d6b8"/>
        <path id="Trazado_45323" data-name="Trazado 45323" d="M3849.126,2047.3l-1.073-.245-.339-.9-4.841-.069-2.891-.656a2.461,2.461,0,0,1,.565-.466,16.559,16.559,0,0,1,2.929-.393s-.241.632.056.814a24.718,24.718,0,0,0,4.438.23c1.4-.1,1.807-.4,1.863-.3C3849.979,2045.552,3849.126,2047.3,3849.126,2047.3Z" transform="translate(-3839.983 -1982.267)" fill="#161711"/>
        <path id="Trazado_45324" data-name="Trazado 45324" d="M3900.952,1960.911l-2.912,1.267.012,3.865-20.012-3.149s-1.908-.588-3.123,2.425c-1.729,4.291-6.13,17.628-6.13,17.628l2.786,2.913,8.738-15.07s17.9,8.4,23.808,6.585c2.265-.7,4-4.7,3.672-8.738a51.928,51.928,0,0,0-.887-6.079Z" transform="translate(-3859.068 -1926.839)" fill="#194866"/>
        <path id="Trazado_45325" data-name="Trazado 45325" d="M3916.466,1993.678l-14.327-1.03,1.231,22.107-4.225.134L3896.025,1989s.843-3.853,3.578-3.272S3908.96,1991.38,3916.466,1993.678Z" transform="translate(-3877.114 -1943.241)" fill="#163f59"/>
        <path id="Trazado_45326" data-name="Trazado 45326" d="M3957.726,1936s-7.518-8.136-9.468-12.745c-2.33-5.5-2.129-12.413-2.558-14.7-.79-4.2-1.748-12.378-1.932-13.388a3.769,3.769,0,0,1,.463-2.147s-.492-3.057.928-2.729a24.69,24.69,0,0,1,4.743,1.867c1.319.586,4.036,15.959,4.189,16.7.553,2.684,2.6,5.1,4.044,7.613a39.012,39.012,0,0,1,4.283,12.9S3962,1934.536,3957.726,1936Z" transform="translate(-3908.726 -1880.035)" fill="#387bff"/>
        <g id="Grupo_17977" data-name="Grupo 17977" transform="translate(20.766 33.152)">
          <path id="Trazado_45327" data-name="Trazado 45327" d="M3929.515,1959.71s-.064,1-4.855.757a89.28,89.28,0,0,1-11.784-1.789l11.091-.493S3928.219,1958.2,3929.515,1959.71Z" transform="translate(-3909.045 -1958.185)" fill="#e9d6b8"/>
          <path id="Trazado_45328" data-name="Trazado 45328" d="M3909.111,1959.7c-2.281-.043-3.265,1.094-4.171,1.435a15.565,15.565,0,0,0-1.81.862c.512-.977,1.249-.991,1.62-1.3s.273-.153-.538-.23c-.461-.044-1.277.764-1.864,1.209a1.812,1.812,0,0,1-.825.411,9.887,9.887,0,0,1,1.35-1.476,11.467,11.467,0,0,1,2.305-1.549,8.825,8.825,0,0,1,3.1-.04C3909.5,1959.208,3910.754,1959.733,3909.111,1959.7Z" transform="translate(-3901.523 -1958.663)" fill="#e9d6b8"/>
          <path id="Trazado_45329" data-name="Trazado 45329" d="M3906.5,1959.5a12.167,12.167,0,0,0-2.055.643c-.214.158-1.11,1.089-1.11,1.089a2.23,2.23,0,0,0,1.031-.446A19.422,19.422,0,0,1,3906.5,1959.5Z" transform="translate(-3902.726 -1959.058)" fill="#e9d6b8"/>
        </g>
        <path id="Trazado_45330" data-name="Trazado 45330" d="M3950.914,1952.41l7.107-3.594s.02,4.376.051,6.036.763,4.021-.595,4.366-2.08.171-.668.958,1.077,1.617.548,2.3,2.292,7.158,2.292,7.158-.184.125-.722.528c-2.2-2.677-4.889-5.689-5.914-8.109A32.977,32.977,0,0,1,3950.914,1952.41Z" transform="translate(-3913.482 -1918.825)" fill="#0063cb"/>
        <path id="Trazado_45331" data-name="Trazado 45331" d="M3945.671,1914.847l-.271-13.93s.028-4.347.1-5.627c.078-1.322,2.41.233,2.41.233s3.263,4.273,3.333,14.554c.047,6.876-.349,10.464-3.629,10.179-3.062-.266-6.53-.716-6.53-.716l-1.525-4.591Z" transform="translate(-3905.96 -1883.007)" fill="#387bff"/>
        <g id="Grupo_17978" data-name="Grupo 17978" transform="translate(9.142 22.403)">
          <rect id="Rectngulo_4378" data-name="Rectngulo 4378" width="0.506" height="24.602" transform="translate(5.418 13.854) rotate(-83.12)" fill="#cdd5d7"/>
          <path id="Trazado_45332" data-name="Trazado 45332" d="M3886.2,1941.3a.672.672,0,0,1-.7.63l-12.524-1.511c-.341-.042-.773-.346-1.07-1.383l-4.829-12.054a.652.652,0,0,1,.809-.621l12.8,1.936a1.218,1.218,0,0,1,.709.956Z" transform="translate(-3867.076 -1926.329)" fill="#cdd5d7"/>
          <path id="Trazado_45333" data-name="Trazado 45333" d="M3895.065,1968.826l.127.015,12.229,1.475a4.589,4.589,0,0,1-2.046.144l-10.23-1.234-.126-.016-10.227-1.233a4.608,4.608,0,0,1-1.956-.627Z" transform="translate(-3877.518 -1953.508)" fill="#b7bec0"/>
        </g>
        <path id="Trazado_45334" data-name="Trazado 45334" d="M3943.557,1889.652a25.266,25.266,0,0,0-.594,4.633c-.055,2.372,2.461,14.844,2.461,14.844l-.7-11.148-.716-1.636.84-.279a47.041,47.041,0,0,0,.265-5.168l-.156-1.011Z" transform="translate(-3908.213 -1879.625)" fill="#0063cb"/>
        <path id="Trazado_45335" data-name="Trazado 45335" d="M3933.711,1896.795a36.959,36.959,0,0,0-.607,7.535,93.427,93.427,0,0,0,2.076,9.637s-2.442-9.066-2.788-9.023.173-1.422.173-1.422l-.571-.367s-.193-4.118.627-5.271S3933.711,1896.795,3933.711,1896.795Z" transform="translate(-3900.934 -1884.357)" fill="#0063cb"/>
        <path id="Trazado_45336" data-name="Trazado 45336" d="M3976.973,1983.352l-2.686,3.749s3.328,5.628,4.848,5.176,1.327-2,1.424-3.33S3976.973,1983.352,3976.973,1983.352Z" transform="translate(-3928.968 -1941.707)" fill="#0063cb"/>
        <path id="Trazado_45337" data-name="Trazado 45337" d="M3939.786,1922.89l.189-.234,5.845-.1-.271-13.93a13.626,13.626,0,0,1,.646-2.232c.1,1.526.832,12.5.928,13.955.1,1.561,1.422,1.734,1.716,2.237s.041.608-.931.411-.613-.048-.4.462-.324.37-2.2-.289c-1.362-.48-3.994,0-5.329.3Z" transform="translate(-3906.108 -1890.719)" fill="#0063cb"/>
      </g>
      <g id="Grupo_17982" data-name="Grupo 17982" transform="translate(3693.058 1923.398)">
        <g id="Grupo_17980" data-name="Grupo 17980" transform="translate(44.91 16.513)">
          <path id="Trazado_45338" data-name="Trazado 45338" d="M4131.122,2206.077l2.208-1.492.25-.312-.368-.489-.5.107-.039-1.52-2.467-.222-1.3-.478,1.5,4" transform="translate(-4127.243 -2166.332)" fill="#e9d6b8"/>
          <path id="Trazado_45339" data-name="Trazado 45339" d="M4136.511,2168.71,4129,2179.647s.431,1.463,1.036.614c.074-.1-.358-.366.128-.69,1.967-1.3,6.659-3.452,8.3-5.338a30.015,30.015,0,0,0,3.608-5.305Z" transform="translate(-4127.303 -2144.492)" fill="#e9d6b8"/>
          <rect id="Rectngulo_4379" data-name="Rectngulo 4379" width="3.326" height="3.017" transform="translate(3.228 32.425) rotate(-51.949)" fill="#e7f5fe"/>
          <path id="Trazado_45340" data-name="Trazado 45340" d="M4126,2107.229l7.045,10.978-5.286,10.1s2.609,2.893,3.452,2.392c5.821-3.468,9.459-13.045,9.459-13.045l-11.178-16.383-3.287-4.314C4122.053,2096.438,4124.75,2108.413,4126,2107.229Z" transform="translate(-4123.979 -2096.94)" fill="#163f59"/>
        </g>
        <path id="Trazado_45341" data-name="Trazado 45341" d="M4019.145,2108.918a39.976,39.976,0,0,1-8.633-8.052c-1.615-1.927-.822.163-.55,2.583s4.966,5.991,9.388,8.551C4023.254,2114.26,4019.145,2108.918,4019.145,2108.918Z" transform="translate(-4003.237 -2082.528)" fill="#e9d6b8"/>
        <path id="Trazado_45342" data-name="Trazado 45342" d="M3998.548,2093.464s.765-2.593.369-3.24-1.992-2.909-1.992-2.909l-.457-.54s-.831.215.259,1.723.185,1.085.185,1.085l-1.471-.961-1.886-1.031-.783-.572s-.422-.359-.589-.353c-.487.019-.293.412-.293.412l2.869,2.5-3.228-1.532s-.443-.122-.583.088,0,.272,0,.272l3.274,2.658-1.748-.589s-.438-.106-.583.091c-.159.217-.207.271-.207.271l6.443,3.268Z" transform="translate(-3990.888 -2073.62)" fill="#e9d6b8"/>
        <rect id="Rectngulo_4380" data-name="Rectngulo 4380" width="3.326" height="2.678" transform="matrix(0.803, -0.596, 0.596, 0.803, 5.957, 21.134)" fill="#e7f5fe"/>
        <path id="Trazado_45343" data-name="Trazado 45343" d="M4037.7,2102.087s.424,2.034-6.969,10.249c-4.132,4.591-6.349,6.5-8.981,5.782-4.508-1.227-13.561-11.879-13.561-11.879l3.88-4.619s9.27,8.075,10.3,8.486c.646.259,4.669-5.161,8.652-10.684C4031.023,2099.421,4037.206,2101.53,4037.7,2102.087Z" transform="translate(-4002.354 -2082.071)" fill="#163f59"/>
        <g id="Grupo_17981" data-name="Grupo 17981" transform="translate(34.411)">
          <path id="Trazado_45344" data-name="Trazado 45344" d="M4109.528,2069.081c-.209.7.011,1.388.489,1.53h0c.479.143,1.036-.312,1.245-1.018l.263-.885c.208-.7-.011-1.389-.491-1.531h0c-.478-.14-1.035.313-1.243,1.018Z" transform="translate(-4103.853 -2060.69)" fill="#e9d6b8"/>
          <path id="Trazado_45345" data-name="Trazado 45345" d="M4095.162,2069.853c.051,1.287.69,2.427,1.412,2.513q1.031.045,2.062.092c.728-.023,1.464-1.1,1.627-2.379q.393-3.158.787-6.315c.169-1.262-.214-3.827-1.278-4.627a2.738,2.738,0,0,0-3.156-.138c-1.129.7-1.738,3.225-1.681,4.5Q4095.05,2066.675,4095.162,2069.853Z" transform="translate(-4094.234 -2055)" fill="#e2c59c"/>
          <path id="Trazado_45346" data-name="Trazado 45346" d="M4092.865,2063.243c.277,1.209.757,1.516,1.624,1.686.827.118,1.026.211,1.853.33.876.081,1.824-1.044,2.076-2.1.406-1.743,1.425-3.143,1.83-4.884a2.541,2.541,0,0,0-1.4-2.826c-1.143-.735-2.473-2.19-3.743-1.8-1.391.44-2.231,2.486-2.216,3.57C4092.89,2059.014,4092.864,2061.442,4092.865,2063.243Z" transform="translate(-4092.865 -2051.698)" fill="#e9d6b8"/>
          <path id="Trazado_45347" data-name="Trazado 45347" d="M4101.04,2053.236l-.7,1.344s-1.291-1.592-2.194-2.889c-.285-.409-3.384-.58-4.16-.477-.564.076-.662.792-.808,1.2-.527,1.473.308-2.5.308-2.5a4.218,4.218,0,0,1,3.113-1.907c1.092-.04,1.571.616,1.948,1.456.088.2-1.186-.366-.96-.385a13.6,13.6,0,0,1,1.319,1.26,6.761,6.761,0,0,0,.627,1.259C4100.521,2053.056,4101.04,2053.236,4101.04,2053.236Z" transform="translate(-4092.957 -2048.004)" fill="#163f59"/>
          <path id="Trazado_45348" data-name="Trazado 45348" d="M4098.8,2065.333l-.86.082.208.532-.689.223-.783,2.6,1.118.132.245-1.6.717-.779,1.729-.083Z" transform="translate(-4095.387 -2059.486)" fill="#e2c59c"/>
        </g>
        <path id="Trazado_45349" data-name="Trazado 45349" d="M4044.841,2350.951l.005,2.778-.3,2.334-.876.7-.679.271-.167.4-2.27,1.807a4.221,4.221,0,0,1-2.663.4c-.386-.057.052-1.135.17-1.3a19.055,19.055,0,0,1,1.757-2.039l1.676-2.477,1.871-3.081Z" transform="translate(-4021.926 -2248.583)" fill="#161711"/>
        <path id="Trazado_45350" data-name="Trazado 45350" d="M4122.211,2359.724l-.505,1.157-.218,1.273.218,1.979,1.083.067.8-.242.562.326a42.278,42.278,0,0,0,4.23.284c1.9-.1,2.915-.382,3.255-.779.189-.222-.724-.547-1.02-.568a11.1,11.1,0,0,1-3.557-1.039l-1.518-1.446-.361-1.084Z" transform="translate(-4077.419 -2254.491)" fill="#161711"/>
        <path id="Trazado_45351" data-name="Trazado 45351" d="M4077.117,2095.465l6.543-2.8,2.221,1.344,4.011-1.032a50.987,50.987,0,0,0,5.142,2.8c.469,0-.156,26.174-.156,26.174l-11.841,3.74-4.518-2.96Z" transform="translate(-4048.02 -2077.592)" fill="#d1dbea"/>
        <path id="Trazado_45352" data-name="Trazado 45352" d="M4059.224,2177.371l-12.095,61.417,4.36-.137,6.7-19.8,1.528-5.925,7.057-23.432,1.786-12.564Z" transform="translate(-4028.151 -2133.423)" fill="#163f59"/>
        <path id="Trazado_45353" data-name="Trazado 45353" d="M4109.46,2237.961l-.938-24.837-2.068-11.238-2.669-15.438,1.069-10.583,9.49-.6-.375,17.8.969,15.944.19,6.022-.5,23.827Z" transform="translate(-4065.689 -2132.323)" fill="#163f59"/>
        <path id="Trazado_45354" data-name="Trazado 45354" d="M4079.492,2132.862l1.386-33.823.935-5.892-6.816,2.117-.435,35.338Z" transform="translate(-4046.327 -2077.914)" fill="#194866"/>
        <path id="Trazado_45355" data-name="Trazado 45355" d="M4111.287,2092.661l1.817,3.48,1.143,25.817-1.775,10.373,7.789-.818-.717-32.468-1.748-4.923Z" transform="translate(-4070.66 -2077.592)" fill="#194866"/>
        <path id="Trazado_45356" data-name="Trazado 45356" d="M4085.146,2111.215l-2.027-10.127,1.247-1.87-1.09-4.83,1.09-1.557,3.271-1.091-1.089,11.372-.624,14.957Z" transform="translate(-4051.997 -2076.982)" fill="#163f59"/>
        <path id="Trazado_45357" data-name="Trazado 45357" d="M4111.309,2092.4c-.155.467,1.647,3.778,1.647,3.778l.987,18.747,2.337-13.866-.624-2.492.624-1.558-1.94-3.943Z" transform="translate(-4070.668 -2077.416)" fill="#163f59"/>
        <path id="Trazado_45358" data-name="Trazado 45358" d="M4096.951,2092.239l-1.592,1.786-1.24-3.018.4-.793Z" transform="translate(-4059.285 -2075.971)" fill="#b0bfde"/>
        <path id="Trazado_45359" data-name="Trazado 45359" d="M4106.641,2090.042l-2.343,2.089,1.548,1.858,1.306-3.011Z" transform="translate(-4066.029 -2075.857)" fill="#b0bfde"/>
      </g>
      <g id="Grupo_17991" data-name="Grupo 17991" transform="translate(3558.307 1934.884)">
        <path id="Trazado_45360" data-name="Trazado 45360" d="M3628.7,2181.993s13.487.028,18.694.108c3.6.054,3.93-5.082,2.509-5.854-4.313-2.348-17.772-3.553-17.772-3.553l-9.155,8.406S3623.491,2181.086,3628.7,2181.993Z" transform="translate(-3612.373 -2142.104)" fill="#194866"/>
        <path id="Trazado_45361" data-name="Trazado 45361" d="M3675.529,2118.518s3.469-.971,4.978,3.557c2.318,6.948,2.113,13.324,1.791,14.682-.149.625-.594,2.785-4.468,2.868-1.571.035-.944-3.333-.944-3.333a73.381,73.381,0,0,1-2.08-7.7A21.344,21.344,0,0,1,3675.529,2118.518Z" transform="translate(-3646.486 -2106.152)" fill="#b0bfde"/>
        <path id="Trazado_45362" data-name="Trazado 45362" d="M3638.382,2113.311l-8.892-2.877-6.734-.453-7.375,2.233s-2.414,1.664-.173,7.01,1.38,13.726,1.38,13.726l19.029.609a154.468,154.468,0,0,1,1.621-15.492C3637.518,2116.338,3637.553,2114.3,3638.382,2113.311Z" transform="translate(-3606.593 -2100.553)" fill="#bdcfe8"/>
        <path id="Trazado_45363" data-name="Trazado 45363" d="M3646.93,2134.281h.971a80.666,80.666,0,0,0-.151-22.646c-.292.175-.583.349-.877.522C3647.118,2119.777,3646.7,2127.4,3646.93,2134.281Z" transform="translate(-3628.195 -2101.649)" fill="#b0bfde"/>
        <g id="Grupo_17983" data-name="Grupo 17983" transform="translate(15.657 2.825)">
          <path id="Trazado_45364" data-name="Trazado 45364" d="M3644.811,2099.565a2.212,2.212,0,0,1-1.856,1.964h-2.513a2.21,2.21,0,0,1-1.855-1.964q-.309-2.542-.617-5.088c-.137-1.017.466-3.057,1.8-3.661a4.805,4.805,0,0,1,3.848,0c1.337.6,1.941,2.644,1.8,3.661Q3645.119,2097.024,3644.811,2099.565Z" transform="translate(-3637.952 -2090.414)" fill="#e2c59c"/>
        </g>
        <path id="Trazado_45365" data-name="Trazado 45365" d="M3639.883,2116.377l-1.6,2.617-2.924-3.658.46-1.925.949-.778.012,1.447Z" transform="translate(-3620.578 -2102.311)" fill="#b0bfde"/>
        <path id="Trazado_45366" data-name="Trazado 45366" d="M3649.334,2116.345l1.594,2.617,2.722-3.408-.446-2.088-.681-.88-.276,1.711Z" transform="translate(-3629.836 -2102.279)" fill="#b0bfde"/>
        <g id="Grupo_17984" data-name="Grupo 17984" transform="translate(15.092 0)">
          <path id="Trazado_45367" data-name="Trazado 45367" d="M3640.21,2082.042a2,2,0,0,0-1.684.909h-.691a1.558,1.558,0,0,0-1.558,1.559v3.851h1.1v-1.567a1.1,1.1,0,0,1,1.1-1.1h.3a2.012,2.012,0,0,0,2.012-2.012v-1.645Z" transform="translate(-3636.277 -2082.042)" fill="#163f59"/>
          <path id="Trazado_45368" data-name="Trazado 45368" d="M3638.266,2100.869a.954.954,0,0,1-.955.954h-.08a.954.954,0,0,1-.954-.954v-1.158a.954.954,0,0,1,.954-.954h.08a.959.959,0,0,1,.875.568" transform="translate(-3636.277 -2093.117)" fill="#e2c59c"/>
          <path id="Trazado_45369" data-name="Trazado 45369" d="M3645.4,2083.572v-1.53h3.3a2.011,2.011,0,0,1,2.013,2.011v1.53h-3.305A2.01,2.01,0,0,1,3645.4,2083.572Z" transform="translate(-3642.319 -2082.042)" fill="#163f59"/>
          <path id="Trazado_45370" data-name="Trazado 45370" d="M3645.312,2093.033a3.149,3.149,0,0,1-1.627,2.582,5.851,5.851,0,0,1-4.384,0,3.141,3.141,0,0,1-1.627-2.582v-6.812a1.691,1.691,0,0,1,1.788-1.5h4.061a1.689,1.689,0,0,1,1.789,1.5Z" transform="translate(-3637.203 -2083.816)" fill="#e9d6b8"/>
          <path id="Trazado_45371" data-name="Trazado 45371" d="M3648.02,2082.042a2,2,0,0,1,1.681.909h.692a1.559,1.559,0,0,1,1.559,1.559v3.851h-1.1v-1.567a1.1,1.1,0,0,0-1.1-1.1h-1.4a2.011,2.011,0,0,1-2.012-2.012v-1.645Z" transform="translate(-3642.948 -2082.042)" fill="#163f59"/>
          <path id="Trazado_45372" data-name="Trazado 45372" d="M3657.11,2099.71a.952.952,0,0,1,.954-.952h.081a.952.952,0,0,1,.954.952v1.159a.955.955,0,0,1-.954.955h-.081a.958.958,0,0,1-.874-.568" transform="translate(-3650.081 -2093.117)" fill="#e9d6b8"/>
          <path id="Trazado_45373" data-name="Trazado 45373" d="M3639.674,2083.965a2.061,2.061,0,0,0,.038-.394v-1.53h-1.423a2.011,2.011,0,0,0-2.012,2.011v1.53h1.425a1.94,1.94,0,0,0,.412-.044A2.021,2.021,0,0,1,3639.674,2083.965Z" transform="translate(-3636.277 -2082.042)" fill="#163f59"/>
        </g>
        <path id="Trazado_45374" data-name="Trazado 45374" d="M3593.794,2270.313c-.206.251-.055.914-.055.914a24.368,24.368,0,0,0,4.8.13,6.272,6.272,0,0,0,1.3-.609c.08-.047.226-.327.3-.373.146-.087.222.058.346-.02a3.957,3.957,0,0,0,.555-.382,3.451,3.451,0,0,0-.106-2.336s-3.091-1.028-3.67-.314C3595.9,2269.012,3594.249,2269.762,3593.794,2270.313Z" transform="translate(-3592.965 -2204.635)" fill="#161711"/>
        <path id="Trazado_45375" data-name="Trazado 45375" d="M3694.57,2268.207l.251,2.742,2.746.269s.191-.367.423-.344c.2.019.412.425.677.451.577.059,1.219.119,1.474.146l5.51.539s.18-.554.046-.764a2.654,2.654,0,0,0-.806-.443c-1.381-.536-5.315-2.178-5.889-3.6C3698.3,2265.466,3694.57,2268.207,3694.57,2268.207Z" transform="translate(-3659.808 -2204.34)" fill="#161711"/>
        <g id="Grupo_17985" data-name="Grupo 17985" transform="translate(21.327 29.142)">
          <path id="Trazado_45376" data-name="Trazado 45376" d="M3664.037,2168.408l-9.284,3.791s6.586.939,10.7.1C3668.239,2171.731,3664.163,2168.288,3664.037,2168.408Z" transform="translate(-3654.753 -2168.405)" fill="#e9d6b8"/>
        </g>
        <path id="Trazado_45377" data-name="Trazado 45377" d="M3604.255,2184.117s-.893,8.478-.767,12.961a97.1,97.1,0,0,1-.7,15.38c-.05.339-4.368.085-4.368.085s-1.55-21.018-2.01-24.478S3597.291,2182.105,3604.255,2184.117Z" transform="translate(-3594.718 -2149.197)" fill="#194866"/>
        <path id="Trazado_45378" data-name="Trazado 45378" d="M3689.46,2188.672s-1.39,2.2-5.207,2.718c-1.38.188,2.223,24.6,2.223,24.6l5.64-1.806-1.091-27Z" transform="translate(-3652.764 -2151.707)" fill="#163f59"/>
        <path id="Trazado_45379" data-name="Trazado 45379" d="M3617.985,2181.758s-7.373,1.052-12.294,1.567c-1.8.189-3.366-4.86-3.574-5.08a3.731,3.731,0,0,0-2.573-1.254c1.066-1.152,6.589-2.222,12.358-3.576s6.647-.5,6.647-.5Z" transform="translate(-3596.845 -2142.075)" fill="#163f59"/>
        <path id="Trazado_45380" data-name="Trazado 45380" d="M3611.9,2173.414c-5.769,1.354-11.292,2.424-12.358,3.576a3.731,3.731,0,0,1,2.573,1.254c.056.061.389,1.681.625,2.259-.939-1.7,12.62-6.475,15.551-7.711C3617.744,2172.617,3616.149,2172.417,3611.9,2173.414Z" transform="translate(-3596.845 -2142.074)" fill="#194866"/>
        <path id="Trazado_45381" data-name="Trazado 45381" d="M3611.357,2196.377l-.565,16.5-.563,3.825-.063-3.825.124-2.385-1.316-3.7-.691-8.6,1.005.377-.126-3.764Z" transform="translate(-3602.636 -2156.758)" fill="#163f59"/>
        <path id="Trazado_45382" data-name="Trazado 45382" d="M3695.4,2185.514l1.379.377.5,19.82-2.887,7.089,1.379-4.83-.564-9.973s-2.008,4.829-2.008,4.58,1.694-10.476,1.694-10.476a22.456,22.456,0,0,0-1.694,1.5C3693.395,2193.543,3694.336,2186.455,3695.4,2185.514Z" transform="translate(-3658.894 -2150.599)" fill="#194866"/>
        <path id="Trazado_45383" data-name="Trazado 45383" d="M3604.413,2115.61s-2.964-2.322-5.862,1.988a58.341,58.341,0,0,0-6.77,14.976c-.515,1.492-.231,5.707,1.505,7.443.419.419,2.928.083,2.928.083l1.647-1.138-.689-1.325-.038-1.046s2.107-5.081,4.692-9.883S3604.413,2115.61,3604.413,2115.61Z" transform="translate(-3591.55 -2103.869)" fill="#bdcfe8"/>
        <g id="Grupo_17987" data-name="Grupo 17987" transform="translate(4.882 30.478)">
          <path id="Trazado_45384" data-name="Trazado 45384" d="M3606.755,2174.059l9.622.5s-9.269,4.252-9.574,3.52C3605.066,2173.927,3606.755,2174.059,3606.755,2174.059Z" transform="translate(-3606.019 -2173.487)" fill="#e9d6b8"/>
          <g id="Grupo_17986" data-name="Grupo 17986" transform="translate(5.948)">
            <path id="Trazado_45385" data-name="Trazado 45385" d="M3623.727,2172.64c.562-.27.511-.275.511-.275a2.307,2.307,0,0,0,1.258.725c.372.056,1.565.072,1.565.072l1.771.042.821-.044a1.518,1.518,0,0,1,.587.018c.359.229.053.414.053.414l-3.175.448,3.051.38s.383.113.4.321-.111.188-.111.188l-3.544.379,1.554.37s.372.12.4.322c.033.218.046.28.046.28l-3.259-.32S3623.165,2172.91,3623.727,2172.64Z" transform="translate(-3623.644 -2172.365)" fill="#e9d6b8"/>
            <path id="Trazado_45386" data-name="Trazado 45386" d="M3633.669,2179l2.135.389a1.773,1.773,0,0,1,.7.192.288.288,0,0,1,.1.4l-3.271-.275Z" transform="translate(-3630.067 -2176.761)" fill="#e9d6b8"/>
          </g>
        </g>
        <g id="Grupo_17990" data-name="Grupo 17990" transform="translate(8.851 20.813)">
          <path id="Trazado_45387" data-name="Trazado 45387" d="M3636.738,2182.741a.14.14,0,0,1,.009-.018l-.009-.607h-18.957v.607a.051.051,0,0,0,0,.018l.065.115a1.644,1.644,0,0,0,1.564.62h15.7a1.643,1.643,0,0,0,1.564-.62Z" transform="translate(-3617.78 -2169.16)" fill="#b6c2c9"/>
          <g id="Grupo_17988" data-name="Grupo 17988" transform="translate(3.208 13.097)">
            <rect id="Rectngulo_4381" data-name="Rectngulo 4381" width="12.552" height="0.427" fill="#879ba6"/>
          </g>
          <g id="Grupo_17989" data-name="Grupo 17989" transform="translate(0.016)">
            <path id="Trazado_45388" data-name="Trazado 45388" d="M3636.758,2156.744l.049-12.43a.588.588,0,0,0-.591-.592h-17.744a.6.6,0,0,0-.595.592l-.051,12.43Z" transform="translate(-3617.828 -2143.722)" fill="#e4eef3"/>
            <path id="Trazado_45389" data-name="Trazado 45389" d="M3644.849,2160.761a1.157,1.157,0,0,1-1.154,1.148,1.144,1.144,0,0,1-1.144-1.148,1.156,1.156,0,0,1,1.155-1.148A1.143,1.143,0,0,1,3644.849,2160.761Z" transform="translate(-3634.208 -2154.251)" fill="#b6c2c9"/>
          </g>
        </g>
        <path id="Trazado_45390" data-name="Trazado 45390" d="M3603.2,2177.8l-.661-4.219,1.1-1.128,2.431.389-.5,4.668Z" transform="translate(-3598.833 -2141.948)" fill="#b0bfde"/>
        <path id="Trazado_45391" data-name="Trazado 45391" d="M3683.121,2170.867l.253-1.552-3.073-2.76-1.665.751,2.174,4.163Z" transform="translate(-3649.25 -2138.037)" fill="#bdcfe8"/>
      </g>
    </g>
  </g>
</svg>
